<svg xmlns="http://www.w3.org/2000/svg" fill="none" viewBox="0 0 163 32"><g fill="#083344" opacity=".2"><path d="M.236 8.417C.26 3.397 4.156-.3 8.904.023c2.168.15 4.041 1.067 5.426 2.751 2.935 3.564 5.804 7.178 8.69 10.78 3.385 4.225 6.76 8.462 10.152 12.681 1.15 1.434 2.88 1.913 4.447 1.29 1.618-.645 2.608-2.163 2.508-3.908a3.768 3.768 0 0 0-.851-2.19c-4.059-5.07-8.128-10.136-12.142-15.24-1.062-1.356-2.296-2.128-4.037-1.884-.411.056-.817.24-1.195.423-.367.172-.628.167-.895-.184a62.952 62.952 0 0 0-1.874-2.346c-.3-.356-.26-.567.117-.828C22.591-.928 27.345-.25 29.913 2.936c2.002 2.48 3.981 4.97 5.95 7.483.366.472.566.422.906-.011 1.962-2.486 3.93-4.97 5.926-7.433 3.403-4.187 9.808-3.903 12.849.567 2.068 3.04 1.89 7.032-.756 10.257-4.065 4.959-8.04 9.99-12.01 15.027-3.24 4.114-9.317 4.264-12.698.261a30.033 30.033 0 0 1-1.345-1.673c-.29-.4-.44-.4-.662.05-1.117 2.218-2.852 3.73-5.287 4.292-3.397.778-6.205-.267-8.378-2.975-3.492-4.347-6.978-8.7-10.43-13.075-1.045-1.323-2.057-2.686-2.947-4.12C.41 10.574.225 9.368.241 8.417H.237Zm8.112-4.17c-1.535.028-2.73.684-3.442 2.047-.872 1.678-.517 3.213.645 4.647 2.324 2.874 4.626 5.765 6.933 8.656 1.796 2.252 3.58 4.509 5.382 6.755 1.062 1.323 2.963 1.79 4.492 1.128 1.579-.683 2.563-2.457 2.34-4.13-.15-1.145-.85-1.968-1.517-2.813-3.875-4.87-7.767-9.735-11.653-14.6-.812-1.017-1.807-1.712-3.18-1.695v.006Zm35.559 16.368c.106-.117.256-.278.39-.45 2.424-3.03 4.836-6.072 7.272-9.09 1.084-1.34 1.567-2.78.895-4.431-1.13-2.786-4.693-3.241-6.661-.856-.834 1.006-1.63 2.045-2.44 3.068-1.324 1.657-2.642 3.325-3.981 4.965-.306.373-.317.662 0 1.012.289.317.55.656.811.995 1.223 1.573 2.44 3.152 3.703 4.787h.01ZM148.092 14.95v-3.465h3.761v2.54h.066a4.593 4.593 0 0 1 1.055-1.484 5.313 5.313 0 0 1 1.716-1.089 5.485 5.485 0 0 1 2.144-.429c1.32 0 2.408.297 3.266.891a5.312 5.312 0 0 1 1.946 2.342c.418.968.627 2.024.627 3.167v10.03h-3.959v-8.908c0-2.815-.989-4.223-2.969-4.223-.791 0-1.473.21-2.045.627-.55.396-.968.924-1.254 1.584a5.542 5.542 0 0 0-.395 2.078v8.841h-3.959V14.95ZM137.726 27.914c-1.627 0-3.09-.33-4.387-.99a7.704 7.704 0 0 1-3.036-2.903c-.725-1.253-1.088-2.716-1.088-4.387 0-1.672.363-3.145 1.088-4.421a7.583 7.583 0 0 1 3.003-3.002c1.275-.704 2.705-1.056 4.288-1.056 1.496 0 2.815.33 3.959.99 1.166.638 2.067 1.605 2.705 2.903.66 1.276.99 2.837.99 4.685 0 .461-.011.813-.033 1.055h-12.041a3.77 3.77 0 0 0 .692 1.98 4.89 4.89 0 0 0 1.65 1.418c.682.33 1.407.495 2.177.495 1.826 0 3.222-.682 4.19-2.045l2.639 2.111c-1.562 2.111-3.827 3.167-6.796 3.167Zm3.563-9.963c0-.704-.143-1.341-.429-1.913a2.95 2.95 0 0 0-1.253-1.386c-.55-.352-1.232-.528-2.046-.528-.77 0-1.484.165-2.144.495a4.362 4.362 0 0 0-1.584 1.386 3.749 3.749 0 0 0-.659 1.946h8.115ZM127.619 27.452h-13.658v-3.497l8.544-9.303h-8.148v-3.167h12.866v3.497l-8.578 9.237h8.974v3.233ZM102.881 27.848a8.01 8.01 0 0 1-2.771-.495 5.341 5.341 0 0 1-2.276-1.583c-.594-.748-.89-1.694-.89-2.837 0-2.112 1.011-3.53 3.034-4.256 2.046-.748 4.63-1.122 7.753-1.122h.099v-.396c0-.923-.341-1.638-1.023-2.144-.682-.506-1.55-.759-2.606-.759-.814 0-1.605.176-2.375.528-.77.33-1.419.759-1.947 1.287l-2.045-2.409a8.875 8.875 0 0 1 3.068-1.847c1.188-.44 2.397-.66 3.629-.66 2.573 0 4.388.638 5.443 1.914 1.078 1.275 1.617 2.859 1.617 4.75v9.633h-3.695V25.44h-.099c-.396.703-1.045 1.286-1.946 1.748-.88.44-1.87.66-2.97.66Zm.792-3.002c1.342 0 2.364-.352 3.068-1.056.726-.726 1.089-1.726 1.089-3.002v-.56h-.891c-1.671 0-3.101.186-4.288.56-1.166.352-1.749 1.045-1.749 2.079 0 .703.264 1.21.792 1.517.55.308 1.209.462 1.979.462ZM75.805 27.452H71.78L64.951 4.095h4.553l4.52 17.155h.065l5.147-17.155h4.288l5.048 17.155h.066l4.618-17.155h4.42l-6.828 23.357h-4.025L81.347 9.935h-.066l-5.476 17.517Z"/></g></svg>