<svg width="297" height="420" viewBox="0 0 297 420" fill="none" xmlns="http://www.w3.org/2000/svg">
<rect width="297" height="420" rx="8" fill="white"/>
<rect x="180" y="69" width="97" height="16" rx="4" fill="#D1D5DB"/>
<rect x="19" y="101" width="258" height="8" rx="4" fill="#F3F4F6"/>
<rect x="19" y="117" width="258" height="8" rx="4" fill="#F3F4F6"/>
<rect x="19" y="133" width="258" height="8" rx="4" fill="#F3F4F6"/>
<rect x="19" y="269.753" width="258" height="8" rx="4" fill="#F3F4F6"/>
<rect x="19" y="164" width="125" height="96" rx="4" fill="#D1D5DB"/>
<rect x="152" y="164" width="125" height="96" rx="4" fill="#D1D5DB"/>
<g clip-path="url(#clip0_7961_9435)">
<path d="M244.65 28.2086C244.661 25.6985 246.609 23.85 248.983 24.0113C250.068 24.0863 251.004 24.545 251.697 25.3872C253.164 27.169 254.599 28.9758 256.041 30.7771C257.734 32.8896 259.422 35.0078 261.117 37.1176C261.693 37.8347 262.557 38.0738 263.341 37.7625C264.15 37.44 264.645 36.6812 264.595 35.8083C264.57 35.4025 264.431 35.0356 264.17 34.7131C262.14 32.178 260.105 29.6457 258.098 27.0939C257.567 26.4157 256.95 26.0293 256.08 26.1516C255.875 26.1794 255.672 26.2712 255.483 26.3629C255.299 26.4491 255.169 26.4463 255.035 26.2712C254.732 25.8737 254.421 25.4817 254.098 25.0981C253.948 24.9202 253.968 24.8146 254.157 24.6839C255.827 23.5359 258.204 23.875 259.488 25.4678C260.489 26.7076 261.479 27.9529 262.463 29.2093C262.646 29.4456 262.746 29.4206 262.916 29.2037C263.897 27.9612 264.881 26.7187 265.879 25.4873C267.58 23.3942 270.783 23.5359 272.303 25.7708C273.337 27.2913 273.248 29.2871 271.925 30.8994C269.893 33.3789 267.906 35.8945 265.921 38.4129C264.3 40.4699 261.262 40.545 259.572 38.5436C259.341 38.2712 259.11 37.996 258.899 37.7069C258.754 37.5067 258.679 37.5067 258.568 37.7319C258.009 38.841 257.142 39.5971 255.925 39.8778C254.226 40.267 252.822 39.7444 251.735 38.3907C249.99 36.217 248.247 34.0404 246.521 31.8528C245.998 31.1912 245.492 30.5102 245.047 29.793C244.736 29.2871 244.644 28.6839 244.652 28.2086H244.65ZM248.705 26.1238C247.938 26.1377 247.341 26.4657 246.985 27.1468C246.548 27.9862 246.726 28.7534 247.307 29.4706C248.469 30.9077 249.62 32.3532 250.774 33.7986C251.672 34.9244 252.564 36.0529 253.464 37.176C253.995 37.8375 254.946 38.071 255.711 37.7402C256.5 37.3983 256.992 36.5116 256.881 35.6749C256.806 35.1023 256.456 34.6909 256.122 34.2684C254.184 31.8334 252.239 29.4011 250.296 26.9689C249.89 26.4602 249.392 26.1127 248.705 26.1211V26.1238ZM266.485 34.3073C266.538 34.2489 266.613 34.1683 266.68 34.0821C267.892 32.5672 269.098 31.0467 270.316 29.5373C270.858 28.8674 271.1 28.1475 270.763 27.3219C270.199 25.9293 268.417 25.7013 267.433 26.8938C267.016 27.3969 266.619 27.9167 266.213 28.4282C265.551 29.2566 264.892 30.0905 264.222 30.9105C264.069 31.0967 264.064 31.2413 264.222 31.4164C264.367 31.5748 264.498 31.7444 264.628 31.914C265.24 32.7006 265.849 33.4901 266.48 34.3073H266.485Z" fill="#D1D5DB"/>
<path d="M218.834 36.3141C219.281 36.8506 219.932 37.1175 220.782 37.1175C221.633 37.1175 222.272 36.8534 222.698 36.3225C223.123 35.7915 223.337 35.0688 223.337 34.1515V30.1849C223.337 30.032 223.462 29.9069 223.615 29.9069H225.133C225.286 29.9069 225.411 30.032 225.411 30.1849V34.3183C225.411 35.7554 225.024 36.9257 224.249 37.8346C223.476 38.7408 222.308 39.1939 220.752 39.1939C219.195 39.1939 218.014 38.7464 217.246 37.8513C216.479 36.9562 216.093 35.7888 216.093 34.3544V30.1877C216.093 30.0348 216.218 29.9097 216.371 29.9097H217.889C218.041 29.9097 218.167 30.0348 218.167 30.1877V34.1543C218.167 35.0605 218.392 35.7832 218.839 36.3169L218.834 36.3141ZM219.982 26.5073H221.53C221.683 26.5073 221.808 26.6324 221.808 26.7853V28.3169C221.808 28.4698 221.683 28.5949 221.53 28.5949H219.982C219.829 28.5949 219.704 28.4698 219.704 28.3169V26.7853C219.704 26.6324 219.829 26.5073 219.982 26.5073Z" fill="#D1D5DB"/>
<path d="M229.408 29.9069C229.561 29.9069 229.686 30.0319 229.686 30.1848V34.7658C229.686 36.2251 229.378 37.3454 228.758 38.132C228.179 38.8631 227.304 39.419 226.131 39.7943C225.989 39.8388 225.833 39.7609 225.786 39.6192L225.291 38.1793C225.238 38.0292 225.327 37.8679 225.48 37.8207C226.236 37.5927 226.77 37.2814 227.087 36.8895C227.44 36.4475 227.618 35.7025 227.618 34.6518V30.1876C227.618 30.0347 227.743 29.9096 227.896 29.9096H229.414L229.408 29.9069ZM227.89 26.3766H229.439C229.592 26.3766 229.717 26.5017 229.717 26.6546V28.189C229.717 28.3419 229.592 28.467 229.439 28.467H227.89C227.737 28.467 227.612 28.3419 227.612 28.189V26.6546C227.612 26.5017 227.737 26.3766 227.89 26.3766Z" fill="#D1D5DB"/>
<path d="M231.593 35.6803V24.4308C231.593 24.2779 231.718 24.1528 231.871 24.1528H233.389C233.542 24.1528 233.667 24.2779 233.667 24.4308V35.6803C233.667 35.8332 233.542 35.9583 233.389 35.9583H231.871C231.718 35.9583 231.593 35.8332 231.593 35.6803Z" fill="#D1D5DB"/>
<path d="M239.071 28.6476C241.358 28.6476 242.504 30.1792 242.504 33.2397C242.504 35.3606 241.998 36.9478 240.986 37.9986C239.974 39.0493 238.504 39.6219 236.452 39.8443C236.305 39.861 236.169 39.7553 236.146 39.6108L235.916 38.1598C235.891 38.0069 235.999 37.8651 236.152 37.8429C237.294 37.6678 238.167 37.412 238.765 37.0785C239.413 36.7199 239.852 36.1695 240.083 35.4301C239.696 35.6747 239.215 35.7943 238.64 35.7943C237.678 35.7943 236.908 35.4996 236.327 34.9075C235.746 34.3154 235.457 33.4676 235.457 32.3613C235.457 31.1994 235.777 30.2904 236.419 29.6344C237.061 28.9756 237.945 28.6476 239.071 28.6476ZM238.987 34.018C239.429 34.018 239.777 33.8818 240.033 33.6122C240.285 33.3426 240.413 32.9451 240.413 32.428C240.413 31.911 240.283 31.4968 240.024 31.1938C239.766 30.8908 239.413 30.738 238.971 30.738C238.529 30.738 238.178 30.8881 237.917 31.1855C237.659 31.4829 237.528 31.8888 237.528 32.3947C237.528 32.9006 237.653 33.287 237.9 33.5788C238.148 33.8707 238.512 34.018 238.987 34.018Z" fill="#D1D5DB"/>
</g>
<path d="M19 294.994V390.527H277" stroke="#D1D5DB"/>
<path d="M28.119 376.407L81.238 336.381L158.672 354.711L189.347 322.166L272.018 307.203" stroke="#D1D5DB"/>
<defs>
<clipPath id="clip0_7961_9435">
<rect width="56.9139" height="16" fill="white" transform="translate(216.09 24)"/>
</clipPath>
</defs>
</svg>
