<svg width="209" height="48" viewBox="0 0 209 48" fill="none" xmlns="http://www.w3.org/2000/svg">
<g clip-path="url(#clip0_4215_5984)">
<path d="M67.4191 13.8868H70.6718C70.6858 13.8868 70.6993 13.8856 70.7133 13.8856C70.7185 13.8856 70.7249 13.8856 70.7293 13.8856C71.4153 13.8766 72.0418 13.7147 72.6075 13.3877C73.1815 13.7147 73.808 13.8772 74.4857 13.8856C74.4901 13.8856 74.4965 13.8856 74.5017 13.8856C74.5157 13.8856 74.5285 13.8868 74.5426 13.8868H74.5605C74.5752 13.8868 74.59 13.8856 74.6047 13.8856C74.6085 13.8856 74.6136 13.8856 74.6175 13.8856C75.3035 13.8772 75.9299 13.7147 76.4963 13.3877C77.0869 13.7237 77.7319 13.8875 78.432 13.8875H84.947C85.6554 13.8875 86.301 13.7237 86.8821 13.3877C87.4567 13.7147 88.0826 13.8772 88.7602 13.8856C88.7654 13.8856 88.7724 13.8856 88.7782 13.8856C88.7916 13.8856 88.8044 13.8868 88.8178 13.8868H88.8358C88.8358 13.8868 88.8415 13.8868 88.8447 13.8868C88.8761 13.8868 88.9017 13.8849 88.9209 13.883C89.8801 13.8606 90.7875 13.4715 91.3167 12.9423V7.25342H90.2352V12.4784C89.8718 12.6691 89.3362 12.7689 88.8268 12.7689C88.3174 12.7689 87.7908 12.6691 87.4279 12.4784V9.34276H86.3465V12.4784C85.9555 12.6691 85.4922 12.7689 84.938 12.7689H83.0752C83.6838 12.287 83.9929 11.6785 83.9929 10.9605C83.9929 9.71583 83.0477 8.87946 81.6937 8.87946C80.3396 8.87946 79.3855 9.71519 79.3855 10.9605C79.3855 11.6785 79.6946 12.287 80.3031 12.7689H78.4403C77.9226 12.7689 77.4043 12.6691 77.0415 12.4784V9.34276H75.96V12.4784C75.569 12.6691 75.1057 12.7689 74.5516 12.7689C74.0332 12.7689 73.5155 12.6691 73.1521 12.4784V9.34276H72.0706V12.4784C71.6796 12.6691 71.2163 12.7689 70.6622 12.7689H69.2812V9.75231C68.809 9.48866 68.0545 9.25253 67.2911 9.25253C65.8007 9.25253 64.8101 10.1523 64.8101 11.5697C64.8101 12.9871 65.8462 13.8868 67.4178 13.8868H67.4191ZM81.6943 9.91549C82.4123 9.91549 82.9121 10.3788 82.9121 11.0968C82.9121 11.4513 82.7847 11.7693 82.5396 12.033C82.2945 12.2966 82.0123 12.4873 81.6943 12.6236C81.3673 12.4963 81.0768 12.2966 80.831 12.033C80.586 11.7693 80.4676 11.4513 80.4676 11.0968C80.4676 10.3974 80.9763 9.91549 81.6943 9.91549ZM67.2105 10.27C67.5829 10.27 67.9195 10.343 68.201 10.4972V12.7689H67.2648C66.4291 12.7689 65.8833 12.3325 65.8833 11.5332C65.8833 10.7339 66.447 10.27 67.2098 10.27H67.2105Z" fill="#9CA3AF"/>
<path d="M66.42 8.46034C66.7745 8.46034 67.065 8.16982 67.065 7.80634C67.065 7.44287 66.7745 7.15234 66.42 7.15234C66.0476 7.15234 65.7564 7.44287 65.7564 7.80634C65.7564 8.16982 66.0469 8.46034 66.42 8.46034Z" fill="#9CA3AF"/>
<path d="M68.1929 8.46034C68.5564 8.46034 68.8469 8.16982 68.8469 7.80634C68.8469 7.44287 68.5558 7.15234 68.1929 7.15234C67.8301 7.15234 67.5473 7.44287 67.5473 7.80634C67.5473 8.16982 67.8288 8.46034 68.1929 8.46034Z" fill="#9CA3AF"/>
<path d="M72.8721 15.2043C72.8721 15.5588 73.1537 15.8493 73.5172 15.8493C73.8807 15.8493 74.1718 15.5588 74.1718 15.2043C74.1718 14.8319 73.8807 14.5503 73.5172 14.5503C73.1537 14.5503 72.8721 14.8319 72.8721 15.2043Z" fill="#9CA3AF"/>
<path d="M71.7434 15.8493C72.0979 15.8493 72.3885 15.5588 72.3885 15.2043C72.3885 14.8498 72.1069 14.5503 71.7434 14.5503C71.38 14.5503 71.0798 14.8319 71.0798 15.2043C71.0798 15.5767 71.3704 15.8493 71.7434 15.8493Z" fill="#9CA3AF"/>
<path d="M76.5164 8.52414C76.8798 8.52414 77.1704 8.23362 77.1704 7.87014C77.1704 7.50667 76.8798 7.20654 76.5164 7.20654C76.1529 7.20654 75.8528 7.49771 75.8528 7.87014C75.8528 8.24258 76.1433 8.52414 76.5164 8.52414Z" fill="#9CA3AF"/>
<path d="M80.8033 8.0894C81.1578 8.0894 81.449 7.79824 81.449 7.43476C81.449 7.07129 81.1578 6.78076 80.8033 6.78076C80.4309 6.78076 80.1397 7.07193 80.1397 7.43476C80.1397 7.7976 80.4309 8.0894 80.8033 8.0894Z" fill="#9CA3AF"/>
<path d="M82.5767 8.0894C82.9402 8.0894 83.2307 7.79824 83.2307 7.43476C83.2307 7.07129 82.9402 6.78076 82.5767 6.78076C82.2133 6.78076 81.9317 7.07193 81.9317 7.43476C81.9317 7.7976 82.2133 8.0894 82.5767 8.0894Z" fill="#9CA3AF"/>
<path d="M86.0188 8.52431C86.3733 8.52431 86.6638 8.23378 86.6638 7.87031C86.6638 7.50683 86.3733 7.21631 86.0188 7.21631C85.6464 7.21631 85.3552 7.50747 85.3552 7.87031C85.3552 8.23314 85.6464 8.52431 86.0188 8.52431Z" fill="#9CA3AF"/>
<path d="M87.7916 8.52431C88.1551 8.52431 88.4462 8.23378 88.4462 7.87031C88.4462 7.50683 88.1551 7.21631 87.7916 7.21631C87.4281 7.21631 87.1466 7.50747 87.1466 7.87031C87.1466 8.23314 87.4281 8.52431 87.7916 8.52431Z" fill="#9CA3AF"/>
<path d="M94.2353 7.25342H93.1539V13.8868H94.2353V7.25342Z" fill="#9CA3AF"/>
<path d="M98.3053 13.8861H99.0956C99.0323 14.7859 98.5683 15.2127 97.5233 15.2127C96.9871 15.2127 96.4144 15.0943 96.0599 14.958L95.8692 15.9844C96.351 16.1572 96.9506 16.2481 97.4869 16.2481C99.15 16.2481 100.176 15.4213 100.176 13.5675V9.92312C99.5128 9.58716 98.8403 9.42334 98.1773 9.42334C96.6601 9.42334 95.6874 10.332 95.6874 11.6682C95.6874 13.0043 96.6601 13.8855 98.3047 13.8855L98.3053 13.8861ZM98.1146 10.4331C98.4506 10.4331 98.7782 10.5061 99.0963 10.6603V12.7682H98.1332C97.3243 12.7682 96.7612 12.3414 96.7612 11.6048C96.7612 10.8683 97.325 10.4325 98.1153 10.4325L98.1146 10.4331Z" fill="#9CA3AF"/>
<path d="M107.719 12.7675H106.401C105.792 12.7041 105.411 12.4129 105.411 11.7954C105.411 11.2413 105.729 10.9232 106.228 10.9232C106.473 10.9232 106.692 11.0051 106.864 11.16L107.591 10.4785C107.255 10.1604 106.728 9.95117 106.174 9.95117C105.147 9.95117 104.438 10.6871 104.438 11.6687C104.438 12.1051 104.565 12.4686 104.829 12.7681H103.948V13.886H107.719V12.7681V12.7675Z" fill="#9CA3AF"/>
<path d="M109.753 13.396C110.258 13.6795 110.963 13.8753 111.739 13.8849C111.747 13.8849 111.757 13.8849 111.765 13.8856C111.776 13.8856 111.786 13.8868 111.797 13.8868H127.562C128.553 13.8868 129.498 13.4869 130.043 12.9417V7.25342H128.962V12.4784C128.598 12.6691 128.062 12.7689 127.553 12.7689H125.69C126.3 12.287 126.608 11.6785 126.608 10.9605C126.608 9.71583 125.663 8.87946 124.309 8.87946C122.955 8.87946 122.001 9.71519 122.001 10.9605C122.001 11.6785 122.31 12.287 122.918 12.7689H119.729V11.5511C119.729 10.7423 119.52 10.1151 119.102 9.68832C118.693 9.26149 118.148 9.04328 117.467 9.04328C116.367 9.04328 115.413 9.62496 114.295 10.7787V9.68832H113.214V12.7689H111.805C111.287 12.7689 110.769 12.6691 110.397 12.4784V7.25342H109.316V12.6512C109.316 13.0421 109.425 13.2239 109.752 13.396H109.753ZM124.31 9.91549C125.028 9.91549 125.528 10.3788 125.528 11.0968C125.528 11.4513 125.4 11.7693 125.155 12.033C124.91 12.2966 124.628 12.4873 124.31 12.6236C123.983 12.4963 123.692 12.2966 123.447 12.033C123.202 11.7693 123.083 11.4513 123.083 11.0968C123.083 10.3973 123.592 9.91549 124.31 9.91549ZM114.297 12.1053C115.487 10.7243 116.378 10.0972 117.295 10.0972C117.777 10.0972 118.122 10.2514 118.331 10.5605C118.549 10.8696 118.659 11.26 118.659 11.7239V12.7689H114.297V12.1053Z" fill="#9CA3AF"/>
<path d="M115.351 8.22385C115.715 8.22385 116.005 7.93268 116.005 7.56985C116.005 7.20701 115.715 6.90625 115.351 6.90625C114.988 6.90625 114.688 7.19677 114.688 7.56985C114.688 7.94292 114.979 8.22385 115.351 8.22385Z" fill="#9CA3AF"/>
<path d="M124.303 8.08923C124.667 8.08923 124.957 7.79807 124.957 7.43459C124.957 7.07112 124.667 6.771 124.303 6.771C123.94 6.771 123.64 7.06216 123.64 7.43459C123.64 7.80703 123.93 8.08923 124.303 8.08923Z" fill="#9CA3AF"/>
<path d="M132.961 7.25342H131.88V13.8868H132.961V7.25342Z" fill="#9CA3AF"/>
<path d="M137.031 13.8861H137.822C137.758 14.7859 137.295 15.2127 136.25 15.2127C135.714 15.2127 135.142 15.0943 134.787 14.958L134.597 15.9844C135.078 16.1572 135.678 16.2481 136.214 16.2481C137.877 16.2481 138.904 15.4213 138.904 13.5675V9.92312C138.241 9.58716 137.568 9.42334 136.905 9.42334C135.387 9.42334 134.415 10.332 134.415 11.6682C134.415 13.0043 135.387 13.8855 137.033 13.8855L137.031 13.8861ZM136.841 10.4331C137.177 10.4331 137.504 10.5061 137.822 10.6603V12.7682H136.859C136.05 12.7682 135.487 12.3414 135.487 11.6048C135.487 10.8683 136.05 10.4325 136.841 10.4325L136.841 10.4331Z" fill="#9CA3AF"/>
<path d="M145.339 13.8867H148.928C150.228 13.8867 151.263 13.6595 151.872 13.3325V9.34326H150.791V12.5058C150.464 12.6606 149.846 12.7694 149.082 12.7694H145.411C144.321 12.7694 143.775 12.3061 143.775 11.3789C143.775 11.0698 143.83 10.7063 143.948 10.2974L142.957 10.1156C142.784 10.6788 142.702 11.2061 142.702 11.6969C142.702 13.2871 143.665 13.8867 145.337 13.8867H145.339Z" fill="#9CA3AF"/>
<path d="M148.19 9.64198C148.554 9.64198 148.845 9.35082 148.845 8.98798C148.845 8.62515 148.554 8.33398 148.19 8.33398C147.827 8.33398 147.545 8.62451 147.545 8.98798C147.545 9.35146 147.827 9.64198 148.19 9.64198Z" fill="#9CA3AF"/>
<path d="M146.419 9.64198C146.773 9.64198 147.064 9.35082 147.064 8.98798C147.064 8.62515 146.773 8.33398 146.419 8.33398C146.046 8.33398 145.755 8.62451 145.755 8.98798C145.755 9.35146 146.046 9.64198 146.419 9.64198Z" fill="#9CA3AF"/>
<path d="M158.44 12.9417V7.25342H157.359V12.424C157.041 12.6422 156.595 12.7599 156.023 12.7695L155.005 8.41679H153.932L154.932 12.7695H153.187V13.8875H155.976C156.967 13.8875 157.893 13.4875 158.439 12.9423L158.44 12.9417Z" fill="#9CA3AF"/>
<path d="M160.711 13.396C161.216 13.6795 161.921 13.8753 162.697 13.8849C162.705 13.8849 162.715 13.8849 162.723 13.8856C162.734 13.8856 162.744 13.8868 162.755 13.8868H172.023C172.031 13.8868 172.039 13.8862 172.046 13.8862C172.06 13.8862 172.074 13.8862 172.085 13.8849C172.545 13.8798 172.997 13.8177 173.423 13.6961C173.868 13.5688 174.232 13.4146 174.504 13.2239V9.3434H173.423V12.5334C173.105 12.6787 172.568 12.7695 172.014 12.7695H170.688V11.5518C170.688 10.7429 170.479 10.1158 170.061 9.68896C169.652 9.26213 169.107 9.04392 168.426 9.04392C167.326 9.04392 166.372 9.6256 165.254 10.7794V9.68896H164.173V12.7695H162.764C162.246 12.7695 161.728 12.6697 161.356 12.479V7.25342H160.274V12.6512C160.274 13.0421 160.384 13.2239 160.711 13.396H160.711ZM165.255 12.1053C166.445 10.7243 167.336 10.0972 168.253 10.0972C168.735 10.0972 169.08 10.2514 169.289 10.5605C169.508 10.8696 169.617 11.26 169.617 11.7239V12.7689H165.255V12.1053Z" fill="#9CA3AF"/>
<path d="M173.051 8.52431C173.406 8.52431 173.696 8.23378 173.696 7.87031C173.696 7.50683 173.405 7.21631 173.051 7.21631C172.679 7.21631 172.388 7.50747 172.388 7.87031C172.388 8.23314 172.678 8.52431 173.051 8.52431Z" fill="#9CA3AF"/>
<path d="M174.824 8.52431C175.187 8.52431 175.477 8.23378 175.477 7.87031C175.477 7.50683 175.187 7.21631 174.824 7.21631C174.46 7.21631 174.178 7.50747 174.178 7.87031C174.178 8.23314 174.46 8.52431 174.824 8.52431Z" fill="#9CA3AF"/>
<path d="M181.077 12.9417V7.25342H179.995V12.424C179.677 12.6422 179.232 12.7599 178.659 12.7695L177.641 8.41679H176.569L177.568 12.7695H175.823V13.8875H178.613C179.603 13.8875 180.53 13.4875 181.076 12.9423L181.077 12.9417Z" fill="#9CA3AF"/>
<path d="M183.991 7.25342H182.909V13.8868H183.991V7.25342Z" fill="#9CA3AF"/>
<path d="M191.098 8.46034C191.462 8.46034 191.752 8.16982 191.752 7.80634C191.752 7.44287 191.461 7.15234 191.098 7.15234C190.736 7.15234 190.453 7.44287 190.453 7.80634C190.453 8.16982 190.735 8.46034 191.098 8.46034Z" fill="#9CA3AF"/>
<path d="M189.326 8.46034C189.68 8.46034 189.971 8.16982 189.971 7.80634C189.971 7.44287 189.68 7.15234 189.326 7.15234C188.954 7.15234 188.662 7.44287 188.662 7.80634C188.662 8.16982 188.954 8.46034 189.326 8.46034Z" fill="#9CA3AF"/>
<path d="M196.486 7.77971H195.958C195.567 7.77971 195.386 7.61589 195.386 7.3708C195.386 7.1801 195.522 7.02524 195.731 7.02524C195.841 7.02524 195.94 7.06171 196.022 7.13467L196.413 6.7168C196.24 6.54402 195.976 6.40771 195.658 6.40771C195.149 6.40771 194.795 6.77119 194.795 7.23449C194.795 7.44311 194.868 7.62548 195.004 7.77971H194.568V8.48874H196.485V7.77971H196.486Z" fill="#9CA3AF"/>
<path d="M199.184 15.2043C199.184 14.8408 198.902 14.5503 198.539 14.5503C198.176 14.5503 197.875 14.8319 197.875 15.2043C197.875 15.5767 198.166 15.8493 198.539 15.8493C198.912 15.8493 199.184 15.5588 199.184 15.2043Z" fill="#9CA3AF"/>
<path d="M200.312 14.5503C199.948 14.5503 199.666 14.8319 199.666 15.2043C199.666 15.5767 199.948 15.8493 200.312 15.8493C200.676 15.8493 200.966 15.5588 200.966 15.2043C200.966 14.8319 200.675 14.5503 200.312 14.5503Z" fill="#9CA3AF"/>
<path d="M207.117 8.77897C206.417 8.17041 205.5 7.86133 204.355 7.86133C203.991 7.86133 203.61 7.88884 203.219 7.94324V8.94279C203.582 8.87944 203.956 8.84297 204.328 8.84297C205.128 8.84297 205.791 9.06118 206.309 9.48865C206.827 9.91547 207.09 10.6155 207.09 11.5876V12.7778H205.609C205.945 12.4233 206.109 11.9965 206.109 11.4782C206.109 10.3788 205.246 9.66079 204.173 9.66079C203.101 9.66079 202.256 10.3602 202.256 11.4782C202.256 11.9959 202.42 12.4323 202.747 12.7682H201.347C200.829 12.7682 200.311 12.6684 199.948 12.4777V9.34211H198.866V12.4777C198.475 12.6684 198.012 12.7682 197.458 12.7682C196.94 12.7682 196.422 12.6684 196.058 12.4777V9.34211H194.977V12.4777C194.586 12.6684 194.123 12.7682 193.568 12.7682H192.187V9.75165C191.715 9.48801 190.961 9.25188 190.197 9.25188C188.707 9.25188 187.716 10.1516 187.716 11.569C187.716 12.9865 188.752 13.8862 190.324 13.8862H193.577C193.591 13.8862 193.604 13.8849 193.618 13.8849C193.623 13.8849 193.629 13.8849 193.634 13.8849C194.32 13.8759 194.946 13.714 195.512 13.387C196.086 13.714 196.712 13.8766 197.39 13.8849C197.395 13.8849 197.402 13.8849 197.407 13.8849C197.421 13.8849 197.434 13.8862 197.448 13.8862H197.466C197.48 13.8862 197.494 13.8849 197.508 13.8849C197.513 13.8849 197.519 13.8849 197.522 13.8849C198.208 13.8759 198.835 13.714 199.401 13.387C199.975 13.714 200.602 13.8766 201.279 13.8849C201.284 13.8849 201.29 13.8849 201.295 13.8849C201.309 13.8849 201.323 13.8862 201.337 13.8862H208.171V11.6413C208.171 10.3417 207.816 9.38754 207.117 8.77897H207.117ZM191.107 12.7682H190.17C189.335 12.7682 188.79 12.3318 188.79 11.5326C188.79 10.7333 189.353 10.2694 190.116 10.2694C190.489 10.2694 190.824 10.3423 191.107 10.4965V12.7682ZM204.173 12.7682C203.564 12.6863 203.237 12.2416 203.237 11.6145C203.237 11.0238 203.637 10.6328 204.173 10.6328C204.709 10.6328 205.109 11.0238 205.109 11.6145C205.109 12.2595 204.791 12.687 204.173 12.7682Z" fill="#9CA3AF"/>
<path d="M68.1422 22.2966C68.7917 22.2966 69.3964 22.5948 69.7842 23.0908L70.7588 22.4771C70.1541 21.6829 69.1891 21.1959 68.1332 21.1959C66.3466 21.1595 64.7769 22.694 64.8127 24.4442C64.7769 26.195 66.3466 27.7289 68.1332 27.6924C69.1891 27.6924 70.1547 27.2054 70.7588 26.4113L69.7842 25.7797C69.3778 26.2852 68.7917 26.5918 68.1422 26.5918C66.9602 26.5918 66.049 25.6261 66.049 24.4442C66.049 23.2623 66.9602 22.2966 68.1422 22.2966Z" fill="#9CA3AF"/>
<path d="M75.1881 23.0005C73.7892 23.0005 72.6886 24.0199 72.6886 25.3464C72.6886 26.673 73.7892 27.6924 75.1881 27.6924C76.5869 27.7193 77.7324 26.6544 77.7055 25.3464C77.7324 24.0378 76.5869 22.9736 75.1881 23.0005ZM75.1881 26.7543C74.385 26.7543 73.7713 26.1406 73.7713 25.3464C73.7713 24.5523 74.385 23.9386 75.1881 23.9386C75.9912 23.9386 76.6228 24.5523 76.6228 25.3464C76.6228 26.1406 76.0091 26.7543 75.1881 26.7543Z" fill="#9CA3AF"/>
<path d="M85.5925 23.894C86.1697 23.894 86.5216 24.2638 86.5216 24.9223V27.6023H87.6223V24.6062C87.6223 23.5689 86.9638 23 86.0161 23C85.3212 23 84.735 23.1984 84.1124 23.7308C83.8596 23.2528 83.3637 23 82.759 23C82.1542 23 81.5501 23.2349 81.0088 23.7039V23.0902H79.9081V27.6017H81.0088V24.3803C81.442 24.0284 81.8119 23.8933 82.2809 23.8933C82.8581 23.8933 83.2197 24.2632 83.2197 24.9217V27.6017H84.3114V25.0119C84.3114 24.7867 84.2935 24.5697 84.248 24.3803C84.6454 24.0552 85.0966 23.8933 85.5925 23.8933V23.894Z" fill="#9CA3AF"/>
<path d="M96.0669 23.0006C95.372 23.0006 94.7852 23.199 94.1632 23.7314C93.9104 23.2534 93.4145 23.0006 92.8097 23.0006C92.205 23.0006 91.6009 23.2355 91.0596 23.7046V23.0909H89.9589V27.6023H91.0596V24.381C91.4928 24.029 91.8627 23.894 92.3317 23.894C92.9089 23.894 93.2705 24.2638 93.2705 24.9223V27.6023H94.3622V25.0126C94.3622 24.7873 94.3443 24.5704 94.2988 24.381C94.6962 24.0559 95.1473 23.894 95.6433 23.894C96.2205 23.894 96.5724 24.2638 96.5724 24.9223V27.6023H97.6731V24.6062C97.6731 23.5689 97.014 23 96.0669 23V23.0006Z" fill="#9CA3AF"/>
<path d="M103.446 26.2319C103.04 26.5928 102.526 26.7912 102.048 26.7912C101.398 26.7912 101.037 26.4213 101.037 25.7718V23.0918H99.9454V26.0873C99.9454 27.0887 100.568 27.6935 101.587 27.6935C102.237 27.6935 102.896 27.4586 103.446 27.026V27.6032H104.547V23.0918H103.446V26.2319Z" fill="#9CA3AF"/>
<path d="M110.481 24.9223V27.6023H111.572V24.6062C111.572 23.6047 110.95 23 109.93 23C109.29 23 108.622 23.2349 108.071 23.6585V23.0902H106.971V27.6017H108.071V24.4616C108.478 24.1007 108.991 23.8933 109.47 23.8933C110.12 23.8933 110.481 24.2722 110.481 24.9217V24.9223Z" fill="#9CA3AF"/>
<path d="M115.085 23.0918H113.994V27.6032H115.085V23.0918Z" fill="#9CA3AF"/>
<path d="M114.535 21.3848C114.201 21.3848 113.931 21.6286 113.931 21.9447C113.931 22.2608 114.202 22.504 114.535 22.504C114.868 22.504 115.131 22.2602 115.131 21.9447C115.131 21.6465 114.86 21.3848 114.535 21.3848Z" fill="#9CA3AF"/>
<path d="M119.814 26.7543C119.046 26.7543 118.442 26.1316 118.442 25.3464C118.442 24.5612 119.047 23.9386 119.814 23.9386C120.265 23.9386 120.626 24.0922 120.905 24.4077L121.744 23.9386C121.284 23.3524 120.562 23.0005 119.795 23.0005C118.496 22.9736 117.341 24.0743 117.368 25.3464C117.341 26.6186 118.496 27.7199 119.795 27.6924C120.589 27.6924 121.311 27.3315 121.78 26.7178L120.932 26.2487C120.67 26.5738 120.282 26.7543 119.813 26.7543H119.814Z" fill="#9CA3AF"/>
<path d="M126.166 23.0006C125.435 23.0006 124.704 23.199 124.082 23.5874L124.433 24.3541C124.912 24.0386 125.408 23.8761 125.913 23.8761C126.626 23.8761 126.996 24.1915 126.996 24.7963V24.85H125.462C124.379 24.85 123.702 25.3824 123.702 26.2578C123.702 27.1332 124.352 27.6925 125.39 27.6925C125.994 27.6925 126.527 27.4942 126.996 27.1057V27.6023H128.087V24.6875C128.087 23.6137 127.392 23 126.166 23V23.0006ZM126.996 26.5106C126.599 26.7634 126.175 26.8894 125.715 26.8894C125.128 26.8894 124.785 26.6367 124.785 26.1945C124.785 25.7523 125.137 25.4995 125.742 25.4995H126.996V26.51L126.996 26.5106Z" fill="#9CA3AF"/>
<path d="M133.276 26.6011C133.06 26.7093 132.825 26.7637 132.582 26.7637C132.121 26.7637 131.796 26.484 131.796 25.9516V23.9666H133.077V23.0912H131.796V21.8369H130.705V23.0912H129.992V23.9666H130.705V26.1231C130.705 27.1246 131.345 27.6935 132.239 27.6935C132.635 27.6935 133.033 27.5853 133.42 27.378L133.276 26.6018L133.276 26.6011Z" fill="#9CA3AF"/>
<path d="M136.667 23.0918H135.576V27.6032H136.667V23.0918Z" fill="#9CA3AF"/>
<path d="M136.117 21.3848C135.783 21.3848 135.513 21.6286 135.513 21.9447C135.513 22.2608 135.783 22.504 136.117 22.504C136.45 22.504 136.712 22.2602 136.712 21.9447C136.712 21.6465 136.442 21.3848 136.117 21.3848Z" fill="#9CA3AF"/>
<path d="M143.966 25.3464C143.993 24.0378 142.848 22.9736 141.449 23.0005C140.05 23.0005 138.949 24.0199 138.949 25.3464C138.949 26.673 140.05 27.6924 141.449 27.6924C142.848 27.7193 143.993 26.6544 143.966 25.3464ZM140.032 25.3464C140.032 24.5523 140.646 23.9386 141.449 23.9386C142.252 23.9386 142.883 24.5523 142.883 25.3464C142.883 26.1406 142.27 26.7543 141.449 26.7543C140.628 26.7543 140.032 26.1406 140.032 25.3464Z" fill="#9CA3AF"/>
<path d="M149.686 24.9223V27.6023H150.777V24.6062C150.777 23.6047 150.155 23 149.135 23C148.495 23 147.827 23.2349 147.276 23.6585V23.0902H146.176V27.6017H147.276V24.4616C147.683 24.1007 148.197 23.8933 148.675 23.8933C149.325 23.8933 149.686 24.2722 149.686 24.9217V24.9223Z" fill="#9CA3AF"/>
<path d="M155.3 24.9492L154.794 24.8142C154.171 24.6427 154.018 24.5435 154.018 24.2818C154.018 23.9477 154.262 23.7852 154.758 23.7852C155.254 23.7852 155.822 23.9477 156.265 24.2095L156.634 23.4966C156.129 23.1811 155.444 23 154.785 23C153.657 23 152.972 23.5145 152.972 24.3803C152.972 24.7054 153.08 24.9575 153.297 25.1476C153.522 25.337 153.91 25.5085 154.461 25.6621L155.029 25.8157C155.597 25.9872 155.733 26.0863 155.733 26.3481C155.733 26.7179 155.462 26.9074 154.912 26.9074C154.325 26.9074 153.684 26.7179 153.153 26.3935L152.774 27.0885C153.351 27.4769 154.109 27.6932 154.877 27.6932C156.068 27.6932 156.762 27.1697 156.762 26.2674C156.762 25.5904 156.356 25.2391 155.301 24.9498L155.3 24.9492Z" fill="#9CA3AF"/>
<path d="M158.899 28.8831L159.756 27.4304C159.819 27.3312 159.846 27.2231 159.846 27.1239C159.846 26.8084 159.566 26.5557 159.232 26.5557C158.898 26.5557 158.628 26.8084 158.628 27.1239C158.628 27.3492 158.754 27.5392 158.971 27.6384L158.564 28.7301L158.898 28.8837L158.899 28.8831Z" fill="#9CA3AF"/>
<path d="M168.446 23.9211L167.76 23.7317C166.758 23.461 166.578 23.3163 166.578 22.9829C166.578 22.4685 167.038 22.2157 167.715 22.2157C168.355 22.2157 169.186 22.4505 169.862 22.8115L170.377 21.8727C169.664 21.4491 168.716 21.1963 167.805 21.1963C167.065 21.1963 166.461 21.3588 166 21.6743C165.54 21.9898 165.306 22.4499 165.306 23.0636C165.342 24.0926 165.938 24.4624 167.436 24.8413L168.149 25.0217C169.051 25.2476 169.295 25.3737 169.295 25.8069C169.295 26.3937 168.789 26.6638 168.023 26.6638C167.256 26.6638 166.326 26.411 165.577 25.9688L165.036 26.8532C165.83 27.3946 166.885 27.6921 167.923 27.6921C169.521 27.6921 170.531 27.0061 170.531 25.7429C170.495 24.6512 169.846 24.3082 168.447 23.9204L168.446 23.9211Z" fill="#9CA3AF"/>
<path d="M175.348 23.0005C174.735 23.0005 174.221 23.2257 173.869 23.6142V23.0907H172.768V29.3619H173.869V27.0697C174.221 27.4582 174.735 27.6924 175.348 27.6924C176.558 27.7193 177.55 26.6365 177.523 25.3464C177.55 24.0564 176.557 22.9736 175.348 23.0005ZM176.07 26.3569C175.826 26.6186 175.511 26.7536 175.123 26.7536C174.582 26.7536 174.131 26.5284 173.869 26.1399V24.5517C174.131 24.1639 174.582 23.938 175.123 23.938C175.511 23.938 175.827 24.0736 176.07 24.3443C176.314 24.6061 176.44 24.9401 176.44 25.3458C176.44 25.7515 176.313 26.0855 176.07 26.3562V26.3569Z" fill="#9CA3AF"/>
<path d="M181.979 23.0006C181.248 23.0006 180.517 23.199 179.895 23.5874L180.246 24.3541C180.725 24.0386 181.221 23.8761 181.726 23.8761C182.439 23.8761 182.809 24.1915 182.809 24.7963V24.85H181.275C180.192 24.85 179.515 25.3824 179.515 26.2578C179.515 27.1332 180.165 27.6925 181.203 27.6925C181.807 27.6925 182.34 27.4942 182.809 27.1057V27.6023H183.9V24.6875C183.9 23.6137 183.205 23 181.979 23V23.0006ZM182.809 26.5106C182.412 26.7634 181.988 26.8894 181.528 26.8894C180.941 26.8894 180.598 26.6367 180.598 26.1945C180.598 25.7523 180.95 25.4995 181.555 25.4995H182.809V26.51L182.809 26.5106Z" fill="#9CA3AF"/>
<path d="M190.459 26.7178L189.611 26.2487C189.349 26.5738 188.961 26.7543 188.492 26.7543C187.725 26.7543 187.121 26.1316 187.121 25.3464C187.121 24.5612 187.726 23.9386 188.492 23.9386C188.944 23.9386 189.304 24.0922 189.584 24.4077L190.423 23.9386C189.963 23.3524 189.241 23.0005 188.474 23.0005C187.175 22.9736 186.02 24.0743 186.047 25.3464C186.02 26.6186 187.175 27.7199 188.474 27.6924C189.268 27.6924 189.99 27.3315 190.459 26.7178H190.459Z" fill="#9CA3AF"/>
<path d="M196.054 26.3481C195.719 26.6635 195.268 26.8261 194.7 26.8261C193.969 26.8261 193.482 26.4025 193.365 25.6889H197.01V25.346C197.01 24.0015 196 23 194.637 23C193.275 23 192.264 24.0373 192.264 25.337C192.264 26.6367 193.283 27.6919 194.664 27.6919C195.423 27.6919 196.126 27.4123 196.658 26.9157L196.054 26.3474V26.3481ZM194.646 23.8485C195.016 23.8485 195.332 23.9567 195.575 24.1819C195.819 24.3989 195.945 24.6696 195.945 25.0036H193.364C193.463 24.2818 193.932 23.8485 194.645 23.8485H194.646Z" fill="#9CA3AF"/>
<path d="M207.368 24.4979C207.179 24.9401 206.962 25.319 206.71 25.653L205.474 24.3444C206.475 23.8395 206.863 23.4062 206.863 22.6569C206.863 21.818 206.15 21.1953 205.184 21.1953C204.155 21.1953 203.362 21.8992 203.362 22.8105C203.362 23.2168 203.524 23.5592 203.921 24.0014L204.02 24.1095C202.865 24.6867 202.423 25.2198 202.423 25.9774C202.423 27.0512 203.299 27.6918 204.697 27.6918C205.463 27.6918 206.122 27.4838 206.673 27.0602L207.241 27.6918L208.017 27.0333L207.367 26.3473C207.665 25.9595 207.926 25.4629 208.17 24.8582L207.367 24.4973L207.368 24.4979ZM205.167 22.0074C205.627 22.0074 205.934 22.2691 205.934 22.6748C205.934 23.0805 205.754 23.3154 204.878 23.7217L204.725 23.5592C204.5 23.3154 204.328 22.9909 204.328 22.7292C204.328 22.3229 204.689 22.0074 205.167 22.0074ZM204.734 26.7895C204.012 26.7895 203.552 26.4465 203.552 25.8783C203.552 25.4719 203.814 25.1743 204.608 24.768L206.034 26.3473C205.627 26.6455 205.195 26.7895 204.734 26.7895H204.734Z" fill="#9CA3AF"/>
<path d="M64.8121 34.3876H66.8477V39.7124H68.0289V34.3876H70.0645V33.3516H64.8121V34.3876Z" fill="#9CA3AF"/>
<path d="M73.653 35.0776C72.281 35.0776 71.2629 36.1226 71.2629 37.4313C71.2629 38.7399 72.29 39.8035 73.6799 39.8035C74.4433 39.8035 75.1523 39.5219 75.6879 39.0221L75.0788 38.4494C74.7428 38.7674 74.2885 38.9312 73.7157 38.9312C72.9798 38.9312 72.489 38.5044 72.3706 37.7864H76.0418V37.4409C76.0418 36.0868 75.0237 35.0783 73.6517 35.0783L73.653 35.0776ZM72.3719 37.0947C72.4717 36.3677 72.9446 35.9313 73.662 35.9313C74.0344 35.9313 74.3524 36.0407 74.5982 36.2672C74.8433 36.4855 74.9706 36.7581 74.9706 37.094H72.3719V37.0947Z" fill="#9CA3AF"/>
<path d="M80.4943 38.8581C79.722 38.8581 79.1128 38.231 79.1128 37.4407C79.1128 36.6504 79.722 36.0233 80.4943 36.0233C80.9487 36.0233 81.3122 36.1782 81.5937 36.4962L82.439 36.0233C81.9757 35.4327 81.2488 35.0781 80.4764 35.0781C79.1678 35.0506 78.0051 36.1596 78.032 37.4407C78.0051 38.7218 79.1678 39.8308 80.4764 39.8033C81.2763 39.8033 82.0033 39.4398 82.4755 38.8217L81.6212 38.3488C81.3576 38.6758 80.9672 38.8575 80.4943 38.8575V38.8581Z" fill="#9CA3AF"/>
<path d="M87.6377 35.0781C86.9927 35.0781 86.3201 35.3142 85.766 35.7417V33.3516H84.657V39.7124H85.766V36.5499C86.1749 36.1864 86.6926 35.9772 87.1744 35.9772C87.8284 35.9772 88.1919 36.3586 88.1919 37.0132V39.7124H89.2913V36.6951C89.2913 35.6866 88.6641 35.0781 87.6377 35.0781Z" fill="#9CA3AF"/>
<path d="M94.6345 35.0776C93.9894 35.0776 93.3169 35.3138 92.7627 35.7412V35.1685H91.6537V39.7119H92.7627V36.5495C93.1716 36.186 93.6893 35.9767 94.1712 35.9767C94.8252 35.9767 95.1886 36.3581 95.1886 37.0128V39.7119H96.288V36.6947C96.288 35.6862 95.6609 35.0776 94.6345 35.0776Z" fill="#9CA3AF"/>
<path d="M100.968 35.0782C99.5593 35.0782 98.4503 36.1046 98.4503 37.4407C98.4503 38.7769 99.5593 39.8033 100.968 39.8033C102.376 39.8308 103.531 38.7583 103.503 37.4407C103.53 36.1231 102.376 35.0506 100.968 35.0782ZM100.968 38.8582C100.159 38.8582 99.5407 38.2406 99.5407 37.4407C99.5407 36.6408 100.159 36.0233 100.968 36.0233C101.777 36.0233 102.413 36.6415 102.413 37.4407C102.413 38.24 101.794 38.8582 100.968 38.8582Z" fill="#9CA3AF"/>
<path d="M106.837 33.3516H105.728V39.7124H106.837V33.3516Z" fill="#9CA3AF"/>
<path d="M111.589 35.0782C110.181 35.0782 109.072 36.1046 109.072 37.4407C109.072 38.7769 110.181 39.8033 111.589 39.8033C112.998 39.8308 114.152 38.7583 114.124 37.4407C114.151 36.1231 112.998 35.0506 111.589 35.0782ZM111.589 38.8582C110.78 38.8582 110.162 38.2406 110.162 37.4407C110.162 36.6408 110.78 36.0233 111.589 36.0233C112.398 36.0233 113.034 36.6415 113.034 37.4407C113.034 38.24 112.416 38.8582 111.589 38.8582Z" fill="#9CA3AF"/>
<path d="M119.802 35.6957C119.448 35.3047 118.93 35.0782 118.312 35.0782C117.085 35.0506 116.104 36.1321 116.122 37.4318C116.095 38.7315 117.095 39.8129 118.312 39.7854C118.93 39.7854 119.448 39.5582 119.802 39.1679V39.3675C119.802 40.2852 119.239 40.7306 118.394 40.7306C117.74 40.7306 117.149 40.5668 116.613 40.2308L116.259 41.0032C116.904 41.3942 117.667 41.5938 118.548 41.5938C119.248 41.5938 119.82 41.4121 120.248 41.0397C120.684 40.6672 120.902 40.1124 120.902 39.3675V35.169H119.802V35.6957ZM119.802 38.231C119.539 38.622 119.084 38.8486 118.539 38.8486C118.148 38.8486 117.831 38.7123 117.585 38.4486C117.34 38.176 117.213 37.8401 117.213 37.4305C117.213 36.6306 117.776 36.0131 118.539 36.0131C119.084 36.0131 119.539 36.2402 119.802 36.6306V38.2298V38.231Z" fill="#9CA3AF"/>
<path d="M125.392 38.5228L124.047 35.1696H122.883L124.901 39.8583L124.828 40.0035C124.546 40.5212 124.283 40.7305 123.855 40.7305C123.628 40.7305 123.383 40.6761 123.11 40.5667L122.792 41.3301C123.238 41.4939 123.647 41.5752 124.001 41.5752C124.837 41.5752 125.41 41.1298 125.801 40.1578L127.809 35.1689H126.663L125.391 38.5221L125.392 38.5228Z" fill="#9CA3AF"/>
<path d="M136.396 34.3697C137.05 34.3697 137.66 34.6698 138.05 35.1696L139.032 34.5515C138.423 33.7516 137.45 33.2614 136.388 33.2614C134.588 33.2249 133.007 34.7697 133.043 36.5327C133.007 38.2956 134.588 39.8404 136.388 39.8039C137.451 39.8039 138.423 39.3131 139.032 38.5132L138.05 37.8771C137.641 38.3859 137.05 38.6949 136.396 38.6949C135.206 38.6949 134.289 37.7229 134.289 36.532C134.289 35.3411 135.206 34.3691 136.396 34.3691V34.3697Z" fill="#9CA3AF"/>
<path d="M143.492 35.0782C142.084 35.0782 140.975 36.1046 140.975 37.4407C140.975 38.7769 142.084 39.8033 143.492 39.8033C144.901 39.8308 146.055 38.7583 146.028 37.4407C146.054 36.1231 144.901 35.0506 143.492 35.0782ZM143.492 38.8582C142.683 38.8582 142.065 38.2406 142.065 37.4407C142.065 36.6408 142.683 36.0233 143.492 36.0233C144.301 36.0233 144.937 36.6415 144.937 37.4407C144.937 38.24 144.319 38.8582 143.492 38.8582Z" fill="#9CA3AF"/>
<path d="M154.396 35.0776C153.696 35.0776 153.105 35.2773 152.479 35.8135C152.224 35.3317 151.724 35.0776 151.116 35.0776C150.507 35.0776 149.898 35.3138 149.353 35.786V35.1685H148.244V39.7119H149.353V36.4675C149.789 36.113 150.162 35.9767 150.634 35.9767C151.216 35.9767 151.579 36.3492 151.579 37.0128V39.7119H152.679V37.1036C152.679 36.8765 152.661 36.6582 152.615 36.4675C153.014 36.1405 153.469 35.9767 153.969 35.9767C154.55 35.9767 154.905 36.3492 154.905 37.0128V39.7119H156.014V36.6947C156.014 35.6497 155.35 35.0776 154.396 35.0776Z" fill="#9CA3AF"/>
<path d="M164.518 35.0776C163.818 35.0776 163.228 35.2773 162.601 35.8135C162.346 35.3317 161.846 35.0776 161.238 35.0776C160.629 35.0776 160.02 35.3138 159.475 35.786V35.1685H158.366V39.7119H159.475V36.4675C159.911 36.113 160.284 35.9767 160.756 35.9767C161.338 35.9767 161.701 36.3492 161.701 37.0128V39.7119H162.8V37.1036C162.8 36.8765 162.782 36.6582 162.736 36.4675C163.136 36.1405 163.591 35.9767 164.09 35.9767C164.672 35.9767 165.027 36.3492 165.027 37.0128V39.7119H166.135V36.6947C166.135 35.6497 165.471 35.0776 164.517 35.0776H164.518Z" fill="#9CA3AF"/>
<path d="M169.679 35.1694H168.58V39.7129H169.679V35.1694Z" fill="#9CA3AF"/>
<path d="M169.125 33.4521C168.789 33.4521 168.516 33.6972 168.516 34.0159C168.516 34.3346 168.789 34.5791 169.125 34.5791C169.461 34.5791 169.724 34.334 169.724 34.0159C169.724 33.7158 169.452 33.4521 169.125 33.4521Z" fill="#9CA3AF"/>
<path d="M174.369 37.0409L173.861 36.9046C173.233 36.7318 173.079 36.632 173.079 36.3684C173.079 36.0324 173.324 35.8686 173.824 35.8686C174.324 35.8686 174.897 36.0324 175.342 36.2954L175.714 35.5774C175.206 35.2594 174.515 35.0776 173.852 35.0776C172.716 35.0776 172.025 35.596 172.025 36.4682C172.025 36.7952 172.134 37.0499 172.352 37.2406C172.579 37.4313 172.97 37.604 173.525 37.7589L174.097 37.9131C174.67 38.0859 174.806 38.1857 174.806 38.4494C174.806 38.8218 174.533 39.0125 173.979 39.0125C173.388 39.0125 172.743 38.8218 172.207 38.4948L171.825 39.1942C172.407 39.5852 173.17 39.8035 173.942 39.8035C175.142 39.8035 175.842 39.2762 175.842 38.3675C175.842 37.686 175.433 37.3314 174.37 37.0409H174.369Z" fill="#9CA3AF"/>
<path d="M180.238 37.0409L179.729 36.9046C179.102 36.7318 178.948 36.632 178.948 36.3684C178.948 36.0324 179.193 35.8686 179.692 35.8686C180.192 35.8686 180.765 36.0324 181.21 36.2954L181.583 35.5774C181.074 35.2594 180.384 35.0776 179.72 35.0776C178.584 35.0776 177.894 35.596 177.894 36.4682C177.894 36.7952 178.002 37.0499 178.221 37.2406C178.448 37.4313 178.838 37.604 179.393 37.7589L179.966 37.9131C180.538 38.0859 180.674 38.1857 180.674 38.4494C180.674 38.8218 180.401 39.0125 179.847 39.0125C179.257 39.0125 178.612 38.8218 178.075 38.4948L177.693 39.1942C178.275 39.5852 179.038 39.8035 179.811 39.8035C181.01 39.8035 181.71 39.2762 181.71 38.3675C181.71 37.686 181.301 37.3314 180.238 37.0409H180.238Z" fill="#9CA3AF"/>
<path d="M184.544 33.4521C184.208 33.4521 183.936 33.6972 183.936 34.0159C183.936 34.3346 184.208 34.5791 184.544 34.5791C184.88 34.5791 185.144 34.334 185.144 34.0159C185.144 33.7158 184.871 33.4521 184.544 33.4521Z" fill="#9CA3AF"/>
<path d="M185.099 35.1694H184V39.7129H185.099V35.1694Z" fill="#9CA3AF"/>
<path d="M189.915 35.0782C188.507 35.0782 187.398 36.1046 187.398 37.4407C187.398 38.7769 188.507 39.8033 189.915 39.8033C191.324 39.8308 192.478 38.7583 192.451 37.4407C192.478 36.1231 191.324 35.0506 189.915 35.0782ZM189.915 38.8582C189.107 38.8582 188.488 38.2406 188.488 37.4407C188.488 36.6408 189.107 36.0233 189.915 36.0233C190.724 36.0233 191.36 36.6415 191.36 37.4407C191.36 38.24 190.742 38.8582 189.915 38.8582Z" fill="#9CA3AF"/>
<path d="M197.656 35.0776C197.011 35.0776 196.339 35.3138 195.785 35.7412V35.1685H194.676V39.7119H195.785V36.5495C196.194 36.186 196.711 35.9767 197.193 35.9767C197.847 35.9767 198.211 36.3581 198.211 37.0128V39.7119H199.31V36.6947C199.31 35.6862 198.683 35.0776 197.656 35.0776Z" fill="#9CA3AF"/>
<path d="M55.3242 0.00146484H54.6843V48.0007H55.3242V0.00146484Z" fill="#9CA3AF"/>
<path d="M20.4066 26.2663C19.8256 26.8474 19.0238 27.2064 18.1375 27.2064C16.3649 27.2064 14.9283 25.7698 14.9283 23.9972C14.9283 22.2246 16.3649 20.788 18.1375 20.788C19.0238 20.788 19.8262 21.147 20.4066 21.728L22.6764 19.4582C21.515 18.2968 19.9101 17.5781 18.1375 17.5781C14.5924 17.5781 11.7185 20.452 11.7185 23.9972C11.7185 27.5423 14.5924 30.4162 18.1375 30.4162C19.9101 30.4162 21.515 29.6976 22.6764 28.5361L20.4066 26.2663Z" fill="#9CA3AF"/>
<path d="M45.1944 17.6328H35.8901V20.842H40.7784L38.938 21.8947V30.3973H42.1472V20.842H45.1944V17.6328Z" fill="#9CA3AF"/>
<path d="M3.08544 16.1859L2.86723 16.0854C2.81731 16.1866 2.76804 16.2883 2.72005 16.3901L2.9197 16.4918C2.97409 16.3888 3.02913 16.287 3.0848 16.1853L3.08544 16.1859Z" fill="#9CA3AF"/>
<path d="M2.99065 13.2449L2.65853 13.0293C2.60798 13.1042 2.55806 13.1784 2.50879 13.2539L2.82235 13.4664C2.87674 13.3915 2.93433 13.3192 2.99001 13.2456L2.99065 13.2449Z" fill="#9CA3AF"/>
<path d="M2.9277 14.7683L2.72741 14.6582C2.67814 14.7433 2.62822 14.8284 2.58023 14.9142L2.76325 15.0223C2.817 14.9372 2.87203 14.8527 2.9277 14.7683Z" fill="#9CA3AF"/>
<path d="M3.6845 15.1852L3.42853 15.0444C3.37478 15.1359 3.32103 15.2281 3.2692 15.3209L3.51044 15.4629C3.56804 15.3702 3.62499 15.2767 3.6845 15.1852Z" fill="#9CA3AF"/>
<path d="M3.30346 17.6132L3.16844 17.562C3.13069 17.6599 3.09229 17.7572 3.05582 17.8564L3.16844 17.9056C3.2126 17.8077 3.25739 17.7098 3.30346 17.6132Z" fill="#9CA3AF"/>
<path d="M3.27473 13.7726L3.51278 13.9339C3.57166 13.8558 3.63181 13.779 3.69196 13.7022L3.43791 13.5371C3.38352 13.6158 3.32785 13.6932 3.27473 13.7726Z" fill="#9CA3AF"/>
<path d="M1.92171 14.2148C1.87756 14.2923 1.8334 14.371 1.79053 14.4491L2.05865 14.6071C2.10729 14.5284 2.15784 14.4503 2.20775 14.3723L1.92235 14.2155L1.92171 14.2148Z" fill="#9CA3AF"/>
<path d="M3.85474 12.1847L3.48166 11.8999C3.40679 11.9946 3.33256 12.09 3.26025 12.1866L3.61605 12.4624C3.65572 12.4157 3.69284 12.367 3.73315 12.321C3.77283 12.2749 3.81506 12.2307 3.85538 12.1853L3.85474 12.1847Z" fill="#9CA3AF"/>
<path d="M2.51575 17.3161L2.35001 17.2534C2.31674 17.3372 2.2841 17.4211 2.25211 17.5062L2.39993 17.5708C2.43768 17.4851 2.47672 17.4012 2.51575 17.3161Z" fill="#9CA3AF"/>
<path d="M5.80293 10.2834L5.36971 9.8335C5.23597 9.9602 5.10222 10.0856 4.97232 10.2162L5.39083 10.6385C5.52649 10.5182 5.66343 10.3992 5.80229 10.2827L5.80293 10.2834Z" fill="#9CA3AF"/>
<path d="M4.95331 13.4986C5.03586 13.4033 5.12032 13.3085 5.20479 13.2151L4.88228 12.9688C4.80293 13.0654 4.72294 13.1614 4.64551 13.2599L4.95267 13.498L4.95331 13.4986Z" fill="#9CA3AF"/>
<path d="M5.12313 12.0927C5.23064 11.9865 5.34006 11.8828 5.45077 11.7798L5.10457 11.4707C5.00091 11.5808 4.90108 11.6934 4.80061 11.806L5.12377 12.0921L5.12313 12.0927Z" fill="#9CA3AF"/>
<path d="M4.62776 14.6881L4.9362 14.8967C5.00083 14.8097 5.0661 14.724 5.13201 14.6382L4.8031 14.4238C4.74423 14.5109 4.68535 14.5985 4.62776 14.6875V14.6881Z" fill="#9CA3AF"/>
<path d="M4.40743 14.1673L4.11435 13.9766C4.05676 14.0591 3.99789 14.141 3.94221 14.2242L4.22122 14.413C4.28265 14.3304 4.34536 14.2485 4.40807 14.1673H4.40743Z" fill="#9CA3AF"/>
<path d="M4.23217 12.4722C4.18994 12.524 4.14642 12.5746 4.10483 12.627C4.06963 12.6712 4.03764 12.7173 4.00308 12.7621L4.28528 12.9809C4.36719 12.8868 4.45102 12.7953 4.53485 12.7038L4.23217 12.4728V12.4722Z" fill="#9CA3AF"/>
<path d="M2.29039 15.8211L2.14065 15.752C2.09585 15.8435 2.05426 15.9369 2.01074 16.0297L2.14001 16.0956C2.18864 16.0034 2.23983 15.9126 2.29039 15.8211Z" fill="#9CA3AF"/>
<path d="M4.08545 11.1752L4.47324 11.5182C4.57882 11.4094 4.68441 11.3 4.79256 11.1944L4.38557 10.8315C4.28318 10.9442 4.18528 11.0606 4.08545 11.1752Z" fill="#9CA3AF"/>
<path d="M4.43977 15.6009L4.16461 15.4492C4.1083 15.5484 4.05391 15.6502 4.00015 15.7513L4.2478 15.8972C4.31115 15.798 4.37514 15.6988 4.44041 15.6009H4.43977Z" fill="#9CA3AF"/>
<path d="M3.86125 16.5426L3.6488 16.4453C3.59569 16.5573 3.54257 16.6699 3.49202 16.7838L3.67568 16.8773C3.73647 16.7653 3.7979 16.6533 3.86125 16.5426Z" fill="#9CA3AF"/>
<path d="M7.17037 11.7031C7.04238 11.8183 6.91696 11.9354 6.79346 12.0544L7.15437 12.4186C7.27659 12.3008 7.4001 12.185 7.52616 12.0717L7.17037 11.7031Z" fill="#9CA3AF"/>
<path d="M7.62435 10.355C7.46309 10.4753 7.30439 10.5988 7.14761 10.7255L7.97822 11.6803C8.12476 11.5574 8.27322 11.4377 8.42424 11.32L7.62435 10.3556V10.355Z" fill="#9CA3AF"/>
<path d="M1.69362 17.0046L1.60339 16.9707C1.57524 17.0424 1.549 17.114 1.52148 17.1864L1.59699 17.2196C1.62835 17.148 1.66099 17.0763 1.69362 17.0053V17.0046Z" fill="#9CA3AF"/>
<path d="M7.53838 8.0542C7.33489 8.1969 7.13523 8.34408 6.93814 8.49447L7.39888 9.09791C7.59917 8.96609 7.80267 8.8381 8.00872 8.71396L7.53838 8.0542Z" fill="#9CA3AF"/>
<path d="M6.3092 12.5449C6.20681 12.6537 6.10634 12.7638 6.00716 12.8751L6.38471 13.2092C6.39622 13.1976 6.4071 13.1861 6.41798 13.1746C6.50693 13.0767 6.5978 12.9801 6.68931 12.8841L6.30856 12.5449H6.3092Z" fill="#9CA3AF"/>
<path d="M8.72083 7.29102C8.47958 7.435 8.24217 7.5841 8.00797 7.73896L9.77477 10.3748C9.97506 10.2494 10.1786 10.1291 10.3846 10.0126L8.72147 7.29102H8.72083Z" fill="#9CA3AF"/>
<path d="M18.2353 4.75732C15.4062 4.75732 12.7212 5.37101 10.3042 6.47039L11.7626 9.3206C13.7418 8.44327 15.9316 7.95437 18.2359 7.95437C20.1806 7.95437 22.0447 8.30185 23.7687 8.93793L24.8751 5.93734C22.8062 5.17391 20.5697 4.75732 18.2359 4.75732H18.2353Z" fill="#9CA3AF"/>
<path d="M9.96265 6.62891C9.67917 6.76457 9.40016 6.90663 9.125 7.05573L10.744 9.81635C10.9737 9.69413 11.2066 9.57766 11.4428 9.46696L9.96265 6.62955V6.62891Z" fill="#9CA3AF"/>
<path d="M8.14934 8.9082C7.9516 9.03939 7.75707 9.17377 7.56509 9.31263L8.8526 10.9969C9.02538 10.8715 9.20072 10.7505 9.37861 10.6322L8.14934 8.9082Z" fill="#9CA3AF"/>
<path d="M0.863579 16.898C0.889175 16.8385 0.913492 16.7783 0.939729 16.7195L0.750954 16.6484C0.728557 16.7054 0.706799 16.763 0.684402 16.8199L0.862939 16.898H0.863579Z" fill="#9CA3AF"/>
<path d="M5.72461 12.0254C5.6203 12.1329 5.51663 12.2417 5.41553 12.3524L5.74892 12.648C5.85515 12.5424 5.96329 12.4381 6.07272 12.3364L5.72461 12.026V12.0254Z" fill="#9CA3AF"/>
<path d="M5.28075 13.7547L5.63078 14.026C5.71461 13.9288 5.79908 13.8321 5.88483 13.7368L5.51495 13.4546C5.4356 13.5538 5.3569 13.6536 5.28011 13.7547H5.28075Z" fill="#9CA3AF"/>
<path d="M1.19531 15.6149L1.41992 15.7294C1.46344 15.6469 1.50503 15.5631 1.54919 15.4812L1.3105 15.3711C1.27146 15.4517 1.23307 15.5336 1.19531 15.6149Z" fill="#9CA3AF"/>
<path d="M7.06756 9.68359C6.9031 9.81158 6.74056 9.94148 6.58186 10.0746L6.97221 10.5232C7.13731 10.4035 7.30433 10.2864 7.4739 10.1731L7.06756 9.68359Z" fill="#9CA3AF"/>
<path d="M6.05096 10.5391C5.9185 10.66 5.7886 10.7829 5.65933 10.9083L6.0196 11.2718C6.15527 11.1566 6.29285 11.0446 6.43171 10.9345L6.05032 10.5391H6.05096Z" fill="#9CA3AF"/>
<path d="M7.00864 11.5337L6.64133 11.1523C6.5095 11.2682 6.3796 11.3859 6.25162 11.5062L6.60613 11.8639C6.73859 11.7519 6.87298 11.6419 7.00928 11.5337H7.00864Z" fill="#9CA3AF"/>
<path d="M6.87703 9.4553L6.42141 8.90625C6.2544 9.04319 6.08994 9.1827 5.9274 9.32476L6.36702 9.8303C6.53404 9.70167 6.7049 9.57753 6.87639 9.4553H6.87703Z" fill="#9CA3AF"/>
<path d="M29.5506 39.2991L29.2351 38.8818C29.109 38.9689 28.9843 39.0572 28.8563 39.141L29.1846 39.5774C29.3081 39.4859 29.4303 39.3931 29.5512 39.2991H29.5506Z" fill="#9CA3AF"/>
<path d="M28.9686 38.5287L28.7075 38.1831C28.5802 38.2669 28.4522 38.3488 28.3229 38.4295L28.6032 38.8025C28.7267 38.7142 28.8476 38.6208 28.9692 38.5287H28.9686Z" fill="#9CA3AF"/>
<path d="M29.7099 35.7206L29.4367 35.4429C29.3573 35.5145 29.2748 35.5824 29.1942 35.6528L29.4898 35.9426C29.564 35.8697 29.6376 35.7961 29.7106 35.7212L29.7099 35.7206Z" fill="#9CA3AF"/>
<path d="M28.0978 38.1301C28.222 38.0437 28.3455 37.956 28.4677 37.8658L28.2009 37.5132C28.0748 37.597 27.9475 37.6783 27.8188 37.7583L28.0978 38.1301Z" fill="#9CA3AF"/>
<path d="M28.4828 40.0716L28.1552 39.5737C27.9965 39.6672 27.8359 39.758 27.6746 39.8463L28.0138 40.3768C28.1719 40.277 28.3286 40.1759 28.4835 40.0716H28.4828Z" fill="#9CA3AF"/>
<path d="M30.561 38.4566L30.2666 38.1162C30.2078 38.1629 30.1508 38.2122 30.092 38.2583C30.0548 38.2871 30.0164 38.3139 29.9793 38.3427L30.2871 38.6934C30.3786 38.6147 30.4714 38.5373 30.5616 38.4573L30.561 38.4566Z" fill="#9CA3AF"/>
<path d="M29.7835 37.8791C29.8373 37.833 29.8885 37.785 29.9416 37.7389L29.708 37.4683C29.6095 37.5444 29.5103 37.6186 29.4105 37.6922L29.662 37.9789C29.7023 37.945 29.7439 37.913 29.7842 37.8791H29.7835Z" fill="#9CA3AF"/>
<path d="M30.5356 34.8007L30.3013 34.5908C30.222 34.6746 30.1439 34.7591 30.0627 34.841L30.3193 35.058C30.3922 34.9735 30.4639 34.8871 30.5356 34.8007Z" fill="#9CA3AF"/>
<path d="M30.2832 36.3049L30.0548 36.0732C29.9793 36.1411 29.9031 36.2076 29.827 36.2742L30.0695 36.5122C30.1412 36.4438 30.2128 36.3746 30.2826 36.3049H30.2832Z" fill="#9CA3AF"/>
<path d="M30.8552 36.8861L30.653 36.6807C30.5813 36.7447 30.509 36.808 30.436 36.8714L30.6517 37.0832C30.7189 37.0173 30.7886 36.9533 30.8545 36.8867L30.8552 36.8861Z" fill="#9CA3AF"/>
<path d="M28.2754 36.399L28.5921 36.7599C28.6894 36.678 28.786 36.5961 28.8807 36.5117L28.5781 36.1616C28.4776 36.241 28.3778 36.3222 28.2747 36.399H28.2754Z" fill="#9CA3AF"/>
<path d="M26.8638 39.8995L26.5669 39.3779C26.3781 39.465 26.1874 39.5488 25.9954 39.6288L26.3 40.1945C26.4895 40.0991 26.6776 40.0012 26.8638 39.8988V39.8995Z" fill="#9CA3AF"/>
<path d="M25.1642 40.9723L25.4983 41.7191C25.7312 41.6167 25.9615 41.5092 26.1894 41.3972L25.854 40.71C25.6256 40.8027 25.3959 40.8898 25.1642 40.9723Z" fill="#9CA3AF"/>
<path d="M22.6612 39.3428C22.404 39.4196 22.1442 39.4912 21.8812 39.5552L22.7815 42.6582C23.0957 42.5789 23.4074 42.4925 23.7152 42.3984L22.6612 39.3428Z" fill="#9CA3AF"/>
<path d="M27.4757 38.5419L27.1986 38.1221C27.0444 38.2078 26.8882 38.2904 26.7314 38.3704L27.0175 38.8183C27.1717 38.7287 27.324 38.6366 27.475 38.5419H27.4757Z" fill="#9CA3AF"/>
<path d="M29.4058 37.1188L29.1556 36.8296C29.0557 36.907 28.9546 36.9832 28.8535 37.058L29.1178 37.3594C29.2144 37.2801 29.3104 37.2001 29.4058 37.1188Z" fill="#9CA3AF"/>
<path d="M27.9449 39.2526L27.6608 38.8213C27.5034 38.909 27.3447 38.9941 27.1841 39.0766L27.4816 39.5425C27.6371 39.4484 27.7914 39.3518 27.9443 39.252L27.9449 39.2526Z" fill="#9CA3AF"/>
<path d="M27.3623 40.7731L27.0269 40.1851C26.8337 40.2804 26.6392 40.3713 26.4427 40.4596L26.7838 41.0931C26.9783 40.9894 27.1709 40.8832 27.3616 40.7731H27.3623Z" fill="#9CA3AF"/>
<path d="M26.6046 38.1715C26.755 38.0825 26.9035 37.991 27.0506 37.8963L26.7608 37.4561C26.6161 37.5488 26.4696 37.6397 26.3218 37.7287L26.6046 38.1715Z" fill="#9CA3AF"/>
<path d="M33.7329 34.4468L33.9038 34.5537C33.9338 34.507 33.962 34.4584 33.9921 34.4116L33.8327 34.3003C33.7988 34.3489 33.7668 34.3988 33.7329 34.4468Z" fill="#9CA3AF"/>
<path d="M33.1007 35.6952C33.1525 35.6267 33.205 35.5583 33.2555 35.4891L33.0584 35.333C33.0021 35.4028 32.9471 35.4732 32.8901 35.5423L33.1007 35.6952Z" fill="#9CA3AF"/>
<path d="M27.6294 37.5052C27.7523 37.4182 27.8733 37.3286 27.9936 37.2378L27.6806 36.8237C27.6518 36.8436 27.6237 36.8653 27.5949 36.8845C27.5027 36.9524 27.4074 37.017 27.314 37.0829L27.6307 37.5046L27.6294 37.5052Z" fill="#9CA3AF"/>
<path d="M33.2385 33.8854L33.1706 33.8374C33.129 33.8969 33.0862 33.9564 33.0433 34.0153L33.1252 34.0665C33.1636 34.0063 33.2007 33.9455 33.2385 33.8848V33.8854Z" fill="#9CA3AF"/>
<path d="M25.8828 39.4182C26.0683 39.3299 26.252 39.2378 26.4331 39.1418L25.7989 38.0283C25.6281 38.1224 25.4559 38.2133 25.2812 38.3009L25.8828 39.4176V39.4182Z" fill="#9CA3AF"/>
<path d="M31.1588 35.3584L30.963 35.1831C30.89 35.2605 30.8171 35.3386 30.7428 35.4148L30.9547 35.5933C31.0238 35.5159 31.0916 35.4372 31.1594 35.3584H31.1588Z" fill="#9CA3AF"/>
<path d="M24.1645 42.2488C24.4365 42.1522 24.7065 42.0498 24.974 41.941L23.7486 38.9775C23.5208 39.0633 23.2904 39.1433 23.0581 39.2194L24.1645 42.2488Z" fill="#9CA3AF"/>
<path d="M25.0667 40.7528C25.2913 40.6613 25.5146 40.5653 25.7354 40.4642L24.7941 38.5361C24.5957 38.6276 24.3947 38.7153 24.1919 38.7991L25.0667 40.7528Z" fill="#9CA3AF"/>
<path d="M21.5385 39.6334C20.4116 39.8823 19.2418 40.0167 18.0401 40.0167C14.9371 40.0167 12.039 39.1413 9.57913 37.624L7.88655 40.3738C10.8391 42.1943 14.3164 43.2451 18.0401 43.2451C19.5452 43.2451 21.0093 43.0717 22.4152 42.7472L21.5385 39.6334Z" fill="#9CA3AF"/>
<path d="M31.7622 35.8989L31.6035 35.7568C31.5357 35.8279 31.4679 35.8989 31.3988 35.9686L31.5728 36.1158C31.6362 36.0435 31.7002 35.9725 31.7622 35.8995V35.8989Z" fill="#9CA3AF"/>
<path d="M31.7066 34.6796C31.7731 34.5932 31.8384 34.5062 31.903 34.4179L31.7443 34.2925C31.6733 34.3795 31.6016 34.4653 31.5293 34.5504L31.7066 34.679V34.6796Z" fill="#9CA3AF"/>
<path d="M31.5064 37.5478L31.2434 37.2803C31.1768 37.3417 31.1071 37.4006 31.0392 37.4614L31.3202 37.7365C31.3829 37.6738 31.4449 37.6111 31.5064 37.5478Z" fill="#9CA3AF"/>
<path d="M31.2387 33.8925L31.057 33.7485C30.9776 33.8439 30.8944 33.936 30.8132 34.0295L31.025 34.1837C31.0973 34.0877 31.1683 33.9904 31.2387 33.8925Z" fill="#9CA3AF"/>
<path d="M32.5789 33.4234L32.4662 33.3447C32.4157 33.4164 32.3639 33.4868 32.3127 33.5572L32.4426 33.6385C32.4886 33.5668 32.5347 33.4958 32.5795 33.4234H32.5789Z" fill="#9CA3AF"/>
<path d="M32.0304 36.5013L32.28 36.7119C32.337 36.646 32.392 36.5788 32.4477 36.5128L32.2173 36.3062C32.1559 36.3721 32.0932 36.4367 32.0304 36.5013Z" fill="#9CA3AF"/>
<path d="M32.3585 35.1553C32.418 35.0772 32.475 34.9972 32.5332 34.9179L32.4193 34.8276C32.356 34.9057 32.2913 34.9825 32.2261 35.0587L32.3585 35.1553Z" fill="#9CA3AF"/>
<path d="M31.7487 32.8428C31.6892 32.926 31.6322 33.0111 31.5708 33.093L31.7161 33.1838C31.7698 33.1 31.8229 33.0162 31.8754 32.9317L31.7487 32.8434V32.8428Z" fill="#9CA3AF"/>
<path d="M11.6558 31.2856C11.5451 31.1973 11.4363 31.1065 11.3294 31.0137L11.0069 31.3356C11.1087 31.4437 11.2136 31.548 11.3198 31.6498L11.6558 31.2856Z" fill="#9CA3AF"/>
<path d="M10.6646 30.3765L10.3901 30.6036C10.4816 30.7246 10.5756 30.8417 10.6723 30.9569L10.9762 30.69C10.87 30.5883 10.7663 30.4833 10.6646 30.3765Z" fill="#9CA3AF"/>
<path d="M11.9278 32.5363C11.7979 32.4582 11.6699 32.3756 11.5438 32.2905L11.2527 32.6438C11.3755 32.7462 11.4997 32.846 11.627 32.942L11.9278 32.5356V32.5363Z" fill="#9CA3AF"/>
<path d="M9.5787 30.4868C9.49359 30.3825 9.40912 30.2763 9.32721 30.1675L9.19475 30.2584C9.26706 30.3748 9.34129 30.4894 9.41744 30.602L9.5787 30.4868Z" fill="#9CA3AF"/>
<path d="M11.0565 31.935C10.9355 31.8403 10.8158 31.7437 10.6994 31.6426L10.4511 31.8902C10.5605 32.0054 10.6719 32.1187 10.7864 32.2275L11.0565 31.935Z" fill="#9CA3AF"/>
<path d="M10.0812 31.4745L10.3051 31.2774C10.1938 31.1693 10.0844 31.0585 9.97813 30.9434L9.78296 31.1046C9.87959 31.2307 9.97941 31.3535 10.0812 31.4739V31.4745Z" fill="#9CA3AF"/>
<path d="M23.3195 32.2637C21.7748 33.2428 19.9338 33.7918 17.9686 33.7464C17.376 33.7323 16.7982 33.6645 16.2376 33.548L15.5478 36.6695C16.3067 36.8289 17.0906 36.9242 17.8943 36.9428C20.5148 37.0036 22.9702 36.2715 25.0294 34.9661L23.3195 32.2637Z" fill="#9CA3AF"/>
<path d="M8.00918 31.0737L7.82104 31.203C7.89975 31.3252 7.98102 31.4462 8.06357 31.5665L8.27091 31.4186C8.18196 31.3054 8.09429 31.1908 8.00918 31.0737Z" fill="#9CA3AF"/>
<path d="M15.3167 33.3086L14.3652 36.3386C14.5808 36.4128 14.7984 36.482 15.0172 36.5447C15.0966 36.5652 15.1759 36.5856 15.2559 36.6042L15.9701 33.4884C15.7493 33.4359 15.5311 33.3764 15.3167 33.3086Z" fill="#9CA3AF"/>
<path d="M8.73258 31.9752L8.50349 32.1647C8.611 32.3016 8.72107 32.4366 8.83433 32.5691L9.08262 32.3509C8.96295 32.228 8.84649 32.1026 8.73258 31.9746V31.9752Z" fill="#9CA3AF"/>
<path d="M11.7527 32.0378C11.8647 32.1312 11.9792 32.2221 12.0963 32.3098L12.438 31.8484C12.3235 31.7742 12.2102 31.698 12.0982 31.6187L11.7533 32.0372L11.7527 32.0378Z" fill="#9CA3AF"/>
<path d="M12.5504 33.5539L12.8607 33.0234C12.7027 32.9524 12.5478 32.8762 12.3955 32.7969L12.0826 33.2634C12.2355 33.3651 12.3917 33.4618 12.551 33.5539H12.5504Z" fill="#9CA3AF"/>
<path d="M8.92534 30.9532C8.83768 30.8444 8.75193 30.7337 8.66874 30.6211L8.54012 30.71C8.61563 30.8291 8.69369 30.9462 8.77368 31.062L8.92534 30.9539V30.9532Z" fill="#9CA3AF"/>
<path d="M10.3002 29.9714C10.2157 29.8716 10.1325 29.7705 10.0519 29.6675L9.84969 29.8063C9.9188 29.9203 9.98983 30.0316 10.0621 30.141L10.2995 29.9714H10.3002Z" fill="#9CA3AF"/>
<path d="M13.0975 35.0427C12.8806 34.9563 12.6656 34.8635 12.4544 34.7637L12.1505 35.33C12.3661 35.4541 12.5843 35.5745 12.8077 35.6858L13.0975 35.042V35.0427Z" fill="#9CA3AF"/>
<path d="M14.2619 35.4351C14.0111 35.3653 13.7622 35.2892 13.5171 35.2021L13.231 35.8869C13.4851 36.0027 13.7423 36.1115 14.0041 36.2107L14.2626 35.4351H14.2619Z" fill="#9CA3AF"/>
<path d="M13.4749 34.2067C13.2701 34.1369 13.0705 34.0614 12.8759 33.9795L12.5886 34.5151C12.7876 34.6252 12.9905 34.7282 13.1965 34.8255L13.4755 34.2067H13.4749Z" fill="#9CA3AF"/>
<path d="M15.0045 33.2046C14.8144 33.138 14.6269 33.0664 14.4432 32.9883L13.5986 35.0072C13.8328 35.1071 14.0715 35.1973 14.3133 35.2805L15.0045 33.2046Z" fill="#9CA3AF"/>
<path d="M12.5217 32.6076C12.6612 32.6991 12.8033 32.7874 12.9492 32.8713L13.2404 32.374C13.1073 32.2934 12.9761 32.2096 12.8468 32.1226L12.5217 32.6076Z" fill="#9CA3AF"/>
<path d="M9.69752 31.8115C9.5817 31.6964 9.46843 31.578 9.35837 31.457L9.17407 31.6093C9.27646 31.7399 9.38141 31.8679 9.48955 31.9939L9.69752 31.8109V31.8115Z" fill="#9CA3AF"/>
<path d="M12.9788 33.7878C13.1637 33.8825 13.3525 33.9708 13.5444 34.0533L14.0954 32.8311C13.9348 32.7549 13.7774 32.6743 13.6219 32.5898L12.9788 33.7878Z" fill="#9CA3AF"/>
<path d="M10.9269 33.8897C10.8546 33.8411 10.7816 33.7937 10.7106 33.7438C10.6338 33.6894 10.5602 33.6325 10.4853 33.5762L10.1897 33.9345C10.3324 34.058 10.4783 34.1783 10.6268 34.2954L10.9269 33.8897Z" fill="#9CA3AF"/>
<path d="M10.5016 32.5374C10.373 32.4337 10.2482 32.3262 10.1247 32.2168L9.8969 32.444C10.014 32.5662 10.1337 32.6859 10.2565 32.803L10.501 32.5374H10.5016Z" fill="#9CA3AF"/>
<path d="M12.4233 33.7742C12.2537 33.6917 12.0854 33.604 11.919 33.5093L11.6394 33.9265C11.8045 34.0404 11.9715 34.1505 12.1417 34.2554L12.4233 33.7742Z" fill="#9CA3AF"/>
<path d="M9.93877 33.1471C9.80375 33.0338 9.67193 32.9174 9.54202 32.7983L9.2771 33.0633C9.40188 33.1951 9.52923 33.3237 9.65977 33.4504L9.93877 33.1477V33.1471Z" fill="#9CA3AF"/>
<path d="M11.9808 34.5269C11.7984 34.4303 11.6186 34.3266 11.4407 34.2197L11.1335 34.6779C11.3121 34.8046 11.4932 34.9275 11.6781 35.0452L11.9814 34.5269H11.9808Z" fill="#9CA3AF"/>
<path d="M11.1594 33.5747L11.4301 33.2093C11.2938 33.1204 11.1562 33.0263 11.0193 32.9277L10.7556 33.2477C10.8228 33.3046 10.8887 33.3622 10.9572 33.4179C11.0237 33.4717 11.0928 33.5222 11.16 33.5747H11.1594Z" fill="#9CA3AF"/>
<path d="M16.5442 13.4597L16.5115 13.2031C16.3426 13.2204 16.1736 13.2422 16.006 13.2684L16.054 13.5717C16.2165 13.5301 16.3803 13.493 16.5448 13.4604L16.5442 13.4597Z" fill="#9CA3AF"/>
<path d="M16.6558 14.3357L16.611 13.9863C16.4498 14.0023 16.2885 14.0222 16.1279 14.0465L16.19 14.4413C16.3442 14.4023 16.499 14.3671 16.6558 14.3351V14.3357Z" fill="#9CA3AF"/>
<path d="M9.95601 14.0617L10.4743 14.6958C10.6586 14.5282 10.8487 14.3676 11.0426 14.2127L10.6094 13.5933C10.3867 13.7417 10.1697 13.8991 9.95601 14.061V14.0617Z" fill="#9CA3AF"/>
<path d="M12.3963 14.3279L12.0917 13.7891C11.8997 13.8972 11.7116 14.0118 11.526 14.1308L11.8997 14.6971C12.0616 14.5691 12.2267 14.4456 12.3963 14.3279Z" fill="#9CA3AF"/>
<path d="M15.7448 11.6187L15.7979 11.9534C15.9764 11.9144 16.1562 11.8792 16.3373 11.8485L16.2989 11.5483C16.114 11.5675 15.929 11.5912 15.7454 11.6187H15.7448Z" fill="#9CA3AF"/>
<path d="M12.9457 12.9782L12.7179 12.4624C12.5189 12.5462 12.3224 12.6358 12.1272 12.7299L12.4088 13.2745C12.5848 13.1714 12.7633 13.0722 12.9451 12.9782H12.9457Z" fill="#9CA3AF"/>
<path d="M11.9577 13.5512L11.6339 12.9785C11.4208 13.0931 11.2122 13.2153 11.0055 13.342L11.399 13.9384C11.5814 13.804 11.767 13.6741 11.957 13.5512H11.9577Z" fill="#9CA3AF"/>
<path d="M17.0393 11.4947L17.0534 11.752C17.2147 11.7347 17.3772 11.7206 17.5397 11.7104L17.5308 11.4819C17.367 11.4826 17.2032 11.4877 17.0387 11.4947H17.0393Z" fill="#9CA3AF"/>
<path d="M17.5708 12.5098L17.5644 12.353C17.4051 12.353 17.2457 12.3569 17.087 12.3639L17.0979 12.554C17.2547 12.5354 17.4128 12.5213 17.5708 12.5098Z" fill="#9CA3AF"/>
<path d="M9.65205 14.297C9.50295 14.4173 9.3564 14.5421 9.21242 14.6695C9.13819 14.7392 9.0646 14.809 8.99165 14.88L11.2429 17.1485C11.3933 17.002 11.5475 16.8605 11.7068 16.7236L9.65141 14.2964L9.65205 14.297Z" fill="#9CA3AF"/>
<path d="M17.6357 14.1888L17.6261 13.9444C17.4757 13.9418 17.3253 13.9444 17.1749 13.9495L17.1916 14.2432C17.3394 14.2221 17.4872 14.2035 17.6363 14.1888H17.6357Z" fill="#9CA3AF"/>
<path d="M16.4403 12.6546L16.4089 12.4121C16.2323 12.4307 16.0557 12.4537 15.8803 12.4806L15.9245 12.7615C16.0954 12.7212 16.2668 12.686 16.4396 12.6546H16.4403Z" fill="#9CA3AF"/>
<path d="M17.6028 13.3086L17.5964 13.1486C17.4415 13.1479 17.2867 13.1492 17.1318 13.1556L17.1433 13.3598C17.2963 13.3393 17.4492 13.3214 17.6028 13.3086Z" fill="#9CA3AF"/>
<path d="M15.1753 12.1082L15.0909 11.7319C14.9072 11.769 14.7242 11.8106 14.5424 11.8567L14.6519 12.2663C14.8253 12.2093 14.9993 12.1568 15.1753 12.1082Z" fill="#9CA3AF"/>
<path d="M15.5344 13.718L15.4563 13.3687C15.2957 13.4032 15.1357 13.4422 14.9764 13.4851L15.08 13.8729C15.2298 13.8172 15.3814 13.766 15.5344 13.718Z" fill="#9CA3AF"/>
<path d="M15.7273 14.5712L15.63 14.1367C15.4796 14.1681 15.3299 14.2033 15.1808 14.2417L15.3068 14.7114C15.4457 14.6615 15.5859 14.6147 15.7279 14.5712H15.7273Z" fill="#9CA3AF"/>
<path d="M12.5022 14.5156C12.3294 14.6174 12.1598 14.7255 11.9921 14.8375L12.7312 15.9567C12.8739 15.8646 13.0192 15.7769 13.167 15.6918L12.5022 14.5156Z" fill="#9CA3AF"/>
<path d="M13.2949 13.7718L13.0831 13.2925C12.902 13.3718 12.7241 13.4569 12.5481 13.5452L12.8118 14.0546C12.9698 13.9554 13.1311 13.8614 13.2949 13.7718Z" fill="#9CA3AF"/>
<path d="M13.7283 14.7554C13.5785 14.8232 13.4301 14.8949 13.2848 14.971L13.5504 15.4842C13.686 15.4145 13.8223 15.3467 13.9618 15.2833L13.7289 14.756L13.7283 14.7554Z" fill="#9CA3AF"/>
<path d="M8.78142 15.0898C6.5366 17.3942 5.15247 20.54 5.15247 24.0103H8.34948C8.34948 21.418 9.37911 19.067 11.0506 17.3411L8.78207 15.0898H8.78142Z" fill="#9CA3AF"/>
<path d="M11.1577 14.377C10.9587 14.5165 10.7629 14.6617 10.5722 14.8147L11.9608 16.513C12.1087 16.3953 12.2597 16.2814 12.4139 16.1726L11.1577 14.377Z" fill="#9CA3AF"/>
<path d="M13.8725 12.5492C13.9141 12.5319 13.9569 12.5172 13.9985 12.5006L13.8494 12.0469C13.6677 12.1032 13.4879 12.1646 13.3087 12.2299L13.4956 12.7124C13.6204 12.6561 13.7451 12.6004 13.8725 12.5486V12.5492Z" fill="#9CA3AF"/>
<path d="M13.6387 14.5493L13.4153 14.0444C13.2509 14.1193 13.089 14.198 12.929 14.2812L13.2054 14.8149C13.3469 14.7221 13.4915 14.6338 13.6387 14.5487V14.5493Z" fill="#9CA3AF"/>
<path d="M14.2626 13.303L14.1295 12.8979C14.0918 12.9101 14.0534 12.921 14.0156 12.9331C13.8877 12.976 13.761 13.0234 13.6342 13.0707L13.8038 13.5084C13.9548 13.4361 14.1078 13.3677 14.262 13.3024L14.2626 13.303Z" fill="#9CA3AF"/>
<path d="M14.7914 14.9119L14.625 14.4058C14.4849 14.4518 14.346 14.4998 14.2085 14.5529L14.4139 15.0834C14.538 15.0239 14.6641 14.9663 14.7908 14.9119H14.7914Z" fill="#9CA3AF"/>
<path d="M14.5241 14.1L14.3807 13.6636C14.2278 13.7148 14.0768 13.7692 13.927 13.8274L14.1081 14.2952C14.2444 14.2267 14.3839 14.1621 14.5241 14.1Z" fill="#9CA3AF"/>
<path d="M15.3547 12.9125L15.2824 12.5913C15.1109 12.6271 14.94 12.6675 14.7698 12.7116L14.8658 13.0712C15.0277 13.0143 15.1902 12.9612 15.3541 12.9125H15.3547Z" fill="#9CA3AF"/>
<path d="M29.9691 22.6725C28.7084 22.3852 27.6193 22.1369 27.6193 21.4509C27.6193 20.5154 28.8537 20.3752 29.589 20.3752C30.3729 20.3752 31.1721 20.5493 31.965 20.8923L32.0283 20.9198L34.0805 18.8682L33.8546 18.721C32.7591 18.0299 31.2105 17.6338 29.6075 17.6338C26.4169 17.6338 24.3557 19.1856 24.3557 21.5859C24.3557 24.3696 26.8553 24.9506 28.871 25.4197C30.1329 25.7128 31.2233 25.9656 31.2233 26.665C31.2233 27.5276 29.9684 27.6562 29.2204 27.6562C28.1671 27.6562 27.0274 27.3651 26.0931 26.8582L26.0266 26.8224L24.0281 28.8209L24.2265 28.9757C25.3406 29.8403 27.2936 30.3989 29.2018 30.3989C33.1027 30.3989 34.4869 28.2795 34.4869 26.4647C34.4869 23.7092 31.9848 23.1358 29.9691 22.6738V22.6725Z" fill="#9CA3AF"/>
</g>
<defs>
<clipPath id="clip0_4215_5984">
<rect width="207.486" height="47.9992" fill="white" transform="translate(0.687866 0.000488281)"/>
</clipPath>
</defs>
</svg>
