<svg width="196" height="48" viewBox="0 0 196 48" fill="none" xmlns="http://www.w3.org/2000/svg">
<g clipPath="url(#clip0_4215_5957)">
<path d="M5.02009 40.0544C3.57435 39.2971 2.83896 38.7057 2.83896 37.5604C2.83896 36.681 3.29585 35.7454 4.5726 35.7454C6.19671 35.7454 6.6442 36.9282 6.93522 38.036L6.95713 38.1142L7.67999 37.964L7.67061 37.8858C7.54856 36.8531 7.47033 36.1584 7.40462 35.5451L7.37645 35.2697L7.31074 35.2572C7.23876 35.2447 7.13863 35.2228 7.02284 35.1977C6.55345 35.0976 5.76799 34.9224 4.94186 34.9224C3.05489 34.9224 1.14914 36.0333 1.14914 38.1424C1.14914 39.8416 2.18807 40.7366 4.1032 41.7849C5.59275 42.6079 6.29998 43.1368 6.29998 44.4292C6.29998 45.5776 5.53955 46.3506 4.40049 46.3506C2.6825 46.3506 1.8814 44.861 1.50588 43.6124L1.48398 43.5311L0.761108 43.7188L0.767368 43.7971C0.889411 44.7014 1.11472 46.0595 1.25867 46.5571L1.27119 46.6009L1.30874 46.6166C2.08167 46.9045 3.00795 47.2017 4.0813 47.2017C6.41263 47.2017 8.10245 45.756 8.10245 43.7564C8.10245 41.9852 7.06352 41.1215 5.02009 40.0575" fill="#9CA3AF"/>
<path d="M12.4209 43.3427L12.6149 43.2551C12.9904 43.083 13.488 42.8577 13.8197 42.6918V45.3079C13.5036 45.6114 12.9811 45.8336 12.5836 45.8336C12.1424 45.8336 11.4352 45.4863 11.4352 44.5537C11.4352 43.931 11.8326 43.6212 12.424 43.3458M16.5985 45.5551C16.3763 45.6709 16.1855 45.7304 16.0196 45.7304C15.5878 45.7304 15.5001 45.1952 15.5001 44.7478V41.3681C15.5001 40.4074 15.2185 39.7628 14.5551 39.2089C14.1358 38.8897 13.5788 38.7051 12.9591 38.7051H12.9466C11.8482 38.9429 10.7499 39.672 10.3305 39.9693C9.96128 40.2353 9.70781 40.4731 9.70781 40.7767C9.70781 41.2617 10.2116 41.6779 10.6184 41.6779C10.9501 41.6779 11.1473 41.5121 11.2599 41.1522C11.4101 40.6452 11.5197 40.2729 11.7012 40.0382C11.9046 39.7847 12.1424 39.6689 12.4397 39.6689C13.3065 39.6689 13.8197 40.348 13.8197 41.4808V41.8719C13.4317 42.1661 12.2457 42.5854 11.2912 42.9203L11.0878 42.9922C10.0771 43.3552 9.60767 43.9467 9.60767 44.8542C9.60767 45.9588 10.4745 47.1511 11.8827 47.1511C12.3521 47.1511 13.0812 46.6441 13.7258 46.2029C13.7853 46.1591 13.8416 46.1215 13.9011 46.0808C13.9793 46.3187 14.0888 46.5627 14.3141 46.7755C14.5082 46.9915 14.9118 47.1511 15.2467 47.1511H15.2686L16.9208 46.1904L16.683 45.5113L16.5954 45.5551H16.5985Z" fill="#9CA3AF"/>
<path d="M25.0195 44.8229V38.777L24.9193 38.7927C24.4061 38.8803 23.1513 39.0618 22.0529 39.1119H21.9715V39.7534L22.6005 39.841C23.12 39.9224 23.2952 39.9943 23.2952 40.9112V45.0513C22.7757 45.5426 22.2031 45.7961 21.596 45.7961C21.0609 45.7961 20.1534 45.552 20.1534 43.9529V41.4964C20.1534 40.3417 20.1596 39.4749 20.2035 38.8834L20.216 38.7739L20.1064 38.7896C19.5651 38.8834 18.3071 39.0712 17.4684 39.1087H17.3871V39.7503L17.9285 39.8567C18.2977 39.9349 18.4417 39.9662 18.4417 40.905V44.4067C18.4417 46.8788 20.047 47.1448 20.7448 47.1448C21.693 47.1448 22.444 46.6159 23.3015 45.8962V47.173L23.411 47.1385C24.4656 46.8413 25.4044 46.6316 26.2117 46.5158L26.2837 46.5033V45.8305L25.7267 45.8086C25.1415 45.771 25.0257 45.6928 25.0257 44.8197" fill="#9CA3AF"/>
<path d="M33.2058 40.4329V45.2802C32.8366 45.5462 32.2514 45.8216 31.6944 45.8216C30.5804 45.7997 29.3975 44.6669 29.3975 42.6078C29.3975 39.7382 31.1812 39.588 31.5411 39.588C32.242 39.588 32.8773 39.9135 33.209 40.4329M34.9332 44.7451V33.9678L34.8237 34.0053C34.129 34.2369 32.8522 34.4872 31.9479 34.6062L31.8759 34.6187V35.2602L31.9541 35.2664C33.1182 35.376 33.2121 35.3822 33.2121 36.4431V38.8401C32.7928 38.7087 32.2577 38.7087 32.192 38.7087C29.604 38.7087 27.4949 40.6895 27.4949 43.1366C27.4949 45.7527 29.482 47.1515 30.9121 47.1515C31.0654 47.1515 31.4972 47.1015 32.2608 46.654C32.4204 46.5538 32.6144 46.438 32.8084 46.3285C32.9524 46.2472 33.0901 46.1627 33.2184 46.0844V47.1891L33.3279 47.1515C34.2823 46.8198 35.4245 46.6227 35.9721 46.5225C36.0535 46.5069 36.1255 46.4944 36.1756 46.485L36.2413 46.4725V45.8059L35.6342 45.7621C35.0334 45.7246 34.9395 45.6526 34.9395 44.7514" fill="#9CA3AF"/>
<path d="M39.5583 44.9073V38.6299L39.4425 38.6737C38.6633 38.9835 37.7902 39.2151 36.8358 39.3684L36.7638 39.3809V39.988L36.8358 40.0005C37.8121 40.1601 37.8403 40.1945 37.8403 41.271V44.9104C37.8403 46.0933 37.7401 46.1371 36.7137 46.2403L36.6355 46.2529V46.9319H40.7943V46.2529L40.7161 46.2403C39.6553 46.1339 39.5551 46.0901 39.5551 44.9104" fill="#9CA3AF"/>
<path d="M38.5975 37.2161C39.1764 37.2161 39.6646 36.7186 39.6646 36.1271C39.6646 35.4981 39.2077 35.0068 38.6163 35.0068C38.0249 35.0068 37.5242 35.4981 37.5242 36.1271C37.5242 36.7061 38.028 37.2161 38.6007 37.2161" fill="#9CA3AF"/>
<path d="M54.1032 43.7217C53.1488 45.6368 52.2382 46.3159 50.636 46.3159C47.9479 46.3159 46.2143 44.1473 46.2143 40.7833C46.2143 37.7009 47.8384 35.7857 50.4545 35.7857C51.0991 35.7857 51.7907 35.9078 52.21 36.1018C53.0205 36.4398 53.4868 37.075 53.8623 38.3643L53.8842 38.4425L54.6133 38.2829L54.6039 38.2047C54.4256 37.0938 54.3066 35.7858 54.2722 35.4165L54.2597 35.3445L54.194 35.3383C54.0719 35.3164 53.9123 35.2819 53.7183 35.2507C53.0518 35.1192 52.041 34.9189 50.8582 34.9189C46.8433 34.9189 44.0457 37.485 44.0457 41.165C44.0457 44.1691 46.0547 47.1983 50.539 47.1983C51.7813 47.1983 53.0393 46.9229 53.6432 46.7884L53.8247 46.7508L53.8404 46.7133C54.1064 46.1625 54.557 44.8795 54.8167 43.9814L54.8386 43.9L54.1377 43.6559L54.1032 43.7217Z" fill="#9CA3AF"/>
<path d="M58.1995 41.6093C58.4155 40.3826 59.0789 39.5658 59.8675 39.5658C60.2211 39.5658 60.5403 39.6973 60.7937 39.957C61.1098 40.2824 61.2788 40.7644 61.2756 41.2807C61.2756 41.4841 61.2256 41.5498 60.9502 41.5498H60.9439C59.9958 41.5936 59.082 41.5999 58.1995 41.6061M60.2743 38.7021C59.3073 38.7021 58.3185 39.1841 57.5674 40.0227C56.807 40.8332 56.3689 42.0004 56.3689 43.2209C56.3689 45.1704 57.5987 47.145 59.9457 47.145C60.2211 47.145 61.6731 47.0574 62.9874 45.3394L63.0249 45.2893L62.6432 44.7323L62.5712 44.798C61.9359 45.3832 61.2913 45.6711 60.5935 45.6711C59.9582 45.6711 59.3636 45.4176 58.9162 44.9576C58.3748 44.4006 58.0869 43.5713 58.0869 42.5606C60.0083 42.4886 62.3114 42.3384 62.687 42.2633C63.0281 42.1757 63.075 41.9034 63.0844 41.578C63.0844 40.8269 62.7746 40.0884 62.2332 39.5346C61.7044 38.9994 61.0065 38.7021 60.268 38.7021" fill="#9CA3AF"/>
<path d="M72.6726 44.9702V41.5843C72.6726 39.8068 71.762 38.7022 70.2943 38.7022C69.7154 38.7022 69.2335 38.9619 68.8048 39.2373C68.3917 39.5064 68.0381 39.7568 67.7502 39.9539C67.7565 39.5502 67.7565 39.0652 67.7627 38.7335V38.6021L67.6407 38.6521C66.9272 38.9619 66.0354 39.2029 65.0621 39.3531L64.9902 39.3687V39.9977L65.0621 40.0102C65.9446 40.1636 66.0354 40.1823 66.0354 41.2807V44.9577C66.0354 46.1061 65.9477 46.1186 64.8932 46.2376L64.8149 46.2501V46.9291H68.8361V46.2501L68.7579 46.2376C67.8128 46.1312 67.7534 46.128 67.7534 44.9733V40.8145C68.3667 40.2731 68.9581 40.004 69.5089 40.004C70.4696 40.004 70.9546 40.6486 70.9546 41.9254V44.8857C70.9546 46.0905 70.8607 46.1405 69.9658 46.2376L69.8938 46.2501V46.9291H73.771V46.2501L73.6928 46.2376C72.754 46.1312 72.6757 46.128 72.6757 44.9671" fill="#9CA3AF"/>
<path d="M79.2378 45.6307C78.8842 45.8028 78.5462 45.8904 78.2427 45.8904C77.6356 45.8904 77.3321 45.349 77.3321 44.2944V39.8508H79.122L79.1439 39.8352C79.2722 39.7413 79.3598 39.5661 79.3755 39.372C79.3911 39.1999 79.3536 39.0466 79.2691 38.9465L79.2409 38.9183H77.3258C77.3258 38.0358 77.3414 37.0564 77.3759 36.3523L77.3821 36.274L77.0066 36.1958L76.9784 36.2302C76.7907 36.4055 76.5528 36.6183 76.3275 36.8217C76.0835 37.0376 75.8362 37.2566 75.636 37.4507L75.6078 37.4726V38.9183H74.863L74.3217 39.5316L74.4374 39.8508H75.6078V44.914C75.6078 46.3942 76.2431 47.1515 77.4948 47.1515C77.6606 47.1515 77.9516 47.0858 78.2834 46.9137L79.5351 46.2502L79.3192 45.5868L79.2315 45.6307H79.2378Z" fill="#9CA3AF"/>
<path d="M86.3475 38.7047C85.5307 38.7047 84.8392 39.4996 84.2164 40.4165V38.6108L84.0944 38.6609C83.2839 39.002 82.4609 39.2304 81.5096 39.3775L81.4376 39.39V40.0034L81.5096 40.0159C82.4358 40.1442 82.4922 40.1473 82.4922 41.2457V44.9884C82.4922 46.1024 82.4139 46.1431 81.3938 46.2432L81.3156 46.2557V46.9348H85.6402V46.2495L85.562 46.2432C84.2634 46.1337 84.2164 46.0899 84.2164 44.979V41.64C84.5982 40.7575 85.1865 40.3413 85.465 40.3413C85.7435 40.3413 85.9281 40.5072 86.2098 40.7826C86.3882 40.9359 86.5759 40.9578 86.7793 40.8389C87.1173 40.6574 87.474 40.2162 87.474 39.6905C87.474 39.1992 87.086 38.7078 86.3475 38.7078" fill="#9CA3AF"/>
<path d="M91.3921 43.3427L91.5861 43.2551C91.9616 43.083 92.4592 42.8577 92.7909 42.6918V45.3079C92.4748 45.6114 91.9522 45.8336 91.5548 45.8336C91.1136 45.8336 90.4064 45.4863 90.4064 44.5537C90.4064 43.931 90.8038 43.6212 91.3952 43.3458M95.5697 45.5551C95.3475 45.6709 95.1566 45.7304 94.9908 45.7304C94.5589 45.7304 94.4713 45.1952 94.4713 44.7478V41.3681C94.4713 40.4074 94.1897 39.7628 93.5263 39.2089C93.107 38.8897 92.5499 38.7051 91.9303 38.7051H91.9178C90.8194 38.9429 89.7211 39.672 89.3017 39.9693C88.9325 40.2353 88.679 40.4731 88.679 40.7767C88.679 41.2617 89.1828 41.6779 89.5896 41.6779C89.9213 41.6779 90.1185 41.5121 90.2249 41.171L90.2311 41.1491C90.3845 40.6421 90.4909 40.276 90.6724 40.0382C90.8758 39.7847 91.1136 39.6689 91.4109 39.6689C92.2777 39.6689 92.7909 40.348 92.7909 41.4808V41.8719C92.4029 42.1661 91.2169 42.5854 90.2624 42.9203L90.059 42.9922C89.0482 43.3552 88.5789 43.9467 88.5789 44.8542C88.5789 45.9588 89.4457 47.1511 90.8539 47.1511C91.3233 47.1511 92.0524 46.6441 92.697 46.2029C92.7565 46.1591 92.8128 46.1215 92.8754 46.0808C92.9536 46.3187 93.0631 46.5627 93.2885 46.7755C93.4825 46.9915 93.8862 47.1511 94.221 47.1511H94.2429L95.8889 46.1904L95.6573 45.5113L95.5697 45.5551Z" fill="#9CA3AF"/>
<path d="M99.1151 44.9537V33.9604L98.9993 34.0042C98.4079 34.2202 97.2876 34.4956 96.2925 34.6051L96.2142 34.6113V35.2466L96.2925 35.2591C97.3314 35.4093 97.3971 35.475 97.3971 36.4889V44.9537C97.3971 46.0865 97.297 46.1303 96.2486 46.2398L96.1704 46.2461V46.9314H100.329V46.2461L100.251 46.2398C99.1683 46.1334 99.1151 46.074 99.1151 44.9537Z" fill="#9CA3AF"/>
<path d="M107.761 40.2476H106.982V36.9337C106.982 36.4267 107.02 36.2546 107.136 36.167C107.289 36.0606 107.583 36.0137 108.046 36.0137C109.47 36.0137 110.321 36.8022 110.321 38.1228C110.321 39.5748 109.504 40.2476 107.758 40.2476M108.444 46.0931C107.83 46.0994 107.495 46.0055 107.283 45.799C107.073 45.583 106.979 45.2138 106.979 44.5629V41.0675H107.702C109.867 41.0675 110.922 41.8842 110.922 43.574C110.922 45.4297 109.586 46.0869 108.444 46.0931ZM110.184 40.5324C111.251 40.1694 112.277 39.3182 112.277 37.8725C112.277 37.0119 111.902 36.2984 111.194 35.8071C110.553 35.3721 109.67 35.1719 108.406 35.1719H103.574V35.8666L103.656 35.8728C105.03 35.9886 105.142 36.1107 105.142 37.5189V44.6036C105.142 45.9992 105.061 46.0931 103.653 46.2308L103.574 46.2371V46.9318H108.096C109.404 46.9318 110.343 46.7159 111.232 46.2152C112.343 45.6018 112.981 44.5754 112.981 43.3988C112.981 41.9249 112.014 40.9361 110.18 40.5324" fill="#9CA3AF"/>
<path d="M117.594 43.3427L117.794 43.2551C118.163 43.083 118.661 42.8577 118.993 42.6918V45.3079C118.677 45.6114 118.154 45.8336 117.756 45.8336C117.315 45.8336 116.608 45.4863 116.608 44.5537C116.608 43.931 117.005 43.6212 117.597 43.3458M121.771 45.5551C121.549 45.6709 121.358 45.7304 121.196 45.7304C120.761 45.7304 120.67 45.1952 120.67 44.7478V41.3681C120.67 40.4074 120.388 39.7628 119.725 39.2089C119.305 38.8897 118.748 38.7051 118.129 38.7051H118.116C117.018 38.9429 115.92 39.672 115.5 39.9693C115.131 40.2353 114.878 40.4731 114.878 40.7767C114.878 41.2617 115.381 41.6779 115.788 41.6779C116.12 41.6779 116.317 41.5121 116.43 41.1522C116.58 40.6452 116.689 40.2729 116.877 40.0382C117.077 39.7847 117.312 39.6689 117.613 39.6689C118.479 39.6689 118.993 40.348 118.993 41.4808V41.8719C118.605 42.1661 117.425 42.5854 116.47 42.9203L116.261 42.9922C115.25 43.3552 114.781 43.9467 114.781 44.8542C114.781 45.9588 115.647 47.1511 117.056 47.1511C117.525 47.1511 118.254 46.6441 118.899 46.2029C118.958 46.1591 119.014 46.1215 119.077 46.0808C119.155 46.3187 119.265 46.5627 119.49 46.7755C119.684 46.9915 120.088 47.1511 120.423 47.1511H120.445L122.097 46.1904L121.859 45.505L121.771 45.5551Z" fill="#9CA3AF"/>
<path d="M130.23 44.9702V41.5843C130.23 39.8068 129.319 38.7022 127.851 38.7022C127.273 38.7022 126.791 38.9619 126.362 39.2373C125.949 39.5064 125.595 39.7568 125.314 39.9539C125.314 39.5502 125.314 39.0652 125.32 38.7335V38.6021L125.198 38.6521C124.484 38.9619 123.592 39.2029 122.619 39.3531L122.547 39.3687V39.9977L122.619 40.0102C123.502 40.1636 123.593 40.1823 123.593 41.2807V44.9577C123.593 46.1061 123.505 46.1186 122.45 46.2376L122.372 46.2501V46.9291H126.393V46.2501L126.315 46.2376C125.37 46.1312 125.317 46.128 125.317 44.9733V40.8145C125.924 40.2731 126.515 40.004 127.066 40.004C128.027 40.004 128.512 40.6486 128.512 41.9254V44.8857C128.512 46.0905 128.418 46.1405 127.523 46.2376L127.451 46.2501V46.9291H131.328V46.2501L131.25 46.2376C130.311 46.1312 130.233 46.128 130.233 44.9671" fill="#9CA3AF"/>
<path d="M140.954 46.2405C140.29 46.1967 140.065 46.1466 139.277 45.3299C138.763 44.7603 137.061 42.7451 136.62 42.1317C137.023 41.6404 137.709 40.8519 138.012 40.5295C138.735 39.7629 139.123 39.6126 140.294 39.4249L140.366 39.4124V38.7552L136.545 38.9148V39.5939L136.623 39.6001C136.898 39.6283 137.274 39.6784 137.336 39.8098C137.371 39.8755 137.324 40.0038 137.192 40.1916C136.917 40.6172 136.266 41.412 135.862 41.8188C135.587 42.113 135.287 42.3007 134.908 42.404V33.958L134.799 34.0018C134.041 34.2835 132.977 34.5213 132.089 34.6026L132.01 34.6089V35.2441L132.082 35.2567C133.109 35.4163 133.193 35.4319 133.193 36.5115V44.9575C133.193 46.0621 133.127 46.1279 132.045 46.2374L131.973 46.2436V46.929H136.107V46.2436L136.028 46.2374C134.952 46.1279 134.908 46.0778 134.908 44.9575V43.0643C134.989 43.0486 135.08 43.0518 135.111 43.0518C135.218 43.058 135.312 43.13 135.531 43.3897C135.603 43.468 137.064 45.2986 137.856 46.2843C138.144 46.6473 138.347 46.9039 138.375 46.9352L138.403 46.9696H138.441C138.838 46.9477 139.893 46.9258 140.954 46.9321H141.035V46.2468L140.957 46.2405H140.954Z" fill="#9CA3AF"/>
<path d="M58.2215 1.56359C58.3028 1.20059 58.9725 1.01283 58.863 1.8953C58.7034 1.98292 58.3216 1.72319 58.2215 1.56359ZM58.6314 2.73396C58.5031 2.88416 58.3779 2.98743 58.2434 3.13138C58.09 3.30349 58.0275 3.38485 57.8553 3.53506C57.5581 3.80105 57.2702 4.03887 56.9541 4.28609C56.6787 4.49575 55.2048 5.58475 55.1266 5.77564C55.6085 5.6755 57.0198 4.81494 57.3641 4.54582C57.7396 4.25166 58.5469 3.4756 58.7879 3.06566C58.8599 2.94362 58.8442 2.93423 58.9475 2.82158C59.1634 2.92797 59.2354 2.94362 59.4012 3.11573C59.4106 3.10322 59.4231 3.0813 59.4231 3.08756C59.445 3.11572 59.6703 2.66824 59.6829 2.48987C59.6954 2.28021 59.4231 2.18007 59.1853 2.09245C59.1947 1.69502 59.3574 1.19121 59.1477 0.771879C58.8067 0.0709158 57.6738 1.1693 57.8053 1.97666C57.8428 2.22075 58.0087 2.33654 58.137 2.43042C58.2027 2.47423 58.2809 2.53681 58.3748 2.58062C58.4124 2.60252 58.4562 2.61504 58.5062 2.64007L58.6283 2.73396H58.6314ZM57.9743 5.17481C57.8866 5.23427 57.9367 5.16855 57.8804 5.28434C57.799 5.47209 57.7802 6.12299 57.4454 6.39523C57.2921 6.51102 56.9541 6.59864 56.8321 6.41714C56.7006 6.20122 56.8665 5.84761 56.8164 5.59413C56.3189 5.83822 56.0497 7.78152 57.2921 7.15253C57.4454 7.0743 57.4642 7.02422 57.5894 6.93034C57.7677 6.80204 57.7896 6.88654 58.0149 6.88654C59.1571 6.88654 59.6171 5.14038 59.1571 4.63344C59.0476 4.7148 58.8035 5.09658 58.8599 5.27495C58.9318 5.52842 59.2573 5.88203 58.4937 6.10421C58.4437 6.11986 58.3404 6.14802 58.2841 6.14802C58.1057 6.14802 58.1464 6.17619 58.0963 6.04789C57.9899 5.76625 58.2058 5.37508 57.9743 5.17481ZM79.1878 6.4766C79.4538 6.21687 79.9263 5.14039 79.5977 4.70855C79.2379 4.23289 78.1958 4.50827 77.6826 4.70855C76.628 5.12161 75.4013 5.93523 74.6253 6.50789C73.8961 7.04301 72.5818 8.06003 71.9904 8.76725C71.2175 9.69039 69.027 12.6601 71.4709 13.3392C73.2546 13.8367 76.4027 13.4831 78.1895 13.2954C81.1217 12.9918 84.0695 12.6664 87.0361 12.4223C88.7416 12.2846 90.8413 12.2063 91.9929 13.433C92.0524 13.4925 92.5343 14.012 92.4686 14.1277C92.4091 14.2373 90.6254 14.375 90.3594 14.4031C85.9972 14.9226 81.7476 15.5641 77.4072 16.0429C75.3794 16.2651 70.2411 16.5717 68.4512 15.7988C67.6438 15.4514 66.9366 14.8225 66.5016 14.0777C66.3983 13.8962 66.1699 13.4049 66.0885 13.3204C65.9289 13.3767 65.8789 13.5207 65.8194 13.7303C65.5753 14.5846 65.5597 14.7974 65.8351 15.3482C66.1167 15.9177 66.414 16.5968 66.5736 17.257C66.8052 18.1958 66.7238 18.3054 65.9383 19.0251L64.4488 20.1861C63.3567 20.9527 60.1929 22.9367 58.8724 21.5223C58.4311 21.0466 58.0494 20.474 58.0619 19.7229C58.3936 19.6228 58.8473 19.3537 59.154 19.1972C59.9207 18.8123 61.4008 17.8673 62.0298 17.2602C62.5274 16.7814 63.0907 16.1493 63.0907 15.1072C63.0969 13.9306 62.5118 13.7491 61.5385 13.4612C60.7155 13.2171 59.7986 13.1138 59.0664 12.7446C58.7034 12.5568 58.2997 12.3534 58.5407 11.8121C58.9318 10.939 59.9363 9.71542 60.6436 9.13024C62.1738 7.866 62.3052 9.20848 62.5368 9.41189C62.7903 9.33991 62.9686 8.88616 63.0062 8.54506C63.1001 7.76587 62.8028 6.87715 61.961 6.97729C61.4822 7.03362 61.0378 7.40288 60.6905 7.672C60.5372 7.78778 60.4683 7.8754 60.3369 7.99118C59.6297 8.63582 59.1227 9.3712 58.6408 10.2099C58.3373 10.745 58.0556 11.4678 57.9273 12.1531C57.727 13.1921 57.8115 13.6771 58.4311 14.1747C59.3105 14.8882 61.7107 14.9038 62.3396 15.4952C62.4617 15.7487 61.6762 16.2119 61.501 16.3276C61.1599 16.5592 60.8501 16.747 60.484 16.9691C60.0427 17.2383 58.7597 17.9799 58.2684 18.102C58.3341 17.6764 58.6283 16.8972 58.5939 16.5561C58.2747 16.7219 58.0306 18.0519 57.9211 18.2334C57.8491 18.3492 57.2576 18.5275 57.0918 18.587C55.3926 19.1941 52.9173 19.5602 51.7626 17.9862C49.9507 15.5234 52.1319 12.4442 52.1882 11.6212C52.0348 11.6149 51.9629 11.7526 51.8784 11.8809C51.7908 12.0123 51.7344 12.1031 51.6531 12.2439C50.0571 14.9601 49.5783 20.4489 53.8342 20.7306C55.4802 20.8401 56.4002 20.2893 57.6551 19.9232C57.5768 21.5411 58.0681 22.9367 59.1916 23.428C60.6154 24.0508 62.7089 22.9461 63.8292 22.1857C64.9995 21.3908 66.3514 20.3519 66.9804 19.0564C67.3903 18.2052 67.2276 17.8422 67.3215 16.9097C67.5531 17.0098 67.7971 17.1694 68.0788 17.2915C68.3479 17.4072 68.6264 17.5074 68.9237 17.5856C70.601 18.0206 73.5519 17.9893 75.223 17.8297C77.9392 17.5762 80.596 17.2226 83.2903 16.8471C86.2538 16.434 89.308 15.9959 92.262 15.6329C92.7471 15.5735 92.7439 15.5391 92.9567 15.1917C94.1052 13.3298 92.8034 11.8027 91.0791 11.1768C89.7085 10.6792 88.5382 10.745 87.033 10.8608C85.6811 10.9609 84.2792 11.1142 82.9304 11.2738C80.1923 11.6055 75.1072 12.2908 72.5067 11.8527C72.175 11.7933 70.8889 11.5711 71.1142 11.0454C71.28 10.6699 72.8823 9.20535 73.4111 8.79228C74.2435 8.12887 75.0415 7.50613 76.0773 6.92096C79.0407 5.24365 78.684 6.3483 79.1815 6.47973M25.7425 14.9507C25.3607 15.0227 24.9414 15.0884 24.5377 15.0165C24.2279 14.9601 23.7866 14.691 24.0902 14.3593C24.4375 13.9775 25.2825 14.1841 25.7425 14.9507ZM0.93649 11.3176L0.877032 11.8434C0.761248 12.7978 1.1086 13.311 1.54044 13.1796C1.43092 13.4111 1.33078 13.6427 1.24629 13.893C0.958392 14.7599 0.7988 15.611 0.764377 16.5874C0.698662 18.4211 1.19935 20.0672 2.9674 20.7556C5.26431 21.6568 9.21662 19.7886 11.1599 18.3648C11.3133 18.2553 11.4541 18.1708 11.6231 18.0394C11.7044 17.9736 11.767 17.9236 11.839 17.8579L12.0768 17.6826C11.9954 18.1176 11.8327 18.5494 11.7451 19.0345C11.5229 20.2487 11.3852 22.3296 12.7214 22.7271C13.654 23.0087 14.5583 22.3672 15.2124 22.0324C15.6536 21.8008 16.9366 20.8964 17.2151 20.7775C17.3152 20.9434 17.4029 21.419 17.5343 21.6725C18.7641 24.0257 21.5273 22.9524 23.1483 21.7601C24.1809 20.9997 25.4796 19.8387 26.2463 18.8561C26.797 18.1489 27.1569 17.1882 27.1945 16.2338C27.4636 16.0836 28.1332 15.8426 28.465 15.6924L31.7945 14.2248C31.4472 15.2074 30.9997 16.8847 31.3126 17.8923C31.4221 18.2303 31.6443 18.5432 31.9103 18.7216C32.8491 19.3568 34.2573 18.8874 35.0678 18.2083C35.653 17.7233 36.1881 16.7908 36.5135 16.844C36.6794 17.2477 36.4541 17.8047 37.1112 18.3899C37.4992 18.7278 38.2722 18.8092 38.8448 18.6558C39.3925 18.5119 39.8775 18.1708 40.1873 17.8673C41.0541 17.0349 40.7881 17.1663 41.1261 16.7845C41.2043 16.6969 41.1198 16.7626 41.2262 16.6969C41.3483 17.7452 41.8552 18.6527 43.0663 18.4368C43.5795 18.3429 43.9331 18.0175 44.1647 17.7139C44.2961 17.5387 44.4087 17.3666 44.512 17.1569C44.6121 16.9535 44.6904 16.7157 44.8156 16.5655C45.0596 16.8815 45.141 17.6795 45.9265 18.055C46.7369 18.4462 47.3346 18.1113 47.8197 17.6795C48.6521 16.941 49.1183 15.2324 49.134 13.771C49.1559 11.7839 48.7866 7.35594 48.6083 4.99331C48.5864 4.66161 48.5081 4.08895 48.5519 3.75098C48.7553 3.85112 48.8836 4.25793 49.2685 4.308C49.3249 3.84486 48.8774 2.84347 48.7053 2.39286C48.5738 2.03924 48.1483 0.768748 47.9605 0.593507C47.7853 0.687386 47.6069 1.31638 47.5287 1.52604C47.2971 2.18945 47.4567 2.03299 47.5725 2.63069C47.6288 2.94674 47.6945 4.75548 47.7227 5.2593C47.8259 6.99293 47.9668 8.85486 48.0857 10.5885C48.1514 11.5867 48.4894 15.0665 48.2171 15.8238C48.1357 16.0679 47.7164 16.2995 47.4348 16.4215C46.7557 16.7157 45.8733 16.6687 45.5259 15.9177C45.3006 15.4327 45.5134 15.0165 45.3976 14.7348C45.1222 14.7067 45.0815 14.9946 44.9501 15.2136C44.6121 15.7769 44.2147 16.4278 43.5106 16.7C42.8879 16.9472 42.4185 16.8596 42.1024 16.4403C41.4735 15.6298 42.0899 15.3075 41.9272 14.9507C41.5454 14.9883 40.7506 16.5686 39.3862 16.9785C38.7729 17.16 37.9999 17.1506 37.493 16.8189C36.6199 16.2494 37.2677 15.3169 37.0611 15.1448C36.7201 14.835 35.7093 16.675 34.3449 17.16C33.7535 17.3697 32.8992 17.5136 32.2796 17.2821C31.0247 16.8127 32.0417 14.885 32.1794 14.062L34.614 12.9855C35.024 12.7978 35.5247 12.6538 35.7343 12.3284C35.8845 12.0906 36.3195 11.3552 36.3039 11.1017C35.8939 11.0954 33.2716 12.3879 32.3453 12.5913C31.0466 12.8792 30.2424 12.4536 29.2973 11.7463C28.6965 11.2989 27.7796 10.0784 27.7077 9.26168C27.6732 8.92371 28.1176 8.73595 28.4149 8.60452C29.6948 8.03499 31.6787 7.81907 33.0807 8.02873C33.428 8.08506 33.9256 8.25091 34.2197 8.2603C34.1603 8.05689 34.0977 8.03812 33.9381 7.92859C33.6001 7.68451 33.2716 7.4592 32.8835 7.28396C31.7351 6.7551 30.2706 6.56109 29.0908 7.02423C26.6625 7.97241 26.3245 10.8169 28.1583 12.8666C28.3523 13.0888 29.0689 13.7115 29.4382 13.8336C29.4006 13.8774 29.4163 13.8617 29.3599 13.893C29.216 13.9932 29.0188 14.0432 28.8624 14.109C28.659 14.1903 28.4712 14.2686 28.2709 14.3468C27.8673 14.5126 27.4698 14.7286 27.0505 14.788C26.9691 14.4688 26.6249 13.9869 26.4497 13.7209C24.472 10.8107 22.1751 15.2887 23.6896 16.24C24.4469 16.7157 25.6048 16.578 26.4716 16.3934C26.6374 17.2539 26.4778 17.2101 26.0616 17.717C25.8301 18.0049 25.4389 18.418 25.151 18.6621L24.1528 19.5164C23.07 20.3269 21.8621 21.1937 20.4539 21.4159C19.2492 21.6099 18.2071 21.1718 17.8378 20.3676C17.8754 20.3175 17.8441 20.3457 17.9161 20.2862C17.9724 20.2361 17.9317 20.2706 17.988 20.2361L19.7279 18.9782C20.4133 18.443 20.842 18.0613 21.0266 17.0286C21.1424 16.4059 21.1299 15.6924 20.8983 15.1229C20.6824 14.5878 20.2912 14.328 19.7874 14.062C19.318 13.8242 18.8204 13.5864 18.3417 13.3454C17.7346 13.0419 16.0667 12.1594 15.7631 11.6243C16.0729 11.618 16.486 11.69 16.68 11.5023C16.6205 11.1987 15.8007 10.8952 15.519 10.7512C15.3031 10.6417 15.0934 10.5478 14.8775 10.4477C14.7617 10.3914 14.6741 10.3413 14.5615 10.2881C14.1484 10.0847 14.2423 10.4633 14.2423 10.7856C14.2423 11.9779 14.1609 11.6149 14.696 12.0624C14.9339 12.2658 15.0434 12.4723 15.2217 12.6914C15.5754 13.1232 15.9603 13.4988 16.4046 13.8336C16.5141 13.915 16.6268 13.9869 16.752 14.0808C16.8459 14.1528 16.9742 14.2404 17.0774 14.303C17.5687 14.5784 18.0538 14.8224 18.5857 15.0884C18.9769 15.2825 21.2237 16.2306 20.5854 16.9003C20.3413 17.1538 17.9693 18.8499 17.5656 19.0251C17.5656 17.9549 18.1132 16.8002 18.1164 16.0617C17.9661 16.1055 17.9568 16.2212 17.8848 16.3934C17.8347 16.5091 17.7909 16.6312 17.7346 16.7689C17.647 17.0161 17.5625 17.2821 17.4905 17.5481C17.3184 18.1458 17.2433 18.6809 17.1744 19.3099C17.0148 19.3756 16.7645 19.5633 16.5955 19.6697C16.0103 20.0296 15.4126 20.4145 14.7836 20.6961C13.9387 21.0717 12.6526 21.6443 12.1394 20.5021C11.9235 20.0327 12.0173 19.3474 12.1018 18.8499C12.1456 18.5745 12.3678 17.4855 12.4648 17.3102C12.5149 17.2226 12.6025 17.1663 12.6901 17.0662C12.7621 16.9879 12.8341 16.9003 12.8935 16.797C13.2753 16.1837 13.5006 15.2574 13.1814 14.5565C12.7465 13.6083 10.2837 13.5582 9.13839 12.923C8.55321 12.5975 8.63457 12.294 8.94437 11.7244C9.3856 10.9139 9.95513 10.1942 10.6279 9.60903C10.7281 9.52141 10.7594 9.46509 10.8751 9.38372C10.9815 9.31175 11.041 9.26793 11.1505 9.1897C11.3164 9.0614 11.5417 8.92997 11.792 8.8799C12.5431 8.72657 12.5306 9.50889 12.759 9.66848C13.0125 9.58712 13.1908 9.14277 13.2346 8.79541C13.2847 8.36983 13.2409 7.9505 13.0406 7.65322C11.8859 5.94775 8.5845 9.89066 8.13701 12.5068C7.97116 13.4956 8.05878 13.9932 8.67838 14.4563C9.50764 15.0791 12.5712 15.3231 12.5869 15.8426C12.4273 16.3402 9.7486 17.7984 9.00383 18.152C7.70517 18.7591 6.07793 19.41 4.41001 19.3662C2.69203 19.3286 1.55609 18.2334 1.32452 16.6218C1.02098 14.5408 2.29773 12.707 2.41352 11.9216C2.47923 11.7057 2.54495 11.4647 2.60128 11.1862C2.41352 11.3176 2.44168 11.352 2.26331 11.618C2.14753 11.8058 2.0693 11.9654 1.87528 12.0217C1.2901 12.1751 1.34955 11.2644 1.41214 10.7856C1.54983 9.63719 2.19134 8.55445 2.45107 7.54056L2.1976 7.86601C1.67813 8.77038 1.0554 10.2631 0.927098 11.3333M108.35 17.4855C107.261 17.4855 106.45 17.4636 105.483 16.8784C105.07 16.6343 104.325 15.9678 104.325 15.2512C104.325 13.6239 105.026 12.9824 104.967 12.3566C104.714 12.4504 104.369 13.2953 104.244 13.6364C103.947 14.4532 103.925 14.9727 103.925 15.805C103.925 17.7859 105.508 19.1284 107.492 19.1284H108.04C110.137 19.1284 112.346 17.8203 113.948 16.8158C114.289 16.5999 114.571 16.3245 114.874 16.0867C115.923 15.2762 115.941 14.2873 116.132 14.012C116.254 15.3701 116.264 18.102 118.285 18.102C118.798 18.102 119.146 18.0863 119.6 17.7264C119.909 17.4886 120.047 17.3384 120.266 17.013C120.47 16.7032 121.139 15.4827 121.311 15.3388C121.643 15.6486 121.515 16.6687 123.255 17.5762C125.414 18.6903 128.54 18.3554 130.79 17.6482C131.435 17.4448 132.436 17.0693 133.059 16.7657C133.268 16.6656 133.584 16.4278 133.782 16.4497C133.891 17.0568 133.897 17.257 134.267 17.6326C134.62 17.9862 135.105 18.0675 135.681 18.0675C136.538 18.0675 137.239 17.135 137.515 16.506C138.36 14.5345 138.122 12.6914 137.984 10.5916L137.674 6.17306C137.624 5.50965 137.471 4.33302 137.53 3.72281C137.662 3.79478 138.26 4.63344 138.26 4.11085C138.26 3.81356 137.139 0.753102 136.939 0.565344C136.779 0.659223 136.432 1.65747 136.398 1.88904C136.363 2.09871 136.52 2.40851 136.564 2.66198C136.607 2.94362 136.62 3.2409 136.623 3.5507C136.645 5.26243 136.939 8.80167 137.08 10.6386C137.124 11.23 137.161 11.7995 137.196 12.3847C137.268 13.4518 137.305 13.8743 137.305 14.9257C137.305 15.5265 137.233 15.7644 136.848 16.0304C136.197 16.4653 135.036 16.6875 134.58 16.0366C134.31 15.6548 134.573 15.1635 134.486 14.7818C134.307 14.788 133.243 15.3012 132.971 15.4108C131.247 16.1055 129.538 16.5436 127.626 16.6312C126.371 16.6875 124.75 16.675 123.74 16.1555C122.995 15.78 122.25 15.3701 122.006 14.6097C121.918 14.3124 121.947 13.8805 121.84 13.6646C121.574 13.6145 121.53 13.8085 121.415 13.9619C120.454 15.2824 120.022 16.4685 118.401 16.4685C116.971 16.4685 116.977 14.569 116.893 13.2985C116.805 11.8121 116.805 10.285 116.727 8.77664C116.649 7.29022 116.595 5.87264 116.386 4.43629C116.236 3.42552 115.904 1.33828 115.547 0.555957C115.359 0.634189 115.359 0.809436 115.3 1.11924C115.075 2.26143 115.112 2.1081 115.294 3.2409C115.819 6.57987 115.913 8.8048 115.96 12.2564C115.976 13.4831 115.779 13.7585 115.043 14.5471C114.702 14.9101 113.554 15.6517 113.166 15.8676C111.983 16.5342 109.968 17.4792 108.347 17.4792M100.908 14.353C101.234 14.2936 101.581 14.2467 101.897 14.3374C102.157 14.4156 102.417 14.5596 102.395 14.8631C102.113 15.101 101.306 14.9852 100.908 14.3562M99.4187 13.2891C99.0526 13.6521 96.8465 14.7129 96.0109 14.0965C95.6855 13.8492 95.6698 13.4049 95.3882 13.1577C95.1942 13.3079 95.0721 13.9431 94.9908 14.2467C94.8625 14.716 95.1441 15.0415 95.3006 15.417C95.4727 15.8426 96.0172 17.4542 95.82 17.9111C95.7825 17.9987 95.554 18.2709 95.4946 18.3304L94.2366 19.4069C93.0663 20.3112 91.7801 21.2187 90.3219 21.6443C89.2829 21.9416 88.5976 21.8759 87.9655 21.2594C87.4398 20.7462 87.1331 19.9232 87.2489 18.9281C87.349 18.0613 87.7746 16.6656 87.7746 16.3433C87.615 16.3996 87.5931 16.5373 87.4836 16.8127C86.9485 18.1708 86.573 20.1204 87.0079 21.5098C88.244 25.4527 92.8941 22.2827 94.7811 20.5866C96.1987 19.3067 96.3176 17.9643 96.3332 15.877C96.9998 16.0147 97.7039 15.7769 98.2546 15.5516C98.8899 15.2918 99.4625 14.9007 99.7943 14.7661C100.242 16.118 102.526 17.7077 103.158 15.5453C103.424 14.6409 103.18 13.5864 102.695 13.0544C102.248 12.5631 101.569 12.6006 100.874 12.7571C100.658 12.8009 100.448 12.9011 100.267 12.9324C99.7098 12.0812 99.3123 4.93072 99.3123 3.40362C99.4719 3.45995 99.3937 3.41614 99.5064 3.55383C99.5627 3.61955 99.6002 3.66961 99.6503 3.72594C99.7504 3.83234 99.86 3.96377 100.032 3.97316C100.164 3.61329 99.1496 1.12862 98.8711 0.462082C98.8148 0.318134 98.8336 0.34004 98.7397 0.268066C98.5519 0.377592 98.2139 1.44468 98.192 1.59802C98.1701 1.79829 98.3141 2.10496 98.3579 2.33653C98.408 2.60565 98.4142 2.92171 98.4174 3.219C98.4612 5.68176 98.7052 9.28045 99.1121 11.7119C99.1903 12.1657 99.2936 12.8979 99.4281 13.286M140.319 16.1117C140.319 16.8784 140.187 17.8297 140.237 18.3742C140.491 18.2365 140.794 17.16 140.882 16.7626C141.292 15.0165 141.085 13.4925 140.963 11.7276L140.588 6.44844C140.553 5.97904 140.394 4.08582 140.422 3.76976C140.625 3.84173 141.167 4.65222 141.167 4.21724C141.167 3.84173 140.713 2.75273 140.575 2.36783C140.447 2.02986 140.021 0.756239 139.846 0.612291C139.671 0.728076 139.245 1.83272 139.305 2.13626C139.364 2.44606 139.477 2.61817 139.508 3.00307C139.536 3.34417 139.53 3.69778 139.546 4.042C139.627 5.40638 139.724 6.72381 139.806 8.0788C139.884 9.39937 139.993 10.7356 140.075 12.053C140.14 13.0919 140.312 15.1823 140.312 16.1117M52.2852 1.88904C52.2852 1.97666 52.4385 2.41477 52.4667 2.60566L52.62 5.26556C52.692 6.45783 52.7796 7.62818 52.8579 8.8048C52.9392 9.98142 53.0237 11.1612 53.1019 12.3503C53.1802 13.5113 53.346 15.151 53.3116 16.287C53.2897 16.8659 53.1896 17.6576 53.2115 18.2021C53.3648 18.1426 53.3711 18.0707 53.4649 17.8485C54.3756 15.6611 54.1002 13.796 53.95 11.5148L53.5745 6.25754C53.54 5.74434 53.3523 3.97316 53.4211 3.60077C53.6433 3.67274 53.7966 4.16404 54.1565 4.15779C54.1722 3.63206 53.4837 1.96728 53.2302 1.31325C53.1301 1.05352 52.9924 0.56222 52.8266 0.452694C52.6764 0.574737 52.2852 1.60741 52.2852 1.88279M106.316 13.5613C106.316 14.3781 106.187 15.5328 106.228 15.9865C106.726 15.755 107.117 13.2547 107.117 12.4911L106.554 3.4975C106.835 3.60702 106.973 4.04826 107.289 4.04513C107.405 3.72907 106.594 1.75448 106.394 1.2225C106.313 0.99719 106.147 0.449563 105.997 0.333779C105.803 0.46208 105.521 1.30073 105.461 1.61366C105.405 1.88278 105.549 2.0768 105.605 2.34905C105.655 2.61504 105.671 2.89668 105.677 3.18145C105.712 5.08719 105.975 8.06628 106.112 10.0596C106.184 11.1705 106.316 12.4504 106.316 13.5613ZM80.1015 8.92372C80.305 8.85174 80.6586 8.60766 80.8682 8.48248C81.1123 8.33228 81.3752 8.19459 81.6193 8.05064C83.3373 7.05239 87.7809 4.69289 89.3768 3.97003C90.1623 3.61016 90.9728 3.18457 91.7832 2.83409C92.0211 2.72769 91.9866 2.76212 92.0305 2.48674C92.0649 2.30524 92.1024 2.13938 92.1118 1.94537C91.6362 2.04551 86.4978 4.62718 85.7187 5.04337C84.5921 5.6442 81.3408 7.38409 80.4114 8.0256C80.2236 8.15703 80.1454 8.63268 80.0953 8.92684M125.17 14.5252L127.548 13.1764C127.952 12.9605 128.355 12.7508 128.753 12.5255C129.091 12.3315 129.626 12.0342 129.979 11.8966C129.61 12.7352 129.244 13.3548 129.279 14.4813C129.307 15.6235 130.339 15.5578 130.508 13.9838C130.314 14.0432 130.123 14.8287 129.735 14.4469C129.338 14.0495 129.829 12.6257 129.983 12.1375C130.105 11.7557 129.967 11.8778 130.777 11.471C131.131 11.2895 134.323 9.681 134.658 9.59964L134.774 8.94875C134.492 9.02072 132.571 9.95951 132.179 10.1535C130.105 11.1799 128.603 11.9967 126.609 13.1013C126.409 13.2109 126.206 13.3485 126.012 13.4549C125.476 13.7428 125.273 13.771 125.167 14.5252M110.487 13.1451C110.315 13.4549 109.67 13.7022 109.317 13.8805C109.151 13.9619 108.112 14.3937 108.074 14.5877C108.6 14.6879 109.367 14.4594 109.858 14.3499C110.437 14.2185 110.528 14.0745 110.969 13.3673C112.277 11.2801 110.356 12.1187 109.595 11.5555C109.58 11.2363 110.021 10.8827 110.262 10.7325C110.609 10.5228 110.5 10.8639 110.737 10.8764C110.916 10.8827 111.053 10.6323 111.113 10.4852C111.639 9.23038 110.737 8.73909 109.379 10.8013C109.032 11.327 108.434 12.5474 109.207 12.9261C109.633 13.1295 110.152 13.0075 110.487 13.1483M127.564 3.69465C127.485 3.54131 127.464 3.26906 127.41 3.08756C127.257 2.5681 126.932 1.86088 126.296 1.86088C126.146 2.13626 125.705 2.53994 126.312 2.89981C126.581 3.0594 126.572 2.89354 126.747 2.86225C126.95 3.01559 127.36 4.1265 127.432 4.52392C127.426 4.53018 127.417 4.53017 127.41 4.53956C127.404 4.54895 127.395 4.5552 127.388 4.5552C127.235 4.69289 127.191 4.73045 127.107 4.99644C127.05 5.17794 126.975 5.47209 127.047 5.62543C127.091 5.5691 127.285 5.32189 127.329 5.29372C127.41 5.2374 127.467 5.23427 127.573 5.27182C127.611 5.28746 127.629 5.29372 127.667 5.32189C127.745 5.3876 127.704 5.34379 127.755 5.42203C127.523 5.56597 127.047 5.58162 126.894 6.18244C126.778 6.61429 126.932 7.18069 127.022 7.60627C127.116 8.06941 127.198 8.51065 127.266 8.98004C127.304 9.25542 127.338 10.4226 127.392 10.5259C127.636 10.1786 127.542 8.88616 127.479 8.40425C127.398 7.75961 127.241 7.08368 127.047 6.50476C127.244 6.20748 127.864 6.07918 128.23 5.9853C128.452 5.92584 128.434 5.90707 128.527 5.70366C128.693 5.31563 128.609 5.16229 128.362 4.94324C127.93 4.56773 127.755 4.58024 127.626 4.4801C127.88 3.679 127.83 3.64146 128.002 2.96866C128.327 1.72006 128.603 2.44919 128.84 2.54307C129.347 2.21136 128.646 0.981544 128.127 1.82958C127.717 2.5149 127.739 3.42553 127.564 3.69152M111.354 2.29585C112.133 1.76074 111.999 2.68075 111.933 2.81531C111.795 2.7715 111.701 2.71518 111.585 2.64946C111.442 2.5681 111.348 2.52742 111.354 2.29585ZM111.664 3.57261C111.564 3.68839 111.395 3.86051 111.266 3.97629C110.697 4.50514 109.589 5.22488 108.904 5.67237C108.656 5.83822 108.065 6.17618 107.965 6.37333C108.234 6.33578 108.888 6.02598 109.157 5.9102C109.567 5.7287 109.908 5.56285 110.249 5.32502C111.686 4.34242 111.585 4.07329 111.973 3.70717L112.305 3.88866C112.343 4.3518 111.748 5.43454 112.008 6.30761C112.274 7.21824 113.172 6.62367 113.15 5.42515C112.997 5.58474 112.812 6.22 112.433 5.96027C111.97 5.64421 112.427 4.24854 112.577 3.81669C112.803 3.15954 112.496 3.19709 112.274 2.94987C112.981 -0.18569 110.036 2.32089 111.185 3.25968C111.395 3.43179 111.526 3.43491 111.667 3.57573M56.3595 23.3091C56.5317 23.137 56.9447 22.3828 56.951 22.0292C56.757 21.8759 55.9089 21.1843 55.5991 21.1687L55.136 22.0918C55.0077 22.0324 54.9827 21.9635 54.8199 21.8477C54.604 21.6944 54.0407 21.2782 53.8373 21.2563C53.7497 21.3564 53.2834 22.3046 53.2459 22.483C53.3053 22.5487 54.4382 23.378 54.604 23.3999C54.6635 23.2778 55.0171 22.555 55.0953 22.4767C55.4333 22.6363 56.1405 23.2497 56.3595 23.3091ZM101.281 19.8982C101.619 19.5227 102.038 19.9107 102.016 20.3238C101.784 20.3081 101.365 20.0296 101.281 19.8982ZM95.0846 23.6095C95.3319 23.6533 96.5648 23.3216 96.8777 23.2403C97.6663 23.0463 97.8948 23.015 98.555 22.6394C99.4782 22.1137 100.304 21.5192 100.699 20.5084C100.711 20.474 100.727 20.4302 100.742 20.3989C100.786 20.3112 100.758 20.3488 100.802 20.305C100.902 20.4333 101.753 21.1874 102.082 20.8808C102.257 20.7149 102.492 19.8857 102.116 19.3631C101.54 18.5557 101.105 19.5884 101.027 19.6447C100.833 19.8043 101.021 19.3693 100.592 20.1297C100.47 20.3519 100.354 20.6273 100.21 20.7744C98.9306 22.1826 95.529 23.2465 95.0815 23.6127M8.17769 23.3154C8.33729 23.1433 8.75661 22.3828 8.76287 22.0355C8.52504 21.8415 7.69578 21.1843 7.41101 21.1749C7.31087 21.3783 7.02298 21.8978 6.97604 22.1012C6.71631 21.9948 6.03725 21.3064 5.65234 21.2626C5.56472 21.3627 5.10159 22.3109 5.06091 22.4892C5.10472 22.5393 6.28759 23.378 6.41902 23.4061C6.48474 23.2778 6.83209 22.5675 6.91658 22.483C7.25454 22.6551 7.9649 23.2622 8.18082 23.3154M28.8405 21.0623C28.806 21.1436 27.6639 22.7239 28.6746 23.0838C29.0376 23.2121 29.6197 23.0994 29.9514 22.9774C30.2612 22.8679 30.7368 22.58 30.8463 22.3578C30.4583 22.4016 30.0891 22.5518 29.6416 22.6019C27.8923 22.7896 28.5714 21.8634 29.3099 21.1217C29.6729 20.7587 30.1829 20.6085 30.0953 19.9232C29.8356 20.0296 29.5446 20.6742 28.9969 20.4427C28.4837 20.2205 28.9531 19.8199 29.0971 19.8012C29.2692 19.7855 29.2786 19.895 29.3505 19.9889C29.6603 19.7667 29.676 19.3443 29.4726 19.2723C29.1534 19.1565 28.4118 20.0108 28.3586 20.4145C28.2991 20.79 28.5526 20.9903 28.8436 21.0591M42.7408 4.5552C42.7846 4.33302 43.0225 4.20785 43.254 4.25166C43.3573 4.45507 43.398 4.60528 43.398 4.89317C43.1821 4.90882 42.8347 4.69289 42.7408 4.5552ZM43.1946 5.71618L42.4341 6.53918C41.8208 7.18069 40.4189 8.21336 39.7836 8.80792C39.865 8.86425 39.7117 8.87364 39.9276 8.82983L40.3406 8.60765C40.9383 8.2603 41.3952 8.04438 41.9303 7.59689C42.4435 7.1713 43.3229 6.30449 43.4543 5.79128C43.7234 5.80693 43.8423 5.9853 44.0301 6.05727C44.0864 5.84761 44.2617 5.58788 44.2304 5.33441C44.077 5.19672 43.883 5.14665 43.7234 5.00896C43.761 4.62405 43.8549 4.08268 43.6358 3.69465C43.1883 2.93423 41.6362 4.80555 42.6814 5.43454C42.9067 5.57223 43.0694 5.56598 43.2008 5.71618M28.2772 2.0768C28.3648 1.7138 29.0345 1.52917 28.9218 2.40851C28.756 2.49613 28.3742 2.2364 28.2772 2.0768ZM28.6903 3.24716C28.562 3.39736 28.4368 3.50063 28.3022 3.65084C28.1489 3.81669 28.08 3.89806 27.9111 4.05452C27.6138 4.31426 27.3321 4.55207 27.0098 4.79929C26.7407 5.00895 25.2606 6.09795 25.1886 6.29509C25.6674 6.19496 27.0755 5.32815 27.426 5.05903C27.7953 4.76487 28.6026 3.9888 28.8436 3.57886C28.9156 3.45682 28.9031 3.44743 29.0032 3.33478C29.2254 3.44117 29.2911 3.45682 29.4601 3.62893C29.4663 3.62267 29.4757 3.59451 29.482 3.60077C29.4976 3.62893 29.7292 3.18144 29.7417 3.00307C29.748 2.79967 29.4757 2.69328 29.2379 2.60566C29.2504 2.20823 29.41 1.70442 29.2003 1.28509C28.8592 0.584126 27.7264 1.68251 27.8579 2.48987C27.8954 2.73396 28.0675 2.84974 28.1958 2.94362C28.2553 2.98743 28.3398 3.05002 28.4274 3.09383C28.4712 3.11573 28.515 3.12825 28.5588 3.15328L28.6871 3.24716H28.6903ZM41.5329 20.6054C41.5329 20.6054 41.5267 20.5897 41.5267 20.5835L41.5392 20.5053C41.5673 20.3895 41.6049 20.4114 41.6111 20.2017C41.3796 20.2455 41.245 20.6117 41.0541 20.765C40.7568 21.0028 40.4533 20.765 40.1592 20.7087C39.3299 20.5365 38.5757 21.3095 38.0782 21.8008C36.8358 23.0369 36.5824 22.8835 36.2788 23.1307C36.2225 23.1746 36.2569 23.1433 36.2131 23.1965C37.3678 23.1026 37.8028 22.2921 38.5538 21.757C39.6428 20.9903 40.0715 21.4628 40.4877 21.4691C40.8914 21.4816 41.2388 21.1092 41.3201 21.128C41.4265 21.1405 41.5861 21.2813 41.7958 21.2876C42.2965 21.2938 42.4967 20.305 42.2714 20.0171C41.9303 20.1704 42.0555 20.6148 42.0493 20.6899C41.874 20.7024 41.6612 20.6774 41.536 20.6023M72.6194 3.39737C72.4974 3.12825 72.3158 1.38209 71.2237 1.38835C71.1298 1.56985 70.7825 1.98605 70.9202 2.2051C71.4459 3.01559 71.6118 2.17068 71.8746 2.6745L72.1844 3.39737C72.3284 3.77288 72.4598 4.41439 72.5036 4.47385C72.8697 4.27357 72.9511 3.23777 73.0606 2.76212C73.4361 1.15053 73.7522 2.04864 74.0338 2.13313C74.4313 1.81707 74.1058 0.925216 73.5801 1.05665C73.0825 1.17869 72.8572 2.37722 72.7571 2.84974C72.7227 3.02498 72.7008 3.28471 72.6194 3.39737ZM82.2702 21.6005C82.12 21.1436 81.9103 19.5696 80.8964 19.5727C80.7963 19.7261 80.4489 20.1579 80.5772 20.3832C80.9308 21.0059 81.3501 20.6711 81.3783 20.6774C81.5567 20.7149 81.9322 21.7914 82.0136 22.073C82.0699 22.2608 82.0918 22.5299 82.1387 22.6582C82.6457 22.58 82.5925 20.3676 83.1432 20.0014C83.5031 19.9795 83.4405 20.2017 83.6564 20.3175C84.2416 20.0859 83.5407 18.5839 82.9054 19.532C82.5737 20.0233 82.4016 21.4315 82.2702 21.5974M12.9906 24.7236C13.1908 24.6735 14.8994 23.7128 15.2656 23.525L17.0148 22.6301C17.115 22.5143 17.1588 22.0668 17.1244 21.8915C16.8865 21.9729 15.1028 22.8898 14.8056 23.0556C14.43 23.2716 14.0326 23.475 13.6446 23.6752C13.5225 23.741 13.1627 23.935 13.1157 24.0132C13.0344 24.1353 12.9718 24.564 12.9874 24.7267M66.1136 22.9805C66.3514 22.9023 67.0148 22.5268 67.262 22.3828L70.1379 20.8745C70.238 20.7587 70.2755 20.3175 70.2474 20.1391L67.9286 21.3032C67.5374 21.5254 67.1556 21.7226 66.7707 21.9228C66.6487 21.9823 66.2888 22.1826 66.2356 22.2545C66.1543 22.3766 66.0979 22.8178 66.1136 22.9774M7.20761 4.94011C7.11999 4.99644 7.17006 4.93385 7.11373 5.04964C7.03237 5.2374 7.01359 5.88203 6.67876 6.15428C6.52542 6.27632 6.18746 6.36395 6.06541 6.17619C5.93398 5.96653 6.09984 5.60665 6.04977 5.35944C5.54595 5.60352 5.28309 7.54682 6.52542 6.91783C6.67875 6.83647 6.69753 6.78952 6.81957 6.69565C6.99481 6.56421 7.02924 6.64558 7.25142 6.64558C8.39987 6.64558 8.85675 4.90569 8.39987 4.39248C8.28409 4.4801 8.04626 4.86188 8.09633 5.03712C8.1683 5.29059 8.49375 5.63794 7.73333 5.86638C7.677 5.88203 7.57999 5.90393 7.52367 5.90393C7.34842 5.91019 7.38598 5.9321 7.33591 5.81006C7.23264 5.52842 7.44544 5.131 7.21387 4.93698M43.6327 9.79678C43.5044 9.89692 43.4574 9.97203 43.2697 10.0565C42.4686 10.4039 42.8378 9.68101 42.672 9.1678C42.5218 9.21161 42.5625 9.08018 42.4498 9.58713C42.4122 9.75924 42.3716 9.92822 42.3121 10.0847C42.2088 10.3319 41.8865 10.648 41.5454 10.4727C41.3076 10.2912 41.4891 9.9157 41.4672 9.59338C41.2513 9.67161 40.8382 10.4977 41.1355 11.0391C41.4828 11.6838 42.2276 10.8357 42.4279 10.8451C42.794 10.867 42.963 10.9014 43.2384 10.6949C44.0176 10.1222 44.149 8.96127 43.786 8.62956L43.6984 8.73908C43.6702 8.78289 43.6546 8.82044 43.6264 8.86738C43.5982 8.91745 43.5044 9.07079 43.495 9.12712C43.4731 9.23664 43.6264 9.51515 43.6327 9.79366M120.764 6.31075C120.676 6.42653 120.091 6.84585 119.781 6.69565C119.484 6.5517 119.809 5.75686 119.941 5.60665C120.21 5.71305 120.707 6.05414 120.764 6.30761M119.377 6.7332C119.377 7.18069 119.437 7.44669 119.941 7.44669C120.764 7.44669 121.002 6.70817 121.002 5.97904C121.002 5.40325 120.373 5.0027 120.229 4.82433C120.301 4.60841 120.516 4.16091 120.523 3.95751C120.213 3.88553 120.175 4.16091 120.053 4.4269C119.944 4.67099 119.866 4.85875 119.762 5.11848C119.631 5.45958 119.381 6.36081 119.381 6.73633M95.9921 8.90494C95.8482 9.20222 95.2192 9.45569 95.0158 9.33991C94.7561 9.19596 95.0315 8.43554 95.166 8.25091C95.4821 8.37921 95.8576 8.63269 95.9953 8.90181M94.6153 9.38059C94.6153 10.5353 95.6917 10.0252 95.964 9.70604C96.2081 9.41815 96.2394 9.05514 96.2394 8.6233C96.2394 8.16642 95.7105 7.6407 95.4664 7.52492C95.4946 7.35281 95.5666 7.17756 95.626 7.01796C95.6604 6.94599 95.7043 6.86464 95.7262 6.79266C95.7637 6.68314 95.8075 6.63932 95.7043 6.58299C95.3287 6.39524 94.6153 8.81419 94.6153 9.38372M131.463 19.8418C131.613 19.9701 132.699 20.7243 132.786 20.7525C132.94 20.5522 133.415 19.798 133.362 19.4601C133.334 19.4006 132.308 18.6277 132.02 18.5995C131.938 18.7497 131.472 19.6979 131.463 19.8418ZM65.6285 10.1567C65.8538 10.3382 66.0604 10.4446 66.2794 10.6104C66.4515 10.7324 66.7645 10.9922 66.9209 11.0579C67.0868 10.9265 67.6876 9.9689 67.4748 9.72168C67.4185 9.66223 67.2808 9.57774 67.1807 9.49951C66.9992 9.3493 66.4359 8.92997 66.2137 8.91433C66.0979 9.04263 65.6348 9.95639 65.6285 10.1567ZM119.296 11.8903L120.617 12.8134C120.798 12.6538 121.217 11.8809 121.214 11.5148C120.976 11.3552 120.216 10.7293 119.913 10.6699C119.781 10.8013 119.349 11.6681 119.299 11.8903M19.8656 6.24816C19.5965 6.39836 19.6435 6.84898 19.2523 6.80517C18.4919 6.71755 19.3524 4.39248 19.4275 4.07642C18.9738 4.50826 18.3291 6.63932 18.7704 7.33403C18.8705 7.48736 19.1396 7.5875 19.3556 7.44981C19.6434 7.25579 19.7905 6.69252 19.8625 6.24503" fill="#9CA3AF"/>
<path d="M63.4723 28.1625C63.3284 27.6649 63.1125 27.1236 62.4115 27.1236C61.9139 27.1236 61.6542 27.4834 61.6542 27.9028C61.6542 28.3659 61.9578 28.6256 62.6087 28.9573C63.4598 29.3923 63.9324 29.7741 63.9324 30.5251C63.9324 31.4044 63.2032 32.0491 62.1549 32.0491C61.6793 32.0491 61.2599 31.9177 60.9188 31.805C60.8688 31.611 60.753 30.91 60.6967 30.5282L60.972 30.4563C61.1222 30.9538 61.5197 31.7361 62.2801 31.7361C62.7714 31.7361 63.0687 31.4107 63.0687 30.9131C63.0687 30.4156 62.7808 30.1621 62.1361 29.8085C61.3413 29.3735 60.85 28.9918 60.85 28.2251C60.85 27.4584 61.4508 26.8169 62.5461 26.8169C63.0311 26.8169 63.4348 26.9327 63.6006 26.9546C63.6351 27.2362 63.6789 27.6055 63.7383 28.0968L63.4692 28.1562L63.4723 28.1625Z" fill="#9CA3AF"/>
<path d="M66.5891 28.1002C66.3638 28.6979 66.1322 29.2768 65.9257 29.8557H67.2118L66.5891 28.1002ZM67.29 31.9304V31.6707C67.7751 31.605 67.7939 31.5205 67.6875 31.2013C67.6061 30.9479 67.4716 30.588 67.3464 30.2187H65.8068C65.7066 30.4941 65.6034 30.7883 65.5126 31.0574C65.3468 31.5424 65.5064 31.6081 66.1134 31.6707V31.9304H64.2797V31.6707C64.7553 31.6113 64.8774 31.5424 65.1402 30.8821L66.7143 26.8798L67.0397 26.8203C67.5185 28.1503 68.038 29.5522 68.5293 30.8571C68.7984 31.5518 68.8672 31.6144 69.3742 31.6739V31.9336H67.2869L67.29 31.9304Z" fill="#9CA3AF"/>
<path d="M73.7241 31.9296V31.6699C74.3155 31.6105 74.3468 31.5541 74.3468 30.8187V27.7645C73.771 29.1164 73.0262 30.8407 72.5787 31.9265H72.3472C71.9341 30.8657 71.2801 29.1946 70.723 27.8303C70.6198 30.3431 70.6135 30.8657 70.6135 31.1004C70.6198 31.5197 70.7856 31.6136 71.3364 31.6699V31.9296H69.4807V31.6699C69.9157 31.6261 70.1097 31.5416 70.1723 31.0941C70.2067 30.825 70.2286 30.4432 70.4164 27.8021C70.4383 27.4266 70.3788 27.2451 69.7217 27.1825V26.9165H71.2519L72.7915 30.4933L74.3812 26.9165H75.8895V27.1825C75.2668 27.2482 75.1948 27.3108 75.2042 27.8991L75.2543 30.8156C75.2699 31.551 75.2981 31.5823 75.9333 31.6668V31.9265H73.7241V31.9296Z" fill="#9CA3AF"/>
<path d="M78.4898 28.1002C78.2645 28.6979 78.033 29.2768 77.8264 29.8557H79.1126L78.4898 28.1002ZM79.1908 31.9304V31.6707C79.6759 31.605 79.6978 31.5205 79.5882 31.2013C79.5069 30.9479 79.3723 30.588 79.2471 30.2187H77.7075C77.6074 30.4941 77.5041 30.7883 77.4134 31.0574C77.2538 31.5424 77.4071 31.6081 78.0142 31.6707V31.9304H76.1804V31.6707C76.6592 31.6113 76.7781 31.5424 77.041 30.8821L78.6213 26.8798L78.9405 26.8203C79.4255 28.1503 79.945 29.5522 80.43 30.8571C80.6991 31.5518 80.768 31.6144 81.2749 31.6739V31.9336H79.1877L79.1908 31.9304Z" fill="#9CA3AF"/>
<path d="M58.7003 29.1421H0.764404V29.7179H58.7003V29.1421Z" fill="#9CA3AF"/>
<path d="M140.894 29.1421H82.9553V29.7179H140.894V29.1421Z" fill="#9CA3AF"/>
<path d="M167.678 40.8317C167.622 40.4916 167.503 40.1396 167.403 39.8134C167.246 39.2904 166.986 38.4651 167.27 37.954C167.308 37.8844 167.358 37.8208 167.413 37.7651L167.473 37.7094L167.543 37.7472C167.694 37.8307 167.813 38.2066 167.865 38.3657C167.976 38.7157 168.066 39.0816 168.149 39.4396C168.227 39.7657 168.296 40.0958 168.36 40.4259C168.398 40.6129 168.434 40.8018 168.465 40.9868C168.925 41.0922 169.378 41.1837 169.842 41.2672L169.74 40.5652L169.14 40.4498L168.672 38.6142C168.595 38.2801 168.507 37.952 168.424 37.6179C168.336 37.2699 168.249 36.9119 168.193 36.554L168.098 36.6653L168.094 36.6693C167.966 36.7926 167.795 36.8562 167.634 36.9079C167.463 36.9636 167.286 37.0094 167.119 37.0829C166.66 37.2937 166.471 37.6617 166.393 38.1568C166.292 38.8231 166.646 39.5251 166.747 40.1774L166.757 40.247L166.697 40.2887C166.469 40.4399 166.23 40.5373 165.995 40.6706C165.61 40.8953 165.413 41.1896 165.26 41.5893C165.295 41.6072 165.329 41.6212 165.365 41.6351C167.702 42.5996 170.194 43.0849 172.715 43.0849C173.171 43.0849 173.628 43.0709 174.08 43.0391L174.326 42.2595C173.793 42.3093 173.252 42.3291 172.715 42.3291C170.774 42.3291 168.849 42.0308 167 41.4342C166.93 41.4104 166.859 41.3885 166.793 41.3646L166.624 41.3089L166.747 41.1817C166.968 40.947 167.35 40.8336 167.676 40.8277M156.651 18.6616C156.601 18.6258 156.553 18.594 156.495 18.5781C156.426 18.5602 156.352 18.5681 156.279 18.5681L156.209 18.5721L156.177 18.5045C156.002 18.1286 155.911 17.7607 155.563 17.5002C155.461 17.4266 155.348 17.363 155.237 17.3133C155.03 17.2298 154.797 17.184 154.58 17.2258C154.057 17.3232 153.85 17.8502 153.781 18.3275L153.763 18.4508L153.644 18.423C152.787 18.2161 152.848 17.3113 152.936 16.5834C152.454 17.0886 152.114 17.7349 152.482 18.425C152.693 18.8247 153.093 19.1508 153.479 19.3716L153.544 19.4094L153.53 19.4909C153.292 20.7398 153.172 22.0106 153.172 23.2834C153.172 28.6966 155.334 33.8274 159.19 37.5742L159.246 37.6259C159.411 37.783 159.576 37.9421 159.747 38.0932L159.751 38.0892L159.833 38.1628C160.194 38.489 160.566 38.8012 160.952 39.0955L163.132 35.657C163.243 35.4701 163.384 35.2812 163.599 35.2175C163.683 35.1897 163.774 35.1857 163.862 35.1857C163.796 34.9391 163.738 34.6866 163.683 34.442C163.637 34.2451 163.595 34.0462 163.545 33.8493C163.528 33.7817 163.51 33.7121 163.494 33.6465C162.599 35.0505 161.704 36.4525 160.809 37.8566L160.743 37.9659L160.646 37.8824C160.344 37.6199 160.045 37.3534 159.759 37.075C159.405 36.7389 159.071 36.3869 158.749 36.023L158.671 35.9355L160.272 34.613C160.061 34.5076 159.844 34.3664 159.661 34.2451C159.566 34.1814 159.473 34.1158 159.377 34.0442C159.381 34.0721 159.381 34.0999 159.385 34.1277C159.391 34.2013 159.399 34.2749 159.375 34.3445C159.343 34.428 159.27 34.4877 159.204 34.5454C159.075 34.6468 158.944 34.7462 158.818 34.8476C158.635 34.9948 158.456 35.142 158.275 35.2931L158.192 35.3627L158.122 35.2752C157.697 34.7482 157.305 34.1973 156.939 33.6266L156.875 33.5311L158.693 32.4194C158.417 32.2166 158.152 31.978 157.911 31.7274C157.842 31.97 157.645 32.145 157.42 32.2862L156.476 32.8649L156.42 32.7635C156.112 32.2265 155.831 31.6717 155.579 31.1029L155.533 30.9975L157.49 30.1404C157.452 30.1046 157.416 30.0668 157.378 30.031C157.255 29.9157 157.136 29.8023 157.026 29.6731C156.939 29.5716 156.861 29.4622 156.788 29.3509C156.784 29.3648 156.78 29.3747 156.778 29.3887C156.718 29.5597 156.571 29.6651 156.42 29.7546C156.291 29.8361 156.149 29.9018 156.01 29.9694C155.793 30.0708 155.575 30.1702 155.354 30.2637L155.249 30.3094L155.207 30.2001C154.66 28.7821 154.284 27.3025 154.087 25.7931L154.065 25.6241L154.222 25.6698C154.777 25.813 155.318 26.1153 155.823 26.3857C155.897 26.4275 155.974 26.4693 156.048 26.509L155.974 25.5027L154.592 25.0891L154.781 24.9559C154.952 24.8326 155.161 24.7351 155.35 24.6476C155.529 24.5661 155.712 24.4925 155.891 24.4129L155.809 23.3947C155.599 23.5598 155.392 23.7248 155.177 23.8859C154.879 24.1067 154.457 24.409 154.103 24.5064L153.974 24.5442L153.942 24.1405C153.932 23.8521 153.924 23.5677 153.924 23.2814C153.924 22.0881 154.035 20.8949 154.254 19.7196L154.276 19.6142L154.381 19.6321C155.087 19.7474 155.662 19.4452 156.167 18.9719C156.309 18.8386 156.48 18.7412 156.659 18.6556M155.479 18.5045C155.424 18.7849 155.149 18.9679 154.873 18.9122C154.596 18.8525 154.417 18.5781 154.473 18.2977C154.529 18.0133 154.803 17.8343 155.08 17.89C155.356 17.9457 155.535 18.2241 155.479 18.5045ZM159.689 12.5503C159.465 12.1427 159.286 11.725 159.166 11.2776C158.717 11.8284 158.281 12.3972 157.882 12.9819C157.534 13.495 157.215 14.02 156.927 14.5669C156.818 14.7777 156.712 14.9885 156.611 15.1993C156.45 15.5294 156.018 15.4001 155.784 15.241L155.702 15.1893L155.744 15.1018C156.501 13.491 157.434 12.0213 158.586 10.673C158.407 10.498 158.232 10.323 158.053 10.144C157.108 11.2776 156.271 12.4589 155.573 13.7694C155.282 14.3203 155.018 14.8811 154.773 15.4538C155.141 15.6825 155.563 15.9172 155.966 16.0425C156.213 16.1201 156.495 16.1658 156.738 16.0505C156.977 15.9351 157.128 15.6845 157.235 15.4499C157.309 15.2788 157.392 15.1138 157.474 14.9447C157.703 14.4993 157.955 14.0637 158.222 13.6421C158.424 13.322 158.647 12.9958 158.886 12.7094C158.952 12.6279 159.029 12.5682 159.128 12.5444C159.24 12.5126 159.359 12.5265 159.477 12.5364C159.55 12.5444 159.62 12.5503 159.691 12.5503M165.494 36.7011L165.091 35.0584C164.607 35.7963 164.128 36.5321 163.677 37.2898C163.476 37.6259 163.281 37.9639 163.08 38.3C162.764 38.829 162.446 39.356 162.125 39.883L162.81 40.3146L164.679 37.2699C164.79 37.0909 164.922 36.894 165.12 36.8025C165.186 36.7747 165.262 36.7568 165.335 36.7389C165.387 36.725 165.441 36.715 165.492 36.7011M176.878 8.58089C177.134 9.08602 177.369 9.61303 177.645 10.1062C177.944 9.23915 178.238 8.37208 178.498 7.49506C178.6 7.15102 178.699 6.81095 178.805 6.4669C178.988 5.86433 179.181 5.25976 179.373 4.65718L178.608 4.40462L177.538 7.83314C177.474 8.02604 177.401 8.23287 177.24 8.36611C177.18 8.41583 177.11 8.45362 177.043 8.48941C176.987 8.51726 176.931 8.54907 176.878 8.58089ZM192.201 24.4169C191.316 24.399 190.439 24.3493 189.556 24.3155C189.235 24.3055 188.921 24.3055 188.605 24.3016C188.458 24.2976 188.289 24.2976 188.152 24.2379C188.06 24.2001 187.983 24.1365 187.909 24.0729C187.817 23.9913 187.73 23.9078 187.642 23.8283C187.555 23.9058 187.467 23.9854 187.38 24.0629C187.04 24.3712 186.706 24.6874 186.376 25.0076L192.173 25.2044L192.201 24.4189V24.4169ZM192.022 26.2704L189.2 26.165C188.846 26.1511 188.494 26.157 188.144 26.1511C187.927 26.1431 187.69 26.1292 187.497 26.0218C187.364 25.9442 187.263 25.8289 187.181 25.6996C186.819 26.0616 186.451 26.4116 186.079 26.7636C187.724 26.694 189.381 26.8909 191.019 27.0082L191.147 27.0181L191.123 27.1454C190.982 27.8076 190.82 28.4619 190.618 29.1063L190.59 29.1878H190.51C190.051 29.1799 189.623 29.4085 189.373 29.7983C189.019 30.3492 189.106 31.0791 189.579 31.5245L189.639 31.5802L189.601 31.6578C189.335 32.2126 189.033 32.7456 188.72 33.2786L188.669 33.37L187.342 32.6859C187.38 32.8868 187.412 33.1036 187.42 33.2825C187.424 33.4158 187.416 33.553 187.414 33.6902C187.41 33.7877 187.41 33.8971 187.418 33.9985C187.74 33.9209 188.066 33.9905 188.358 34.1635C188.551 34.2749 188.744 34.3803 188.937 34.4937C189.074 34.5712 189.214 34.6508 189.351 34.7383C189.526 34.8496 189.719 34.9869 189.804 35.1877C189.9 35.4124 189.846 35.7247 189.794 35.9812C189.935 35.9394 190.071 35.8261 190.152 35.7247C190.345 35.496 190.419 35.2016 190.395 34.9033C190.367 34.5951 190.208 34.3604 189.987 34.1556C189.892 34.0641 189.786 33.9845 189.683 33.903C189.601 33.8394 189.504 33.7658 189.436 33.6823L189.391 33.6226L189.693 33.1036C189.908 32.7237 190.106 32.3379 190.295 31.9461L190.327 31.8785L190.405 31.8825C190.882 31.9143 191.345 31.6816 191.608 31.2759C191.974 30.7032 191.865 29.9435 191.351 29.504L191.292 29.4543L191.316 29.3847C191.427 29.0267 191.532 28.6648 191.628 28.3008C191.729 27.9071 191.811 27.5153 191.884 27.1176C191.934 26.8372 191.98 26.5528 192.026 26.2724M189.951 30.1822C190.144 29.8799 190.544 29.7924 190.842 29.9932C191.141 30.1901 191.224 30.5938 191.027 30.8941C190.834 31.1964 190.435 31.2799 190.136 31.083C189.838 30.8862 189.754 30.4825 189.949 30.1822M188.05 19.4452C188.422 19.7435 188.79 20.0458 189.156 20.35C189.478 20.6205 189.798 20.8929 190.11 21.1773C190.281 21.3324 190.455 21.4895 190.62 21.6506C190.578 21.2748 190.542 20.8989 190.486 20.525C190.061 17.6891 188.981 14.9984 187.324 12.6717C187.068 12.3097 187.173 11.9557 187.479 11.6813L187.571 11.5997L188.108 12.3475C189.908 14.9408 191.037 17.9437 191.391 21.0958C191.457 21.6705 191.473 22.2293 191.129 22.6828L192.238 22.6231C192.215 22.1041 192.197 21.589 192.141 21.0719C191.807 18.0153 190.773 15.0919 189.12 12.5145C188.913 12.1884 188.697 11.8682 188.468 11.556C188.078 11.023 187.656 10.5219 187.225 10.0227C187.018 9.78803 186.811 9.55536 186.592 9.33461C185.974 8.70618 185.33 8.1215 184.634 7.58455C184.174 7.22658 183.697 6.89248 183.21 6.57827C182.768 6.28991 182.319 6.02343 181.855 5.77484C181.372 5.52227 180.877 5.29158 180.382 5.06686L179.427 8.37208C179.346 8.64652 179.284 8.91499 179.212 9.18943C179.181 9.32268 179.139 9.47978 179.037 9.57922C178.95 9.66672 178.777 9.71246 178.628 9.74826C178.88 10.2116 179.133 10.671 179.385 11.1304C179.859 9.49967 180.332 7.86695 180.807 6.23224L180.845 6.10297L180.964 6.16661C181.281 6.33167 181.593 6.49673 181.901 6.67174C182.168 6.82288 182.43 6.97999 182.695 7.14107L182.796 7.20471L181.483 9.10591C181.925 9.12381 182.182 9.18347 182.581 9.38234C182.573 9.32665 182.563 9.26699 182.559 9.20733C182.549 9.11585 182.541 9.02437 182.559 8.93289C182.591 8.78175 182.693 8.64254 182.78 8.51527C182.969 8.24878 183.162 7.98627 183.349 7.71183L183.413 7.62035L183.504 7.68399C184.12 8.12945 184.703 8.61669 185.28 9.11585L185.363 9.18943L183.792 10.9992C183.949 11.0171 184.105 11.0449 184.262 11.0946C184.472 11.1622 184.685 11.2597 184.89 11.3551C184.886 11.3054 184.884 11.2537 184.88 11.204C184.874 11.1225 184.866 11.0469 184.888 10.9693C184.924 10.8281 185.045 10.7028 185.145 10.6014C185.379 10.3409 185.618 10.0883 185.851 9.82582L185.924 9.74229L186.008 9.81587C186.411 10.1778 186.773 10.6332 187.123 11.0469L187.207 11.1443L187.102 11.2139C186.408 11.6733 186.298 12.3833 186.775 13.0555C188.235 15.1078 189.235 17.4565 189.709 19.9403L189.804 20.4355L189.579 20.2804C189.12 19.9543 188.589 19.6739 188.054 19.4452M175.223 38.7375C174.97 38.7455 174.77 38.9543 174.778 39.2109C174.782 39.4674 174.992 39.6703 175.245 39.6663C175.497 39.6583 175.698 39.4495 175.694 39.193C175.686 38.9364 175.478 38.7336 175.225 38.7375M177.884 40.7203C178.238 40.6049 178.596 40.4956 178.948 40.3663C181.607 39.3799 183.993 37.773 185.916 35.665C186.211 35.3428 186.577 35.3766 186.903 35.6232L187 35.6968L186.386 36.3809C184.357 38.5486 181.855 40.2012 179.081 41.2055C178.278 41.4939 177.446 41.7246 176.617 41.9215L176.512 41.9453L176.154 40.5135C175.943 40.8615 175.575 41.1936 175.263 41.4263C175.667 41.7465 175.891 42.4823 175.971 42.9377C176.013 43.1942 176.058 43.5065 176.03 43.765C176.013 43.9261 175.967 44.0732 175.846 44.1886C175.79 44.2383 175.726 44.2761 175.661 44.3119C175.995 44.3198 176.369 44.28 176.575 44.0673C176.874 43.761 176.776 43.1584 176.691 42.7865L176.667 42.6772L176.772 42.6533C177.586 42.4524 178.397 42.2456 179.191 41.9652C181.907 41.0106 184.373 39.4555 186.425 37.4151C186.7 37.1446 186.966 36.8642 187.221 36.5758C187.467 36.2994 187.702 36.017 187.929 35.7267L187.29 35.1022C186.698 34.4957 185.986 34.5931 185.435 35.1937C183.741 37.0491 181.666 38.5128 179.358 39.4773L178.898 39.6663L179.008 39.4137C179.228 38.8907 179.397 38.308 179.509 37.7293C179.294 38.1608 179.077 38.5864 178.852 39.006C178.656 39.3819 178.453 39.7538 178.242 40.1177C178.127 40.3186 178.007 40.5214 177.884 40.7183M165.427 6.58423C165.689 6.801 166.005 6.98794 166.29 7.1709C166.745 7.46125 167.479 7.9107 167.594 8.48941C167.608 8.56697 167.612 8.64453 167.604 8.72408L167.598 8.80562L167.521 8.82351C167.352 8.8613 167.02 8.65845 166.878 8.57095C166.566 8.38202 166.26 8.16724 165.966 7.95047C165.699 7.75359 165.433 7.55074 165.17 7.34392C165.023 7.22858 164.872 7.11323 164.731 6.98993C164.313 7.21863 163.909 7.44932 163.506 7.69592L164.039 8.15929L164.566 7.84706L166.103 8.92096C166.379 9.12182 166.662 9.31472 166.942 9.50962C167.23 9.71247 167.529 9.92724 167.801 10.1579V10.0028C167.819 9.82781 167.907 9.66672 167.994 9.51956C168.09 9.36444 168.191 9.21131 168.269 9.04625C168.483 8.5789 168.388 8.17519 168.125 7.7516C167.771 7.17885 167.051 6.88453 166.554 6.46094L166.499 6.41122L166.521 6.3436C166.594 6.07712 166.709 5.84444 166.797 5.58591C166.948 5.16232 166.906 4.81031 166.761 4.40263C166.725 4.41257 166.688 4.42451 166.652 4.43843C164.263 5.26374 162.066 6.54645 160.161 8.22094C159.817 8.5272 159.482 8.83942 159.16 9.16557L159.477 9.9173C159.852 9.52751 160.242 9.15165 160.648 8.79368C162.116 7.50501 163.764 6.45298 165.546 5.67739C165.612 5.64955 165.679 5.61773 165.747 5.58988L165.908 5.52227L165.9 5.69728C165.886 6.02342 165.669 6.35951 165.427 6.58423ZM184.29 5.45863C184.037 5.46261 183.836 5.6754 183.84 5.93194C183.848 6.18848 184.057 6.39133 184.309 6.38536C184.562 6.38139 184.763 6.1686 184.755 5.91205C184.751 5.65551 184.54 5.45266 184.288 5.45863M183.498 11.8583C183.245 11.8662 183.045 12.075 183.049 12.3316C183.057 12.5881 183.265 12.791 183.518 12.785C183.77 12.781 183.971 12.5682 183.963 12.3117C183.959 12.0552 183.749 11.8523 183.496 11.8583" fill="#9CA3AF"/>
<path d="M172.701 46.4576C160.32 46.4576 150.281 36.2854 150.281 23.7387C150.281 12.1605 158.836 2.60083 169.887 1.19879C170.013 2.19513 170.641 3.03436 171.508 3.44006C170.54 3.89547 169.866 4.89181 169.866 6.05122C169.866 7.21063 170.54 8.203 171.508 8.65841C170.54 9.11382 169.866 10.1102 169.866 11.2656V11.3014C164.273 12.604 160.105 17.6811 160.105 23.7407C160.105 30.7907 165.747 36.5062 172.701 36.5062C179.656 36.5062 185.302 30.7907 185.302 23.7407C185.302 17.6811 181.133 12.604 175.539 11.3014V11.2656C175.539 10.1121 174.865 9.11382 173.897 8.65841C174.865 8.203 175.539 7.20666 175.539 6.05122C175.539 4.89579 174.865 3.89746 173.897 3.44006C174.764 3.03237 175.392 2.19513 175.513 1.19879C186.571 2.60282 195.124 12.1605 195.124 23.7387C195.124 36.2854 185.085 46.4576 172.699 46.4576M170.446 6.04923C170.446 4.79038 171.456 3.76422 172.699 3.76422C173.942 3.76422 174.957 4.7884 174.957 6.04923C174.957 7.31007 173.946 8.33425 172.699 8.33425C171.452 8.33425 170.446 7.31007 170.446 6.04923ZM177.379 12.5125C178.811 13.127 180.095 14.008 181.199 15.1237C182.305 16.2433 183.172 17.5479 183.774 18.9977C184.403 20.4991 184.719 22.0921 184.719 23.7387C184.719 25.3854 184.403 26.9763 183.774 28.4798C183.172 29.9315 182.305 31.2341 181.199 32.3538C180.093 33.4734 178.811 34.3504 177.379 34.9649C175.897 35.5993 174.322 35.9235 172.697 35.9235C171.073 35.9235 169.502 35.6013 168.02 34.9649C166.588 34.3504 165.303 33.4734 164.2 32.3538C163.094 31.2341 162.227 29.9335 161.62 28.4798C160.996 26.9783 160.676 25.3854 160.676 23.7387C160.676 22.0921 160.996 20.4991 161.62 18.9977C162.227 17.5479 163.094 16.2433 164.2 15.1237C165.305 14.008 166.588 13.127 168.02 12.5125C169.502 11.8801 171.077 11.5579 172.697 11.5579C174.318 11.5579 175.897 11.8801 177.379 12.5125ZM172.697 10.9713C171.93 10.9713 171.178 11.0409 170.448 11.1741C170.494 9.95703 171.486 8.9766 172.697 8.9766C173.909 8.9766 174.905 9.95504 174.951 11.1741C174.221 11.0409 173.467 10.9713 172.697 10.9713ZM172.697 1.01583C173.451 1.01583 174.199 1.05362 174.933 1.1272C174.79 2.24684 173.841 3.11391 172.697 3.11391C171.554 3.11391 170.609 2.24684 170.466 1.1272C171.2 1.05362 171.948 1.01583 172.697 1.01583ZM193.891 14.6643C192.734 11.8881 191.073 9.3982 188.961 7.25637C186.849 5.11653 184.389 3.43608 181.653 2.26275C178.817 1.04567 175.804 0.431152 172.697 0.431152C169.591 0.431152 166.582 1.04567 163.746 2.26275C161.006 3.43409 158.546 5.11454 156.434 7.25637C154.326 9.39622 152.665 11.8881 151.508 14.6643C150.309 17.538 149.7 20.5906 149.7 23.7347C149.7 26.8789 150.307 29.9315 151.508 32.8052C152.665 35.5814 154.326 38.0713 156.434 40.2131C158.546 42.353 161.006 44.0334 163.746 45.2067C166.582 46.4238 169.595 47.0383 172.697 47.0383C175.8 47.0383 178.817 46.4238 181.653 45.2067C184.389 44.0354 186.849 42.355 188.961 40.2131C191.073 38.0733 192.734 35.5814 193.891 32.8052C195.09 29.9315 195.699 26.8829 195.699 23.7347C195.699 20.5866 195.092 17.538 193.891 14.6643Z" fill="#9CA3AF"/>
<path d="M176.796 31.799C177.176 31.7751 177.576 31.7989 177.961 31.785C177.792 32.4691 177.255 32.5527 176.492 32.5527C176.555 32.6819 176.629 32.6958 176.768 32.7694C178.278 33.541 179.491 31.7552 178.815 30.4387C178.27 29.3369 177.218 29.5935 176.868 30.6216C176.713 31.077 176.699 31.5961 176.798 31.797M178.079 30.9259C178.079 30.9259 178.001 31.1884 177.699 31.0591C177.542 30.9915 177.524 30.7966 177.59 30.6594C177.723 30.375 178.224 30.5719 178.077 30.9259M167.199 29.0128C167.374 29.1599 167.561 29.2156 167.561 29.5597L167.553 29.8063C166.353 29.8938 166.405 30.9359 166.405 31.7612L168.32 31.7572L168.31 28.263C168.086 28.5434 167.535 28.8656 167.199 29.0148M167.199 30.9836C167.223 30.7449 167.328 30.6256 167.561 30.5938L167.553 30.9895L167.199 30.9816V30.9836ZM174.332 29.3588L176.301 31.7592C176.526 32.0336 175.806 32.145 175.563 31.9203L175.398 31.7631H168.953V30.9816L172.294 30.9776C172.262 30.56 171.968 30.5958 171.574 30.5958C170.661 30.5998 169.696 30.6336 168.907 30.5918C168.953 30.4765 169.146 30.3432 169.303 30.0867C169.37 29.9813 169.601 29.5318 169.647 29.4801C169.997 29.8003 169.595 29.8341 170.619 29.8341H171.445C171.88 29.8341 172.294 29.8202 172.598 30.0509C172.858 30.2438 173.039 30.5341 173.043 30.9776H174.752C174.251 30.3631 173.747 29.7486 173.242 29.1381C173.242 29.1341 173.238 29.1281 173.234 29.1241C173.465 28.9372 173.817 28.7383 174.33 29.3588M176.744 25.6638C177.094 25.3277 177.102 25.3436 177.098 25.0016V23.8024C177.098 23.0228 176.965 22.8756 177.452 22.6052L177.357 22.5217C176.663 22.0583 176.719 21.7779 176.319 21.4239C176.305 22.641 176.327 23.3569 176.315 24.578C176.315 24.7212 176.319 24.8266 176.315 24.9041C176.315 25.0314 176.122 25.1646 176.034 25.28C175.865 25.093 175.744 24.9578 175.744 24.9141C175.74 24.757 175.74 24.6854 175.74 24.3413C175.74 22.4918 175.736 22.8577 175.736 21.4676C175.34 21.8356 175.209 22.3128 174.62 22.5515C174.658 22.6012 174.63 22.5654 174.672 22.6111C175.066 23.0069 174.961 22.3646 174.961 23.3728L174.957 25.099C174.961 25.3297 175.189 25.6121 175.374 25.7195L175.191 25.9064C175.09 26.0078 174.974 26.0476 174.974 26.2465L174.978 27.5769H177.098V26.5428C177.098 25.9561 177.039 25.974 176.744 25.6658M176.12 26.1073C176.225 26.2346 176.382 26.4275 176.396 26.4831V26.7994H175.822V26.4831C175.822 26.4275 176.019 26.2127 176.12 26.1073ZM167.191 26.8053C167.205 26.5846 167.334 26.4016 167.559 26.4334L167.555 26.8013L167.443 26.8093L167.314 26.8133L167.191 26.8053ZM169.848 23.1879C169.848 22.7563 170.033 22.7881 170.206 22.5634C170.082 22.4361 169.885 22.3944 169.585 22.0583C169.49 21.9608 169.406 21.8614 169.333 21.756C169.259 21.6586 169.175 21.4955 169.098 21.4478L169.094 26.8013L168.322 26.7974V24.0152C168.231 24.0649 168.241 24.0609 168.165 24.1385C167.775 24.5462 167.354 24.6396 167.187 24.7808C167.457 24.9141 167.563 24.9956 167.563 25.3774C167.563 25.6857 167.567 25.2959 167.559 25.6061C167.135 25.7036 166.924 25.7533 166.705 26.0238C166.351 26.4633 166.407 27.0141 166.407 27.5789H171.777V23.1899C171.777 22.9274 171.828 22.8359 172.005 22.6768C172.037 22.645 172.043 22.645 172.079 22.6131C172.115 22.5813 172.111 22.5913 172.131 22.5634C171.896 22.3665 171.8 22.3884 171.51 22.0682C171.419 21.9668 171.339 21.8714 171.262 21.762C171.18 21.6466 171.114 21.5134 171.027 21.4398L171.023 26.8013H169.854L169.85 23.1879H169.848ZM173.427 27.573C173.483 27.2926 173.441 24.5342 173.441 23.7686C173.441 23.2097 173.322 23.0149 173.712 22.7305L173.841 22.6211C173.598 22.5256 173.294 22.2592 173.153 22.106L172.652 21.4597L172.658 27.5749L173.425 27.571L173.427 27.573ZM178.606 23.3171C178.606 22.9532 178.785 22.7881 179.006 22.637C178.872 22.5634 178.745 22.4799 178.634 22.3944C178.508 22.2989 178.437 22.2074 178.331 22.106C178.111 21.8893 177.89 21.5194 177.822 21.4537L177.812 27.5769H178.606V23.3171ZM167.189 19.8608C167.203 19.6082 167.312 19.4929 167.555 19.467L167.551 19.8608H167.189ZM173.332 20.6324C173.384 20.3281 173.342 17.6155 173.342 16.828C173.342 16.484 173.286 16.0902 173.433 15.8675C173.521 15.7382 173.62 15.7382 173.7 15.6229C173.465 15.3942 173.405 15.5393 172.841 14.8294C172.785 14.7598 172.775 14.7419 172.731 14.6782L172.59 14.5211V19.8588L168.316 19.8628L168.31 17.0985C168.09 17.3192 167.602 17.717 167.181 17.8363C167.185 17.8403 167.195 17.8502 167.199 17.8542L167.441 18.0471C167.616 18.244 167.565 18.3514 167.551 18.6815C166.821 18.7332 166.399 19.2701 166.399 20.0318C166.399 20.7438 166.34 20.6423 166.705 20.6384C167.523 20.6304 172.678 20.6761 173.334 20.6344M174.225 20.6304L175 20.6384C175.08 20.2168 174.955 17.4902 175.018 16.3467C175.028 16.132 175.11 15.9251 175.263 15.8058L175.414 15.6825C175.175 15.5871 174.881 15.3345 174.74 15.1834C174.539 14.9666 174.29 14.5728 174.225 14.5211V20.6304ZM178.296 18.8406C178.65 18.5045 178.654 18.5204 178.65 18.1783V16.9792C178.65 16.1996 178.516 16.0524 179.008 15.7819L178.91 15.7004C178.216 15.2331 178.276 14.9527 177.872 14.6027C177.858 15.8197 177.882 16.5357 177.868 17.7567C177.868 17.8979 177.872 18.0013 177.872 18.0829C177.868 18.2062 177.675 18.3394 177.592 18.4548C177.423 18.2718 177.297 18.1326 177.297 18.0888C177.297 17.9337 177.293 17.8641 177.293 17.5201V14.6464C176.894 15.0123 176.766 15.4876 176.174 15.7263C176.211 15.776 176.184 15.7442 176.225 15.7859C176.619 16.1857 176.516 15.5413 176.516 16.5476L176.512 18.2778C176.512 18.5085 176.74 18.7909 176.929 18.8982L176.746 19.0812C176.645 19.1826 176.53 19.2244 176.53 19.4213V20.7517H178.65V19.7196C178.65 19.1329 178.594 19.1468 178.296 18.8386M177.59 19.2801C177.695 19.4093 177.852 19.6003 177.866 19.6599V19.9721H177.293V19.6599C177.293 19.6003 177.486 19.3855 177.588 19.2801" fill="#9CA3AF"/>
</g>
<defs>
<clipPath id="clip0_4215_5957">
<rect width="195.2" height="48" fill="white" transform="translate(0.74707)"/>
</clipPath>
</defs>
</svg>
