<svg width="220" height="48" viewBox="0 0 220 48" fill="none" xmlns="http://www.w3.org/2000/svg">
<g clipPath="url(#clip0_4215_5930)">
<path d="M19.7356 0.363743L19.4879 0.000488281L0.895874 13.2594L1.12703 13.6392L19.7356 0.363743Z" fill="#9CA3AF"/>
<path d="M16.0535 0.595105L15.8058 0.215332L0.895874 10.8489L1.14355 11.2121L16.0535 0.595105Z" fill="#9CA3AF"/>
<path d="M11.5303 1.38807L11.2827 1.0083L0.880371 8.43858L1.12804 8.80184L11.5303 1.38807Z" fill="#9CA3AF"/>
<path d="M5.46957 3.28651L5.2219 2.90674L0.895874 6.04397L1.14355 6.40722L5.46957 3.28651Z" fill="#9CA3AF"/>
<path d="M29.0668 17.1237L26.0121 19.2702L10.5408 30.3165L10.8545 30.7954L8.75755 32.331L8.92266 32.5786L4.43152 35.8645L4.67919 36.2277L9.63266 32.6117L11.3003 31.4393L27.0524 20.1783L26.7386 19.683L29.5126 17.7016L29.364 17.4539L39.4856 10.2383L39.2544 9.875L29.0668 17.1237Z" fill="#9CA3AF"/>
<path d="M29.9238 18.9074L26.6875 21.2026L11.6785 31.9187L11.9922 32.3975L9.73017 34.0487L9.89528 34.2799L5.48669 37.4996L5.73437 37.8629L10.143 34.6266L12.3885 32.9919L27.4471 22.2428L27.1333 21.7474L30.3531 19.5019L30.188 19.2542L39.451 12.666L39.2033 12.3027L29.9238 18.9074Z" fill="#9CA3AF"/>
<path d="M30.7484 20.7396L28.0735 22.6384L12.7342 33.5692L13.048 34.0646L10.984 35.5671L11.1491 35.7983L6.70752 39.0511L6.95519 39.4144L11.3968 36.1615L13.4608 34.6425L28.8 23.7117L28.4863 23.2163L31.1611 21.3175L31.0125 21.0698L39.4169 15.0595L39.1693 14.6963L30.7484 20.7396Z" fill="#9CA3AF"/>
<path d="M32.0044 22.2257L29.4121 24.108L13.8912 35.1048L14.2214 35.6002L11.6291 37.532L11.7942 37.7797L8.12866 40.4711L8.37634 40.8344L12.5703 37.7632L15.3937 35.7158L30.2542 25.1152L29.9404 24.6199L32.4502 22.8201L32.2851 22.5724L39.4181 17.4868L39.1704 17.1235L32.0044 22.2257Z" fill="#9CA3AF"/>
<path d="M33.5555 23.5135L30.6494 25.5775L17.209 35.1543L17.5227 35.6331L14.336 37.9613L14.5011 38.209L9.53113 41.8415L9.7788 42.2048L15.1781 38.2585L17.9025 36.2606L31.4255 26.6177L31.1117 26.1224L33.9352 24.1079L33.7866 23.8603L39.3675 19.914L39.1198 19.5342L33.5555 23.5135Z" fill="#9CA3AF"/>
<path d="M37.0061 23.6288L36.9235 23.5132L33.5222 25.9404L20.5276 35.22L20.8578 35.7154L17.3573 38.3077L17.5059 38.5554L11.3636 43.0466L11.6113 43.4098L18.2159 38.5554L21.6008 36.0786L34.2322 27.0302L33.9184 26.5513L37.3198 24.1241L37.1217 23.8269L37.2373 24.0085L39.3507 22.4399L39.1031 22.0767L37.0061 23.6288Z" fill="#9CA3AF"/>
<path d="M37.0736 25.8093L35.1583 27.1633L27.5134 32.6287L27.8271 33.124L24.5744 35.5183L24.7395 35.7659L13.0658 44.3025L13.3135 44.6657L25.433 35.7989L28.2729 33.735L35.8517 28.3356L35.538 27.8403L37.4534 26.4863L37.3048 26.2387L39.3027 24.8021L39.055 24.4224L37.0736 25.8093Z" fill="#9CA3AF"/>
<path d="M37.4533 28.0216V27.9555L35.6535 29.2434L29.5938 33.5695L29.924 34.0649L27.084 36.1288L27.2491 36.3765L14.948 45.3754L15.1957 45.7386L28.0747 36.2939L30.5514 34.4776L36.3305 30.3167L36.0167 29.8378L37.8165 28.583L37.6184 28.2857L39.0219 27.295L38.8732 27.0474L37.4533 28.0216Z" fill="#9CA3AF"/>
<path d="M2.63033 16.0673L4.36404 14.8125L10.9026 10.1561L10.5889 9.66079L13.4619 7.61334L13.3133 7.38217L22.9891 0.44724L22.7579 0.0839844L13.0161 7.0024L10.1431 9.04986L3.20823 13.9869L3.52195 14.4822L1.87079 15.6711L2.03591 15.9187L0.830566 16.7774L1.07824 17.1406L2.63033 16.0673Z" fill="#9CA3AF"/>
<path d="M3.68734 17.7018L5.42105 16.447L13.4952 10.6844L13.1815 10.189L15.4105 8.58737L15.2619 8.35621L25.7633 0.777318L25.5156 0.414062L14.9978 8.00946L12.7687 9.6111L4.16617 15.737L4.47989 16.2323L2.99385 17.3221L3.14246 17.5698L0.880371 19.2209L1.12804 19.5842L3.68734 17.7018Z" fill="#9CA3AF"/>
<path d="M4.06683 19.8328L6.32891 18.1816L15.1296 11.9072L14.8159 11.4118L17.177 9.7276L17.0284 9.49644L28.3884 1.32313L28.1407 0.943359L16.7807 9.11667L14.304 10.8504L5.09055 17.4386L5.40426 17.9339L3.40637 19.387L3.57148 19.6346L0.830566 21.6656L1.07824 22.0288L4.06683 19.8328Z" fill="#9CA3AF"/>
<path d="M4.97423 21.5814L7.43445 19.7816L16.7965 13.1109L16.4828 12.6156L18.976 10.8323L18.8109 10.5681L30.9304 1.99851L30.6827 1.63525L18.3486 10.3039L16.004 11.9881L5.96492 19.1377L6.29515 19.633L4.00005 21.3172L4.16516 21.5649L0.895874 24.0582L1.14355 24.438L4.97423 21.5814Z" fill="#9CA3AF"/>
<path d="M6.09874 23.1829L7.70035 22.0271L18.4824 14.3327L18.1522 13.8703L20.9426 11.8889L20.794 11.6412L33.0291 2.89003L32.7814 2.51025L20.5464 11.2615L17.7559 13.2594L6.97385 20.9043L7.28757 21.3997L5.24013 22.9022L5.40525 23.1499L1.07922 26.3037L1.3269 26.6834L6.11525 23.216L6.09874 23.1829Z" fill="#9CA3AF"/>
<path d="M7.15395 24.8184L8.97022 23.4975L20.1155 15.5388L19.8018 15.0435L22.8895 12.8474L22.7409 12.6162L35.3062 3.65037L35.075 3.28711L22.5097 12.2365L19.2404 14.5811L7.89697 22.6554L8.21069 23.1507L6.26233 24.5707L6.41093 24.8184L1.42444 28.4675L1.67211 28.8308L7.15395 24.8184Z" fill="#9CA3AF"/>
<path d="M7.4671 27.0136L10.0594 25.1148L23.2191 15.7856L22.8889 15.2903L25.7949 13.2098L25.6463 12.9786L37.32 4.65671L37.0723 4.29346L25.3986 12.6154L22.3935 14.7454L8.755 24.4213L9.06872 24.9166L6.64152 26.6999L6.80663 26.9476L1.96875 30.4811L2.21642 30.8608L7.4671 27.0136Z" fill="#9CA3AF"/>
<path d="M7.83111 29.1602L10.1427 27.476L24.3922 17.3213L24.0785 16.8425L27.001 14.729L26.8524 14.4978L39.2031 5.68055L38.9554 5.30078L26.6048 14.118L23.6822 16.1985L9.08599 26.6009L9.39971 27.0963L6.92298 28.9126L7.08809 29.1602L2.64648 32.3965L2.89416 32.7598L7.83111 29.1602Z" fill="#9CA3AF"/>
<path d="M8.24459 31.241L10.2095 29.8045L25.4496 18.9398L25.1359 18.4444L27.9099 16.463L27.7612 16.2154L39.4514 7.89344L39.2038 7.51367L27.5301 15.8356L24.7396 17.817L9.49947 28.6817L9.81319 29.1771L7.50157 30.8613L7.66668 31.1089L3.48926 34.1636L3.73693 34.5434L8.27761 31.2575L8.24459 31.241Z" fill="#9CA3AF"/>
<path d="M16.6489 46.4643L16.8966 46.8276L37.9819 31.4717L37.7342 31.1084L16.6489 46.4643Z" fill="#9CA3AF"/>
<path d="M18.433 47.6362L18.6807 47.9995L36.4306 35.0048L36.1829 34.625L18.433 47.6362Z" fill="#9CA3AF"/>
<path d="M24.7227 45.4905L24.9703 45.8538L32.7638 40.1572L32.5161 39.7939L24.7227 45.4905Z" fill="#9CA3AF"/>
<path d="M55.3686 35.0685V36.3733H49.6513V35.3532L53.3521 29.6121H49.8648V28.331H55.2263V29.3748L51.5729 35.0685H55.3686ZM57.0292 31.5811L56.792 30.6796C58.6187 29.873 61.1096 29.7781 61.1096 32.3403V36.3496H59.7337V35.6141C59.2829 36.1361 58.6187 36.4445 57.907 36.4445C57.0767 36.4682 56.4124 35.8039 56.3887 34.9973C56.3887 34.9499 56.3887 34.8787 56.3887 34.8312C56.3887 33.5027 57.646 32.5775 59.71 32.6724V32.3166C59.7337 30.8931 58.3103 31.0592 57.0292 31.5811ZM57.6935 34.6415C57.6935 35.1397 58.073 35.3532 58.5238 35.3532C58.9983 35.3532 59.4253 35.1397 59.7337 34.8075V33.479C58.3577 33.3367 57.6935 34.0721 57.6935 34.6415ZM68.7722 31.5811L68.535 30.6796C70.3617 29.873 72.8526 29.7781 72.8526 32.3403V36.3496H71.5241V35.6141C71.0734 36.1361 70.4092 36.4445 69.6975 36.4445C68.8671 36.4682 68.1792 35.8039 68.1792 34.9736C68.1792 34.9261 68.1792 34.855 68.1792 34.8075C68.1792 33.479 69.4365 32.5538 71.5004 32.6487V32.3166C71.5241 30.8931 70.077 31.0592 68.7722 31.5811ZM69.4602 34.6415C69.4602 35.1397 69.8398 35.3532 70.2905 35.3532C70.765 35.3532 71.2157 35.1634 71.5004 34.8075V33.479C70.1245 33.3367 69.4602 34.0721 69.4602 34.6415ZM75.9129 34.8312C75.8655 35.1159 76.079 35.3769 76.3637 35.4243H76.4823C76.6484 35.4243 76.8144 35.4006 77.0042 35.3769V36.397C76.6484 36.4682 76.2925 36.4919 75.9367 36.4919C74.8928 36.4919 74.5607 35.9225 74.5607 34.9499V31.6523H73.849L74.0151 30.6085H74.5607V29.1376L75.9367 28.7817V30.6085H77.0754L76.9093 31.676H75.9367V34.8312H75.9129ZM79.0919 38.3186H78.2616C78.4751 37.4883 78.6174 36.6342 78.7123 35.7802V35.3532H79.7324L79.685 35.7802C79.5663 36.6342 79.3528 37.4883 79.0919 38.3186ZM85.1887 29.6121V36.3733H83.6942V29.6121H81.5354V28.331H87.2527V29.6121H85.1887ZM89.0082 31.5811L88.771 30.6796C90.5977 29.873 93.0886 29.7781 93.0886 32.3403V36.3496H91.7126V35.6141C91.2619 36.1361 90.5977 36.4445 89.886 36.4445C89.0556 36.4682 88.3677 35.8039 88.3677 34.9736C88.3677 34.9261 88.3677 34.855 88.3677 34.8075C88.3677 33.479 89.625 32.5538 91.6889 32.6487V32.3166C91.7127 30.8931 90.2893 31.0592 89.0082 31.5811ZM89.6724 34.6415C89.6724 35.1397 90.052 35.3532 90.5028 35.3532C90.9772 35.3532 91.4042 35.1397 91.7126 34.8075V33.479C90.313 33.3367 89.6724 34.0721 89.6724 34.6415ZM95.8405 30.4187L96.6471 31.676L97.0978 32.5775L97.5723 31.676L98.3552 30.4424H99.7548L97.9281 33.3129L99.826 36.3496H98.1891L97.4062 35.1397L96.9318 34.2382L96.4573 35.1397L95.6982 36.3733H94.1799L96.1015 33.3129L94.2036 30.4187H95.8405ZM103.93 31.5811L103.693 30.6796C105.52 29.873 108.011 29.7781 108.011 32.3403V36.3496H106.635V35.6141C106.184 36.1361 105.52 36.4445 104.808 36.4445C103.978 36.4682 103.29 35.8039 103.29 34.9736C103.29 34.9261 103.29 34.855 103.29 34.8075C103.29 33.479 104.547 32.5538 106.611 32.6487V32.3166C106.658 30.8931 105.235 31.0592 103.93 31.5811ZM104.618 34.6415C104.618 35.1397 104.998 35.3532 105.448 35.3532C105.923 35.3532 106.374 35.1397 106.658 34.8075V33.479C105.235 33.3367 104.594 34.0721 104.618 34.6415ZM109.481 36.3496V30.4424H110.857V30.988C111.379 30.561 112.02 30.3238 112.684 30.3238C113.823 30.3238 114.392 31.0118 114.392 32.2454V36.3496H113.04V32.6961C113.04 32.0319 112.755 31.676 112.138 31.676C111.664 31.7235 111.237 31.9133 110.881 32.2217V36.3496H109.481ZM117.879 36.4445C116.385 36.4445 115.697 35.1397 115.697 33.3604C115.697 31.5811 116.456 30.2763 117.951 30.2763C118.52 30.2763 119.042 30.5136 119.421 30.9406V28.2598H120.726V36.3496H119.398V35.7328C119.018 36.1835 118.449 36.4207 117.879 36.4445ZM118.378 31.4151C117.571 31.4151 117.12 32.103 117.12 33.3367C117.12 34.5703 117.595 35.2583 118.378 35.2583C118.757 35.2583 119.137 35.1159 119.421 34.855V31.7946C119.137 31.5811 118.757 31.4388 118.378 31.4151ZM128.152 36.4919C125.684 36.4919 124.664 34.8075 124.664 32.3403C124.664 29.873 125.684 28.1887 128.152 28.1887C129.053 28.1887 129.931 28.3784 130.737 28.7817V29.9679C129.955 29.6595 129.124 29.4935 128.294 29.446C126.871 29.446 126.135 30.4187 126.135 32.3166C126.135 34.2144 126.894 35.1634 128.294 35.1634C129.124 35.1397 129.955 34.9736 130.737 34.6889V35.8751C129.955 36.2784 129.053 36.4919 128.152 36.4919ZM137.143 30.4187V36.3496H135.767V35.7802C135.269 36.2309 134.604 36.4682 133.94 36.4682C132.801 36.4682 132.256 35.7802 132.256 34.5466V30.4187H133.632V34.0721C133.632 34.7126 133.916 35.0922 134.533 35.0922C135.008 35.0448 135.435 34.855 135.79 34.5466V30.4187H137.143ZM138.4 36.0649V34.9736C139.017 35.282 139.681 35.4481 140.369 35.4718C141.223 35.4718 141.437 35.0448 141.437 34.7601C141.437 34.2856 140.891 34.1195 140.274 33.8586C139.491 33.5739 138.519 33.1943 138.519 32.0319C138.519 30.8694 139.373 30.0865 140.986 30.0865C141.65 30.0865 142.314 30.2526 142.907 30.561V31.6286C142.433 31.3439 141.887 31.1778 141.342 31.1541C140.44 31.1541 140.084 31.5811 140.084 31.937C140.084 32.2928 140.677 32.625 141.365 32.8385C142.053 33.052 143.05 33.5265 143.05 34.594C143.05 35.8276 142.053 36.5393 140.677 36.5393C139.871 36.5393 139.112 36.3733 138.4 36.0649ZM145.825 34.855C145.778 35.1397 145.991 35.4006 146.276 35.4481H146.395C146.561 35.4481 146.727 35.4243 146.893 35.4006V36.4207C146.537 36.4919 146.181 36.5156 145.825 36.5156C144.782 36.5156 144.449 35.9463 144.449 34.9736V31.6286H143.714L143.904 30.561H144.426V29.1139L145.802 28.758V30.5847H146.94L146.751 31.6523H145.778L145.825 34.855ZM147.889 33.3367C147.889 31.5811 148.72 30.2526 150.546 30.2526C152.349 30.2526 153.18 31.5811 153.18 33.3367C153.18 35.0922 152.349 36.4207 150.546 36.4207C148.72 36.4207 147.889 35.0922 147.889 33.3367ZM149.147 33.3367C149.147 34.4754 149.574 35.4006 150.523 35.4006C151.472 35.4006 151.875 34.4991 151.875 33.3367C151.875 32.1742 151.472 31.2727 150.523 31.2727C149.574 31.2727 149.147 32.1979 149.147 33.3367ZM162.882 32.2217V36.3496H161.53V32.6961C161.53 32.0319 161.246 31.676 160.629 31.676C160.154 31.7235 159.727 31.9133 159.395 32.2217V32.6961V36.3496H158.043V32.6961C158.043 32.0319 157.758 31.676 157.141 31.676C156.691 31.6997 156.264 31.9133 155.932 32.2217V36.3496H154.556V30.4424H155.932V31.2253C156.382 30.6559 157.047 30.3238 157.758 30.3238C158.422 30.2526 159.063 30.6559 159.277 31.2964C159.775 30.7034 160.486 30.3475 161.246 30.3238C162.313 30.3001 162.882 30.988 162.882 32.2217ZM164.187 36.0649V34.9736C164.804 35.282 165.468 35.4481 166.156 35.4718C167.01 35.4718 167.224 35.0448 167.224 34.7601C167.224 34.2856 166.678 34.1195 166.061 33.8586C165.279 33.5739 164.306 33.1943 164.306 32.0319C164.306 30.8694 165.16 30.0865 166.749 30.0865C167.414 30.0865 168.078 30.2526 168.671 30.561V31.6286C168.196 31.3439 167.651 31.1778 167.105 31.1541C166.204 31.1541 165.848 31.5811 165.848 31.937C165.848 32.2928 166.441 32.625 167.129 32.8385C167.793 33.0757 168.79 33.5265 168.79 34.594C168.79 35.8276 167.793 36.5393 166.417 36.5393C165.658 36.5393 164.899 36.3733 164.187 36.0649ZM174.27 34.4517L173.677 36.397H172.229L175.1 28.2836H176.334L179.109 36.397H177.615L176.998 34.4517H174.27ZM174.531 33.2892H176.689L175.598 29.8968L174.531 33.2892ZM185.087 30.4661V36.397H183.735V35.8276C183.237 36.2784 182.573 36.5156 181.909 36.5156C180.77 36.5156 180.224 35.8276 180.224 34.594V30.4187H181.576V34.0721C181.576 34.7126 181.861 35.0922 182.478 35.0922C182.952 35.0448 183.379 34.855 183.735 34.5466V30.4187L185.087 30.4661ZM188.171 34.8312C188.124 35.1159 188.338 35.3769 188.622 35.4243H188.741C188.907 35.4243 189.073 35.4006 189.239 35.3769V36.397C188.883 36.4682 188.527 36.4919 188.171 36.4919C187.128 36.4919 186.796 35.9225 186.796 34.9499V31.6523H186.06L186.25 30.5847H186.796V29.1376L188.171 28.7817V30.6085H189.31L189.12 31.676H188.148V34.8312H188.171ZM195.265 32.2454V36.3496H193.889V32.6961C193.889 32.0319 193.604 31.6998 193.058 31.6998C192.56 31.7235 192.086 31.9133 191.706 32.2217V36.3496H190.33V28.331H191.706V30.9643C192.181 30.561 192.798 30.3238 193.414 30.3001C194.363 30.2526 195.194 30.988 195.241 31.937C195.241 32.0319 195.241 32.1505 195.217 32.2454H195.265ZM196.546 33.3367C196.546 31.5811 197.376 30.2526 199.179 30.2526C200.982 30.2526 201.836 31.6048 201.836 33.3367C201.836 35.0685 201.006 36.4207 199.203 36.4207C197.4 36.4207 196.546 35.0922 196.546 33.3367ZM197.803 33.3367C197.803 34.4754 198.23 35.4006 199.179 35.4006C200.128 35.4006 200.531 34.4991 200.531 33.3367C200.531 32.1742 200.104 31.2727 199.179 31.2727C198.254 31.2727 197.803 32.1979 197.803 33.3367ZM203.188 36.3258V30.4424H204.588V31.5811C204.968 30.8694 205.703 30.4187 206.51 30.4424V31.5337C205.703 31.51 204.968 31.937 204.588 32.6487V36.3496H203.236L203.188 36.3258ZM207.411 29.1376C207.435 28.7343 207.767 28.4496 208.146 28.4496C208.526 28.4496 208.834 28.8055 208.834 29.1851C208.811 29.5646 208.502 29.873 208.123 29.873C207.719 29.873 207.411 29.5646 207.411 29.1376ZM208.811 36.3258H207.458V30.6085H208.811V36.3258ZM212.251 34.8075C212.203 35.0922 212.417 35.3532 212.701 35.4006H212.82C212.986 35.4006 213.152 35.3769 213.318 35.3532V36.3733C212.962 36.4444 212.606 36.4682 212.251 36.4682C211.207 36.4682 210.875 35.8988 210.875 34.9261V31.6286H210.163L210.353 30.561H210.898V29.1139L212.274 28.758V30.5847H213.413L213.223 31.6523H212.251V34.8075ZM219.747 30.4187L217.019 38.4847H215.714L216.284 36.7766L214.03 30.395H215.572L216.9 34.9499L218.276 30.395L219.747 30.4187ZM67.3014 36.3496H65.7119L63.8853 33.6214V36.3496H62.5567V28.331H63.909V32.8859L65.5933 30.3001H67.1353L65.1426 33.1706L67.3014 36.3496ZM114.013 22.0205C113.467 22.068 113.064 22.5662 113.111 23.1118C113.158 23.5863 113.538 23.9659 114.013 24.0133C114.558 23.9659 114.961 23.4677 114.914 22.922C114.867 22.4476 114.487 22.068 114.013 22.0205ZM56.0328 14.6188H54.7281C54.4434 14.4528 54.2536 14.1681 54.2536 13.8359C54.2536 13.4801 54.4434 13.3377 54.7281 13.3377C55.0127 13.3377 55.2025 13.5275 55.2737 13.9071H56.0566C55.9854 13.0056 55.5109 12.4837 54.7518 12.4837C54.1113 12.46 53.5894 12.9344 53.5419 13.575V13.741C53.5182 14.0732 53.6368 14.4053 53.874 14.6425H53.3284V15.4729H56.0091V14.6188H56.0328ZM58.3815 17.8452C58.3815 18.4857 58.1442 19.0077 57.3376 19.0077H52.5693C51.8338 19.0314 51.217 18.462 51.1933 17.7266C51.1933 17.6791 51.1933 17.6317 51.1933 17.5843V15.4729H49.6276V17.608C49.5564 19.2212 50.79 20.5971 52.4032 20.6683H52.5693H57.907C59.022 20.6683 59.9235 19.7668 59.9235 18.6518C59.9235 18.6281 59.9235 18.5806 59.9235 18.5569V10.7756H58.3577L58.3815 17.8452ZM62.5567 20.8107C62.6042 21.5461 62.0348 22.1866 61.2994 22.2578C61.252 22.2578 61.2282 22.2578 61.1808 22.2578H60.5165V23.8947H61.1808C62.794 23.8947 64.1225 22.5899 64.1225 20.953C64.1225 20.9055 64.1225 20.8581 64.1225 20.8107V13.7885H62.5567V20.8107ZM81.2744 21.7833C80.7288 21.7359 80.2543 22.1392 80.2306 22.6848C80.1831 23.2305 80.5864 23.7049 81.1321 23.7286C81.6777 23.7761 82.1522 23.3728 82.1759 22.8271C82.1759 22.8034 82.1759 22.7797 82.1759 22.756C82.1522 22.2578 81.7726 21.8308 81.2744 21.807V21.7833ZM87.656 18.3671C87.6797 18.6755 87.4662 18.9602 87.1578 19.0077C87.1341 19.0077 87.1103 19.0077 87.1103 19.0077H85.3074C85.0227 18.9602 84.6906 18.9365 83.9314 17.0861C82.5555 14.0494 80.4204 12.8396 77.9769 13.7885V15.2831C80.0171 14.4528 81.227 15.2831 82.2233 17.2996C82.4843 17.8927 82.7927 18.462 83.1248 19.0077H77.0279C76.5535 19.0077 76.1739 18.6518 76.1502 18.1773C76.1502 18.1536 76.1502 18.1299 76.1502 18.0824V16.5167C76.2214 14.8561 74.9403 13.4801 73.3034 13.3852C73.2559 13.3852 73.2085 13.3852 73.1611 13.3852H73.0187C71.3581 13.3852 70.0296 14.7374 70.0296 16.3743V16.5167V18.1062C70.0533 18.5806 69.7212 18.9839 69.2467 19.0077C69.223 19.0077 69.1993 19.0077 69.1518 19.0077H68.0605C67.7521 19.0077 67.4912 18.7467 67.4912 18.4383C67.4912 18.4146 67.4912 18.3909 67.4912 18.3671V10.7756H65.9255V18.9839C65.9017 19.8854 66.6134 20.6683 67.5149 20.692H67.5624H69.1755C69.8872 20.7158 70.5752 20.3599 71.0022 19.7905C71.619 20.3362 72.4494 20.6446 73.2797 20.6446C74.0151 20.6209 74.7031 20.265 75.1775 19.6719C75.5808 20.2887 76.2688 20.6683 77.0042 20.6446H87.5848C88.4863 20.6446 89.2217 19.8854 89.198 18.9839C89.198 18.9602 89.198 18.9602 89.198 18.9365V10.7282H87.6322L87.656 18.3671ZM74.6082 17.4419C74.6319 18.2248 74.0388 18.8653 73.2797 18.9128C72.6391 18.9365 72.0223 18.6281 71.6428 18.1299V16.493C71.5716 15.7338 72.1409 15.0696 72.9001 15.0221H73.0424H73.1848C73.9439 14.9984 74.5844 15.5915 74.6082 16.3506V16.493V17.4419ZM92.6616 10.7282H91.0484V20.6683H92.6141L92.6616 10.7282ZM97.43 13.3615H97.2876C95.6507 13.3615 94.2985 14.69 94.2985 16.3269V16.5167V17.5131C94.2273 19.1737 95.5084 20.5497 97.169 20.6446H98.8296V20.9056C98.8296 22.0443 97.9993 22.6848 95.3186 22.1866V23.7049C98.6161 24.5115 100.395 23.3016 100.395 21.3088V16.5167C100.467 14.8798 99.2092 13.5038 97.5723 13.4089C97.5248 13.4089 97.4537 13.4089 97.4062 13.4089L97.43 13.3615ZM98.8296 18.9839H97.169C96.3861 18.9128 95.8168 18.2722 95.8405 17.4894V16.493C95.7931 15.7338 96.3624 15.0696 97.1216 15.0221H97.2639H97.4062C98.1654 14.9984 98.8059 15.6152 98.8059 16.3743V16.5167L98.8296 18.9839ZM106.397 12.2227C106.943 12.2702 107.417 11.8669 107.441 11.3212C107.489 10.7756 107.085 10.3011 106.54 10.2774C105.994 10.2537 105.52 10.6333 105.496 11.1789V11.2501C105.472 11.772 105.852 12.2227 106.374 12.2702L106.397 12.2227ZM109.054 12.2227C109.6 12.2227 110.027 11.772 110.027 11.2263C110.027 10.6807 109.576 10.2537 109.054 10.2537C108.509 10.2537 108.082 10.7044 108.082 11.2501C108.082 11.772 108.532 12.2227 109.054 12.2227ZM120.204 22.0205C119.682 22.068 119.303 22.495 119.303 22.9932C119.35 23.4914 119.777 23.871 120.275 23.8235C120.774 23.7761 121.153 23.3491 121.106 22.8509C121.058 22.3764 120.679 22.0205 120.204 22.0205ZM121.106 18.9602V13.9308H119.516V18.3908C119.54 18.723 119.303 19.0077 118.994 19.0314C118.971 19.0314 118.971 19.0314 118.947 19.0314H116.124C115.341 19.0314 115.08 18.5095 115.08 17.8689V17.6317C115.08 17.4894 115.08 17.3707 115.08 17.2284V13.9545H113.514V17.9164C113.514 18.5332 113.277 19.0314 112.494 19.0314H111.427C110.952 19.0551 110.549 18.6993 110.525 18.2248C110.525 18.1773 110.525 18.1536 110.525 18.1062V13.3615H107.441C105.804 13.3615 104.476 14.7137 104.476 16.3506V16.493V17.4656C104.428 19.1263 105.709 20.526 107.37 20.5971C108.177 20.6209 108.959 20.2887 109.481 19.6956C109.956 20.2887 110.668 20.6209 111.427 20.5971H112.494C113.182 20.6209 113.87 20.3362 114.321 19.8143C114.724 20.2887 115.317 20.5734 115.934 20.5971H119.493C120.394 20.5971 121.13 19.8617 121.106 18.9602ZM108.983 18.2011C108.604 18.6993 108.011 19.0077 107.37 18.9839C106.587 18.9602 105.994 18.296 106.042 17.5131C106.042 17.5131 106.042 17.5131 106.042 17.4894V16.5167C105.97 15.7575 106.54 15.0933 107.299 15.0458H107.441H108.983V18.2011ZM117.571 22.0205C117.025 22.068 116.622 22.5662 116.67 23.1118C116.717 23.5863 117.097 23.9659 117.571 24.0133C118.117 23.9659 118.52 23.4677 118.472 22.922C118.425 22.4476 118.045 22.068 117.571 22.0205ZM134.011 12.5549C134.557 12.6023 135.031 12.199 135.079 11.6534C135.126 11.1077 134.723 10.6333 134.177 10.5858C133.632 10.5384 133.157 10.9417 133.11 11.4873V11.5585C133.11 12.0804 133.489 12.5311 134.011 12.5549ZM139.657 18.3908C139.681 18.6993 139.468 18.9839 139.159 19.0314C139.135 19.0314 139.112 19.0314 139.112 19.0314H137.546V17.774C137.546 14.856 136.407 13.5038 134.082 13.5038C132.588 13.5038 131.283 14.5714 130.216 15.8524V14.1918H128.65V19.0314H126.491V13.8122H124.902V20.8344C124.973 21.5698 124.427 22.2103 123.692 22.2815C123.644 22.2815 123.597 22.2815 123.549 22.2815H122.885V23.9184H123.549C125.162 23.9184 126.491 22.6136 126.491 20.9767C126.491 20.9293 126.491 20.8818 126.491 20.8344V20.6683H139.61C140.511 20.6683 141.247 19.9092 141.223 19.0077C141.223 18.9839 141.223 18.9839 141.223 18.9602V10.7519H139.657V18.3908ZM136.028 19.0314H130.192V17.3945C131.402 15.8999 132.635 15.117 133.845 15.117C135.055 15.117 136.004 15.8762 136.004 17.774L136.028 19.0314ZM144.616 10.8231H143.05V20.6683H144.616V10.8231ZM149.408 13.4564H149.265C147.628 13.4564 146.276 14.7849 146.276 16.4218V16.5641V17.5605C146.229 19.2212 147.51 20.5971 149.147 20.692H150.784V20.953C150.784 22.0917 149.953 22.7323 147.273 22.2341V23.7524C150.57 24.559 152.349 23.3491 152.349 21.3563V16.5167C152.421 14.8798 151.163 13.4801 149.526 13.4089C149.503 13.4089 149.455 13.4089 149.431 13.4089L149.408 13.4564ZM150.807 19.0314H149.17C148.388 18.9602 147.818 18.3197 147.842 17.5368V16.5404C147.794 15.7813 148.364 15.117 149.123 15.0696H149.265H149.408C150.167 15.0458 150.807 15.6626 150.807 16.4218V16.5641V19.0314ZM161.008 12.46C161.554 12.46 161.981 12.0092 161.981 11.4636C161.981 10.9179 161.53 10.4909 161.008 10.4909C160.463 10.4909 160.036 10.9417 160.036 11.4873C160.012 12.0092 160.463 12.46 161.008 12.46ZM158.351 12.46C158.897 12.5074 159.371 12.1041 159.395 11.5585C159.443 11.0128 159.039 10.5384 158.494 10.5146C157.948 10.4909 157.474 10.8705 157.45 11.4161V11.4873C157.45 12.033 157.853 12.46 158.399 12.4837H158.351V12.46ZM159.514 13.3615H159.3C157.663 13.3852 156.359 14.7374 156.382 16.3743V17.5843C156.335 19.2212 157.616 20.5734 159.253 20.5971H159.3H159.632C161.198 20.526 162.408 19.2212 162.361 17.6791V16.4218C162.408 14.8086 161.151 13.4564 159.537 13.3852L159.514 13.3615ZM160.866 17.8452C160.89 18.5095 160.368 19.0551 159.704 19.0551H159.3C158.541 19.0314 157.948 18.4146 157.972 17.6554V16.4218C157.924 15.6864 158.494 15.0696 159.229 15.0221H159.324H159.537C160.273 15.0221 160.866 15.5915 160.866 16.3269V16.4218V17.8452ZM179.062 12.5311C179.607 12.5786 180.082 12.1753 180.129 11.6296C180.177 11.084 179.773 10.6095 179.228 10.5621C178.682 10.5146 178.208 10.9179 178.16 11.4636V11.5348C178.137 12.0567 178.54 12.4837 179.062 12.5311ZM182.264 18.3908C182.288 18.6993 182.075 18.9839 181.766 19.0314C181.742 19.0314 181.719 19.0314 181.719 19.0314H179.892V13.8122H178.326V20.8344C178.397 21.5698 177.852 22.2103 177.116 22.2815C177.069 22.2815 177.022 22.2815 176.974 22.2815H176.31V23.9184H176.974C178.587 23.9184 179.916 22.6136 179.916 20.9767C179.916 20.9293 179.916 20.8818 179.916 20.8344V20.6683H182.264C183.166 20.6683 183.878 19.9329 183.878 19.0314C183.878 19.0077 183.878 18.9839 183.878 18.9839V10.7756H182.264V18.3908ZM187.27 10.7756H185.704V20.6683H187.27V10.7756ZM193.509 12.2465C194.055 12.2939 194.529 11.8906 194.553 11.345C194.577 10.7993 194.197 10.3249 193.652 10.3011C193.106 10.2774 192.631 10.657 192.608 11.2026V11.2738C192.608 11.772 192.987 12.199 193.485 12.2465H193.509ZM196.19 12.2465C196.736 12.2465 197.163 11.7957 197.163 11.2501C197.163 10.7044 196.712 10.2774 196.19 10.2774C195.644 10.2774 195.217 10.7282 195.217 11.2738C195.194 11.8194 195.644 12.2465 196.19 12.2465ZM202.571 11.7483H201.148C200.84 11.5822 200.674 11.2738 200.674 10.9417C200.674 10.5858 200.84 10.4198 201.148 10.4198C201.456 10.4198 201.67 10.6333 201.717 11.0128H202.524C202.453 10.0165 201.931 9.51826 201.148 9.51826C200.484 9.47081 199.914 9.96901 199.867 10.657V10.8705C199.867 11.2026 199.962 11.5348 200.175 11.772H199.701V12.6735H202.619V11.7483H202.571ZM204.944 21.9968C204.398 21.9494 203.924 22.3527 203.876 22.8983C203.829 23.444 204.232 23.9184 204.778 23.9659C205.323 24.0133 205.798 23.61 205.845 23.0644C205.845 23.0407 205.845 23.0169 205.845 22.9695C205.845 22.4238 205.418 21.9968 204.873 21.9968H204.849H204.944ZM207.625 21.9968C207.079 21.9494 206.604 22.3527 206.557 22.8983C206.51 23.444 206.913 23.9184 207.458 23.9659C208.004 24.0133 208.479 23.61 208.526 23.0644C208.526 23.0407 208.526 23.0169 208.526 22.9695C208.526 22.4238 208.075 21.9968 207.553 21.9968H207.625ZM212.749 13.6461V14.4765C211.61 14.7374 210.803 15.7575 210.803 16.9437V17.7029C210.803 18.1773 210.97 18.6518 211.278 19.0314H208.289C207.506 19.0314 207.245 18.5095 207.245 17.8689V17.6317C207.245 17.4894 207.245 17.347 207.245 17.2284V13.9545H205.679V17.9164C205.679 18.5332 205.442 19.0314 204.659 19.0314H202.975C202.168 19.0314 201.931 18.5095 201.931 17.8689V13.9545H200.389V17.8452C200.389 18.4857 200.175 19.0077 199.369 19.0077H198.562C198.088 19.0551 197.685 18.6993 197.661 18.2248C197.661 18.1773 197.661 18.1299 197.661 18.0824V13.3852H194.577C192.94 13.3852 191.611 14.7374 191.611 16.3743V16.5167V17.4894C191.564 19.15 192.845 20.5497 194.506 20.6209C195.312 20.6683 196.095 20.3125 196.617 19.7194C197.091 20.3125 197.803 20.6446 198.562 20.6209H199.369C200.057 20.6446 200.745 20.3599 201.196 19.838C201.599 20.3125 202.168 20.6209 202.809 20.6209H204.635C205.323 20.6446 206.011 20.3599 206.462 19.838C206.865 20.3125 207.458 20.6209 208.075 20.6209H216.782C218.419 20.5971 219.747 19.2449 219.7 17.5843V17.5605V16.6116C219.676 14.2867 216.9 12.5786 212.701 13.6461H212.749ZM196.166 18.2011C195.787 18.723 195.17 19.0077 194.553 18.9839C193.77 18.9365 193.177 18.296 193.225 17.5131V16.5167C193.153 15.7575 193.723 15.0933 194.458 15.0458H194.553H196.095L196.166 18.2011ZM214.836 19.0551H213.46C212.749 19.0077 212.203 18.4146 212.179 17.7029V17.0623C212.108 16.3269 212.654 15.6864 213.389 15.6389C214.125 15.5678 214.765 16.1134 214.813 16.8488V17.0623V19.0551H214.836ZM216.829 19.0551H216.165V17.0861C216.236 16.0659 215.572 15.1407 214.575 14.9035C216.616 14.69 218.229 15.544 218.229 16.659V17.5605C218.276 18.3434 217.659 19.0077 216.877 19.0551C216.829 19.0551 216.805 19.0551 216.758 19.0551H216.829ZM175.408 17.9638C175.456 19.411 174.317 20.6446 172.87 20.692H172.846H165.777C164.875 20.692 164.14 19.9329 164.164 19.0314C164.164 19.0077 164.164 19.0077 164.164 18.9839V10.7756H165.729V18.3671C165.706 18.6993 165.943 18.9839 166.251 19.0077H166.299H172.704C173.368 18.9839 173.866 18.4383 173.843 17.774C173.843 17.7503 173.843 17.7266 173.843 17.7029C173.866 16.9674 173.273 16.3506 172.538 16.3506C172.467 16.3506 172.395 16.3506 172.324 16.3506H168.244L167.959 15.1407L170.355 10.7282L171.802 11.2975L169.976 14.69H172.372C174.08 14.7137 175.456 16.1371 175.408 17.8689V17.9638Z" fill="#9CA3AF"/>
</g>
<defs>
<clipPath id="clip0_4215_5930">
<rect width="218.917" height="47.9989" fill="white" transform="translate(0.830566 0.000488281)"/>
</clipPath>
</defs>
</svg>
