<svg width="327" height="145" viewBox="0 0 327 145" fill="none" xmlns="http://www.w3.org/2000/svg">
<g clip-path="url(#clip0_4554_16508)">
<path d="M0.117188 8.51636C0.117188 4.09808 3.69891 0.516357 8.11719 0.516357H318.687C323.105 0.516357 326.687 4.09808 326.687 8.51636V136.516C326.687 140.935 323.105 144.516 318.687 144.516H8.11719C3.69891 144.516 0.117188 140.935 0.117188 136.516V8.51636Z" fill="white"/>
<g opacity="0.4">
<path d="M34.1172 20.3914C32.5102 20.3914 30.9393 20.8679 29.6032 21.7607C28.267 22.6535 27.2256 23.9224 26.6107 25.4071C25.9957 26.8917 25.8348 28.5254 26.1483 30.1015C26.4618 31.6776 27.2356 33.1253 28.3719 34.2616C29.5083 35.3979 30.956 36.1717 32.5321 36.4852C34.1082 36.7987 35.7418 36.6378 37.2265 36.0229C38.7111 35.4079 39.9801 34.3665 40.8729 33.0304C41.7657 31.6942 42.2422 30.1233 42.2422 28.5164C42.2399 26.3622 41.3832 24.2969 39.8599 22.7736C38.3367 21.2504 36.2714 20.3936 34.1172 20.3914ZM37.6844 27.0835L33.3094 31.4585C33.2513 31.5167 33.1824 31.5628 33.1065 31.5942C33.0307 31.6257 32.9493 31.6418 32.8672 31.6418C32.7851 31.6418 32.7037 31.6257 32.6279 31.5942C32.552 31.5628 32.483 31.5167 32.425 31.4585L30.55 29.5835C30.4327 29.4663 30.3668 29.3072 30.3668 29.1414C30.3668 28.9755 30.4327 28.8164 30.55 28.6992C30.6673 28.5819 30.8263 28.516 30.9922 28.516C31.158 28.516 31.3171 28.5819 31.4344 28.6992L32.8672 30.1328L36.8 26.1992C36.8581 26.1411 36.927 26.095 37.0029 26.0636C37.0788 26.0322 37.1601 26.016 37.2422 26.016C37.3243 26.016 37.4056 26.0322 37.4815 26.0636C37.5574 26.095 37.6263 26.1411 37.6844 26.1992C37.7424 26.2572 37.7885 26.3262 37.8199 26.402C37.8514 26.4779 37.8675 26.5592 37.8675 26.6414C37.8675 26.7235 37.8514 26.8048 37.8199 26.8807C37.7885 26.9565 37.7424 27.0255 37.6844 27.0835Z" fill="#14B8A6"/>
<path d="M164.397 37.3862C163.592 37.3862 162.889 37.2665 162.291 37.027C161.703 36.7875 161.218 36.4609 160.837 36.0473C160.456 35.6445 160.168 35.1764 159.972 34.643C159.787 34.1096 159.694 33.5436 159.694 32.9449C159.694 32.4441 159.776 31.9216 159.939 31.3773C160.103 30.8222 160.358 30.267 160.707 29.7118C160.783 29.5703 160.865 29.4887 160.952 29.4669C161.05 29.4342 161.159 29.4397 161.278 29.4832L162.095 29.7935C162.258 29.8479 162.345 29.9241 162.356 30.0221C162.367 30.12 162.329 30.2452 162.242 30.3976C162.002 30.8222 161.823 31.214 161.703 31.5733C161.594 31.9325 161.54 32.3081 161.54 32.6999C161.54 33.2007 161.643 33.647 161.85 34.0389C162.068 34.4308 162.4 34.7356 162.846 34.9533C163.303 35.1819 163.891 35.2962 164.609 35.2962H165.85C166.612 35.2962 167.211 35.2091 167.646 35.0349C168.093 34.8716 168.316 34.5995 168.316 34.2185C168.316 33.9899 168.245 33.8048 168.104 33.6633C167.962 33.5327 167.766 33.4674 167.516 33.4674H166.618C166.389 33.4674 166.275 33.3476 166.275 33.1081V31.7855C166.275 31.5461 166.389 31.4263 166.618 31.4263H170.275C170.439 31.4263 170.52 31.508 170.52 31.6712V33.1245C170.52 33.4293 170.362 33.5817 170.047 33.5817H169.377L168.61 32.6836C169.067 32.8904 169.394 33.119 169.59 33.3694C169.796 33.6089 169.9 33.9137 169.9 34.2838C169.9 34.7301 169.818 35.1383 169.655 35.5084C169.492 35.8894 169.241 36.216 168.904 36.4881C168.566 36.7712 168.136 36.9889 167.614 37.1413C167.091 37.3046 166.476 37.3862 165.769 37.3862H164.397ZM164.25 40.1784C164.196 40.2328 164.125 40.2546 164.038 40.2437C163.951 40.2437 163.875 40.2165 163.809 40.162L163.107 39.4599C163.053 39.4055 163.025 39.3293 163.025 39.2313C163.025 39.1442 163.053 39.0735 163.107 39.0191L163.809 38.3169C163.875 38.2516 163.951 38.219 164.038 38.219C164.125 38.219 164.196 38.2516 164.25 38.3169L164.952 39.0191C165.018 39.0735 165.05 39.1442 165.05 39.2313C165.061 39.3293 165.034 39.4109 164.969 39.4763L164.25 40.1784ZM166.52 40.1784C166.465 40.2328 166.395 40.2546 166.307 40.2437C166.22 40.2437 166.144 40.2165 166.079 40.162L165.36 39.4599C165.306 39.4055 165.279 39.3293 165.279 39.2313C165.279 39.1442 165.306 39.0735 165.36 39.0191L166.079 38.3169C166.144 38.2516 166.215 38.219 166.291 38.219C166.378 38.219 166.449 38.2516 166.503 38.3169L167.206 39.0191C167.271 39.0735 167.304 39.1442 167.304 39.2313C167.314 39.3293 167.287 39.4109 167.222 39.4763L166.52 40.1784ZM170.023 33.5817C169.86 33.5817 169.778 33.4946 169.778 33.3204V31.9162C169.778 31.5896 169.941 31.4263 170.268 31.4263H170.431C170.899 31.4263 171.248 31.312 171.476 31.0834C171.716 30.8439 171.835 30.4085 171.835 29.7771V28.1933C171.835 27.9102 171.966 27.7687 172.227 27.7687H173.207C173.468 27.7687 173.599 27.9102 173.599 28.1933V29.7771C173.599 30.4194 173.74 30.8548 174.023 31.0834C174.306 31.312 174.72 31.4263 175.264 31.4263H175.493C175.656 31.4263 175.738 31.508 175.738 31.6712V33.0918C175.738 33.4184 175.575 33.5817 175.248 33.5817C174.693 33.5817 174.176 33.4783 173.697 33.2714C173.218 33.0646 172.831 32.689 172.538 32.1448C172.287 32.7108 171.933 33.0918 171.476 33.2878C171.019 33.4837 170.535 33.5817 170.023 33.5817ZM172.88 36.6514C172.815 36.7059 172.739 36.7276 172.652 36.7167C172.565 36.7167 172.483 36.6895 172.407 36.6351L171.705 35.9166C171.639 35.8622 171.607 35.786 171.607 35.688C171.607 35.601 171.639 35.5248 171.705 35.4594L172.407 34.741C172.483 34.6757 172.559 34.643 172.636 34.643C172.723 34.643 172.799 34.6757 172.864 34.741L173.566 35.4594C173.642 35.5248 173.681 35.601 173.681 35.688C173.691 35.786 173.659 35.8677 173.583 35.933L172.88 36.6514ZM180.266 33.6307C179.787 33.6307 179.314 33.5381 178.845 33.3531C178.388 33.1571 178.04 32.8033 177.8 32.2917C177.55 32.7925 177.191 33.1354 176.723 33.3204C176.266 33.4946 175.776 33.5817 175.253 33.5817C175.09 33.5817 175.008 33.4946 175.008 33.3204V31.9162C175.008 31.5896 175.172 31.4263 175.498 31.4263C176.108 31.4263 176.538 31.3229 176.788 31.1161C177.038 30.8984 177.164 30.5065 177.164 29.9404V28.7158C177.164 28.5852 177.196 28.4817 177.262 28.4055C177.327 28.3293 177.425 28.2912 177.556 28.2912H178.552C178.802 28.2912 178.927 28.4273 178.927 28.6995V29.9567C178.927 30.4793 179.041 30.8603 179.27 31.0997C179.509 31.3392 179.89 31.459 180.413 31.459C180.935 31.459 181.284 31.3283 181.458 31.0671C181.632 30.7949 181.719 30.4139 181.719 29.9241V28.7321C181.719 28.6015 181.752 28.4981 181.817 28.4219C181.883 28.3348 181.981 28.2912 182.111 28.2912H183.091C183.221 28.2912 183.319 28.3348 183.385 28.4219C183.45 28.4981 183.483 28.6015 183.483 28.7321V29.9894C183.483 30.5119 183.597 30.8929 183.826 31.1324C184.065 31.361 184.43 31.4753 184.92 31.4753C185.355 31.4753 185.676 31.3556 185.883 31.1161C186.09 30.8766 186.193 30.55 186.193 30.1364C186.193 30.0166 186.182 29.8914 186.161 29.7608C186.15 29.6302 186.128 29.4996 186.095 29.3689L185.769 28.1116C185.736 27.981 185.736 27.8721 185.769 27.7851C185.812 27.698 185.899 27.6381 186.03 27.6054L187.026 27.3442C187.178 27.3115 187.287 27.3279 187.353 27.3932C187.418 27.4585 187.467 27.5619 187.5 27.7034L187.777 28.8627C187.842 29.1567 187.891 29.4397 187.924 29.7118C187.968 29.984 187.989 30.2343 187.989 30.4629C187.989 31.0943 187.87 31.6495 187.63 32.1284C187.402 32.6074 187.059 32.9775 186.601 33.2388C186.144 33.5 185.573 33.6307 184.887 33.6307C184.364 33.6307 183.886 33.5436 183.45 33.3694C183.026 33.1952 182.688 32.9068 182.438 32.504C182.307 32.787 182.122 33.0102 181.883 33.1735C181.654 33.3367 181.398 33.451 181.115 33.5164C180.832 33.5926 180.549 33.6307 180.266 33.6307ZM193.818 33.5817H193.231C192.632 33.5817 192.126 33.4783 191.712 33.2714C191.298 33.0537 190.983 32.7054 190.765 32.2264C190.547 31.7474 190.438 31.1106 190.438 30.316V21.6619C190.438 21.5421 190.471 21.4496 190.536 21.3843C190.613 21.3081 190.721 21.27 190.863 21.27H191.859C191.99 21.27 192.082 21.3081 192.137 21.3843C192.191 21.4496 192.218 21.5367 192.218 21.6456V29.7282C192.218 30.1962 192.267 30.5555 192.365 30.8058C192.474 31.0453 192.643 31.2086 192.871 31.2957C193.1 31.3828 193.388 31.4263 193.737 31.4263H194.063C194.227 31.4263 194.308 31.508 194.308 31.6712V33.0918C194.308 33.4184 194.145 33.5817 193.818 33.5817ZM193.814 33.5817C193.651 33.5817 193.569 33.5 193.569 33.3367V31.9162C193.569 31.5896 193.732 31.4263 194.059 31.4263H196.868C197.76 31.4263 198.533 31.3338 199.186 31.1487C199.85 30.9637 200.52 30.6643 201.195 30.2507L202.778 29.2546L203.807 29.8588L201.619 31.5896C201.227 31.8944 200.781 32.2046 200.28 32.5203C199.79 32.8251 199.213 33.0809 198.549 33.2878C197.885 33.4837 197.096 33.5817 196.182 33.5817H193.814ZM205.456 33.5817C204.858 33.5817 204.319 33.5 203.84 33.3367C203.372 33.1626 202.98 32.8632 202.664 32.4387C202.348 32.0033 202.136 31.41 202.027 30.6589L203.121 29.6465C203.121 30.071 203.165 30.4031 203.252 30.6425C203.339 30.882 203.464 31.0562 203.627 31.1651C203.791 31.2739 203.987 31.3447 204.215 31.3773C204.455 31.41 204.722 31.4263 205.015 31.4263H206.207C206.294 31.4263 206.354 31.459 206.387 31.5243C206.431 31.5787 206.452 31.644 206.452 31.7202V33.1408C206.452 33.2932 206.409 33.4075 206.322 33.4837C206.235 33.549 206.115 33.5817 205.962 33.5817H205.456ZM203.448 30.12L203.317 30.0874C202.74 30.0874 202.245 30.0384 201.831 29.9404C201.418 29.8316 201.048 29.7009 200.721 29.5485C200.394 29.3961 200.084 29.2437 199.79 29.0913C199.507 28.9389 199.208 28.8138 198.892 28.7158C198.577 28.6069 198.223 28.5525 197.831 28.5525C197.504 28.5525 197.238 28.6124 197.031 28.7321C196.835 28.841 196.677 28.977 196.557 29.1403C196.459 29.271 196.372 29.3635 196.296 29.4179C196.231 29.4615 196.111 29.4832 195.937 29.4832H195.284C194.979 29.4832 194.826 29.3526 194.826 29.0913C194.826 28.8083 194.897 28.5253 195.039 28.2423C195.18 27.9592 195.382 27.7034 195.643 27.4748C195.904 27.2353 196.22 27.0448 196.59 26.9033C196.971 26.7618 197.395 26.6911 197.864 26.6911C198.343 26.6911 198.767 26.7455 199.137 26.8543C199.518 26.9632 199.877 27.0993 200.215 27.2626C200.552 27.415 200.884 27.5728 201.211 27.7361C201.548 27.8885 201.913 28.0191 202.305 28.128C202.708 28.2368 203.165 28.2912 203.676 28.2912H204.411C204.575 28.2912 204.678 28.3239 204.722 28.3892C204.776 28.4545 204.803 28.5688 204.803 28.7321V29.6955C204.803 29.8261 204.765 29.9295 204.689 30.0057C204.613 30.0819 204.504 30.12 204.362 30.12H203.448ZM211.418 33.696C211.157 33.696 210.907 33.6742 210.667 33.6307C210.428 33.5871 210.183 33.5164 209.933 33.4184C209.682 33.3204 209.405 33.1952 209.1 33.0428C208.806 32.8795 208.463 32.6782 208.071 32.4387C207.864 32.7435 207.641 32.983 207.402 33.1571C207.173 33.3204 206.934 33.4347 206.683 33.5C206.444 33.5545 206.204 33.5817 205.965 33.5817C205.801 33.5817 205.72 33.5 205.72 33.3367V31.9162C205.72 31.5896 205.883 31.4263 206.21 31.4263C206.395 31.4263 206.553 31.3937 206.683 31.3283C206.814 31.263 206.95 31.1378 207.091 30.9528C207.244 30.7677 207.418 30.4847 207.614 30.1037C207.995 29.3635 208.37 28.7974 208.741 28.4055C209.122 28.0028 209.503 27.7252 209.884 27.5728C210.265 27.4095 210.646 27.3279 211.027 27.3279C211.451 27.3279 211.854 27.4041 212.235 27.5565C212.616 27.7089 212.959 27.9701 213.264 28.3402C213.579 28.7103 213.862 29.2274 214.113 29.8914C214.276 30.3051 214.434 30.6262 214.586 30.8548C214.739 31.0725 214.913 31.2249 215.109 31.312C215.316 31.3882 215.571 31.4263 215.876 31.4263C216.039 31.4263 216.121 31.508 216.121 31.6712V33.0918C216.121 33.4184 215.958 33.5817 215.631 33.5817C215.218 33.5817 214.847 33.5 214.521 33.3367C214.205 33.1626 213.917 32.8687 213.655 32.455C213.438 32.8904 213.122 33.2061 212.708 33.4021C212.306 33.598 211.876 33.696 211.418 33.696ZM211.467 31.7529C211.74 31.7529 211.974 31.6821 212.17 31.5406C212.366 31.3882 212.469 31.1324 212.48 30.7732C212.491 30.4793 212.425 30.2017 212.284 29.9404C212.142 29.6792 211.957 29.4669 211.729 29.3036C211.5 29.1403 211.255 29.0587 210.994 29.0587C210.787 29.0587 210.58 29.1077 210.373 29.2056C210.177 29.2927 209.971 29.4615 209.753 29.7118C209.535 29.9622 209.279 30.3214 208.986 30.7895C209.475 31.0508 209.862 31.2521 210.145 31.3937C210.428 31.5243 210.662 31.6168 210.847 31.6712C211.043 31.7257 211.25 31.7529 211.467 31.7529ZM215.628 33.5817C215.465 33.5817 215.383 33.5 215.383 33.3367V31.9162C215.383 31.5896 215.546 31.4263 215.873 31.4263C216.232 31.4263 216.526 31.3773 216.755 31.2794C216.983 31.1705 217.146 30.9854 217.244 30.7242C217.353 30.452 217.408 30.0656 217.408 29.5649V21.6456C217.408 21.5367 217.44 21.4496 217.506 21.3843C217.582 21.3081 217.674 21.27 217.783 21.27H218.812C218.932 21.27 219.024 21.3081 219.09 21.3843C219.155 21.4496 219.187 21.5367 219.187 21.6456V29.4832C219.187 30.1799 219.128 30.7895 219.008 31.312C218.888 31.8345 218.687 32.2645 218.404 32.602C218.132 32.9394 217.767 33.1898 217.31 33.3531C216.863 33.5055 216.303 33.5817 215.628 33.5817ZM222.596 33.598C222.487 33.598 222.394 33.5653 222.318 33.5C222.253 33.4238 222.22 33.3313 222.22 33.2224V21.6456C222.22 21.5367 222.253 21.4496 222.318 21.3843C222.394 21.3081 222.487 21.27 222.596 21.27H223.625C223.744 21.27 223.837 21.3081 223.902 21.3843C223.967 21.4496 224 21.5367 224 21.6456V33.2224C224 33.3313 223.967 33.4238 223.902 33.5C223.837 33.5653 223.744 33.598 223.625 33.598H222.596ZM230.586 38.6435C230.324 38.6435 230.194 38.5183 230.194 38.2679V33.6143C230.194 32.7652 230.357 32.1176 230.684 31.6712C231.01 31.2249 231.44 30.9691 231.974 30.9038C232.159 30.0003 232.442 29.271 232.823 28.7158C233.215 28.1606 233.655 27.7578 234.145 27.5075C234.646 27.2571 235.158 27.1319 235.68 27.1319C236.268 27.1319 236.785 27.2734 237.231 27.5565C237.689 27.8286 238.048 28.215 238.309 28.7158C238.57 29.2056 238.701 29.7771 238.701 30.4303C238.701 31.1814 238.516 31.8236 238.146 32.357C237.787 32.8904 237.264 33.2551 236.578 33.451C235.903 33.6361 235.081 33.6034 234.113 33.3531L233.019 33.0755C232.638 32.9884 232.365 33.0319 232.202 33.2061C232.05 33.3694 231.974 33.6633 231.974 34.0879V38.2679C231.974 38.5183 231.843 38.6435 231.582 38.6435H230.586ZM235.484 31.5733C235.952 31.5733 236.301 31.459 236.529 31.2304C236.758 31.0018 236.872 30.7242 236.872 30.3976C236.872 29.9622 236.742 29.6247 236.48 29.3853C236.23 29.1349 235.909 29.0097 235.517 29.0097C235.114 29.0097 234.733 29.1893 234.374 29.5485C234.015 29.8969 233.743 30.4466 233.557 31.1977C233.993 31.3283 234.358 31.4263 234.651 31.4916C234.945 31.5461 235.223 31.5733 235.484 31.5733ZM244.287 33.5817H243.699C243.1 33.5817 242.594 33.4783 242.18 33.2714C241.767 33.0537 241.451 32.7054 241.233 32.2264C241.016 31.7474 240.907 31.1106 240.907 30.316V21.6619C240.907 21.5421 240.939 21.4496 241.005 21.3843C241.081 21.3081 241.19 21.27 241.331 21.27H242.327C242.458 21.27 242.551 21.3081 242.605 21.3843C242.659 21.4496 242.687 21.5367 242.687 21.6456V29.7282C242.687 30.1962 242.736 30.5555 242.834 30.8058C242.942 31.0453 243.111 31.2086 243.34 31.2957C243.568 31.3828 243.857 31.4263 244.205 31.4263H244.532C244.695 31.4263 244.777 31.508 244.777 31.6712V33.0918C244.777 33.4184 244.613 33.5817 244.287 33.5817ZM256.235 33.5817C255.658 33.5817 255.168 33.5164 254.765 33.3857C254.373 33.2551 254.041 33.0973 253.769 32.9122C253.497 32.7271 253.263 32.5475 253.067 32.3734L254.178 31.2467C254.395 31.2902 254.607 31.3283 254.814 31.361C255.032 31.3828 255.272 31.3991 255.533 31.41C255.794 31.4209 256.099 31.4263 256.447 31.4263C256.61 31.4263 256.692 31.508 256.692 31.6712V33.0918C256.692 33.2442 256.649 33.364 256.561 33.451C256.485 33.5381 256.376 33.5817 256.235 33.5817ZM244.397 33.5817C244.288 33.5817 244.201 33.549 244.135 33.4837C244.07 33.4184 244.038 33.3313 244.038 33.2224V31.7855C244.038 31.6876 244.076 31.6059 244.152 31.5406C244.217 31.4644 244.299 31.4263 244.397 31.4263H246.128C246.574 30.3922 247.102 29.5268 247.711 28.8301C248.332 28.1225 248.996 27.5891 249.704 27.2299C250.422 26.8707 251.14 26.6911 251.859 26.6911C252.556 26.6911 253.138 26.838 253.606 27.1319C254.074 27.415 254.422 27.7905 254.651 28.2586C254.891 28.7158 255.01 29.2165 255.01 29.7608C255.01 30.599 254.809 31.3011 254.406 31.8672C254.014 32.4332 253.443 32.8632 252.692 33.1571C251.941 33.4402 251.048 33.5817 250.014 33.5817H244.397ZM247.695 31.4263H250.667C251.549 31.4263 252.218 31.3011 252.675 31.0508C253.143 30.8004 253.377 30.4357 253.377 29.9567C253.377 29.554 253.214 29.222 252.888 28.9607C252.572 28.6886 252.131 28.5579 251.565 28.5688C251.053 28.5688 250.563 28.694 250.095 28.9444C249.627 29.1948 249.186 29.5322 248.773 29.9567C248.37 30.3813 248.011 30.8711 247.695 31.4263ZM246.111 31.8672V21.6456C246.111 21.5367 246.144 21.4496 246.209 21.3843C246.285 21.3081 246.378 21.27 246.487 21.27H247.499C247.619 21.27 247.711 21.3081 247.777 21.3843C247.842 21.4496 247.875 21.5367 247.875 21.6456V26.9197C247.875 27.2027 247.875 27.4585 247.875 27.6871C247.875 27.9048 247.869 28.1116 247.858 28.3076C247.858 28.4926 247.847 28.6831 247.826 28.8791C247.815 29.075 247.793 29.2873 247.76 29.5159C247.728 29.7336 247.69 29.9894 247.646 30.2833L246.111 31.8672ZM251.549 25.1562C251.483 25.2215 251.402 25.2541 251.304 25.2541C251.217 25.2433 251.14 25.2052 251.075 25.1399L250.34 24.4051C250.275 24.3289 250.242 24.2472 250.242 24.1601C250.242 24.0731 250.275 23.9969 250.34 23.9315L251.075 23.1804C251.14 23.1151 251.217 23.0825 251.304 23.0825C251.391 23.0825 251.467 23.1151 251.532 23.1804L252.267 23.9315C252.441 24.1057 252.447 24.269 252.283 24.4214L251.549 25.1562ZM256.21 33.5817C256.047 33.5817 255.965 33.4946 255.965 33.3204V31.9162C255.965 31.5896 256.128 31.4263 256.455 31.4263H256.618C257.086 31.4263 257.435 31.312 257.663 31.0834C257.903 30.8439 258.022 30.4085 258.022 29.7771V28.1933C258.022 27.9102 258.153 27.7687 258.414 27.7687H259.394C259.655 27.7687 259.786 27.9102 259.786 28.1933V29.7771C259.786 30.4194 259.927 30.8548 260.21 31.0834C260.493 31.312 260.907 31.4263 261.451 31.4263H261.68C261.843 31.4263 261.925 31.508 261.925 31.6712V33.0918C261.925 33.4184 261.762 33.5817 261.435 33.5817C260.88 33.5817 260.363 33.4783 259.884 33.2714C259.405 33.0646 259.018 32.689 258.724 32.1448C258.474 32.7108 258.12 33.0918 257.663 33.2878C257.206 33.4837 256.722 33.5817 256.21 33.5817ZM259.116 26.2012C259.051 26.2665 258.969 26.2992 258.871 26.2992C258.784 26.2883 258.708 26.2502 258.643 26.1849L257.908 25.4501C257.843 25.3739 257.81 25.2922 257.81 25.2052C257.81 25.1181 257.843 25.0419 257.908 24.9766L258.643 24.2255C258.708 24.1601 258.784 24.1275 258.871 24.1275C258.959 24.1275 259.035 24.1601 259.1 24.2255L259.835 24.9766C260.009 25.1507 260.014 25.314 259.851 25.4664L259.116 26.2012ZM261.44 33.5817C261.277 33.5817 261.195 33.5 261.195 33.3367V31.9162C261.195 31.5896 261.358 31.4263 261.685 31.4263C262.044 31.4263 262.338 31.3773 262.567 31.2794C262.795 31.1705 262.959 30.9854 263.057 30.7242C263.165 30.452 263.22 30.0656 263.22 29.5649V21.6456C263.22 21.5367 263.253 21.4496 263.318 21.3843C263.394 21.3081 263.487 21.27 263.595 21.27H264.624C264.744 21.27 264.836 21.3081 264.902 21.3843C264.967 21.4496 265 21.5367 265 21.6456V29.4832C265 30.1799 264.94 30.7895 264.82 31.312C264.7 31.8345 264.499 32.2645 264.216 32.602C263.944 32.9394 263.579 33.1898 263.122 33.3531C262.676 33.5055 262.115 33.5817 261.44 33.5817ZM268.408 33.598C268.299 33.598 268.207 33.5653 268.13 33.5C268.065 33.4238 268.032 33.3313 268.032 33.2224V21.6456C268.032 21.5367 268.065 21.4496 268.13 21.3843C268.207 21.3081 268.299 21.27 268.408 21.27H269.437C269.556 21.27 269.649 21.3081 269.714 21.3843C269.78 21.4496 269.812 21.5367 269.812 21.6456V33.2224C269.812 33.3313 269.78 33.4238 269.714 33.5C269.649 33.5653 269.556 33.598 269.437 33.598H268.408Z" fill="#030712"/>
<path d="M299.771 21.4877H282.276C282.082 21.4877 281.897 21.5645 281.76 21.7012C281.624 21.8379 281.547 22.0233 281.547 22.2166V34.6088C281.547 34.9954 281.7 35.3662 281.974 35.6397C282.247 35.9131 282.618 36.0667 283.005 36.0667H299.042C299.428 36.0667 299.799 35.9131 300.073 35.6397C300.346 35.3662 300.5 34.9954 300.5 34.6088V22.2166C300.5 22.0233 300.423 21.8379 300.286 21.7012C300.149 21.5645 299.964 21.4877 299.771 21.4877ZM283.005 27.3193H286.65V30.2351H283.005V27.3193ZM288.107 27.3193H299.042V30.2351H288.107V27.3193ZM299.042 22.9456V25.8614H283.005V22.9456H299.042ZM283.005 31.693H286.65V34.6088H283.005V31.693ZM299.042 34.6088H288.107V31.693H299.042V34.6088Z" fill="#030712"/>
</g>
<rect x="8.11719" y="56.5164" width="310.569" height="40" rx="8" fill="#F9FAFB"/>
<path d="M26.1172 68.3914C24.5102 68.3914 22.9393 68.8679 21.6032 69.7607C20.267 70.6535 19.2256 71.9224 18.6107 73.4071C17.9957 74.8917 17.8348 76.5254 18.1483 78.1015C18.4618 79.6776 19.2356 81.1253 20.3719 82.2616C21.5083 83.3979 22.956 84.1717 24.5321 84.4852C26.1082 84.7987 27.7418 84.6378 29.2265 84.0229C30.7111 83.4079 31.9801 82.3665 32.8729 81.0304C33.7657 79.6942 34.2422 78.1233 34.2422 76.5164C34.2399 74.3622 33.3832 72.2969 31.8599 70.7736C30.3367 69.2504 28.2714 68.3936 26.1172 68.3914ZM29.6844 75.0835L25.3094 79.4585C25.2513 79.5167 25.1824 79.5628 25.1065 79.5942C25.0307 79.6257 24.9493 79.6418 24.8672 79.6418C24.7851 79.6418 24.7037 79.6257 24.6279 79.5942C24.552 79.5628 24.483 79.5167 24.425 79.4585L22.55 77.5835C22.4327 77.4663 22.3668 77.3072 22.3668 77.1414C22.3668 76.9755 22.4327 76.8164 22.55 76.6992C22.6673 76.5819 22.8263 76.516 22.9922 76.516C23.158 76.516 23.3171 76.5819 23.4344 76.6992L24.8672 78.1328L28.8 74.1992C28.8581 74.1411 28.927 74.095 29.0029 74.0636C29.0788 74.0322 29.1601 74.016 29.2422 74.016C29.3243 74.016 29.4056 74.0322 29.4815 74.0636C29.5574 74.095 29.6263 74.1411 29.6844 74.1992C29.7424 74.2572 29.7885 74.3262 29.8199 74.402C29.8514 74.4779 29.8675 74.5592 29.8675 74.6414C29.8675 74.7235 29.8514 74.8048 29.8199 74.8807C29.7885 74.9565 29.7424 75.0255 29.6844 75.0835Z" fill="#14B8A6"/>
<path d="M151.482 81.5817C150.666 81.5817 150.034 81.3912 149.588 81.0102C149.142 80.6292 148.853 80.025 148.723 79.1977C148.45 79.5787 148.102 79.8781 147.678 80.0958C147.264 80.3026 146.801 80.406 146.29 80.406C145.473 80.406 144.847 80.1883 144.412 79.7529C143.976 79.3175 143.759 78.7351 143.759 78.0057C143.759 77.5703 143.851 77.1512 144.036 76.7484C144.232 76.3457 144.553 75.9701 145 75.6218C145.446 75.2734 146.039 74.9632 146.779 74.6911L148.543 74.0216V73.3031C148.543 73.1834 148.581 73.0909 148.657 73.0256C148.744 72.9602 148.842 72.9276 148.951 72.9276H149.996C150.094 72.9276 150.17 72.9657 150.225 73.0419C150.29 73.1072 150.323 73.1888 150.323 73.2868V77.9078C150.323 78.5174 150.421 78.9256 150.617 79.1324C150.813 79.3283 151.172 79.4263 151.694 79.4263H152.249C152.326 79.4263 152.38 79.4535 152.413 79.508C152.456 79.5624 152.478 79.6277 152.478 79.7039V81.1571C152.478 81.4402 152.32 81.5817 152.005 81.5817H151.482ZM146.796 78.5936C147.144 78.5936 147.449 78.5228 147.71 78.3813C147.971 78.2289 148.178 78.0221 148.331 77.7608C148.483 77.4996 148.559 77.222 148.559 76.9281V75.6871L147.171 76.1443C146.66 76.3185 146.268 76.5307 145.996 76.7811C145.734 77.0315 145.604 77.3091 145.604 77.6139C145.604 77.9295 145.713 78.1745 145.93 78.3486C146.148 78.5119 146.437 78.5936 146.796 78.5936ZM148.429 71.5886C148.374 71.654 148.303 71.6866 148.216 71.6866C148.129 71.6866 148.048 71.6485 147.971 71.5723L147.269 70.8702C147.215 70.794 147.182 70.7178 147.171 70.6416C147.171 70.5545 147.204 70.4729 147.269 70.3967L147.971 69.6945C148.048 69.6183 148.129 69.5802 148.216 69.5802C148.303 69.5802 148.374 69.6183 148.429 69.6945L149.147 70.3967C149.223 70.462 149.261 70.5436 149.261 70.6416C149.272 70.7287 149.24 70.8103 149.163 70.8865L148.429 71.5886ZM150.911 71.5886C150.845 71.6648 150.769 71.6975 150.682 71.6866C150.595 71.6757 150.519 71.6376 150.453 71.5723L149.719 70.8702C149.653 70.8049 149.621 70.7287 149.621 70.6416C149.621 70.5436 149.653 70.462 149.719 70.3967L150.453 69.6945C150.519 69.6183 150.589 69.5802 150.666 69.5802C150.742 69.5802 150.818 69.6183 150.894 69.6945L151.613 70.3967C151.689 70.462 151.727 70.5436 151.727 70.6416C151.727 70.7287 151.689 70.8103 151.613 70.8865L150.911 71.5886ZM151.984 81.5817C151.907 81.5817 151.847 81.5545 151.804 81.5C151.76 81.4456 151.739 81.3803 151.739 81.3041V79.8835C151.739 79.5787 151.902 79.4263 152.228 79.4263H152.375C153.007 79.4263 153.426 79.263 153.633 78.9365C153.85 78.599 153.937 78.1309 153.894 77.5322C153.872 77.2492 153.829 76.9553 153.763 76.6505C153.709 76.3457 153.654 76.0518 153.6 75.7687C153.556 75.5837 153.562 75.4531 153.616 75.3769C153.682 75.3007 153.774 75.2517 153.894 75.2299L154.825 75.034C154.988 75.0013 155.108 75.034 155.184 75.1319C155.271 75.2299 155.331 75.3551 155.364 75.5075C155.407 75.6708 155.451 75.8667 155.494 76.0953C155.538 76.3239 155.576 76.5688 155.608 76.8301C155.652 77.0805 155.679 77.3199 155.69 77.5485C155.734 78.3867 155.641 79.1106 155.413 79.7202C155.195 80.3189 154.808 80.7816 154.253 81.1081C153.698 81.4347 152.941 81.5926 151.984 81.5817ZM152.882 84.7004C152.827 84.7657 152.756 84.7929 152.669 84.7821C152.582 84.7821 152.506 84.7494 152.441 84.6841L151.739 83.9983C151.684 83.933 151.657 83.8568 151.657 83.7697C151.646 83.6826 151.673 83.6064 151.739 83.5411L152.441 82.8553C152.506 82.79 152.577 82.7573 152.653 82.7573C152.74 82.7573 152.816 82.79 152.882 82.8553L153.567 83.5411C153.633 83.6064 153.665 83.6826 153.665 83.7697C153.676 83.8677 153.649 83.9493 153.584 84.0146L152.882 84.7004ZM155.151 84.7004C155.086 84.7657 155.01 84.7929 154.923 84.7821C154.846 84.7821 154.776 84.7494 154.71 84.6841L153.992 83.9983C153.937 83.933 153.905 83.8568 153.894 83.7697C153.894 83.6826 153.927 83.6064 153.992 83.5411L154.71 82.8553C154.776 82.79 154.846 82.7573 154.923 82.7573C154.999 82.7573 155.07 82.79 155.135 82.8553L155.821 83.5411C155.886 83.6064 155.919 83.6826 155.919 83.7697C155.93 83.8677 155.902 83.9493 155.837 84.0146L155.151 84.7004ZM156.298 85.5821C156.146 85.5821 156.037 85.5386 155.972 85.4515C155.896 85.3753 155.857 85.2665 155.857 85.125V84.0309C155.857 83.8894 155.901 83.7806 155.988 83.7044C156.075 83.6391 156.195 83.6064 156.347 83.6064H156.805C157.871 83.6064 158.639 83.3234 159.107 82.7573C159.586 82.1913 159.825 81.4075 159.825 80.406C159.825 80.0359 159.793 79.6549 159.727 79.263C159.662 78.8603 159.58 78.4629 159.482 78.071L159.188 76.7811C159.156 76.6287 159.167 76.509 159.221 76.4219C159.276 76.3239 159.39 76.2531 159.564 76.2096L160.446 75.9973C160.587 75.9647 160.691 75.9647 160.756 75.9973C160.821 76.03 160.87 76.0844 160.903 76.1606C160.936 76.2259 160.963 76.3021 160.985 76.3892L161.442 78.2343C161.518 78.55 161.643 78.7949 161.817 78.9691C161.992 79.1433 162.198 79.263 162.438 79.3283C162.677 79.3937 162.933 79.4263 163.205 79.4263H163.516C163.701 79.4263 163.793 79.508 163.793 79.6712V81.0918C163.793 81.4184 163.63 81.5817 163.303 81.5817C162.868 81.5817 162.476 81.5327 162.128 81.4347C161.79 81.3367 161.572 81.2116 161.474 81.0592C161.453 81.647 161.355 82.213 161.181 82.7573C161.006 83.3016 160.74 83.786 160.38 84.2106C160.021 84.6351 159.559 84.9671 158.993 85.2066C158.426 85.457 157.741 85.5821 156.935 85.5821H156.298ZM168.22 81.6307C167.97 81.6307 167.703 81.598 167.42 81.5327C167.137 81.4674 166.865 81.3367 166.603 81.1408C166.342 80.9449 166.124 80.6618 165.95 80.2917C165.776 80.6292 165.547 80.8904 165.264 81.0755C164.981 81.2605 164.671 81.3912 164.334 81.4674C163.996 81.5436 163.653 81.5817 163.305 81.5817C163.142 81.5817 163.06 81.4946 163.06 81.3204V79.9162C163.06 79.5896 163.223 79.4263 163.55 79.4263C164.192 79.4263 164.628 79.3283 164.856 79.1324C165.096 78.9256 165.215 78.5337 165.215 77.9567V76.7158C165.215 76.5852 165.248 76.4817 165.313 76.4055C165.379 76.3293 165.477 76.2912 165.607 76.2912H166.603C166.854 76.2912 166.979 76.4273 166.979 76.6995V78.0547C166.979 78.5881 167.099 78.9582 167.338 79.1651C167.578 79.3719 167.899 79.4753 168.302 79.4753C168.802 79.4753 169.14 79.3447 169.314 79.0834C169.499 78.8222 169.591 78.4357 169.591 77.9241V76.7321C169.591 76.6015 169.624 76.4981 169.689 76.4219C169.755 76.3348 169.853 76.2912 169.983 76.2912H170.963C171.094 76.2912 171.192 76.3348 171.257 76.4219C171.322 76.4981 171.355 76.6015 171.355 76.7321V78.0384C171.355 78.55 171.453 78.9201 171.649 79.1487C171.856 79.3664 172.204 79.4753 172.694 79.4753C173.184 79.4753 173.516 79.3447 173.69 79.0834C173.875 78.8222 173.968 78.4357 173.968 77.9241V76.6668C173.968 76.5579 173.995 76.4709 174.049 76.4055C174.104 76.3293 174.185 76.2912 174.294 76.2912H175.388C175.486 76.2912 175.568 76.3293 175.633 76.4055C175.709 76.4709 175.747 76.5579 175.747 76.6668V77.9567C175.747 78.501 175.867 78.882 176.107 79.0997C176.357 79.3175 176.792 79.4263 177.413 79.4263H177.723C177.886 79.4263 177.968 79.508 177.968 79.6712V81.0918C177.968 81.4184 177.799 81.5817 177.462 81.5817C176.809 81.5817 176.248 81.5 175.78 81.3367C175.312 81.1735 174.947 80.8959 174.686 80.504C174.468 80.9176 174.169 81.2116 173.788 81.3857C173.407 81.549 173.01 81.6307 172.596 81.6307C172.117 81.6307 171.676 81.549 171.273 81.3857C170.881 81.2116 170.56 80.9176 170.31 80.504C170.092 80.9285 169.793 81.2224 169.412 81.3857C169.031 81.549 168.634 81.6307 168.22 81.6307ZM170.685 72.4214C170.62 72.4758 170.549 72.503 170.473 72.503C170.397 72.4922 170.321 72.4595 170.245 72.4051L169.575 71.7193C169.434 71.5778 169.434 71.4362 169.575 71.2947L170.245 70.6089C170.386 70.4783 170.528 70.4783 170.669 70.6089L171.339 71.2947C171.491 71.4471 171.496 71.5941 171.355 71.7356L170.685 72.4214ZM169.461 74.6094C169.406 74.6747 169.336 74.7074 169.249 74.7074C169.162 74.7074 169.08 74.6693 169.004 74.5931L168.302 73.891C168.236 73.8148 168.204 73.7386 168.204 73.6624C168.204 73.5753 168.236 73.4936 168.302 73.4174L169.004 72.7153C169.156 72.552 169.308 72.552 169.461 72.7153L170.179 73.4174C170.256 73.4827 170.294 73.5644 170.294 73.6624C170.304 73.7494 170.272 73.8311 170.196 73.9073L169.461 74.6094ZM171.943 74.6094C171.877 74.6856 171.801 74.7183 171.714 74.7074C171.627 74.6965 171.551 74.6584 171.486 74.5931L170.751 73.891C170.685 73.8256 170.653 73.7494 170.653 73.6624C170.653 73.5644 170.685 73.4827 170.751 73.4174L171.486 72.7153C171.638 72.5629 171.785 72.5629 171.926 72.7153L172.645 73.4174C172.71 73.4827 172.743 73.5644 172.743 73.6624C172.754 73.7494 172.721 73.8311 172.645 73.9073L171.943 74.6094ZM177.481 81.5817C177.318 81.5817 177.236 81.4946 177.236 81.3204V79.9162C177.236 79.5896 177.399 79.4263 177.726 79.4263H177.889C178.357 79.4263 178.705 79.312 178.934 79.0834C179.174 78.8439 179.293 78.4085 179.293 77.7771V76.1933C179.293 75.9102 179.424 75.7687 179.685 75.7687H180.665C180.926 75.7687 181.057 75.9102 181.057 76.1933V77.7771C181.057 78.4194 181.198 78.8548 181.481 79.0834C181.764 79.312 182.178 79.4263 182.722 79.4263H182.951C183.114 79.4263 183.196 79.508 183.196 79.6712V81.0918C183.196 81.4184 183.033 81.5817 182.706 81.5817C182.151 81.5817 181.634 81.4783 181.155 81.2714C180.676 81.0646 180.289 80.689 179.995 80.1448C179.745 80.7108 179.391 81.0918 178.934 81.2878C178.477 81.4837 177.992 81.5817 177.481 81.5817ZM180.338 84.6514C180.273 84.7059 180.197 84.7276 180.11 84.7167C180.023 84.7167 179.941 84.6895 179.865 84.6351L179.163 83.9166C179.097 83.8622 179.065 83.786 179.065 83.688C179.065 83.601 179.097 83.5248 179.163 83.4594L179.865 82.741C179.941 82.6757 180.017 82.643 180.093 82.643C180.18 82.643 180.257 82.6757 180.322 82.741L181.024 83.4594C181.1 83.5248 181.138 83.601 181.138 83.688C181.149 83.786 181.117 83.8677 181.04 83.933L180.338 84.6514ZM182.711 81.5817C182.548 81.5817 182.466 81.5 182.466 81.3367V79.9162C182.466 79.5896 182.629 79.4263 182.956 79.4263C183.315 79.4263 183.609 79.3773 183.838 79.2794C184.066 79.1705 184.23 78.9854 184.328 78.7242C184.436 78.452 184.491 78.0656 184.491 77.5649V69.6456C184.491 69.5367 184.523 69.4496 184.589 69.3843C184.665 69.3081 184.758 69.27 184.866 69.27H185.895C186.015 69.27 186.107 69.3081 186.173 69.3843C186.238 69.4496 186.271 69.5367 186.271 69.6456V77.4832C186.271 78.1799 186.211 78.7895 186.091 79.312C185.971 79.8345 185.77 80.2645 185.487 80.602C185.215 80.9394 184.85 81.1898 184.393 81.3531C183.947 81.5055 183.386 81.5817 182.711 81.5817ZM189.679 81.598C189.57 81.598 189.478 81.5653 189.401 81.5C189.336 81.4238 189.303 81.3313 189.303 81.2224V69.6456C189.303 69.5367 189.336 69.4496 189.401 69.3843C189.478 69.3081 189.57 69.27 189.679 69.27H190.708C190.827 69.27 190.92 69.3081 190.985 69.3843C191.051 69.4496 191.083 69.5367 191.083 69.6456V81.2224C191.083 81.3313 191.051 81.4238 190.985 81.5C190.92 81.5653 190.827 81.598 190.708 81.598H189.679ZM199.955 81.5817C199.345 81.5817 198.839 81.4619 198.436 81.2224C198.033 80.983 197.734 80.6564 197.538 80.2427C197.342 79.8291 197.244 79.361 197.244 78.8385V78.2833C197.244 78.1309 197.277 78.0166 197.342 77.9404C197.418 77.8642 197.549 77.8261 197.734 77.8261H198.6C198.719 77.8261 198.806 77.8642 198.861 77.9404C198.915 78.0166 198.942 78.12 198.942 78.2507V78.6589C198.942 78.9092 199.013 79.0997 199.155 79.2304C199.296 79.361 199.503 79.4263 199.775 79.4263L201.816 79.41C202.263 79.41 202.573 79.3283 202.747 79.1651C202.932 79.0018 203.025 78.7786 203.025 78.4956C203.025 78.2779 202.986 78.0602 202.91 77.8425C202.845 77.6139 202.682 77.3472 202.42 77.0424L200.33 74.4788C200.211 74.3373 200.151 74.2066 200.151 74.0869C200.162 73.9672 200.216 73.8637 200.314 73.7767L201.13 73.1399C201.272 73.031 201.397 72.982 201.506 72.9929C201.615 72.9929 201.724 73.0582 201.833 73.1888L203.563 75.3115C203.879 75.6816 204.129 76.0354 204.315 76.3729C204.5 76.6995 204.636 77.0369 204.723 77.3853C204.81 77.7227 204.853 78.0983 204.853 78.5119C204.853 79.0889 204.728 79.6114 204.478 80.0795C204.227 80.5366 203.857 80.9013 203.367 81.1735C202.888 81.4347 202.29 81.5653 201.571 81.5653L199.955 81.5817ZM205.252 85.5821C205.099 85.5821 204.991 85.5386 204.925 85.4515C204.849 85.3753 204.811 85.2665 204.811 85.125V84.0309C204.811 83.8894 204.855 83.7806 204.942 83.7044C205.029 83.6391 205.148 83.6064 205.301 83.6064H205.823C206.542 83.6064 207.113 83.4649 207.538 83.1819C207.973 82.8988 208.284 82.5015 208.469 81.9899C208.654 81.4891 208.746 80.8959 208.746 80.2101C208.746 79.6658 208.686 79.127 208.567 78.5936C208.458 78.0602 208.322 77.505 208.158 76.9281C208.115 76.7103 208.115 76.5525 208.158 76.4545C208.202 76.3457 208.311 76.2695 208.485 76.2259L209.416 75.981C209.568 75.9375 209.688 75.9483 209.775 76.0137C209.862 76.0681 209.933 76.215 209.987 76.4545C210.15 77.0859 210.292 77.7554 210.412 78.4629C210.542 79.1705 210.608 79.8345 210.608 80.455C210.608 81.4238 210.439 82.2947 210.101 83.0676C209.775 83.8404 209.269 84.45 208.583 84.8964C207.908 85.3535 207.059 85.5821 206.036 85.5821H205.252ZM213.167 81.598C213.058 81.598 212.966 81.5653 212.89 81.5C212.824 81.4238 212.792 81.3313 212.792 81.2224V69.6456C212.792 69.5367 212.824 69.4496 212.89 69.3843C212.966 69.3081 213.058 69.27 213.167 69.27H214.196C214.316 69.27 214.408 69.3081 214.473 69.3843C214.539 69.4496 214.571 69.5367 214.571 69.6456V81.2224C214.571 81.3313 214.539 81.4238 214.473 81.5C214.408 81.5653 214.316 81.598 214.196 81.598H213.167ZM217.524 85.5332C217.251 85.5332 217.045 85.4951 216.903 85.4189C216.772 85.3427 216.707 85.2011 216.707 84.9943V83.9656C216.707 83.8023 216.756 83.6826 216.854 83.6064C216.952 83.5302 217.11 83.4921 217.328 83.4921H218.634C219.548 83.4921 220.272 83.3234 220.806 82.9859C221.35 82.6485 221.709 82.1423 221.883 81.4674H220.626C219.94 81.4674 219.347 81.3531 218.846 81.1245C218.345 80.8959 217.959 80.5693 217.687 80.1448C217.426 79.7093 217.295 79.1977 217.295 78.6099C217.295 78.1962 217.366 77.7989 217.507 77.4179C217.649 77.0369 217.85 76.6995 218.111 76.4055C218.373 76.1007 218.694 75.8613 219.075 75.6871C219.456 75.5129 219.891 75.4258 220.381 75.4258C221.393 75.4258 222.166 75.7687 222.7 76.4545C223.233 77.1294 223.527 78.12 223.581 79.4263H224.773C224.937 79.4263 225.018 79.508 225.018 79.6712V81.0918C225.018 81.4184 224.855 81.5817 224.529 81.5817H223.418C223.113 82.9533 222.553 83.9547 221.736 84.5861C220.92 85.2175 219.831 85.5332 218.471 85.5332H217.524ZM220.61 79.5243H221.998C221.921 78.7732 221.731 78.2017 221.426 77.8098C221.121 77.4179 220.702 77.222 220.169 77.222C219.864 77.222 219.608 77.2818 219.401 77.4016C219.205 77.5213 219.058 77.6737 218.961 77.8588C218.863 78.0329 218.814 78.218 218.814 78.4139C218.814 78.7949 218.971 79.078 219.287 79.263C219.614 79.4372 220.055 79.5243 220.61 79.5243ZM229.975 81.696C229.713 81.696 229.463 81.6742 229.223 81.6307C228.984 81.5871 228.739 81.5164 228.489 81.4184C228.238 81.3204 227.961 81.1952 227.656 81.0428C227.362 80.8795 227.019 80.6782 226.627 80.4387C226.42 80.7435 226.197 80.983 225.958 81.1571C225.729 81.3204 225.49 81.4347 225.239 81.5C225 81.5545 224.76 81.5817 224.521 81.5817C224.358 81.5817 224.276 81.5 224.276 81.3367V79.9162C224.276 79.5896 224.439 79.4263 224.766 79.4263C224.951 79.4263 225.109 79.3937 225.239 79.3283C225.37 79.263 225.506 79.1378 225.648 78.9528C225.8 78.7677 225.974 78.4847 226.17 78.1037C226.551 77.3635 226.927 76.7974 227.297 76.4055C227.678 76.0028 228.059 75.7252 228.44 75.5728C228.821 75.4095 229.202 75.3279 229.583 75.3279C230.007 75.3279 230.41 75.4041 230.791 75.5565C231.172 75.7089 231.515 75.9701 231.82 76.3402C232.135 76.7103 232.418 77.2274 232.669 77.8914C232.832 78.3051 232.99 78.6262 233.142 78.8548C233.295 79.0725 233.469 79.2249 233.665 79.312C233.872 79.3882 234.127 79.4263 234.432 79.4263C234.596 79.4263 234.677 79.508 234.677 79.6712V81.0918C234.677 81.4184 234.514 81.5817 234.187 81.5817C233.774 81.5817 233.404 81.5 233.077 81.3367C232.761 81.1626 232.473 80.8687 232.212 80.455C231.994 80.8904 231.678 81.2061 231.265 81.4021C230.862 81.598 230.432 81.696 229.975 81.696ZM230.024 79.7529C230.296 79.7529 230.53 79.6821 230.726 79.5406C230.922 79.3882 231.025 79.1324 231.036 78.7732C231.047 78.4793 230.981 78.2017 230.84 77.9404C230.698 77.6792 230.513 77.4669 230.285 77.3036C230.056 77.1403 229.811 77.0587 229.55 77.0587C229.343 77.0587 229.136 77.1077 228.93 77.2056C228.734 77.2927 228.527 77.4615 228.309 77.7118C228.091 77.9622 227.836 78.3214 227.542 78.7895C228.031 79.0508 228.418 79.2521 228.701 79.3937C228.984 79.5243 229.218 79.6168 229.403 79.6712C229.599 79.7257 229.806 79.7529 230.024 79.7529ZM234.184 81.5817C234.021 81.5817 233.939 81.5 233.939 81.3367V79.9162C233.939 79.5896 234.102 79.4263 234.429 79.4263C234.788 79.4263 235.082 79.3773 235.311 79.2794C235.539 79.1705 235.703 78.9854 235.801 78.7242C235.909 78.452 235.964 78.0656 235.964 77.5649V69.6456C235.964 69.5367 235.996 69.4496 236.062 69.3843C236.138 69.3081 236.231 69.27 236.339 69.27H237.368C237.488 69.27 237.58 69.3081 237.646 69.3843C237.711 69.4496 237.744 69.5367 237.744 69.6456V77.4832C237.744 78.1799 237.684 78.7895 237.564 79.312C237.444 79.8345 237.243 80.2645 236.96 80.602C236.688 80.9394 236.323 81.1898 235.866 81.3531C235.42 81.5055 234.859 81.5817 234.184 81.5817ZM241.152 81.598C241.043 81.598 240.951 81.5653 240.874 81.5C240.809 81.4238 240.776 81.3313 240.776 81.2224V69.6456C240.776 69.5367 240.809 69.4496 240.874 69.3843C240.951 69.3081 241.043 69.27 241.152 69.27H242.181C242.3 69.27 242.393 69.3081 242.458 69.3843C242.524 69.4496 242.556 69.5367 242.556 69.6456V81.2224C242.556 81.3313 242.524 81.4238 242.458 81.5C242.393 81.5653 242.3 81.598 242.181 81.598H241.152ZM249.142 86.6435C248.881 86.6435 248.75 86.5183 248.75 86.2679V81.6143C248.75 80.7652 248.913 80.1176 249.24 79.6712C249.566 79.2249 249.996 78.9691 250.53 78.9038C250.715 78.0003 250.998 77.271 251.379 76.7158C251.771 76.1606 252.212 75.7578 252.701 75.5075C253.202 75.2571 253.714 75.1319 254.236 75.1319C254.824 75.1319 255.341 75.2734 255.787 75.5565C256.245 75.8286 256.604 76.215 256.865 76.7158C257.126 77.2056 257.257 77.7771 257.257 78.4303C257.257 79.1814 257.072 79.8236 256.702 80.357C256.343 80.8904 255.82 81.2551 255.134 81.451C254.459 81.6361 253.638 81.6034 252.669 81.3531L251.575 81.0755C251.194 80.9884 250.922 81.0319 250.758 81.2061C250.606 81.3694 250.53 81.6633 250.53 82.0879V86.2679C250.53 86.5183 250.399 86.6435 250.138 86.6435H249.142ZM254.04 79.5733C254.508 79.5733 254.857 79.459 255.085 79.2304C255.314 79.0018 255.428 78.7242 255.428 78.3976C255.428 77.9622 255.298 77.6247 255.036 77.3853C254.786 77.1349 254.465 77.0097 254.073 77.0097C253.67 77.0097 253.289 77.1893 252.93 77.5485C252.571 77.8969 252.299 78.4466 252.114 79.1977C252.549 79.3283 252.914 79.4263 253.208 79.4916C253.501 79.5461 253.779 79.5733 254.04 79.5733ZM262.843 81.5817H262.255C261.656 81.5817 261.15 81.4783 260.737 81.2714C260.323 81.0537 260.007 80.7054 259.789 80.2264C259.572 79.7474 259.463 79.1106 259.463 78.316V69.6619C259.463 69.5421 259.496 69.4496 259.561 69.3843C259.637 69.3081 259.746 69.27 259.887 69.27H260.883C261.014 69.27 261.107 69.3081 261.161 69.3843C261.215 69.4496 261.243 69.5367 261.243 69.6456V77.7282C261.243 78.1962 261.292 78.5555 261.39 78.8058C261.499 79.0453 261.667 79.2086 261.896 79.2957C262.124 79.3828 262.413 79.4263 262.761 79.4263H263.088C263.251 79.4263 263.333 79.508 263.333 79.6712V81.0918C263.333 81.4184 263.169 81.5817 262.843 81.5817ZM274.791 81.5817C274.214 81.5817 273.724 81.5164 273.321 81.3857C272.93 81.2551 272.598 81.0973 272.325 80.9122C272.053 80.7271 271.819 80.5475 271.623 80.3734L272.734 79.2467C272.951 79.2902 273.164 79.3283 273.37 79.361C273.588 79.3828 273.828 79.3991 274.089 79.41C274.35 79.4209 274.655 79.4263 275.003 79.4263C275.167 79.4263 275.248 79.508 275.248 79.6712V81.0918C275.248 81.2442 275.205 81.364 275.118 81.451C275.041 81.5381 274.933 81.5817 274.791 81.5817ZM262.953 81.5817C262.844 81.5817 262.757 81.549 262.692 81.4837C262.626 81.4184 262.594 81.3313 262.594 81.2224V79.7855C262.594 79.6876 262.632 79.6059 262.708 79.5406C262.773 79.4644 262.855 79.4263 262.953 79.4263H264.684C265.13 78.3922 265.658 77.5268 266.268 76.8301C266.888 76.1225 267.552 75.5891 268.26 75.2299C268.978 74.8707 269.697 74.6911 270.415 74.6911C271.112 74.6911 271.694 74.838 272.162 75.1319C272.63 75.415 272.979 75.7905 273.207 76.2586C273.447 76.7158 273.566 77.2165 273.566 77.7608C273.566 78.599 273.365 79.3011 272.962 79.8672C272.57 80.4332 271.999 80.8632 271.248 81.1571C270.497 81.4402 269.604 81.5817 268.57 81.5817H262.953ZM266.251 79.4263H269.223C270.105 79.4263 270.774 79.3011 271.231 79.0508C271.699 78.8004 271.934 78.4357 271.934 77.9567C271.934 77.554 271.77 77.222 271.444 76.9607C271.128 76.6886 270.687 76.5579 270.121 76.5688C269.609 76.5688 269.12 76.694 268.651 76.9444C268.183 77.1948 267.743 77.5322 267.329 77.9567C266.926 78.3813 266.567 78.8711 266.251 79.4263ZM264.667 79.8672V69.6456C264.667 69.5367 264.7 69.4496 264.765 69.3843C264.842 69.3081 264.934 69.27 265.043 69.27H266.055C266.175 69.27 266.268 69.3081 266.333 69.3843C266.398 69.4496 266.431 69.5367 266.431 69.6456V74.9197C266.431 75.2027 266.431 75.4585 266.431 75.6871C266.431 75.9048 266.425 76.1116 266.414 76.3076C266.414 76.4926 266.404 76.6831 266.382 76.8791C266.371 77.075 266.349 77.2873 266.317 77.5159C266.284 77.7336 266.246 77.9894 266.202 78.2833L264.667 79.8672ZM270.105 73.1562C270.039 73.2215 269.958 73.2541 269.86 73.2541C269.773 73.2433 269.697 73.2052 269.631 73.1399L268.896 72.4051C268.831 72.3289 268.798 72.2472 268.798 72.1601C268.798 72.0731 268.831 71.9969 268.896 71.9315L269.631 71.1804C269.697 71.1151 269.773 71.0825 269.86 71.0825C269.947 71.0825 270.023 71.1151 270.088 71.1804L270.823 71.9315C270.997 72.1057 271.003 72.269 270.84 72.4214L270.105 73.1562ZM274.799 81.5817C274.701 81.5817 274.63 81.5545 274.586 81.5C274.543 81.4347 274.521 81.364 274.521 81.2878V79.8182C274.521 79.6658 274.565 79.5624 274.652 79.508C274.739 79.4535 274.859 79.4263 275.011 79.4263H275.158C275.626 79.4263 275.963 79.3066 276.17 79.0671C276.377 78.8167 276.48 78.4357 276.48 77.9241C276.48 77.7499 276.47 77.5866 276.448 77.4342C276.437 77.2818 276.41 77.1186 276.366 76.9444L276.089 75.6871C276.056 75.5238 276.072 75.4041 276.138 75.3279C276.203 75.2517 276.301 75.1972 276.432 75.1646L277.362 74.9686C277.656 74.9033 277.836 75.0231 277.901 75.3279L278.228 76.8954C278.282 77.1349 278.32 77.3907 278.342 77.6628C278.375 77.935 278.391 78.1581 278.391 78.3323C278.391 79.3011 278.151 80.0849 277.672 80.6836C277.193 81.2823 276.486 81.5817 275.55 81.5817H274.799ZM277.036 73.6134C276.97 73.6787 276.889 73.7113 276.791 73.7113C276.704 73.7005 276.627 73.6624 276.562 73.597L275.827 72.8623C275.762 72.7861 275.729 72.7044 275.729 72.6173C275.729 72.5303 275.762 72.4541 275.827 72.3887L276.562 71.6376C276.627 71.5723 276.704 71.5397 276.791 71.5397C276.878 71.5397 276.954 71.5723 277.019 71.6376L277.754 72.3887C277.928 72.5629 277.934 72.7262 277.77 72.8786L277.036 73.6134Z" fill="#030712"/>
<path d="M299.023 67.301C297.149 67.301 295.317 67.8567 293.758 68.898C292.2 69.9393 290.985 71.4193 290.268 73.1509C289.551 74.8824 289.363 76.7878 289.729 78.6261C290.095 80.4643 290.997 82.1528 292.322 83.4781C293.648 84.8034 295.336 85.7059 297.174 86.0716C299.013 86.4372 300.918 86.2496 302.65 85.5323C304.381 84.8151 305.861 83.6005 306.903 82.0421C307.944 80.4837 308.5 78.6516 308.5 76.7773C308.497 74.2648 307.498 71.856 305.721 70.0795C303.944 68.3029 301.536 67.3036 299.023 67.301ZM299.023 84.7958C297.437 84.7958 295.887 84.3255 294.568 83.4444C293.25 82.5633 292.222 81.311 291.615 79.8458C291.008 78.3807 290.849 76.7684 291.159 75.213C291.468 73.6576 292.232 72.2288 293.353 71.1074C294.475 69.986 295.903 69.2223 297.459 68.9129C299.014 68.6035 300.627 68.7623 302.092 69.3692C303.557 69.9761 304.809 71.0039 305.69 72.3225C306.571 73.6411 307.042 75.1914 307.042 76.7773C307.039 78.9032 306.194 80.9413 304.69 82.4445C303.187 83.9478 301.149 84.7933 299.023 84.7958ZM297.565 72.4036C297.565 72.1153 297.651 71.8334 297.811 71.5936C297.971 71.3539 298.199 71.167 298.465 71.0567C298.732 70.9463 299.025 70.9175 299.308 70.9737C299.59 71.03 299.85 71.1688 300.054 71.3727C300.258 71.5766 300.397 71.8364 300.453 72.1192C300.509 72.402 300.48 72.6951 300.37 72.9615C300.26 73.2279 300.073 73.4556 299.833 73.6158C299.593 73.776 299.312 73.8615 299.023 73.8615C298.637 73.8615 298.266 73.7079 297.992 73.4345C297.719 73.1611 297.565 72.7903 297.565 72.4036ZM304.126 75.3194C304.126 75.5127 304.049 75.6982 303.912 75.8349C303.776 75.9716 303.59 76.0484 303.397 76.0484H299.752V77.2858L302.546 81.4772C302.653 81.6382 302.692 81.8351 302.654 82.0248C302.616 82.2145 302.505 82.3813 302.344 82.4886C302.183 82.5959 301.986 82.6349 301.796 82.597C301.606 82.559 301.439 82.4473 301.332 82.2863L299.023 78.8238L296.714 82.2863C296.661 82.366 296.593 82.4345 296.513 82.4878C296.434 82.5411 296.344 82.5782 296.25 82.597C296.061 82.6349 295.864 82.5959 295.703 82.4886C295.542 82.3813 295.43 82.2145 295.392 82.0248C295.354 81.8351 295.393 81.6382 295.501 81.4772L298.294 77.2858V76.0484H294.65C294.456 76.0484 294.271 75.9716 294.134 75.8349C293.997 75.6982 293.921 75.5127 293.921 75.3194C293.921 75.1261 293.997 74.9407 294.134 74.804C294.271 74.6673 294.456 74.5905 294.65 74.5905H303.397C303.59 74.5905 303.776 74.6673 303.912 74.804C304.049 74.9407 304.126 75.1261 304.126 75.3194Z" fill="#030712"/>
<g opacity="0.4">
<path d="M37.6844 122.199C37.7425 122.257 37.7886 122.326 37.82 122.402C37.8515 122.478 37.8677 122.559 37.8677 122.641C37.8677 122.723 37.8515 122.805 37.82 122.881C37.7886 122.957 37.7425 123.025 37.6844 123.084L33.3094 127.459C33.2513 127.517 33.1824 127.563 33.1065 127.594C33.0307 127.626 32.9493 127.642 32.8672 127.642C32.7851 127.642 32.7037 127.626 32.6279 127.594C32.552 127.563 32.483 127.517 32.425 127.459L30.55 125.584C30.4327 125.466 30.3668 125.307 30.3668 125.141C30.3668 124.976 30.4327 124.816 30.55 124.699C30.6673 124.582 30.8263 124.516 30.9922 124.516C31.158 124.516 31.3171 124.582 31.4344 124.699L32.8672 126.133L36.8 122.199C36.858 122.141 36.927 122.095 37.0029 122.064C37.0787 122.032 37.1601 122.016 37.2422 122.016C37.3243 122.016 37.4057 122.032 37.4815 122.064C37.5574 122.095 37.6263 122.141 37.6844 122.199ZM42.2422 124.516C42.2422 126.123 41.7657 127.694 40.8729 129.03C39.9801 130.367 38.7111 131.408 37.2265 132.023C35.7418 132.638 34.1082 132.799 32.5321 132.485C30.956 132.172 29.5083 131.398 28.3719 130.262C27.2356 129.125 26.4618 127.678 26.1483 126.101C25.8348 124.525 25.9957 122.892 26.6107 121.407C27.2256 119.922 28.267 118.653 29.6032 117.761C30.9393 116.868 32.5102 116.391 34.1172 116.391C36.2714 116.394 38.3367 117.25 39.8599 118.774C41.3832 120.297 42.2399 122.362 42.2422 124.516ZM40.9922 124.516C40.9922 123.157 40.589 121.827 39.8335 120.697C39.0781 119.566 38.0044 118.685 36.7481 118.165C35.4919 117.644 34.1096 117.508 32.7759 117.773C31.4423 118.039 30.2173 118.694 29.2558 119.655C28.2943 120.616 27.6396 121.841 27.3743 123.175C27.109 124.509 27.2452 125.891 27.7655 127.147C28.2859 128.404 29.1671 129.477 30.2976 130.233C31.4282 130.988 32.7574 131.391 34.1172 131.391C35.9399 131.389 37.6874 130.664 38.9763 129.375C40.2651 128.087 40.9901 126.339 40.9922 124.516Z" fill="#030712"/>
<path d="M136.028 129.81C135.908 129.821 135.821 129.788 135.767 129.712C135.723 129.647 135.696 129.554 135.685 129.435V128.079C135.685 127.971 135.718 127.894 135.783 127.851C135.848 127.796 135.93 127.764 136.028 127.753L137.955 127.573L137.987 128.112C137.541 127.796 137.198 127.388 136.959 126.887C136.719 126.387 136.648 125.848 136.746 125.271C136.812 124.738 136.986 124.291 137.269 123.932C137.563 123.573 137.917 123.306 138.33 123.132C138.744 122.947 139.179 122.854 139.637 122.854C139.92 122.854 140.208 122.882 140.502 122.936C140.796 122.99 141.052 123.072 141.269 123.181C141.389 123.235 141.465 123.295 141.498 123.361C141.542 123.415 141.563 123.491 141.563 123.589L141.547 124.716C141.547 124.857 141.503 124.944 141.416 124.977C141.34 125.01 141.248 125.01 141.139 124.977C140.91 124.901 140.671 124.841 140.42 124.797C140.17 124.754 139.93 124.732 139.702 124.732C139.266 124.732 138.896 124.841 138.592 125.059C138.298 125.266 138.151 125.587 138.151 126.022C138.151 126.283 138.227 126.528 138.379 126.757C138.543 126.975 138.777 127.143 139.081 127.263C139.397 127.372 139.773 127.405 140.208 127.361L141.874 127.214C142.026 127.203 142.129 127.236 142.184 127.312C142.249 127.377 142.282 127.486 142.282 127.639L142.298 128.896C142.298 129.07 142.26 129.184 142.184 129.239C142.119 129.293 142.01 129.331 141.857 129.353L136.028 129.81ZM144.281 129.957C144.129 129.99 144.009 129.968 143.922 129.892C143.846 129.816 143.807 129.718 143.807 129.598V128.177C143.807 127.96 143.944 127.829 144.216 127.786L145.914 127.475C146.534 127.377 147.09 127.285 147.579 127.198C148.069 127.1 148.494 126.98 148.853 126.838C149.212 126.697 149.506 126.501 149.735 126.251C149.974 125.989 150.148 125.652 150.257 125.238C150.377 124.814 150.437 124.275 150.437 123.622V117.646C150.437 117.537 150.464 117.45 150.518 117.384C150.573 117.308 150.655 117.27 150.763 117.27H151.89C151.999 117.27 152.081 117.308 152.135 117.384C152.189 117.45 152.217 117.537 152.217 117.646V125.549C152.217 126.049 152.277 126.436 152.396 126.708C152.527 126.98 152.728 127.17 153 127.279C153.283 127.377 153.643 127.426 154.078 127.426C154.241 127.426 154.323 127.508 154.323 127.671V129.092C154.323 129.418 154.16 129.582 153.833 129.582C153.322 129.582 152.853 129.516 152.429 129.386C152.015 129.244 151.656 129.005 151.351 128.667C151.057 128.319 150.829 127.84 150.665 127.23C150.448 127.764 150.116 128.188 149.669 128.504C149.223 128.809 148.662 129.054 147.988 129.239C147.313 129.413 146.518 129.582 145.604 129.745L144.281 129.957ZM147.367 128.194L144.183 119.556C144.129 119.404 144.123 119.289 144.167 119.213C144.221 119.126 144.308 119.061 144.428 119.017L145.277 118.789C145.429 118.734 145.549 118.734 145.636 118.789C145.723 118.843 145.8 118.952 145.865 119.115L149.065 127.704L147.367 128.194ZM159.292 129.696C159.03 129.696 158.78 129.674 158.541 129.631C158.301 129.587 158.056 129.516 157.806 129.418C157.555 129.32 157.278 129.195 156.973 129.043C156.679 128.88 156.336 128.678 155.944 128.439C155.738 128.743 155.514 128.983 155.275 129.157C155.046 129.32 154.807 129.435 154.556 129.5C154.317 129.554 154.078 129.582 153.838 129.582C153.675 129.582 153.593 129.5 153.593 129.337V127.916C153.593 127.59 153.756 127.426 154.083 127.426C154.268 127.426 154.426 127.394 154.556 127.328C154.687 127.263 154.823 127.138 154.965 126.953C155.117 126.768 155.291 126.485 155.487 126.104C155.868 125.363 156.244 124.797 156.614 124.406C156.995 124.003 157.376 123.725 157.757 123.573C158.138 123.41 158.519 123.328 158.9 123.328C159.324 123.328 159.727 123.404 160.108 123.556C160.489 123.709 160.832 123.97 161.137 124.34C161.453 124.71 161.736 125.227 161.986 125.891C162.149 126.305 162.307 126.626 162.459 126.855C162.612 127.073 162.786 127.225 162.982 127.312C163.189 127.388 163.445 127.426 163.749 127.426C163.913 127.426 163.994 127.508 163.994 127.671V129.092C163.994 129.418 163.831 129.582 163.504 129.582C163.091 129.582 162.721 129.5 162.394 129.337C162.078 129.163 161.79 128.869 161.529 128.455C161.311 128.89 160.995 129.206 160.582 129.402C160.179 129.598 159.749 129.696 159.292 129.696ZM159.341 127.753C159.613 127.753 159.847 127.682 160.043 127.541C160.239 127.388 160.342 127.132 160.353 126.773C160.364 126.479 160.299 126.202 160.157 125.94C160.016 125.679 159.831 125.467 159.602 125.304C159.373 125.14 159.128 125.059 158.867 125.059C158.66 125.059 158.454 125.108 158.247 125.206C158.051 125.293 157.844 125.461 157.626 125.712C157.409 125.962 157.153 126.321 156.859 126.79C157.349 127.051 157.735 127.252 158.018 127.394C158.301 127.524 158.535 127.617 158.72 127.671C158.916 127.726 159.123 127.753 159.341 127.753ZM163.485 129.582C163.42 129.582 163.365 129.56 163.322 129.516C163.278 129.484 163.256 129.408 163.256 129.288V127.835C163.256 127.682 163.3 127.579 163.387 127.524C163.474 127.459 163.588 127.426 163.73 127.426C164.263 127.415 164.715 127.399 165.085 127.377C165.455 127.356 165.782 127.317 166.065 127.263C166.359 127.209 166.647 127.149 166.93 127.083L165.199 125.598C165.047 125.456 164.944 125.325 164.889 125.206C164.846 125.086 164.824 124.928 164.824 124.732V123.997C164.824 123.769 164.867 123.6 164.954 123.491C165.052 123.371 165.183 123.273 165.346 123.197C165.869 122.947 166.419 122.767 166.995 122.658C167.583 122.539 168.16 122.479 168.726 122.479C169.989 122.479 170.914 122.669 171.502 123.05C172.101 123.431 172.4 123.937 172.4 124.569C172.4 124.895 172.324 125.2 172.172 125.483C172.03 125.755 171.812 126.022 171.518 126.283C171.225 126.534 170.876 126.817 170.473 127.132C170.756 127.241 171.061 127.317 171.388 127.361C171.725 127.405 172.052 127.426 172.368 127.426H173.706C173.881 127.426 173.968 127.508 173.968 127.671V129.075C173.968 129.413 173.794 129.582 173.445 129.582H172.612C172.101 129.582 171.649 129.565 171.257 129.533C170.876 129.5 170.528 129.446 170.212 129.369C169.907 129.282 169.619 129.173 169.347 129.043C169.085 128.901 168.813 128.733 168.53 128.537C168.215 128.722 167.91 128.885 167.616 129.027C167.322 129.157 166.995 129.266 166.636 129.353C166.288 129.429 165.858 129.484 165.346 129.516C164.846 129.56 164.225 129.582 163.485 129.582ZM168.775 126.675C169.298 126.36 169.722 126.066 170.049 125.793C170.386 125.51 170.555 125.26 170.555 125.042C170.555 124.901 170.495 124.77 170.375 124.65C170.267 124.52 170.076 124.416 169.804 124.34C169.543 124.264 169.178 124.226 168.71 124.226C168.362 124.226 167.997 124.264 167.616 124.34C167.246 124.406 166.854 124.52 166.44 124.683L168.775 126.675ZM173.483 129.582C173.32 129.582 173.238 129.5 173.238 129.337V127.916C173.238 127.59 173.402 127.426 173.728 127.426C174.087 127.426 174.381 127.377 174.61 127.279C174.838 127.17 175.002 126.985 175.1 126.724C175.209 126.452 175.263 126.066 175.263 125.565V117.646C175.263 117.537 175.296 117.45 175.361 117.384C175.437 117.308 175.53 117.27 175.639 117.27H176.667C176.787 117.27 176.88 117.308 176.945 117.384C177.01 117.45 177.043 117.537 177.043 117.646V125.483C177.043 126.18 176.983 126.79 176.863 127.312C176.743 127.835 176.542 128.265 176.259 128.602C175.987 128.939 175.622 129.19 175.165 129.353C174.719 129.505 174.158 129.582 173.483 129.582ZM180.451 129.598C180.342 129.598 180.25 129.565 180.174 129.5C180.108 129.424 180.076 129.331 180.076 129.222V117.646C180.076 117.537 180.108 117.45 180.174 117.384C180.25 117.308 180.342 117.27 180.451 117.27H181.48C181.6 117.27 181.692 117.308 181.757 117.384C181.823 117.45 181.855 117.537 181.855 117.646V129.222C181.855 129.331 181.823 129.424 181.757 129.5C181.692 129.565 181.6 129.598 181.48 129.598H180.451ZM192.833 129.582C191.788 129.582 190.907 129.451 190.188 129.19C189.47 128.929 188.925 128.537 188.555 128.014C188.196 127.481 188.016 126.817 188.016 126.022C188.016 125.619 188.076 125.206 188.196 124.781C188.316 124.346 188.474 123.905 188.67 123.458C188.713 123.35 188.768 123.273 188.833 123.23C188.898 123.186 189.007 123.197 189.159 123.263L190.009 123.573C190.139 123.616 190.221 123.671 190.253 123.736C190.286 123.801 190.281 123.905 190.237 124.046C190.139 124.329 190.047 124.607 189.96 124.879C189.883 125.151 189.845 125.429 189.845 125.712C189.845 126.365 190.117 126.817 190.662 127.067C191.206 127.307 191.984 127.426 192.997 127.426H196.426C197.057 127.426 197.59 127.383 198.026 127.296C198.461 127.209 198.788 127.051 199.006 126.822C199.234 126.583 199.348 126.234 199.348 125.777C199.348 125.396 199.283 124.999 199.152 124.585L198.891 123.638C198.848 123.475 198.848 123.355 198.891 123.279C198.935 123.192 199.022 123.132 199.152 123.099L200.181 122.887C200.334 122.843 200.442 122.865 200.508 122.952C200.584 123.029 200.638 123.148 200.671 123.312L200.998 124.536C201.063 124.765 201.106 124.999 201.128 125.238C201.161 125.467 201.177 125.706 201.177 125.957C201.177 126.882 200.97 127.606 200.557 128.128C200.154 128.651 199.577 129.027 198.826 129.255C198.086 129.473 197.215 129.582 196.213 129.582H192.833ZM193.535 122.969C193.481 123.034 193.41 123.067 193.323 123.067C193.236 123.067 193.154 123.029 193.078 122.952L192.376 122.25C192.322 122.174 192.289 122.098 192.278 122.022C192.278 121.935 192.311 121.853 192.376 121.777L193.078 121.075C193.154 120.998 193.236 120.96 193.323 120.96C193.41 120.96 193.481 120.998 193.535 121.075L194.254 121.777C194.33 121.842 194.368 121.924 194.368 122.022C194.379 122.109 194.346 122.19 194.27 122.267L193.535 122.969ZM196.017 122.969C195.952 123.045 195.876 123.077 195.789 123.067C195.702 123.056 195.626 123.018 195.56 122.952L194.825 122.25C194.76 122.185 194.727 122.109 194.727 122.022C194.727 121.924 194.76 121.842 194.825 121.777L195.56 121.075C195.626 120.998 195.696 120.96 195.772 120.96C195.849 120.96 195.925 120.998 196.001 121.075L196.72 121.777C196.796 121.842 196.834 121.924 196.834 122.022C196.834 122.109 196.796 122.19 196.72 122.267L196.017 122.969ZM207.022 129.582H206.434C205.835 129.582 205.329 129.478 204.915 129.271C204.501 129.054 204.186 128.705 203.968 128.226C203.75 127.747 203.642 127.111 203.642 126.316V117.662C203.642 117.542 203.674 117.45 203.74 117.384C203.816 117.308 203.925 117.27 204.066 117.27H205.062C205.193 117.27 205.285 117.308 205.34 117.384C205.394 117.45 205.421 117.537 205.421 117.646V125.728C205.421 126.196 205.47 126.555 205.568 126.806C205.677 127.045 205.846 127.209 206.074 127.296C206.303 127.383 206.592 127.426 206.94 127.426H207.266C207.43 127.426 207.511 127.508 207.511 127.671V129.092C207.511 129.418 207.348 129.582 207.022 129.582ZM207.197 129.582C207.023 129.582 206.908 129.554 206.854 129.5C206.799 129.435 206.778 129.364 206.789 129.288C206.789 129.201 206.789 129.124 206.789 129.059V127.9C206.789 127.715 206.81 127.59 206.854 127.524C206.897 127.459 207.012 127.426 207.197 127.426H210.822C211.464 127.426 211.959 127.328 212.308 127.132C212.656 126.936 212.885 126.61 212.993 126.153C213.113 125.695 213.129 125.07 213.042 124.275L213.467 124.748C213.238 125.097 212.906 125.369 212.471 125.565C212.046 125.75 211.578 125.842 211.067 125.842C210.501 125.842 210.005 125.728 209.581 125.5C209.167 125.271 208.851 124.955 208.634 124.553C208.416 124.139 208.307 123.66 208.307 123.116C208.318 122.539 208.46 122.022 208.732 121.564C209.015 121.096 209.385 120.726 209.842 120.454C210.299 120.182 210.794 120.046 211.328 120.046C212.014 120.046 212.602 120.231 213.091 120.601C213.592 120.96 213.979 121.461 214.251 122.103C214.523 122.735 214.659 123.464 214.659 124.291C214.67 125.021 214.615 125.706 214.496 126.349C214.387 126.991 214.18 127.557 213.875 128.047C213.57 128.526 213.146 128.901 212.602 129.173C212.057 129.446 211.355 129.582 210.495 129.582H207.197ZM211.181 124.079C211.486 124.079 211.807 124.03 212.144 123.932C212.482 123.823 212.776 123.676 213.026 123.491C212.961 123.219 212.846 122.952 212.683 122.691C212.52 122.43 212.308 122.218 212.046 122.054C211.796 121.88 211.497 121.793 211.148 121.793C210.865 121.793 210.62 121.853 210.413 121.973C210.218 122.092 210.065 122.25 209.956 122.446C209.858 122.631 209.809 122.811 209.809 122.985C209.809 123.355 209.945 123.633 210.218 123.818C210.49 123.992 210.811 124.079 211.181 124.079ZM210.316 118.397C210.261 118.462 210.19 118.495 210.103 118.495C210.016 118.495 209.935 118.457 209.858 118.38L209.156 117.678C209.102 117.602 209.069 117.526 209.058 117.45C209.058 117.363 209.091 117.281 209.156 117.205L209.858 116.503C209.935 116.426 210.016 116.388 210.103 116.388C210.19 116.388 210.261 116.426 210.316 116.503L211.034 117.205C211.11 117.27 211.148 117.352 211.148 117.45C211.159 117.537 211.127 117.618 211.05 117.695L210.316 118.397ZM212.797 118.397C212.732 118.473 212.656 118.506 212.569 118.495C212.482 118.484 212.406 118.446 212.34 118.38L211.605 117.678C211.54 117.613 211.508 117.537 211.508 117.45C211.508 117.352 211.54 117.27 211.605 117.205L212.34 116.503C212.406 116.426 212.476 116.388 212.553 116.388C212.629 116.388 212.705 116.426 212.781 116.503L213.5 117.205C213.576 117.27 213.614 117.352 213.614 117.45C213.614 117.537 213.576 117.618 213.5 117.695L212.797 118.397ZM216.212 129.957C216.06 129.99 215.94 129.968 215.853 129.892C215.777 129.816 215.739 129.718 215.739 129.598V128.177C215.739 127.96 215.875 127.829 216.147 127.786L217.845 127.475C218.466 127.377 219.021 127.285 219.511 127.198C220.001 127.1 220.425 126.98 220.784 126.838C221.144 126.697 221.438 126.501 221.666 126.251C221.906 125.989 222.08 125.652 222.189 125.238C222.308 124.814 222.368 124.275 222.368 123.622V117.646C222.368 117.537 222.395 117.45 222.45 117.384C222.504 117.308 222.586 117.27 222.695 117.27H223.821C223.93 117.27 224.012 117.308 224.066 117.384C224.121 117.45 224.148 117.537 224.148 117.646V125.549C224.148 126.049 224.208 126.436 224.328 126.708C224.458 126.98 224.66 127.17 224.932 127.279C225.215 127.377 225.574 127.426 226.009 127.426C226.173 127.426 226.254 127.508 226.254 127.671V129.092C226.254 129.418 226.091 129.582 225.765 129.582C225.253 129.582 224.785 129.516 224.36 129.386C223.947 129.244 223.587 129.005 223.283 128.667C222.989 128.319 222.76 127.84 222.597 127.23C222.379 127.764 222.047 128.188 221.601 128.504C221.154 128.809 220.594 129.054 219.919 129.239C219.244 129.413 218.449 129.582 217.535 129.745L216.212 129.957ZM219.298 128.194L216.114 119.556C216.06 119.404 216.055 119.289 216.098 119.213C216.153 119.126 216.24 119.061 216.359 119.017L217.208 118.789C217.361 118.734 217.481 118.734 217.568 118.789C217.655 118.843 217.731 118.952 217.796 119.115L220.997 127.704L219.298 128.194ZM225.802 129.582C225.693 129.582 225.622 129.549 225.59 129.484C225.546 129.408 225.524 129.331 225.524 129.255V127.835C225.524 127.682 225.568 127.579 225.655 127.524C225.742 127.459 225.862 127.426 226.014 127.426H228.953L228.676 128.03C228.447 127.932 228.213 127.78 227.974 127.573C227.745 127.366 227.544 127.1 227.37 126.773C227.206 126.447 227.125 126.066 227.125 125.63C227.125 124.879 227.288 124.248 227.615 123.736C227.941 123.214 228.377 122.816 228.921 122.544C229.465 122.272 230.058 122.136 230.701 122.136C231.092 122.136 231.479 122.179 231.86 122.267C232.241 122.343 232.595 122.452 232.921 122.593C233.063 122.648 233.161 122.718 233.215 122.805C233.281 122.892 233.291 123.007 233.248 123.148L232.987 124.193C232.932 124.367 232.861 124.476 232.774 124.52C232.687 124.553 232.568 124.542 232.415 124.487C232.176 124.367 231.893 124.28 231.566 124.226C231.25 124.161 230.956 124.128 230.684 124.128C230.107 124.128 229.656 124.269 229.329 124.553C229.002 124.836 228.839 125.2 228.839 125.647C228.839 125.93 228.932 126.196 229.117 126.447C229.302 126.686 229.558 126.877 229.884 127.018C230.222 127.16 230.592 127.23 230.995 127.23C231.19 127.23 231.386 127.225 231.582 127.214C231.778 127.192 232.045 127.154 232.382 127.1L234.048 126.855C234.211 126.833 234.326 126.844 234.391 126.887C234.456 126.931 234.478 127.029 234.456 127.181L234.309 128.488C234.287 128.629 234.249 128.749 234.195 128.847C234.151 128.934 234.032 128.988 233.836 129.01L232.056 129.271C231.446 129.359 230.875 129.424 230.341 129.467C229.819 129.511 229.296 129.538 228.774 129.549C228.262 129.571 227.702 129.582 227.092 129.582H225.802ZM242.365 129.533C241.451 129.533 240.727 129.25 240.193 128.684C239.671 128.118 239.404 127.366 239.393 126.43C239.393 125.875 239.48 125.358 239.655 124.879C239.829 124.389 240.068 123.959 240.373 123.589C240.689 123.219 241.043 122.931 241.434 122.724C241.837 122.517 242.256 122.413 242.692 122.413C243.116 122.413 243.519 122.517 243.9 122.724C244.281 122.931 244.613 123.219 244.896 123.589C245.19 123.948 245.419 124.362 245.582 124.83C245.745 125.287 245.827 125.772 245.827 126.283C245.827 127.013 245.696 127.622 245.435 128.112C245.174 128.591 244.814 128.95 244.357 129.19C243.9 129.418 243.394 129.533 242.839 129.533H242.365ZM242.447 127.508H242.888C243.312 127.508 243.644 127.399 243.884 127.181C244.123 126.953 244.237 126.632 244.227 126.218C244.216 125.652 244.052 125.2 243.737 124.863C243.432 124.514 243.067 124.34 242.643 124.34C242.338 124.34 242.06 124.433 241.81 124.618C241.57 124.803 241.38 125.037 241.238 125.32C241.108 125.603 241.043 125.908 241.043 126.234C241.043 126.637 241.168 126.953 241.418 127.181C241.668 127.399 242.011 127.508 242.447 127.508ZM241.663 120.895C241.609 120.96 241.538 120.993 241.451 120.993C241.364 120.993 241.282 120.955 241.206 120.879L240.504 120.176C240.449 120.1 240.417 120.024 240.406 119.948C240.406 119.861 240.438 119.779 240.504 119.703L241.206 119.001C241.282 118.925 241.364 118.887 241.451 118.887C241.538 118.887 241.609 118.925 241.663 119.001L242.381 119.703C242.458 119.768 242.496 119.85 242.496 119.948C242.507 120.035 242.474 120.117 242.398 120.193L241.663 120.895ZM244.145 120.895C244.08 120.971 244.003 121.004 243.916 120.993C243.829 120.982 243.753 120.944 243.688 120.879L242.953 120.176C242.888 120.111 242.855 120.035 242.855 119.948C242.855 119.85 242.888 119.768 242.953 119.703L243.688 119.001C243.753 118.925 243.824 118.887 243.9 118.887C243.976 118.887 244.052 118.925 244.129 119.001L244.847 119.703C244.923 119.768 244.961 119.85 244.961 119.948C244.961 120.035 244.923 120.117 244.847 120.193L244.145 120.895ZM246.349 133.582C246.197 133.582 246.088 133.539 246.022 133.452C245.946 133.375 245.908 133.266 245.908 133.125V132.031C245.908 131.889 245.952 131.781 246.039 131.704C246.126 131.639 246.245 131.606 246.398 131.606H246.92C247.639 131.606 248.21 131.465 248.635 131.182C249.07 130.899 249.381 130.502 249.566 129.99C249.751 129.489 249.843 128.896 249.843 128.21C249.843 127.666 249.783 127.127 249.664 126.594C249.555 126.06 249.419 125.505 249.255 124.928C249.212 124.71 249.212 124.553 249.255 124.455C249.299 124.346 249.408 124.269 249.582 124.226L250.513 123.981C250.665 123.937 250.785 123.948 250.872 124.014C250.959 124.068 251.03 124.215 251.084 124.455C251.247 125.086 251.389 125.755 251.509 126.463C251.639 127.17 251.705 127.835 251.705 128.455C251.705 129.424 251.536 130.295 251.198 131.068C250.872 131.84 250.366 132.45 249.68 132.896C249.005 133.354 248.156 133.582 247.133 133.582H246.349ZM254.264 129.598C254.155 129.598 254.063 129.565 253.987 129.5C253.921 129.424 253.889 129.331 253.889 129.222V117.646C253.889 117.537 253.921 117.45 253.987 117.384C254.063 117.308 254.155 117.27 254.264 117.27H255.293C255.413 117.27 255.505 117.308 255.57 117.384C255.636 117.45 255.668 117.537 255.668 117.646V129.222C255.668 129.331 255.636 129.424 255.57 129.5C255.505 129.565 255.413 129.598 255.293 129.598H254.264ZM260.809 129.582C260.199 129.582 259.693 129.462 259.29 129.222C258.887 128.983 258.588 128.656 258.392 128.243C258.196 127.829 258.098 127.361 258.098 126.838V126.283C258.098 126.131 258.131 126.017 258.196 125.94C258.272 125.864 258.403 125.826 258.588 125.826H259.453C259.573 125.826 259.66 125.864 259.715 125.94C259.769 126.017 259.796 126.12 259.796 126.251V126.659C259.796 126.909 259.867 127.1 260.009 127.23C260.15 127.361 260.357 127.426 260.629 127.426L262.67 127.41C263.116 127.41 263.427 127.328 263.601 127.165C263.786 127.002 263.878 126.779 263.878 126.496C263.878 126.278 263.84 126.06 263.764 125.842C263.699 125.614 263.536 125.347 263.274 125.042L261.184 122.479C261.064 122.337 261.005 122.207 261.005 122.087C261.015 121.967 261.07 121.864 261.168 121.777L261.984 121.14C262.126 121.031 262.251 120.982 262.36 120.993C262.469 120.993 262.578 121.058 262.686 121.189L264.417 123.312C264.733 123.682 264.983 124.035 265.168 124.373C265.353 124.699 265.489 125.037 265.577 125.385C265.664 125.723 265.707 126.098 265.707 126.512C265.707 127.089 265.582 127.611 265.332 128.079C265.081 128.537 264.711 128.901 264.221 129.173C263.742 129.435 263.144 129.565 262.425 129.565L260.809 129.582ZM268.408 129.598C268.299 129.598 268.207 129.565 268.13 129.5C268.065 129.424 268.032 129.331 268.032 129.222V117.646C268.032 117.537 268.065 117.45 268.13 117.384C268.207 117.308 268.299 117.27 268.408 117.27H269.437C269.556 117.27 269.649 117.308 269.714 117.384C269.78 117.45 269.812 117.537 269.812 117.646V129.222C269.812 129.331 269.78 129.424 269.714 129.5C269.649 129.565 269.556 129.598 269.437 129.598H268.408ZM267.624 133.68C267.526 133.702 267.456 133.691 267.412 133.647C267.379 133.615 267.363 133.56 267.363 133.484V133.092C267.363 132.983 267.379 132.907 267.412 132.864C267.445 132.82 267.51 132.782 267.608 132.749L268.343 132.553V132.831C268.201 132.798 268.06 132.695 267.918 132.521C267.788 132.347 267.722 132.129 267.722 131.868C267.722 131.465 267.858 131.133 268.13 130.872C268.403 130.61 268.762 130.48 269.208 130.48C269.339 130.48 269.464 130.491 269.584 130.512C269.703 130.545 269.801 130.578 269.878 130.61C270.008 130.687 270.074 130.779 270.074 130.888V131.329C270.074 131.459 270.014 131.498 269.894 131.443C269.665 131.345 269.42 131.296 269.159 131.296C268.952 131.296 268.789 131.34 268.669 131.427C268.56 131.514 268.506 131.623 268.506 131.753C268.506 131.96 268.615 132.113 268.833 132.211C269.061 132.309 269.355 132.319 269.714 132.243L270.22 132.113C270.34 132.091 270.416 132.096 270.449 132.129C270.493 132.162 270.514 132.227 270.514 132.325V132.717C270.514 132.869 270.444 132.967 270.302 133.011L267.624 133.68Z" fill="#030712"/>
<path d="M301.836 124.373L297.675 118.136C297.542 117.937 297.363 117.774 297.151 117.661C296.94 117.548 296.705 117.488 296.465 117.488H282.276C282.144 117.488 282.015 117.523 281.901 117.591C281.788 117.659 281.695 117.756 281.633 117.873C281.571 117.989 281.541 118.12 281.548 118.252C281.554 118.384 281.596 118.511 281.669 118.621L285.774 124.777L281.674 130.933C281.601 131.043 281.559 131.17 281.552 131.301C281.546 131.433 281.575 131.564 281.637 131.68C281.698 131.796 281.79 131.893 281.903 131.962C282.016 132.03 282.145 132.066 282.276 132.067H296.465C296.705 132.066 296.94 132.007 297.151 131.894C297.363 131.781 297.542 131.617 297.675 131.418L301.833 125.182C301.913 125.062 301.957 124.922 301.957 124.778C301.958 124.634 301.915 124.493 301.836 124.373ZM296.465 130.609H283.643L287.261 125.182C287.341 125.062 287.384 124.921 287.384 124.777C287.384 124.633 287.341 124.492 287.261 124.373L283.643 118.946H296.465L300.353 124.777L296.465 130.609Z" fill="#030712"/>
</g>
</g>
<defs>
<clipPath id="clip0_4554_16508">
<path d="M0.117188 8.51636C0.117188 4.09808 3.69891 0.516357 8.11719 0.516357H318.687C323.105 0.516357 326.687 4.09808 326.687 8.51636V136.516C326.687 140.935 323.105 144.516 318.687 144.516H8.11719C3.69891 144.516 0.117188 140.935 0.117188 136.516V8.51636Z" fill="white"/>
</clipPath>
</defs>
</svg>
