<svg width="114" height="32" viewBox="0 0 114 32" fill="none" xmlns="http://www.w3.org/2000/svg">
<g opacity="0.2" clipPath="url(#clip0_3283_9099)">
<path d="M57.2896 8.41723C57.3118 3.39707 61.2091 -0.299939 65.957 0.0225076C68.1253 0.172612 69.9988 1.08992 71.3832 2.77442C74.3187 6.338 77.1874 9.95162 80.0729 13.5541C83.4587 17.7793 86.8334 22.0156 90.2248 26.2352C91.3756 27.6695 93.1046 28.1476 94.6725 27.5249C96.2903 26.88 97.2799 25.3623 97.1798 23.6167C97.1298 22.805 96.8518 22.0712 96.3292 21.4263C92.2707 16.3561 88.2011 11.2914 84.187 6.1879C83.1251 4.8314 81.8909 4.05864 80.1507 4.30326C79.7393 4.35885 79.3335 4.54231 78.9554 4.72577C78.5885 4.89812 78.3272 4.89256 78.0603 4.54231C77.4543 3.74732 76.8316 2.96344 76.1867 2.19624C75.8865 1.84044 75.9254 1.62918 76.3035 1.36789C79.6448 -0.928153 84.3983 -0.249904 86.9668 2.93564C88.9683 5.41514 90.9475 7.90576 92.9156 10.4186C93.2826 10.8912 93.4827 10.8411 93.8218 10.4075C95.7844 7.92244 97.7525 5.43738 99.7484 2.97456C103.151 -1.21168 109.556 -0.928152 112.597 3.54162C114.665 6.58262 114.487 10.5743 111.841 13.7987C107.776 18.7577 103.801 23.789 99.8318 28.8258C96.5905 32.9398 90.5139 33.0899 87.1336 29.0871C86.6722 28.5423 86.2107 27.9919 85.7882 27.4138C85.4991 27.0135 85.349 27.0135 85.1266 27.4638C84.0091 29.682 82.2745 31.1942 79.8394 31.7557C76.4425 32.534 73.6348 31.4888 71.461 28.7814C67.9696 24.4339 64.4837 20.0809 61.0312 15.7056C59.986 14.3825 58.9741 13.0204 58.0846 11.5861C57.4619 10.5743 57.2784 9.36789 57.2951 8.41723H57.2896ZM65.401 4.24766C63.8666 4.27546 62.6713 4.93147 61.9596 6.29353C61.0868 7.97247 61.4426 9.50687 62.6046 10.9412C64.9285 13.8154 67.2302 16.7063 69.5374 19.5972C71.3332 21.8488 73.1178 24.1059 74.9191 26.3519C75.981 27.675 77.8824 28.142 79.4113 27.4805C80.9902 26.7967 81.9743 25.0232 81.7519 23.3498C81.6018 22.2046 80.9013 21.3818 80.2341 20.5368C76.3591 15.6667 72.4673 10.8022 68.5811 5.93773C67.7694 4.92035 66.7743 4.22543 65.401 4.2421V4.24766ZM100.96 20.6146C101.066 20.4978 101.216 20.3366 101.35 20.1643C103.774 17.1344 106.186 14.0934 108.622 11.0746C109.706 9.73481 110.189 8.29492 109.517 6.64377C108.388 3.8585 104.824 3.40263 102.856 5.78762C102.022 6.79388 101.227 7.83349 100.416 8.85642C99.0924 10.5131 97.7747 12.181 96.4349 13.821C96.1291 14.1935 96.118 14.4825 96.4349 14.8328C96.724 15.1497 96.9853 15.4888 97.2466 15.8279C98.4697 17.4012 99.6872 18.9801 100.949 20.6146H100.96Z" fill="#083344"/>
<path d="M5.65708 24.6283C6.55218 25.7012 7.85313 26.2349 9.55438 26.2349C11.2556 26.2349 12.5343 25.7068 13.385 24.6449C14.2356 23.5831 14.6637 22.1377 14.6637 20.303V12.3698C14.6637 12.064 14.9139 11.8138 15.2196 11.8138H18.2552C18.561 11.8138 18.8111 12.064 18.8111 12.3698V20.6366C18.8111 23.5108 18.0384 25.8513 16.4872 27.6693C14.9416 29.4816 12.6066 30.3878 9.49322 30.3878C6.37983 30.3878 4.01699 29.4928 2.48254 27.7026C0.94808 25.9125 0.175293 23.5775 0.175293 20.7089V12.3753C0.175293 12.0695 0.425476 11.8194 0.731255 11.8194H3.76681C4.07259 11.8194 4.32277 12.0695 4.32277 12.3753V20.3086C4.32277 22.121 4.7731 23.5664 5.6682 24.6338L5.65708 24.6283ZM7.9532 5.01465H11.0499C11.3557 5.01465 11.6059 5.26482 11.6059 5.57059V8.63383C11.6059 8.9396 11.3557 9.18977 11.0499 9.18977H7.9532C7.64743 9.18977 7.39724 8.9396 7.39724 8.63383V5.57059C7.39724 5.26482 7.64743 5.01465 7.9532 5.01465Z" fill="#083344"/>
<path d="M26.8059 11.8137C27.1117 11.8137 27.3619 12.0639 27.3619 12.3697V21.5316C27.3619 24.4503 26.7447 26.6907 25.505 28.264C24.3486 29.7262 22.5973 30.838 20.2511 31.5886C19.9676 31.6775 19.6562 31.5218 19.5617 31.2383L18.5721 28.3585C18.4665 28.0583 18.6444 27.7359 18.9502 27.6414C20.4624 27.1855 21.5298 26.5628 22.1636 25.779C22.8697 24.895 23.2255 23.4051 23.2255 21.3036V12.3752C23.2255 12.0694 23.4757 11.8193 23.7815 11.8193H26.817L26.8059 11.8137ZM23.7704 4.75326H26.8671C27.1728 4.75326 27.423 5.00343 27.423 5.3092V8.37799C27.423 8.68376 27.1728 8.93394 26.8671 8.93394H23.7704C23.4646 8.93394 23.2144 8.68376 23.2144 8.37799V5.3092C23.2144 5.00343 23.4646 4.75326 23.7704 4.75326Z" fill="#083344"/>
<path d="M31.1758 23.3606V0.861606C31.1758 0.555838 31.4259 0.305664 31.7317 0.305664H34.7673C35.073 0.305664 35.3232 0.555838 35.3232 0.861606V23.3606C35.3232 23.6663 35.073 23.9165 34.7673 23.9165H31.7317C31.4259 23.9165 31.1758 23.6663 31.1758 23.3606Z" fill="#083344"/>
<path d="M46.1311 9.29525C50.7067 9.29525 52.9973 12.3585 52.9973 18.4794C52.9973 22.7212 51.9854 25.8957 49.9617 27.9971C47.938 30.0986 44.997 31.2438 40.894 31.6886C40.5993 31.7219 40.3269 31.5107 40.2824 31.2216L39.821 28.3196C39.7709 28.0138 39.9877 27.7303 40.2935 27.6858C42.5785 27.3356 44.3243 26.8241 45.5196 26.157C46.815 25.4398 47.6934 24.339 48.1548 22.8602C47.382 23.3495 46.4202 23.5885 45.2694 23.5885C43.3458 23.5885 41.8057 22.9992 40.6438 21.8151C39.4818 20.6309 38.9036 18.9353 38.9036 16.7226C38.9036 14.3988 39.543 12.5809 40.8272 11.2688C42.1115 9.95126 43.8795 9.29525 46.1311 9.29525ZM45.9643 20.036C46.8483 20.036 47.5433 19.7636 48.0548 19.2244C48.5607 18.6851 48.8164 17.8901 48.8164 16.8561C48.8164 15.822 48.5551 14.9936 48.0381 14.3877C47.521 13.7817 46.815 13.4759 45.931 13.4759C45.047 13.4759 44.3465 13.7761 43.8239 14.371C43.3068 14.9659 43.0455 15.7775 43.0455 16.7893C43.0455 17.8012 43.2957 18.5739 43.7905 19.1577C44.2853 19.7414 45.0136 20.036 45.9643 20.036Z" fill="#083344"/>
</g>
<defs>
<clipPath id="clip0_3283_9099">
<rect width="113.828" height="32" fill="white" transform="translate(0.169922)"/>
</clipPath>
</defs>
</svg>
