<svg width="219" height="48" viewBox="0 0 219 48" fill="none" xmlns="http://www.w3.org/2000/svg">
<g clipPath="url(#clip0_4215_5766)">
<path d="M59.5243 5.57115C59.6981 5.57289 59.8704 5.53898 60.0306 5.47152C60.1907 5.40406 60.3354 5.30448 60.4555 5.17892C60.5812 5.05855 60.6808 4.91369 60.7483 4.75329C60.8157 4.5929 60.8496 4.42037 60.8477 4.24637C60.85 4.07454 60.8163 3.90414 60.7487 3.74613C60.6812 3.58812 60.5813 3.446 60.4555 3.3289C60.3332 3.20681 60.1877 3.11042 60.0275 3.04542C59.8673 2.98042 59.6958 2.94811 59.523 2.95039C59.3523 2.94738 59.1828 2.97941 59.025 3.04452C58.8672 3.10962 58.7244 3.20641 58.6055 3.3289C58.4832 3.44813 58.3866 3.59119 58.3217 3.74923C58.2568 3.90727 58.2251 4.07694 58.2284 4.24774C58.2284 4.60705 58.3532 4.91836 58.6055 5.17892C58.8579 5.43949 59.1637 5.57115 59.5243 5.57115Z" fill="#9CA3AF"/>
<path d="M56.5012 5.57117C56.6747 5.57281 56.8468 5.53884 57.0067 5.47138C57.1666 5.40392 57.311 5.3044 57.431 5.17895C57.5568 5.05868 57.6565 4.91384 57.7239 4.75341C57.7914 4.59299 57.8252 4.42041 57.8232 4.24639C57.8255 4.07455 57.7918 3.90413 57.7243 3.74611C57.6567 3.58808 57.5568 3.44597 57.431 3.32892C57.309 3.20704 57.164 3.11077 57.0043 3.04576C56.8446 2.98076 56.6736 2.94834 56.5012 2.95041C56.3303 2.94721 56.1605 2.97916 56.0025 3.04427C55.8444 3.10938 55.7014 3.20627 55.5823 3.32892C55.4599 3.44811 55.3633 3.59116 55.2984 3.74921C55.2335 3.90726 55.2018 4.07695 55.2052 4.24776C55.2052 4.60707 55.3286 4.91838 55.5823 5.17895C55.8333 5.43952 56.1405 5.57117 56.5012 5.57117Z" fill="#9CA3AF"/>
<path d="M67.3812 17.9918C67.2073 17.9897 67.0348 18.0233 66.8744 18.0906C66.714 18.1578 66.5691 18.2572 66.4487 18.3827C66.3234 18.5033 66.2243 18.6482 66.1573 18.8086C66.0903 18.969 66.0569 19.1414 66.0592 19.3153C66.0592 19.6746 66.1881 19.9804 66.45 20.2341C66.7106 20.4851 67.0205 20.6112 67.3812 20.6112C67.5521 20.6144 67.7218 20.5824 67.8799 20.5173C68.0379 20.4522 68.1809 20.3553 68.3 20.2327C68.4223 20.1134 68.5188 19.9703 68.5836 19.8123C68.6485 19.6543 68.6803 19.4847 68.6772 19.3139C68.6794 19.1413 68.647 18.97 68.582 18.8101C68.517 18.6501 68.4207 18.5048 68.2987 18.3827C68.1816 18.257 68.0395 18.1572 67.8814 18.0899C67.7234 18.0226 67.553 17.9892 67.3812 17.9918Z" fill="#9CA3AF"/>
<path d="M59.1183 13.291H57.7949C57.2546 13.291 56.9858 13.0126 56.9858 12.4544V10.4316C56.9858 10.1601 57.0571 9.94064 57.2011 9.76921C57.274 9.68409 57.3654 9.61675 57.4683 9.5723C57.5712 9.52786 57.6829 9.5075 57.7949 9.51276H59.1183V13.291ZM66.0849 12.4009C66.0849 12.9948 65.7887 13.2924 65.1935 13.2924H61.6828V6.91943H57.8223C56.8678 6.91943 56.0848 7.19783 55.4731 7.75599C54.7531 8.40467 54.3925 9.27825 54.3925 10.3754V12.4009C54.3925 13.3554 54.6626 14.1467 55.2029 14.7776C55.8516 15.5154 56.7417 15.8843 57.8772 15.8843H65.247C66.1837 15.8843 66.9668 15.6059 67.5976 15.0478C68.3162 14.3991 68.6769 13.5351 68.6769 12.4558V6.91943H66.0849V12.4009Z" fill="#9CA3AF"/>
<path d="M64.3577 17.9918C64.1838 17.9897 64.0113 18.0233 63.8509 18.0906C63.6905 18.1578 63.5456 18.2572 63.4251 18.3827C63.2996 18.5031 63.2002 18.648 63.133 18.8084C63.0658 18.9689 63.0322 19.1413 63.0343 19.3153C63.0343 19.6746 63.1659 19.9804 63.4265 20.2341C63.6871 20.4851 63.997 20.6112 64.3577 20.6112C64.5286 20.6144 64.6983 20.5824 64.8563 20.5173C65.0144 20.4522 65.1574 20.3553 65.2765 20.2327C65.3987 20.1134 65.4952 19.9703 65.5601 19.8123C65.6249 19.6543 65.6568 19.4847 65.6536 19.3139C65.6559 19.1413 65.6236 18.9699 65.5586 18.81C65.4935 18.6501 65.3972 18.5048 65.2751 18.3827C65.1581 18.257 65.0159 18.1572 64.8579 18.0899C64.6998 18.0226 64.5294 17.9892 64.3577 17.9918Z" fill="#9CA3AF"/>
<path d="M74.2401 6.9208H72.7275V9.51276H74.0234C74.7434 9.51276 75.3016 9.71984 75.6965 10.134C76.1121 10.5482 76.3178 11.1242 76.3178 11.862C76.3178 12.3845 76.2327 12.7534 76.0613 12.9687C75.8913 13.1854 75.5978 13.2937 75.1836 13.2937H71.1874V15.8857H75.4003C76.4618 15.8857 77.3079 15.5703 77.9401 14.9394C78.6217 14.2565 78.9645 13.2759 78.9645 11.9977C78.9645 10.6647 78.667 9.56625 78.0731 8.70226C77.264 7.51462 75.9859 6.9208 74.2401 6.9208Z" fill="#9CA3AF"/>
<path d="M95.6252 11.9422C95.0314 11.2579 94.454 10.7353 93.8972 10.376C94.4005 9.69308 94.9765 9.35023 95.6252 9.35023C96.3095 9.35023 96.8759 9.69308 97.3257 10.376C96.7141 10.7902 96.1463 11.3127 95.6252 11.9422ZM85.7429 13.293H84.4456C83.9052 13.293 83.6365 12.9954 83.6365 12.4016V10.35C83.6365 9.79182 83.9052 9.51343 84.4456 9.51343H85.7429V13.293ZM121.303 12.4016C121.303 12.9954 121.015 13.293 120.439 13.293H118.307V6.9201L115.715 7.44809V13.293H113.582V6.9201L110.99 7.44809V13.293H108.828V6.9201L106.263 7.44809V13.293H98.0004C98.7561 12.3385 99.5035 11.6281 100.241 11.1591V10.9438C100.241 9.79182 99.8093 8.81949 98.9453 8.02682C98.0265 7.19986 96.9198 6.7857 95.6238 6.7857C94.5075 6.7857 93.5173 7.10112 92.6534 7.7306C91.5562 8.5219 91.0077 9.56691 91.0077 10.8629V11.1591C91.6906 11.6281 92.4367 12.3385 93.2472 13.293H88.3335V6.9201H84.5265C83.5185 6.9201 82.6998 7.21769 82.0703 7.81151C81.3682 8.47664 81.0171 9.3324 81.0171 10.376V12.4565C81.0171 13.3383 81.2859 14.0939 81.8262 14.7234C82.4927 15.4982 83.3937 15.885 84.5279 15.885H85.769V16.0742C85.769 16.7764 85.4357 17.3154 84.7706 17.6939C84.0849 18.108 83.14 18.3151 81.9346 18.3151H81.6918L83.3389 20.6108C85.0668 20.5382 86.3367 20.1158 87.1458 19.3409C87.9385 18.6031 88.3348 17.4868 88.3348 15.9933V15.885H94.14C94.6803 15.885 95.1754 15.7328 95.6252 15.4256C96.0928 15.7328 96.5879 15.885 97.1104 15.885H120.413C121.42 15.885 122.24 15.5696 122.869 14.9387C123.536 14.2914 123.869 13.4644 123.869 12.4565V3.2749H121.305L121.303 12.4016Z" fill="#9CA3AF"/>
<path d="M143.933 5.57113C144.105 5.57374 144.275 5.54018 144.434 5.47261C144.592 5.40505 144.734 5.30499 144.852 5.17891C144.973 5.05654 145.07 4.91097 145.134 4.7508C145.199 4.59063 145.231 4.4191 145.229 4.24635C145.232 4.0758 145.2 3.90644 145.135 3.74868C145.07 3.59091 144.974 3.44805 144.852 3.32888C144.732 3.20649 144.589 3.10977 144.431 3.04468C144.273 2.97959 144.104 2.9475 143.933 2.95037C143.76 2.94809 143.588 2.9804 143.428 3.0454C143.268 3.11041 143.122 3.20679 143 3.32888C142.874 3.44615 142.774 3.58853 142.707 3.74681C142.64 3.90509 142.607 4.07574 142.609 4.24772C142.609 4.60703 142.74 4.91834 143.002 5.17891C143.262 5.43947 143.572 5.56976 143.934 5.56976" fill="#9CA3AF"/>
<path d="M140.907 5.57113C141.079 5.57374 141.25 5.54018 141.408 5.47261C141.566 5.40505 141.708 5.30499 141.826 5.17891C141.948 5.05654 142.044 4.91097 142.109 4.7508C142.173 4.59063 142.205 4.4191 142.203 4.24635C142.206 4.0758 142.174 3.90644 142.109 3.74868C142.044 3.59091 141.948 3.44805 141.826 3.32888C141.706 3.20649 141.563 3.10977 141.405 3.04468C141.247 2.97959 141.078 2.9475 140.907 2.95037C140.734 2.94809 140.562 2.9804 140.402 3.0454C140.242 3.11041 140.097 3.20679 139.974 3.32888C139.848 3.44615 139.749 3.58853 139.681 3.74681C139.614 3.90509 139.581 4.07574 139.583 4.24772C139.583 4.60703 139.714 4.91834 139.976 5.17891C140.236 5.43947 140.546 5.56976 140.908 5.56976" fill="#9CA3AF"/>
<path d="M147.309 12.32C147.309 12.9673 147.03 13.2924 146.472 13.2924H138.344C137.768 13.2924 137.48 12.9673 137.48 12.3187V8.56786L134.916 10.241V12.4572C134.916 13.446 135.204 14.2482 135.78 14.8599C136.41 15.5442 137.292 15.8857 138.426 15.8857H146.472C147.427 15.8857 148.218 15.6073 148.848 15.0491C149.55 14.4183 149.902 13.5543 149.902 12.4572V6.91943H147.31L147.309 12.32Z" fill="#9CA3AF"/>
<path d="M160.536 12.4551V10.3774C160.536 10.1264 160.613 9.91799 160.765 9.75617C160.844 9.67484 160.939 9.61113 161.044 9.56928C161.149 9.52743 161.261 9.50839 161.374 9.51343H165.288V6.92147H161.454C160.501 6.92147 159.698 7.20124 159.051 7.75803C158.312 8.4067 157.943 9.28029 157.943 10.3774V12.4578C157.943 12.8528 157.988 13.1326 158.08 13.2944H155.865C155.289 13.2944 155.001 13.0064 155.001 12.4304V3.2749H152.437V12.536C152.437 13.3835 152.688 14.1214 153.191 14.7508C153.803 15.5078 154.613 15.885 155.621 15.885H166.531V13.293H161.374C160.815 13.293 160.536 13.0133 160.536 12.4565" fill="#9CA3AF"/>
<path d="M182.22 5.57113C182.392 5.57355 182.562 5.53989 182.72 5.47233C182.878 5.40477 183.02 5.30481 183.137 5.17891C183.259 5.05649 183.355 4.91092 183.42 4.75076C183.485 4.5906 183.517 4.41909 183.514 4.24635C183.517 4.0758 183.485 3.90644 183.421 3.74868C183.356 3.59091 183.259 3.44805 183.137 3.32888C183.018 3.20649 182.875 3.10977 182.717 3.04468C182.559 2.97959 182.389 2.9475 182.218 2.95037C182.046 2.94827 181.875 2.98067 181.715 3.04567C181.555 3.11067 181.409 3.20696 181.287 3.32888C181.161 3.44615 181.062 3.58853 180.994 3.74681C180.927 3.90509 180.894 4.07574 180.896 4.24772C180.896 4.60703 181.027 4.91834 181.287 5.17891C181.548 5.43947 181.858 5.57113 182.22 5.57113Z" fill="#9CA3AF"/>
<path d="M183.3 12.32C183.3 12.9673 183.012 13.2924 182.436 13.2924H181.166V10.4302C181.166 9.81721 181.437 9.51139 181.977 9.51139H183.3V12.32ZM173.337 13.2924H172.041C171.501 13.2924 171.231 12.9948 171.231 12.4009V10.3479C171.231 9.79116 171.501 9.51139 172.04 9.51139H173.337V13.2924ZM179.519 7.89176C178.889 8.53906 178.575 9.36739 178.575 10.3754V13.2924H175.929V6.91943H172.122C171.113 6.91943 170.294 7.21703 169.665 7.81085C168.962 8.47598 168.611 9.33311 168.611 10.3754V12.4558C168.611 13.3376 168.881 14.0933 169.42 14.7227C170.087 15.4976 170.988 15.8843 172.122 15.8843H173.363V16.0736C173.363 16.7757 173.03 17.3147 172.365 17.6932C171.679 18.1074 170.736 18.3144 169.53 18.3144H169.286L170.933 20.6102C172.661 20.5375 173.931 20.1151 174.741 19.3402C175.533 18.6024 175.929 17.4861 175.929 15.9927V15.8843H182.436C183.409 15.8843 184.2 15.6059 184.813 15.0478C185.532 14.4169 185.892 13.5529 185.892 12.4558V6.91943H182.058C180.995 6.91943 180.149 7.24308 179.519 7.89176Z" fill="#9CA3AF"/>
<path d="M203.877 14.6699C203.877 15.2816 203.516 15.5888 202.796 15.5888C202.076 15.5888 201.715 15.2816 201.715 14.6699V10.2677C201.715 9.65605 202.076 9.35023 202.796 9.35023C203.516 9.35023 203.877 9.65605 203.877 10.2691V14.6699ZM209.438 12.4016C209.438 12.9954 209.15 13.293 208.574 13.293H206.441V10.2691C206.441 9.27892 206.144 8.46842 205.55 7.83894C204.867 7.13541 203.948 6.7857 202.796 6.7857C201.841 6.7857 201.041 7.01884 200.393 7.48786C199.565 8.11871 199.151 9.04441 199.151 10.2691V13.2916H196.18V11.8352C196.18 10.5392 195.847 9.44897 195.181 8.56716C194.352 7.47003 193.129 6.9201 191.509 6.9201H189.943V9.51206H191.293C192.823 9.51206 193.588 10.2416 193.588 11.6994V13.293H188.405V15.885H199.313C199.546 16.5871 199.96 17.1357 200.555 17.5307C201.185 17.9462 201.932 18.1533 202.796 18.1533C203.66 18.1533 204.398 17.9503 205.011 17.5457C205.622 17.1412 206.037 16.5871 206.252 15.8863H208.548C209.556 15.8863 210.374 15.5709 211.004 14.9401C211.67 14.2914 212.003 13.4644 212.003 12.4565V3.2749H209.439L209.438 12.4016Z" fill="#9CA3AF"/>
<path d="M214.298 3.2749V17.0671L217.105 15.885V3.2749H214.298Z" fill="#9CA3AF"/>
<path d="M126.285 17.0671L129.092 15.8877V3.2749H126.285V17.0671Z" fill="#9CA3AF"/>
<path d="M54.4461 44.1645L54.8547 41.6686C55.9765 42.1554 57.0887 42.3995 58.1927 42.3995C59.4407 42.3995 60.066 41.9387 60.066 41.0144C60.0697 40.8357 60.0324 40.6585 59.957 40.4964C59.8817 40.3343 59.7703 40.1916 59.6313 40.0791C59.3419 39.835 58.7632 39.5319 57.8937 39.1699C56.7006 38.6816 55.8668 38.2195 55.3978 37.7847C54.7258 37.1525 54.3926 36.3297 54.3926 35.3162C54.3926 34.0312 54.8808 33.0891 55.8586 32.4911C56.6183 32.0043 57.6592 31.7588 58.9799 31.7588C60.1922 31.7588 61.2866 31.9947 62.2644 32.4651L61.8022 34.9075C60.7161 34.4193 59.7479 34.1752 58.8976 34.1752C57.7401 34.1752 57.1614 34.5455 57.1614 35.2888C57.1614 35.5233 57.2835 35.7359 57.5276 35.9265C57.7717 36.1171 58.2736 36.3736 59.0347 36.7C60.3005 37.2252 61.1878 37.7217 61.6952 38.1921C62.4358 38.8805 62.8061 39.7308 62.8061 40.7442C62.8061 42.1568 62.3631 43.2141 61.4758 43.9204C60.6982 44.5362 59.6217 44.8434 58.2476 44.8434C56.7445 44.8434 55.4773 44.6171 54.4461 44.1645Z" fill="#9CA3AF"/>
<path d="M69.4026 40.0125L70.678 35.5609L71.9534 40.0125H69.4026ZM72.118 31.9761H69.2408L65.1143 44.6533H68.0724L68.7786 42.2918H72.5788L73.285 44.6533H76.2705L72.118 31.9761Z" fill="#9CA3AF"/>
<path d="M86.4482 40.0935V33.1638L89.2979 31.9775V40.3376C89.2979 41.5691 88.9263 42.5812 88.1844 43.378C87.2984 44.3545 85.949 44.8441 84.1401 44.8441C82.1132 44.8441 80.6664 44.2379 79.7983 43.0256C79.2538 42.2645 78.9823 41.3689 78.9823 40.3376V33.1652L81.8074 31.9775V40.0935C81.8074 40.7806 82.0131 41.3333 82.43 41.7488C82.8277 42.1835 83.3982 42.4002 84.1401 42.4002C84.9725 42.4002 85.5883 42.1287 85.986 41.5856C86.2932 41.1879 86.4482 40.6901 86.4482 40.0935Z" fill="#9CA3AF"/>
<path d="M101.121 39.8494C101.121 41.3168 100.353 42.0478 98.8143 42.0478H95.7602V34.5832H98.8143C100.352 34.5832 101.121 35.3169 101.121 36.7829V39.8494ZM102.723 33.6328C101.89 32.5302 100.66 31.9775 99.0309 31.9775H93.1792V44.6548H99.0309C100.66 44.6548 101.89 44.1021 102.723 42.9982C103.392 42.1109 103.728 41.0165 103.728 39.7136V36.9173C103.728 35.6145 103.392 34.5201 102.723 33.6328Z" fill="#9CA3AF"/>
<path d="M110.634 44.6534H107.811V33.1652L110.634 31.9775V44.6534Z" fill="#9CA3AF"/>
<path d="M134.219 40.0125L135.495 35.5609L136.77 40.0125H134.219ZM136.935 31.9761H134.056L129.931 44.6533H132.889L133.594 42.2918H137.396L138.1 44.6533H141.087L136.935 31.9761Z" fill="#9CA3AF"/>
<path d="M148.2 44.6534H145.402V39.6588L141.467 31.9775H144.481L146.788 37.0257L149.122 31.9775H152.109L148.2 39.6588V44.6534Z" fill="#9CA3AF"/>
<path d="M168.205 44.6534H165.709V34.8547L163.076 44.6534H160.062L157.456 34.8547V44.6534H154.959V31.9775H159.111L161.581 41.9929L164.351 31.9775H168.205V44.6534Z" fill="#9CA3AF"/>
<path d="M179.798 44.6534H172.116V31.9775H180.205L179.798 34.3391H174.939V36.9996H179.39L179.01 39.3598H174.939V42.2919H180.205L179.798 44.6534Z" fill="#9CA3AF"/>
<path d="M193.908 44.6533H191.52L186.172 36.6457V44.6547H183.621V31.9774H186.01L191.357 39.9851V31.9761H193.908V44.6533Z" fill="#9CA3AF"/>
<path d="M203.164 44.6534H200.34V34.3391H197.3V31.9775H206.447L206.04 34.3391H203.164V44.6534Z" fill="#9CA3AF"/>
<path d="M209.139 44.1645L209.547 41.6686C210.669 42.1554 211.781 42.3995 212.885 42.3995C214.133 42.3995 214.759 41.9387 214.759 41.0144C214.762 40.8357 214.725 40.6585 214.65 40.4964C214.574 40.3343 214.463 40.1916 214.324 40.0791C214.035 39.835 213.456 39.5319 212.586 39.1699C211.393 38.6816 210.559 38.2195 210.09 37.7847C209.42 37.1525 209.085 36.3297 209.085 35.3162C209.085 34.0312 209.573 33.0891 210.551 32.4911C211.311 32.0043 212.352 31.7588 213.673 31.7588C214.885 31.7588 215.979 31.9947 216.957 32.4651L216.496 34.9075C215.41 34.4193 214.44 34.1752 213.59 34.1752C212.433 34.1752 211.854 34.5455 211.854 35.2888C211.854 35.5233 211.976 35.7359 212.22 35.9265C212.464 36.1171 212.966 36.3736 213.727 36.7C214.993 37.2252 215.88 37.7217 216.388 38.1921C217.128 38.8805 217.499 39.7308 217.499 40.7442C217.499 42.1568 217.056 43.2141 216.168 43.9204C215.391 44.5362 214.314 44.8434 212.94 44.8434C211.437 44.8434 210.17 44.6171 209.139 44.1645Z" fill="#9CA3AF"/>
<path d="M125.891 37.5427C125.891 38.1036 125.619 38.3834 125.076 38.3834H122.008V34.5846H125.076C125.33 34.5846 125.529 34.6696 125.673 34.841C125.824 35.029 125.901 35.2654 125.891 35.5062V37.5427ZM127.41 32.8196C126.796 32.2573 126.009 31.9775 125.049 31.9775H119.43V44.6534H122.228V40.989H124.995C126.135 40.989 127.03 40.6188 127.682 39.8768C128.225 39.2432 128.496 38.4478 128.496 37.4878V35.4513C128.496 34.3487 128.134 33.471 127.41 32.8182" fill="#9CA3AF"/>
<path d="M14.6043 19.2013H33.7394V43.2009H14.6043V48.0008H38.5557V14.4014H14.6043V19.2013Z" fill="#9CA3AF"/>
<path d="M24.11 28.7985H4.97499V4.79894H24.11V-0.000976562H0.157288V33.5985H24.11V28.7985Z" fill="#9CA3AF"/>
</g>
<defs>
<clipPath id="clip0_4215_5766">
<rect width="218.051" height="47.9992" fill="white" transform="translate(0.15741 0.000488281)"/>
</clipPath>
</defs>
</svg>
