<svg width="86" height="25" viewBox="0 0 86 25" fill="none" xmlns="http://www.w3.org/2000/svg">
<g clipPath="url(#clip0_2308_3590)">
<path d="M43.4688 7.08416C43.4854 3.31905 46.4084 0.546286 49.9693 0.788121C51.5955 0.900699 53.0007 1.58868 54.039 2.85205C56.2406 5.52474 58.3922 8.23496 60.5562 10.9368C63.0956 14.1057 65.6266 17.2829 68.1701 20.4476C69.0333 21.5234 70.3301 21.8819 71.5059 21.4149C72.7193 20.9313 73.4615 19.793 73.3865 18.4837C73.3489 17.875 73.1405 17.3246 72.7485 16.8409C69.7046 13.0383 66.6524 9.23982 63.6418 5.41216C62.8454 4.39479 61.9197 3.81522 60.6146 3.99868C60.3061 4.04038 60.0017 4.17797 59.7181 4.31557C59.4429 4.44483 59.247 4.44066 59.0468 4.17797C58.5923 3.58173 58.1253 2.99382 57.6416 2.41842C57.4165 2.15157 57.4456 1.99312 57.7292 1.79715C60.2352 0.0751258 63.8003 0.583813 65.7267 2.97297C67.2278 4.8326 68.7122 6.70056 70.1883 8.5852C70.4635 8.93961 70.6136 8.90209 70.868 8.57686C72.3399 6.71307 73.8159 4.84927 75.3129 3.00216C77.8647 -0.137522 82.6683 0.0751259 84.9491 3.42745C86.5002 5.7082 86.3668 8.70195 84.382 11.1203C81.3339 14.8395 78.3526 18.613 75.3754 22.3906C72.9445 25.4761 68.387 25.5887 65.8518 22.5866C65.5057 22.178 65.1596 21.7652 64.8427 21.3316C64.6259 21.0313 64.5133 21.0313 64.3465 21.3691C63.5084 23.0327 62.2075 24.1669 60.3811 24.588C57.8334 25.1717 55.7277 24.3878 54.0974 22.3573C51.4788 19.0967 48.8644 15.8319 46.275 12.5505C45.4911 11.5581 44.7322 10.5366 44.065 9.46081C43.598 8.70195 43.4604 7.79715 43.4729 7.08416H43.4688ZM49.5524 3.95699C48.4015 3.97784 47.505 4.46984 46.9713 5.49139C46.3167 6.75059 46.5835 7.90139 47.455 8.97714C49.1979 11.1328 50.9242 13.301 52.6546 15.4691C54.0015 17.1578 55.3399 18.8507 56.6909 20.5352C57.4873 21.5275 58.9134 21.8778 60.0601 21.3816C61.2443 20.8687 61.9823 19.5386 61.8155 18.2836C61.7029 17.4247 61.1775 16.8076 60.6772 16.1738C57.7709 12.5213 54.8521 8.8729 51.9374 5.22453C51.3287 4.4615 50.5823 3.94031 49.5524 3.95282V3.95699ZM76.2219 16.2322C76.3011 16.1446 76.4137 16.0237 76.5138 15.8944C78.3318 13.622 80.1414 11.3413 81.9677 9.07721C82.7808 8.07235 83.1436 6.99243 82.6391 5.75407C81.7926 3.66512 79.1198 3.32321 77.6437 5.11196C77.0183 5.86665 76.422 6.64636 75.8132 7.41355C74.8208 8.65608 73.8326 9.90695 72.8277 11.137C72.5984 11.4163 72.59 11.6332 72.8277 11.8958C73.0445 12.1335 73.2405 12.3878 73.4365 12.6422C74.3538 13.8222 75.267 15.0063 76.2135 16.2322H76.2219Z" fill="#0891B2"/>
<path d="M4.74415 19.2429C5.41548 20.0477 6.39119 20.4479 7.66712 20.4479C8.94306 20.4479 9.90209 20.0518 10.5401 19.2554C11.178 18.4591 11.4991 17.375 11.4991 15.999V10.049C11.4991 9.81972 11.6867 9.63209 11.9161 9.63209H14.1927C14.4221 9.63209 14.6097 9.81972 14.6097 10.049V16.2492C14.6097 18.4048 14.0301 20.1602 12.8668 21.5237C11.7076 22.883 9.9563 23.5626 7.62126 23.5626C5.28622 23.5626 3.51409 22.8913 2.36324 21.5487C1.2124 20.2061 0.632812 18.4549 0.632812 16.3034V10.0532C0.632812 9.82389 0.82045 9.63626 1.04978 9.63626H3.32645C3.55578 9.63626 3.74342 9.82389 3.74342 10.0532V16.0032C3.74342 17.3625 4.08117 18.4465 4.75249 19.2471L4.74415 19.2429ZM6.46625 4.53271H8.78878C9.01811 4.53271 9.20575 4.72035 9.20575 4.94967V7.2471C9.20575 7.47643 9.01811 7.66406 8.78878 7.66406H6.46625C6.23691 7.66406 6.04927 7.47643 6.04927 7.2471V4.94967C6.04927 4.72035 6.23691 4.53271 6.46625 4.53271Z" fill="white"/>
<path d="M20.6058 9.63201C20.8351 9.63201 21.0227 9.81964 21.0227 10.049V16.9204C21.0227 19.1094 20.5599 20.7898 19.6301 21.9697C18.7628 23.0663 17.4493 23.9003 15.6897 24.4631C15.477 24.5299 15.2435 24.4131 15.1726 24.2005L14.4304 22.0406C14.3512 21.8155 14.4846 21.5736 14.714 21.5028C15.8481 21.1609 16.6487 20.6939 17.1241 20.106C17.6536 19.443 17.9205 18.3256 17.9205 16.7495V10.0531C17.9205 9.82381 18.1081 9.63618 18.3374 9.63618H20.6141L20.6058 9.63201ZM18.3291 4.33667H20.6516C20.881 4.33667 21.0686 4.5243 21.0686 4.75363V7.05522C21.0686 7.28455 20.881 7.47218 20.6516 7.47218H18.3291C18.0998 7.47218 17.9121 7.28455 17.9121 7.05522V4.75363C17.9121 4.5243 18.0998 4.33667 18.3291 4.33667Z" fill="white"/>
<path d="M23.8832 18.2922V1.41793C23.8832 1.18861 24.0708 1.00098 24.3001 1.00098H26.5768C26.8061 1.00098 26.9938 1.18861 26.9938 1.41793V18.2922C26.9938 18.5215 26.8061 18.7091 26.5768 18.7091H24.3001C24.0708 18.7091 23.8832 18.5215 23.8832 18.2922Z" fill="white"/>
<path d="M35.0997 7.74316C38.5314 7.74316 40.2493 10.0406 40.2493 14.6313C40.2493 17.8127 39.4904 20.1935 37.9726 21.7696C36.4548 23.3457 34.2491 24.2046 31.1718 24.5382C30.9508 24.5632 30.7465 24.4047 30.7131 24.1879L30.3671 22.0114C30.3295 21.7821 30.4922 21.5694 30.7215 21.5361C32.4352 21.2734 33.7445 20.8898 34.641 20.3894C35.6126 19.8516 36.2714 19.026 36.6175 17.9169C36.0379 18.2838 35.3165 18.4631 34.4534 18.4631C33.0107 18.4631 31.8556 18.0211 30.9842 17.133C30.1127 16.2449 29.6791 14.9732 29.6791 13.3137C29.6791 11.5708 30.1586 10.2074 31.1218 9.22336C32.085 8.23517 33.411 7.74316 35.0997 7.74316ZM34.9746 15.7988C35.6376 15.7988 36.1588 15.5945 36.5424 15.19C36.9219 14.7856 37.1137 14.1893 37.1137 13.4138C37.1137 12.6382 36.9177 12.017 36.5299 11.5625C36.1421 11.108 35.6126 10.8787 34.9496 10.8787C34.2866 10.8787 33.7612 11.1038 33.3693 11.55C32.9815 11.9961 32.7855 12.6049 32.7855 13.3637C32.7855 14.1226 32.9731 14.7022 33.3442 15.14C33.7153 15.5778 34.2616 15.7988 34.9746 15.7988Z" fill="white"/>
</g>
<defs>
<clipPath id="clip0_2308_3590">
<rect width="85.3708" height="24" fill="white" transform="translate(0.628906 0.771484)"/>
</clipPath>
</defs>
</svg>
