<svg fill="none" xmlns="http://www.w3.org/2000/svg" viewBox="0 0 209 48"><g clip-path="url(#a)" fill="#9CA3AF"><path d="M67.6781 13.8868h3.2527c.0141 0 .0275-.0012.0416-.0012h.016c.686-.009 1.3125-.1709 1.8782-.4979.574.327 1.2005.4895 1.8781.4979h.016c.0141 0 .0269.0012.041.0012h.0179c.0147 0 .0294-.0012.0442-.0012h.0128c.6859-.0084 1.3124-.1709 1.8787-.4979.5907.336 1.2357.4998 1.9358.4998h6.515c.7083 0 1.354-.1638 1.9351-.4998.5746.327 1.2004.4895 1.8781.4979h.0179c.0135 0 .0263.0012.0397.0012h.0269c.0313 0 .0569-.0019.0761-.0038.9593-.0224 1.8667-.4115 2.3959-.9407V7.25342h-1.0815v5.22498c-.3634.1907-.8991.2905-1.4084.2905-.5094 0-1.0361-.0998-1.3989-.2905V9.34276h-1.0814v3.13564c-.391.1907-.8543.2905-1.4085.2905h-1.8628c.6086-.4819.9176-1.0904.9176-1.8084 0-1.24467-.9451-2.08104-2.2992-2.08104-1.354 0-2.3081.83573-2.3081 2.08104 0 .718.309 1.3265.9176 1.8084h-1.8628c-.5177 0-1.036-.0998-1.3989-.2905V9.34276h-1.0814v3.13564c-.391.1907-.8543.2905-1.4085.2905-.5183 0-1.036-.0998-1.3995-.2905V9.34276h-1.0814v3.13564c-.391.1907-.8543.2905-1.4085.2905h-1.3809V9.75231c-.4723-.26365-1.2267-.49978-1.9901-.49978-1.4904 0-2.481.89977-2.481 2.31717s1.036 2.3171 2.6077 2.3171h.0012Zm14.2753-3.97131c.718 0 1.2177.46331 1.2177 1.18131 0 .3545-.1273.6725-.3724.9362-.2451.2636-.5273.4543-.8453.5906-.327-.1273-.6175-.327-.8633-.5906-.2451-.2637-.3634-.5817-.3634-.9362 0-.6994.5087-1.18131 1.2267-1.18131ZM67.4695 10.27c.3725 0 .7091.073.9906.2272v2.2717h-.9362c-.8357 0-1.3816-.4364-1.3816-1.2357s.5638-1.2632 1.3266-1.2632h.0006ZM66.6791 8.46034c.3545 0 .645-.29052.645-.654 0-.36347-.2905-.654-.645-.654-.3724 0-.6636.29053-.6636.654 0 .36348.2905.654.6636.654ZM68.4521 8.46034c.3634 0 .654-.29052.654-.654 0-.36347-.2912-.654-.654-.654-.3629 0-.6457.29053-.6457.654 0 .36348.2816.654.6457.654ZM73.1312 15.2043c0 .3545.2816.645.6451.645.3634 0 .6546-.2905.6546-.645 0-.3724-.2912-.654-.6546-.654-.3635 0-.6451.2816-.6451.654ZM72.0026 15.8493c.3545 0 .645-.2905.645-.645 0-.3545-.2815-.654-.645-.654-.3635 0-.6636.2816-.6636.654s.2905.645.6636.645Z"/><path d="M76.7755 8.52414c.3635 0 .654-.29052.654-.654 0-.36347-.2905-.6636-.654-.6636-.3634 0-.6636.29117-.6636.6636 0 .37244.2906.654.6636.654ZM81.0624 8.0894c.3545 0 .6457-.29116.6457-.65464 0-.36347-.2912-.654-.6457-.654-.3724 0-.6636.29117-.6636.654 0 .36284.2912.65464.6636.65464ZM82.8358 8.0894c.3635 0 .654-.29116.654-.65464 0-.36347-.2905-.654-.654-.654-.3634 0-.645.29117-.645.654 0 .36284.2816.65464.645.65464ZM86.278 8.52431c.3545 0 .645-.29053.645-.654 0-.36348-.2905-.654-.645-.654-.3725 0-.6636.29116-.6636.654 0 .36283.2911.654.6636.654ZM88.0507 8.52431c.3634 0 .6546-.29053.6546-.654 0-.36348-.2912-.654-.6546-.654-.3635 0-.6451.29116-.6451.654 0 .36283.2816.654.6451.654ZM94.4944 7.25342H93.413v6.63338h1.0814V7.25342ZM98.5644 13.8861h.7903c-.0633.8998-.5273 1.3266-1.5722 1.3266-.5363 0-1.109-.1184-1.4635-.2547l-.1907 1.0264c.4818.1728 1.0814.2637 1.6177.2637 1.6631 0 2.69-.8268 2.69-2.6806V9.92312c-.6641-.33596-1.3366-.49978-1.9996-.49978-1.5172 0-2.4899.90866-2.4899 2.24486 0 1.3361.9727 2.2173 2.6173 2.2173l.0006.0006Zm-.1907-3.453c.336 0 .6636.073.9817.2272v2.1079h-.9631c-.8089 0-1.372-.4268-1.372-1.1634 0-.7365.5638-1.1723 1.3541-1.1723l-.0007.0006ZM107.978 12.7675h-1.318c-.609-.0634-.99-.3546-.99-.9721 0-.5541.318-.8722.817-.8722.246 0 .464.0819.637.2368l.726-.6815c-.335-.3181-.863-.52733-1.417-.52733-1.027 0-1.736.73593-1.736 1.71753 0 .4364.127.7999.391 1.0994h-.881v1.1179h3.771V12.7675ZM110.012 13.396c.505.2835 1.21.4793 1.986.4889.008 0 .018 0 .026.0007.011 0 .021.0012.032.0012h15.765c.991 0 1.936-.3999 2.481-.9451V7.25342h-1.081v5.22498c-.364.1907-.9.2905-1.409.2905h-1.863c.61-.4819.918-1.0904.918-1.8084 0-1.24467-.945-2.08104-2.299-2.08104s-2.308.83573-2.308 2.08104c0 .718.309 1.3265.917 1.8084h-3.188v-1.2178c0-.8088-.21-1.436-.628-1.86278-.408-.42683-.954-.64504-1.635-.64504-1.1 0-2.054.58168-3.172 1.73542V9.68832h-1.081v3.08058h-1.409c-.518 0-1.036-.0998-1.408-.2905V7.25342h-1.081v5.39778c0 .3909.109.5727.436.7448h.001Zm14.557-3.48051c.718 0 1.218.46331 1.218 1.18131 0 .3545-.128.6725-.373.9362-.245.2636-.527.4543-.845.5906-.327-.1273-.618-.327-.863-.5906-.245-.2637-.364-.5817-.364-.9362 0-.6995.509-1.18131 1.227-1.18131Zm-10.013 2.18981c1.19-1.381 2.081-2.0081 2.998-2.0081.482 0 .827.1542 1.036.4633.219.3091.328.6995.328 1.1634v1.045h-4.362v-.6636Z"/><path d="M115.61 8.22385c.364 0 .654-.29117.654-.654 0-.36284-.29-.6636-.654-.6636-.363 0-.663.29052-.663.6636 0 .37307.291.654.663.654ZM124.562 8.08923c.364 0 .654-.29116.654-.65464 0-.36347-.29-.66359-.654-.66359-.363 0-.663.29116-.663.66359 0 .37244.29.65464.663.65464ZM133.22 7.25342h-1.081v6.63338h1.081V7.25342ZM137.291 13.8861h.79c-.064.8998-.527 1.3266-1.572 1.3266-.536 0-1.108-.1184-1.463-.2547l-.19 1.0264c.482.1728 1.081.2637 1.617.2637 1.663 0 2.691-.8268 2.691-2.6806V9.92312c-.664-.33596-1.337-.49978-2-.49978-1.517 0-2.489.90866-2.489 2.24486 0 1.3361.972 2.2173 2.617 2.2173l-.001.0006Zm-.191-3.453c.336 0 .663.073.981.2272v2.1079h-.963c-.808 0-1.372-.4268-1.372-1.1634 0-.7365.564-1.1723 1.354-1.1723v.0006ZM145.598 13.8867h3.589c1.3 0 2.335-.2272 2.944-.5542V9.34326h-1.081v3.16254c-.327.1548-.945.2636-1.709.2636h-3.671c-1.09 0-1.636-.4633-1.636-1.3905 0-.3091.055-.6726.173-1.0815l-.991-.1818c-.173.5632-.255 1.0905-.255 1.5813 0 1.5902.963 2.1898 2.635 2.1898h.002Z"/><path d="M148.449 9.64198c.364 0 .655-.29116.655-.654 0-.36283-.291-.654-.655-.654-.363 0-.645.29053-.645.654 0 .36348.282.654.645.654ZM146.678 9.64198c.354 0 .645-.29116.645-.654 0-.36283-.291-.654-.645-.654-.373 0-.664.29053-.664.654 0 .36348.291.654.664.654ZM158.7 12.9417V7.25342h-1.082V12.424c-.318.2182-.763.3359-1.336.3455l-1.018-4.35271h-1.073l1 4.35271h-1.745v1.118h2.789c.991 0 1.917-.4 2.463-.9452l.002-.0006ZM160.971 13.396c.504.2835 1.209.4793 1.985.4889.008 0 .018 0 .026.0007.011 0 .022.0012.032.0012h9.268c.008 0 .016-.0006.023-.0006.014 0 .028 0 .039-.0013.46-.0051.912-.0672 1.338-.1888.445-.1273.809-.2815 1.081-.4722V9.3434h-1.081v3.19c-.318.1453-.855.2361-1.409.2361h-1.326v-1.2177c0-.8089-.209-1.436-.627-1.86284-.409-.42683-.954-.64504-1.635-.64504-1.1 0-2.054.58168-3.172 1.73548V9.68896h-1.081v3.08054h-1.409c-.518 0-1.036-.0998-1.408-.2905V7.25342h-1.082v5.39778c0 .3909.11.5727.437.7448h.001Zm4.543-1.2907c1.19-1.381 2.081-2.0081 2.999-2.0081.481 0 .826.1542 1.036.4633.218.3091.327.6995.327 1.1634v1.045h-4.362v-.6636ZM173.311 8.52431c.354 0 .645-.29053.645-.654 0-.36348-.292-.654-.645-.654-.373 0-.664.29116-.664.654 0 .36283.291.654.664.654ZM175.083 8.52431c.363 0 .654-.29053.654-.654 0-.36348-.291-.654-.654-.654-.364 0-.645.29116-.645.654 0 .36283.281.654.645.654ZM181.336 12.9417V7.25342h-1.081V12.424c-.319.2182-.764.3359-1.337.3455L177.9 8.41679h-1.072l.999 4.35271h-1.745v1.118h2.79c.99 0 1.917-.4 2.463-.9452l.001-.0006ZM184.25 7.25342h-1.082v6.63338h1.082V7.25342ZM191.357 8.46034c.364 0 .654-.29052.654-.654 0-.36347-.291-.654-.654-.654-.362 0-.645.29053-.645.654 0 .36348.282.654.645.654ZM189.585 8.46034c.354 0 .645-.29052.645-.654 0-.36347-.291-.654-.645-.654-.372 0-.664.29053-.664.654 0 .36348.292.654.664.654ZM196.745 7.77971h-.528c-.391 0-.572-.16382-.572-.40891 0-.1907.136-.34556.345-.34556.11 0 .209.03647.291.10943l.391-.41787c-.173-.17278-.437-.30909-.755-.30909-.508 0-.863.36348-.863.82678 0 .20862.073.39099.209.54522h-.436v.70903h1.917v-.70903h.001ZM199.443 15.2043c0-.3635-.281-.654-.645-.654-.363 0-.663.2816-.663.654s.29.645.663.645c.373 0 .645-.2905.645-.645ZM200.571 14.5503c-.363 0-.646.2816-.646.654s.282.645.646.645c.364 0 .654-.2905.654-.645 0-.3724-.291-.654-.654-.654ZM207.377 8.77897c-.701-.60856-1.618-.91764-2.763-.91764-.363 0-.745.02751-1.136.08191v.99955c.364-.06335.737-.09982 1.109-.09982.8 0 1.464.21821 1.981.64568.519.42682.782 1.12685.782 2.09895v1.1902h-1.482c.336-.3545.5-.7813.5-1.2996 0-1.0994-.863-1.81741-1.936-1.81741-1.072 0-1.917.69941-1.917 1.81741 0 .5177.164.9541.491 1.29h-1.4c-.518 0-1.036-.0998-1.399-.2905V9.34211h-1.082v3.13559c-.391.1907-.854.2905-1.408.2905-.518 0-1.035-.0998-1.399-.2905V9.34211h-1.082v3.13559c-.391.1907-.854.2905-1.408.2905h-1.381V9.75165c-.473-.26364-1.227-.49977-1.99-.49977-1.491 0-2.481.89972-2.481 2.31712 0 1.4175 1.036 2.3172 2.607 2.3172h3.253c.014 0 .027-.0013.042-.0013h.015c.686-.009 1.312-.1709 1.878-.4979.574.327 1.201.4896 1.878.4979h.017c.014 0 .027.0013.041.0013h.018c.014 0 .028-.0013.043-.0013h.014c.686-.009 1.312-.1709 1.878-.4979.574.327 1.202.4896 1.879.4979h.016c.014 0 .027.0013.041.0013h6.834v-2.2449c0-1.2996-.355-2.25376-1.054-2.86233h.001Zm-16.011 3.98923h-.936c-.836 0-1.381-.4364-1.381-1.2356 0-.7993.563-1.2632 1.326-1.2632.373 0 .709.0729.991.2271v2.2717Zm13.066 0c-.609-.0819-.936-.5266-.936-1.1537 0-.5907.4-.9817.936-.9817.537 0 .936.391.936.9817 0 .645-.318 1.0725-.936 1.1537ZM68.4012 22.2966c.6496 0 1.2543.2982 1.6421.7942l.9746-.6137c-.6048-.7942-1.5698-1.2812-2.6256-1.2812-1.7867-.0364-3.3564 1.4981-3.3205 3.2483-.0359 1.7508 1.5338 3.2847 3.3205 3.2482 1.0558 0 2.0215-.487 2.6256-1.2811l-.9746-.6316c-.4064.5055-.9925.8121-1.6421.8121-1.1819 0-2.0931-.9657-2.0931-2.1476 0-1.1819.9112-2.1476 2.0931-2.1476ZM75.4471 23.0005c-1.3988 0-2.4995 1.0194-2.4995 2.3459 0 1.3266 1.1007 2.346 2.4995 2.346 1.3989.0269 2.5443-1.038 2.5175-2.346.0268-1.3086-1.1186-2.3728-2.5175-2.3459Zm0 3.7538c-.803 0-1.4167-.6137-1.4167-1.4079 0-.7941.6137-1.4078 1.4167-1.4078.8031 0 1.4347.6137 1.4347 1.4078 0 .7942-.6136 1.4079-1.4347 1.4079ZM85.8516 23.894c.5772 0 .9292.3698.9292 1.0283v2.68h1.1006v-2.9961c0-1.0373-.6585-1.6062-1.6062-1.6062-.6949 0-1.2811.1984-1.9037.7308-.2528-.478-.7487-.7308-1.3534-.7308-.6048 0-1.2088.2349-1.7502.7039v-.6137h-1.1007v4.5115h1.1007v-3.2214c.4332-.3519.8031-.487 1.2721-.487.5772 0 .9388.3699.9388 1.0284v2.68h1.0917v-2.5898c0-.2252-.0179-.4422-.0634-.6316.3974-.3251.8486-.487 1.3445-.487v.0007ZM96.326 23.0006c-.6949 0-1.2817.1984-1.9037.7308-.2528-.478-.7487-.7308-1.3535-.7308-.6047 0-1.2088.2349-1.7501.704v-.6137H90.218v4.5114h1.1007V24.381c.4332-.352.8031-.487 1.2721-.487.5772 0 .9388.3698.9388 1.0283v2.68h1.0917v-2.5897c0-.2253-.0179-.4422-.0634-.6316.3974-.3251.8486-.487 1.3445-.487.5772 0 .9291.3698.9291 1.0283v2.68h1.1007v-2.9961c0-1.0373-.6591-1.6062-1.6062-1.6062v.0006ZM103.705 26.2319c-.406.3609-.92.5593-1.398.5593-.65 0-1.011-.3699-1.011-1.0194v-2.68h-1.092v2.9955c0 1.0014.623 1.6062 1.642 1.6062.65 0 1.309-.2349 1.859-.6675v.5772h1.101v-4.5114h-1.101v3.1401ZM110.74 24.9223v2.68h1.091v-2.9961c0-1.0015-.622-1.6062-1.642-1.6062-.64 0-1.308.2349-1.859.6585v-.5683h-1.1v4.5115h1.1v-3.1401c.407-.3609.921-.5683 1.399-.5683.65 0 1.011.3789 1.011 1.0284v.0006ZM115.345 23.0918h-1.092v4.5114h1.092v-4.5114ZM114.794 21.3848c-.334 0-.604.2438-.604.5599 0 .3161.271.5593.604.5593.334 0 .596-.2438.596-.5593 0-.2982-.271-.5599-.596-.5599ZM120.073 26.7543c-.767 0-1.372-.6227-1.372-1.4079 0-.7852.605-1.4078 1.372-1.4078.451 0 .812.1536 1.091.4691l.839-.4691c-.46-.5862-1.182-.9381-1.949-.9381-1.299-.0269-2.454 1.0738-2.427 2.3459-.027 1.2722 1.128 2.3735 2.427 2.346.794 0 1.516-.3609 1.985-.9746l-.848-.4691c-.262.3251-.65.5056-1.119.5056h.001ZM126.425 23.0006c-.731 0-1.462.1984-2.084.5868l.352.7667c.478-.3155.974-.478 1.479-.478.713 0 1.083.3154 1.083.9202v.0537h-1.534c-1.083 0-1.76.5324-1.76 1.4078s.65 1.4347 1.688 1.4347c.604 0 1.137-.1983 1.606-.5868v.4966h1.092v-2.9148c0-1.0738-.695-1.6875-1.922-1.6875v.0006Zm.83 3.51c-.397.2528-.821.3788-1.281.3788-.586 0-.929-.2527-.929-.6949s.352-.695.956-.695h1.254V26.5106ZM133.536 26.6011c-.217.1082-.452.1626-.695.1626-.461 0-.786-.2797-.786-.8121v-1.985h1.282v-.8754h-1.282v-1.2543h-1.091v1.2543h-.713v.8754h.713v2.1565c0 1.0015.64 1.5704 1.534 1.5704.396 0 .794-.1082 1.182-.3155l-.145-.7762.001-.0007ZM136.926 23.0918h-1.091v4.5114h1.091v-4.5114ZM136.376 21.3848c-.334 0-.604.2438-.604.5599 0 .3161.27.5593.604.5593.333 0 .596-.2438.596-.5593 0-.2982-.271-.5599-.596-.5599ZM144.225 25.3464c.027-1.3086-1.118-2.3728-2.517-2.3459-1.399 0-2.5 1.0194-2.5 2.3459 0 1.3266 1.101 2.346 2.5 2.346 1.399.0269 2.544-1.038 2.517-2.346Zm-3.934 0c0-.7941.614-1.4078 1.417-1.4078s1.434.6137 1.434 1.4078c0 .7942-.613 1.4079-1.434 1.4079s-1.417-.6137-1.417-1.4079ZM149.945 24.9223v2.68h1.091v-2.9961c0-1.0015-.622-1.6062-1.642-1.6062-.64 0-1.308.2349-1.859.6585v-.5683h-1.1v4.5115h1.1v-3.1401c.407-.3609.921-.5683 1.399-.5683.65 0 1.011.3789 1.011 1.0284v.0006ZM155.559 24.9492l-.506-.135c-.622-.1715-.776-.2707-.776-.5324 0-.3341.244-.4966.74-.4966s1.065.1625 1.507.4243l.37-.7129c-.506-.3155-1.191-.4966-1.85-.4966-1.128 0-1.813.5145-1.813 1.3803 0 .3251.108.5772.325.7673.225.1894.613.3609 1.164.5145l.568.1536c.568.1715.704.2706.704.5324 0 .3698-.271.5593-.821.5593-.587 0-1.227-.1895-1.759-.5139l-.379.695c.577.3884 1.335.6047 2.103.6047 1.191 0 1.886-.5235 1.886-1.4258 0-.677-.407-1.0283-1.462-1.3176l-.001-.0006ZM159.158 28.8831l.857-1.4527c.063-.0992.09-.2073.09-.3065 0-.3155-.28-.5682-.614-.5682-.334 0-.604.2527-.604.5682 0 .2253.126.4153.343.5145l-.407 1.0917.334.1536.001-.0006ZM168.705 23.9211l-.686-.1894c-1.002-.2707-1.182-.4154-1.182-.7488 0-.5144.46-.7672 1.137-.7672.64 0 1.471.2348 2.147.5958l.515-.9388c-.713-.4236-1.661-.6764-2.572-.6764-.74 0-1.344.1625-1.804.478-.461.3155-.695.7756-.695 1.3893.036 1.029.632 1.3988 2.13 1.7777l.713.1804c.902.2259 1.146.352 1.146.7852 0 .5868-.506.8569-1.272.8569-.767 0-1.697-.2528-2.445-.695l-.542.8844c.794.5414 1.85.8389 2.887.8389 1.598 0 2.608-.686 2.608-1.9492-.036-1.0917-.685-1.4347-2.084-1.8225l-.001.0007ZM175.607 23.0005c-.613 0-1.127.2252-1.479.6137v-.5235h-1.101v6.2712h1.101v-2.2922c.352.3885.866.6227 1.479.6227 1.21.0269 2.202-1.0559 2.175-2.346.027-1.29-.966-2.3728-2.175-2.3459Zm.722 3.3564c-.243.2617-.559.3967-.947.3967-.541 0-.992-.2252-1.254-.6137v-1.5882c.262-.3878.713-.6137 1.254-.6137.388 0 .704.1356.947.4063.244.2618.37.5958.37 1.0015 0 .4057-.127.7397-.37 1.0104v.0007ZM182.238 23.0006c-.731 0-1.462.1984-2.084.5868l.352.7667c.478-.3155.974-.478 1.479-.478.713 0 1.083.3154 1.083.9202v.0537h-1.534c-1.083 0-1.76.5324-1.76 1.4078s.65 1.4347 1.688 1.4347c.604 0 1.137-.1983 1.606-.5868v.4966h1.092v-2.9148c0-1.0738-.695-1.6875-1.922-1.6875v.0006Zm.83 3.51c-.397.2528-.821.3788-1.281.3788-.586 0-.929-.2527-.929-.6949s.351-.695.956-.695h1.254V26.5106ZM190.718 26.7178l-.848-.4691c-.262.3251-.65.5056-1.119.5056-.767 0-1.371-.6227-1.371-1.4079 0-.7852.605-1.4078 1.371-1.4078.452 0 .812.1536 1.092.4691l.839-.4691c-.46-.5862-1.182-.9381-1.949-.9381-1.299-.0269-2.454 1.0738-2.427 2.3459-.027 1.2722 1.128 2.3735 2.427 2.346.794 0 1.516-.3609 1.985-.9746ZM196.313 26.3481c-.335.3154-.786.478-1.354.478-.731 0-1.218-.4236-1.335-1.1372h3.645v-.3429c0-1.3445-1.01-2.346-2.373-2.346-1.362 0-2.373 1.0373-2.373 2.337s1.019 2.3549 2.4 2.3549c.759 0 1.462-.2796 1.994-.7762l-.604-.5683v.0007Zm-1.408-2.4996c.37 0 .686.1082.929.3334.244.217.37.4877.37.8217h-2.581c.099-.7218.568-1.1551 1.281-1.1551h.001ZM207.627 24.4979c-.189.4422-.406.8211-.658 1.1551l-1.236-1.3086c1.001-.5049 1.389-.9382 1.389-1.6875 0-.8389-.713-1.4616-1.679-1.4616-1.029 0-1.822.7039-1.822 1.6152 0 .4063.162.7487.559 1.1909l.099.1081c-1.155.5772-1.597 1.1103-1.597 1.8679 0 1.0738.876 1.7144 2.274 1.7144.766 0 1.425-.208 1.976-.6316l.568.6316.776-.6585-.65-.686c.298-.3878.559-.8844.803-1.4891l-.803-.3609.001.0006Zm-2.201-2.4905c.46 0 .767.2617.767.6674s-.18.6406-1.056 1.0469l-.153-.1625c-.225-.2438-.397-.5683-.397-.83 0-.4063.361-.7218.839-.7218Zm-.433 4.7821c-.722 0-1.182-.343-1.182-.9112 0-.4064.262-.704 1.056-1.1103l1.426 1.5793c-.407.2982-.839.4422-1.3.4422ZM65.0712 34.3876h2.0355v5.3248h1.1813v-5.3248h2.0356v-1.036h-5.2524v1.036ZM73.9122 35.0776c-1.372 0-2.3901 1.045-2.3901 2.3537 0 1.3086 1.0271 2.3722 2.4169 2.3722.7635 0 1.4725-.2816 2.0081-.7814l-.6092-.5727c-.3359.318-.7903.4818-1.363.4818-.7359 0-1.2267-.4268-1.3451-1.1448h3.6712v-.3455c0-1.3541-1.0181-2.3626-2.3901-2.3626l.0013-.0007Zm-1.2811 2.0171c.0998-.727.5727-1.1634 1.29-1.1634.3725 0 .6905.1094.9362.3359.2451.2183.3725.4909.3725.8268h-2.5987v.0007ZM80.7535 38.8581c-.7724 0-1.3816-.6271-1.3816-1.4174s.6092-1.4174 1.3816-1.4174c.4543 0 .8178.1549 1.0994.4729l.8453-.4729c-.4633-.5906-1.1902-.9452-1.9626-.9452-1.3086-.0275-2.4714 1.0815-2.4445 2.3626-.0269 1.2811 1.1359 2.3901 2.4445 2.3626.7999 0 1.5268-.3635 1.9991-.9816l-.8543-.4729c-.2636.327-.654.5087-1.1269.5087v.0006ZM87.8969 35.0781c-.6451 0-1.3176.2361-1.8718.6636v-2.3901h-1.109v6.3608h1.109v-3.1625c.4089-.3635.9266-.5727 1.4085-.5727.654 0 1.0174.3814 1.0174 1.036v2.6992h1.0994v-3.0172c0-1.0086-.6271-1.6171-1.6535-1.6171ZM94.8936 35.0776c-.6451 0-1.3176.2362-1.8718.6636v-.5727h-1.109v4.5434h1.109v-3.1624c.4089-.3635.9266-.5728 1.4085-.5728.654 0 1.0174.3814 1.0174 1.0361v2.6991h1.0994v-3.0172c0-1.0085-.6271-1.6171-1.6535-1.6171ZM101.227 35.0782c-1.4087 0-2.5176 1.0264-2.5176 2.3625 0 1.3362 1.1089 2.3626 2.5176 2.3626 1.408.0275 2.563-1.045 2.535-2.3626.027-1.3176-1.127-2.3901-2.535-2.3625Zm0 3.78c-.809 0-1.4272-.6176-1.4272-1.4175 0-.7999.6182-1.4174 1.4272-1.4174s1.445.6182 1.445 1.4174c0 .7993-.618 1.4175-1.445 1.4175ZM107.096 33.3516h-1.109v6.3608h1.109v-6.3608ZM111.848 35.0782c-1.408 0-2.517 1.0264-2.517 2.3625 0 1.3362 1.109 2.3626 2.517 2.3626 1.409.0275 2.563-1.045 2.536-2.3626.026-1.3176-1.127-2.3901-2.536-2.3625Zm0 3.78c-.809 0-1.427-.6176-1.427-1.4175 0-.7999.618-1.4174 1.427-1.4174s1.445.6182 1.445 1.4174c0 .7993-.618 1.4175-1.445 1.4175ZM120.061 35.6957c-.354-.391-.872-.6175-1.49-.6175-1.227-.0276-2.208 1.0539-2.19 2.3536-.027 1.2997.973 2.3811 2.19 2.3536.618 0 1.136-.2272 1.49-.6175v.1996c0 .9177-.563 1.3631-1.408 1.3631-.654 0-1.245-.1638-1.781-.4998l-.354.7724c.645.391 1.408.5906 2.289.5906.7 0 1.272-.1817 1.7-.5541.436-.3725.654-.9273.654-1.6722V35.169h-1.1v.5267Zm0 2.5353c-.263.391-.718.6176-1.263.6176-.391 0-.708-.1363-.954-.4-.245-.2726-.372-.6085-.372-1.0181 0-.7999.563-1.4174 1.326-1.4174.545 0 1 .2271 1.263.6175v1.6004ZM125.651 38.5228l-1.345-3.3532h-1.164l2.018 4.6887-.073.1452c-.281.5177-.545.727-.973.727-.227 0-.472-.0544-.744-.1638l-.318.7634c.445.1638.854.2451 1.208.2451.836 0 1.409-.4454 1.8-1.4174l2.008-4.9889h-1.146l-1.272 3.3532.001.0007ZM136.656 34.3697c.654 0 1.263.3001 1.653.7999l.982-.6181c-.609-.7999-1.581-1.2901-2.644-1.2901-1.8-.0365-3.381 1.5083-3.345 3.2713-.036 1.7629 1.545 3.3077 3.345 3.2712 1.063 0 2.035-.4908 2.644-1.2907l-.982-.6361c-.409.5088-.999.8178-1.653.8178-1.191 0-2.108-.972-2.108-2.1629s.917-2.1629 2.108-2.1629v.0006ZM143.751 35.0782c-1.408 0-2.517 1.0264-2.517 2.3625 0 1.3362 1.109 2.3626 2.517 2.3626 1.409.0275 2.563-1.045 2.536-2.3626.027-1.3176-1.127-2.3901-2.536-2.3625Zm0 3.78c-.808 0-1.427-.6176-1.427-1.4175 0-.7999.619-1.4174 1.427-1.4174.809 0 1.445.6182 1.445 1.4174 0 .7993-.618 1.4175-1.445 1.4175ZM154.655 35.0776c-.7 0-1.291.1997-1.917.7359-.255-.4818-.754-.7359-1.363-.7359s-1.218.2362-1.763.7084v-.6175h-1.109v4.5434h1.109v-3.2444c.436-.3545.809-.4908 1.281-.4908.582 0 .945.3725.945 1.0361v2.6991h1.1v-2.6083c0-.2271-.018-.4454-.064-.6361.4-.327.854-.4908 1.354-.4908.581 0 .936.3725.936 1.0361v2.6991h1.109v-3.0172c0-1.045-.664-1.6171-1.618-1.6171ZM164.777 35.0776c-.7 0-1.29.1997-1.917.7359-.255-.4818-.755-.7359-1.363-.7359-.609 0-1.218.2362-1.763.7084v-.6175h-1.109v4.5434h1.109v-3.2444c.436-.3545.809-.4908 1.281-.4908.582 0 .945.3725.945 1.0361v2.6991h1.1v-2.6083c0-.2271-.018-.4454-.064-.6361.4-.327.854-.4908 1.354-.4908.581 0 .936.3725.936 1.0361v2.6991h1.108v-3.0172c0-1.045-.663-1.6171-1.618-1.6171h.001ZM169.938 35.1694h-1.099v4.5435h1.099v-4.5435ZM169.384 33.4521c-.336 0-.609.2451-.609.5638s.273.5632.609.5632c.336 0 .599-.2451.599-.5632 0-.3001-.272-.5638-.599-.5638ZM174.628 37.0409l-.508-.1363c-.628-.1728-.782-.2726-.782-.5362 0-.336.245-.4998.745-.4998s1.073.1638 1.518.4268l.372-.718c-.508-.318-1.199-.4998-1.862-.4998-1.136 0-1.827.5184-1.827 1.3906 0 .327.109.5817.327.7724.227.1907.618.3634 1.173.5183l.572.1542c.573.1728.709.2726.709.5363 0 .3724-.273.5631-.827.5631-.591 0-1.236-.1907-1.772-.5177l-.382.6994c.582.391 1.345.6093 2.117.6093 1.2 0 1.9-.5273 1.9-1.436 0-.6815-.409-1.0361-1.472-1.3266h-.001ZM180.497 37.0409l-.509-.1363c-.627-.1728-.781-.2726-.781-.5362 0-.336.245-.4998.744-.4998.5 0 1.073.1638 1.518.4268l.373-.718c-.509-.318-1.199-.4998-1.863-.4998-1.136 0-1.826.5184-1.826 1.3906 0 .327.108.5817.327.7724.227.1907.617.3634 1.172.5183l.573.1542c.572.1728.708.2726.708.5363 0 .3724-.272.5631-.827.5631-.59 0-1.235-.1907-1.772-.5177l-.382.6994c.582.391 1.345.6093 2.118.6093 1.199 0 1.899-.5273 1.899-1.436 0-.6815-.409-1.0361-1.472-1.3266ZM184.803 33.4521c-.336 0-.608.2451-.608.5638s.272.5632.608.5632c.336 0 .6-.2451.6-.5632 0-.3001-.273-.5638-.6-.5638ZM185.358 35.1694h-1.099v4.5435h1.099v-4.5435ZM190.175 35.0782c-1.409 0-2.518 1.0264-2.518 2.3625 0 1.3362 1.109 2.3626 2.518 2.3626 1.408.0275 2.563-1.045 2.535-2.3626.027-1.3176-1.127-2.3901-2.535-2.3625Zm0 3.78c-.809 0-1.427-.6176-1.427-1.4175 0-.7999.618-1.4174 1.427-1.4174s1.445.6182 1.445 1.4174c0 .7993-.619 1.4175-1.445 1.4175ZM197.916 35.0776c-.645 0-1.318.2362-1.872.6636v-.5727h-1.109v4.5434h1.109v-3.1624c.409-.3635.926-.5728 1.408-.5728.654 0 1.018.3814 1.018 1.0361v2.6991h1.099v-3.0172c0-1.0085-.627-1.6171-1.653-1.6171ZM55.5834.00146484h-.6399V48.0007h.6399V.00146484ZM20.6659 26.2663c-.581.5811-1.3828.9401-2.2691.9401-1.7726 0-3.2092-1.4366-3.2092-3.2092s1.4366-3.2092 3.2092-3.2092c.8863 0 1.6887.359 2.2691.94l2.2698-2.2698c-1.1615-1.1614-2.7664-1.8801-4.5389-1.8801-3.5452 0-6.419 2.8739-6.419 6.4191 0 3.5451 2.8738 6.419 6.419 6.419 1.7725 0 3.3774-.7186 4.5389-1.8801l-2.2698-2.2698ZM45.4537 17.6328h-9.3044v3.2092h4.8883l-1.8404 1.0527v8.5026h3.2092V20.842h3.0473v-3.2092ZM3.34464 16.1859l-.21821-.1005c-.04991.1012-.09919.2029-.14718.3047l.19965.1017c.05439-.103.10943-.2048.1651-.3065l.00064.0006ZM3.2498 13.2449l-.33212-.2156c-.05055.0749-.10046.1491-.14974.2246l.31356.2125c.0544-.0749.11199-.1472.16766-.2208l.00064-.0007ZM3.18695 14.7683l-.20029-.1101c-.04928.0851-.09919.1702-.14718.256l.18301.1081c.05376-.0851.10879-.1696.16446-.254ZM3.94375 15.1852l-.25597-.1408c-.05375.0915-.1075.1837-.15934.2765l.24125.142c.05759-.0927.11455-.1862.17406-.2777ZM3.56271 17.6132l-.13502-.0512c-.03776.0979-.07615.1952-.11263.2944l.11263.0492c.04415-.0979.08895-.1958.13502-.2924ZM3.53394 13.7726l.23804.1613c.05888-.0781.11903-.1549.17918-.2317l-.25405-.1651c-.05439.0787-.11006.1561-.16317.2355ZM2.18087 14.2148c-.04416.0775-.08831.1562-.13119.2343l.26813.158c.04863-.0787.09918-.1568.1491-.2348l-.2854-.1568-.00064-.0007ZM4.11389 12.1847l-.37307-.2848c-.07487.0947-.1491.1901-.22141.2867l.35579.2758c.03968-.0467.07679-.0954.11711-.1414.03967-.0461.08191-.0903.12222-.1357l-.00064-.0006ZM2.775 17.3161l-.16574-.0627c-.03328.0838-.06591.1677-.09791.2528l.14782.0646c.03776-.0857.07679-.1696.11583-.2547ZM6.06218 10.2834l-.43323-.4499c-.13374.1267-.26748.2521-.39738.3827l.4185.4223c.13566-.1203.27261-.2393.41147-.3558l.00064.0007ZM5.21246 13.4986c.08255-.0953.16702-.1901.25149-.2835l-.32252-.2463c-.07935.0966-.15934.1926-.23677.2911l.30716.2381.00064.0006ZM5.38233 12.0927c.10751-.1062.21693-.2099.32764-.3129l-.3462-.3091c-.10366.1101-.20349.2227-.30396.3353l.32316.2861-.00064.0006ZM4.88696 14.6881l.30844.2086c.06463-.087.1299-.1727.19582-.2585l-.32892-.2144c-.05887.0871-.11774.1747-.17534.2637v.0006ZM4.66663 14.1673l-.29308-.1907c-.05759.0825-.11646.1644-.17213.2476l.279.1888c.06143-.0826.12414-.1645.18685-.2457h-.00064ZM4.49142 12.4722c-.04224.0518-.08575.1024-.12734.1548-.0352.0442-.0672.0903-.10175.1351l.2822.2188c.08191-.0941.16574-.1856.24957-.2771l-.30268-.231v-.0006ZM2.54954 15.8211l-.14974-.0691c-.04479.0915-.08639.1849-.1299.2777l.12926.0659c.04863-.0922.09983-.183.15038-.2745ZM4.3446 11.1752l.38779.343c.10559-.1088.21117-.2182.31932-.3238l-.40699-.3629c-.10238.1127-.20029.2291-.30012.3437ZM4.69902 15.6009l-.27516-.1517c-.05631.0992-.11071.201-.16446.3021l.24765.1459c.06335-.0992.12734-.1984.19261-.2963h-.00064ZM4.12045 16.5426l-.21245-.0973c-.05311.112-.10623.2246-.15678.3385l.18366.0935c.06079-.112.12222-.224.18557-.3347ZM7.42952 11.7031c-.12798.1152-.2534.2323-.37691.3513l.36091.3642c.12223-.1178.24573-.2336.3718-.3469l-.3558-.3686ZM7.8836 10.355c-.16126.1203-.31996.2438-.47674.3705l.83061.9548c.14654-.1229.295-.2426.44602-.3603l-.79989-.9644v-.0006ZM1.95278 17.0046l-.09023-.0339c-.02816.0717-.05439.1433-.08191.2157l.07551.0332c.03136-.0716.06399-.1433.09663-.2143v-.0007ZM7.79763 8.0542c-.2035.1427-.40315.28988-.60024.44027l.46074.60344c.20029-.13182.40378-.25981.60984-.38395l-.47034-.65976ZM6.5684 12.5449c-.10239.1088-.20286.2189-.30204.3302l.37755.3341c.01152-.0116.02239-.0231.03327-.0346.08895-.0979.17982-.1945.27133-.2905l-.38075-.3392h.00064ZM8.98008 7.29102c-.24125.14398-.47866.29308-.71287.44794L10.034 10.3748c.2003-.1254.4038-.2457.6099-.3622L8.98072 7.29102h-.00064ZM18.4945 4.75732c-2.8291 0-5.5142.61369-7.9311 1.71307l1.4583 2.85021c1.9793-.87733 4.1691-1.36623 6.4734-1.36623 1.9447 0 3.8088.34748 5.5327.98356l1.1064-3.00059c-2.0688-.76343-4.3053-1.18002-6.6391-1.18002h-.0006ZM10.2218 6.62891c-.28348.13566-.56248.27772-.83764.42682l1.61894 2.76062c.2298-.12222.4627-.23869.6988-.34939l-1.4801-2.83741v-.00064ZM8.40858 8.9082c-.19773.13119-.39226.26557-.58424.40443l1.28751 1.68427c.17278-.1254.34811-.2464.52601-.3647l-1.22928-1.724ZM1.12278 16.898c.0256-.0595.04991-.1197.07615-.1785l-.18878-.0711c-.022392.057-.044149.1146-.066546.1715l.178536.0781h.00064ZM5.98376 12.0254c-.1043.1075-.20797.2163-.30908.327l.3334.2956c.10622-.1056.21437-.2099.3238-.3116l-.34812-.3104v-.0006ZM5.53995 13.7547l.35003.2713c.08383-.0972.1683-.1939.25405-.2892l-.36987-.2822c-.07935.0992-.15806.199-.23485.3001h.00064ZM1.45447 15.6149l.22461.1145c.04351-.0825.08511-.1663.12926-.2482l-.23869-.1101c-.03903.0806-.07743.1625-.11518.2438ZM7.32676 9.68359c-.16446.12799-.327.25789-.4857.39101l.39035.4486c.1651-.1197.33212-.2368.5017-.3501l-.40635-.48951ZM6.31021 10.5391c-.13247.1209-.26237.2438-.39163.3692l.36027.3635c.13566-.1152.27324-.2272.41211-.3373l-.38139-.3954h.00064ZM7.26788 11.5337l-.36731-.3814c-.13182.1159-.26172.2336-.38971.3539l.35452.3577c.13246-.112.26684-.222.40314-.3302h-.00064ZM7.13628 9.4553l-.45562-.54905c-.16702.13694-.33148.27645-.49401.41851l.43962.50554c.16702-.12863.33787-.25277.50937-.375h.00064ZM29.8099 39.2991l-.3155-.4173c-.126.0871-.2508.1754-.3788.2592l.3283.4364c.1235-.0915.2457-.1843.3666-.2783h-.0006ZM29.2278 38.5287l-.2611-.3456c-.1273.0838-.2553.1657-.3845.2464l.2802.373c.1235-.0883.2445-.1817.3661-.2738h-.0007ZM29.9693 35.7206l-.2733-.2777c-.0793.0716-.1619.1395-.2425.2099l.2956.2898c.0743-.0729.1479-.1465.2208-.2214l-.0006-.0006ZM28.3571 38.1301c.1242-.0864.2477-.1741.3699-.2643l-.2668-.3526c-.1261.0838-.2535.1651-.3821.2451l.279.3718ZM28.7422 40.0716l-.3277-.4979c-.1587.0935-.3193.1843-.4805.2726l.3391.5305c.1581-.0998.3149-.2009.4697-.3052h-.0006ZM30.8203 38.4566l-.2943-.3404c-.0589.0467-.1159.096-.1747.1421-.0371.0288-.0755.0556-.1127.0844l.3078.3507c.0916-.0787.1843-.1561.2746-.2361l-.0007-.0007ZM30.0429 37.8791c.0537-.0461.1049-.0941.158-.1402l-.2335-.2706c-.0986.0761-.1978.1503-.2976.2239l.2515.2867c.0403-.0339.0819-.0659.1222-.0998h-.0006ZM30.7948 34.8007l-.2342-.2099c-.0794.0838-.1574.1683-.2387.2502l.2566.217c.073-.0845.1446-.1709.2163-.2573ZM30.5426 36.3049l-.2285-.2317c-.0755.0679-.1516.1344-.2278.201l.2425.238c.0717-.0684.1434-.1376.2131-.2073h.0007ZM31.1145 36.8861l-.2023-.2054c-.0716.064-.1439.1273-.2169.1907l.2157.2118c.0672-.0659.1369-.1299.2028-.1965l.0007-.0006ZM28.5347 36.399l.3168.3609c.0972-.0819.1938-.1638.2886-.2482l-.3027-.3501c-.1005.0794-.2003.1606-.3033.2374h.0006ZM27.1231 39.8995l-.2969-.5216c-.1888.0871-.3795.1709-.5714.2509l.3046.5657c.1894-.0954.3775-.1933.5637-.2957v.0007ZM25.4235 40.9723l.334.7468c.2329-.1024.4633-.2099.6911-.3219l-.3353-.6872c-.2285.0927-.4582.1798-.6898.2623ZM22.9206 39.3428c-.2573.0768-.5171.1484-.7801.2124l.9004 3.103c.3142-.0793.6258-.1657.9336-.2598l-1.0539-3.0556ZM27.7349 38.5419l-.277-.4198c-.1543.0857-.3104.1683-.4672.2483l.2861.4479c.1542-.0896.3065-.1817.4575-.2764h.0006ZM29.665 37.1188l-.2502-.2892c-.0998.0774-.2009.1536-.302.2284l.2643.3014c.0966-.0793.1926-.1593.2879-.2406ZM28.2042 39.2526l-.2841-.4313c-.1574.0877-.3161.1728-.4767.2553l.2975.4659c.1555-.0941.3097-.1907.4627-.2905l.0006.0006ZM27.6216 40.7731l-.3353-.588c-.1933.0953-.3878.1862-.5843.2745l.3411.6335c.1945-.1037.3871-.2099.5778-.32h.0007ZM26.8639 38.1715c.1504-.089.2988-.1805.446-.2752l-.2899-.4402c-.1446.0927-.2911.1836-.4389.2726l.2828.4428ZM33.9922 34.4468l.1708.1069c.0301-.0467.0583-.0953.0884-.1421l-.1594-.1113c-.0339.0486-.0659.0985-.0998.1465ZM33.3599 35.6952c.0519-.0685.1044-.1369.1549-.2061l-.1971-.1561c-.0563.0698-.1113.1402-.1683.2093l.2105.1529ZM27.8887 37.5052c.1229-.087.2438-.1766.3641-.2674l-.3129-.4141c-.0288.0199-.0569.0416-.0857.0608-.0922.0679-.1875.1325-.281.1984l.3168.4217-.0013.0006ZM33.4978 33.8854l-.0678-.048c-.0416.0595-.0845.119-.1274.1779l.0819.0512c.0384-.0602.0755-.121.1133-.1817v.0006ZM26.142 39.4182c.1856-.0883.3693-.1804.5504-.2764l-.6342-1.1135c-.1708.0941-.343.185-.5177.2726l.6015 1.1167v.0006ZM31.418 35.3584l-.1958-.1753c-.0729.0774-.1459.1555-.2201.2317l.2118.1785c.0691-.0774.1369-.1561.2048-.2349h-.0007ZM24.4238 42.2488c.272-.0966.542-.199.8095-.3078l-1.2254-2.9635c-.2279.0858-.4582.1658-.6905.2419l1.1064 3.0294ZM25.3259 40.7528c.2246-.0915.448-.1875.6687-.2886l-.9413-1.9281c-.1983.0915-.3993.1792-.6021.263l.8747 1.9537ZM21.7977 39.6334c-1.1269.2489-2.2967.3833-3.4984.3833-3.103 0-6.0011-.8754-8.46097-2.3927l-1.69258 2.7498c2.95255 1.8205 6.42985 2.8713 10.15355 2.8713 1.5051 0 2.9692-.1734 4.3751-.4979l-.8767-3.1138ZM32.0216 35.8989l-.1587-.1421c-.0679.0711-.1357.1421-.2048.2118l.174.1472c.0634-.0723.1274-.1433.1895-.2163v-.0006ZM31.9658 34.6796c.0666-.0864.1319-.1734.1965-.2617l-.1587-.1254c-.071.087-.1427.1728-.215.2579l.1772.1286v.0006ZM31.7656 37.5478l-.263-.2675c-.0666.0614-.1363.1203-.2041.1811l.2809.2751c.0627-.0627.1248-.1254.1862-.1887ZM31.4979 33.8925l-.1817-.144c-.0794.0954-.1625.1875-.2438.281l.2118.1542c.0723-.096.1433-.1933.2137-.2912ZM32.8381 33.4234l-.1126-.0787c-.0506.0717-.1024.1421-.1536.2125l.1299.0813c.0461-.0717.0922-.1427.1369-.2151h-.0006ZM32.2897 36.5013l.2495.2106c.057-.0659.112-.1331.1677-.1991l-.2304-.2066c-.0614.0659-.1241.1305-.1868.1951ZM32.6178 35.1553c.0595-.0781.1165-.1581.1747-.2374l-.1139-.0903c-.0633.0781-.128.1549-.1932.2311l.1324.0966ZM32.008 32.8428c-.0595.0832-.1165.1683-.1779.2502l.1452.0908c.0538-.0838.1069-.1676.1594-.2521l-.1267-.0883v-.0006ZM11.915 31.2856c-.1107-.0883-.2195-.1791-.3264-.2719l-.3225.3219c.1018.1081.2067.2124.3129.3142l.336-.3642ZM10.9237 30.3765l-.2745.2271c.0915.121.1855.2381.2822.3533l.3039-.2669c-.1062-.1017-.2099-.2067-.3116-.3135ZM12.187 32.5363c-.13-.0781-.2579-.1607-.384-.2458l-.2912.3533c.1229.1024.247.2022.3744.2982l.3008-.4064v.0007ZM9.83781 30.4868c-.08511-.1043-.16958-.2105-.25149-.3193l-.13246.0909c.07231.1164.14654.231.22269.3436l.16126-.1152ZM11.3156 31.935c-.121-.0947-.2406-.1913-.3571-.2924l-.2483.2476c.1094.1152.2208.2285.3353.3373l.2701-.2925ZM10.3403 31.4745l.224-.1971c-.1114-.1081-.2208-.2189-.327-.334l-.1952.1612c.0966.1261.1965.2489.2982.3693v.0006ZM23.5787 32.2637c-1.5448.9791-3.3858 1.5281-5.351 1.4827-.5926-.0141-1.1704-.0819-1.731-.1984l-.6898 3.1215c.7589.1594 1.5428.2547 2.3466.2733 2.6204.0608 5.0758-.6713 7.135-1.9767l-1.7098-2.7024ZM8.26834 31.0737l-.18814.1293c.07871.1222.15998.2432.24253.3635l.20733-.1479c-.08895-.1132-.17662-.2278-.26172-.3449ZM15.5758 33.3086l-.9515 3.03c.2156.0742.4332.1434.652.2061.0794.0205.1587.0409.2387.0595l.7142-3.1158c-.2208-.0525-.439-.112-.6534-.1798ZM8.99178 31.9752l-.22908.1895c.1075.1369.21757.2719.33083.4044l.24829-.2182c-.11967-.1229-.23613-.2483-.35004-.3763v.0006ZM12.0118 32.0378c.112.0934.2266.1843.3437.272l.3417-.4614c-.1146-.0742-.2278-.1504-.3398-.2297l-.3449.4185-.0007.0006ZM12.8096 33.5539l.3103-.5305c-.158-.071-.3129-.1472-.4652-.2265l-.3129.4665c.1529.1017.3091.1984.4684.2905h-.0006ZM9.18455 30.9532c-.08767-.1088-.17342-.2195-.25661-.3321l-.12862.0889c.07551.1191.15358.2362.23357.352l.15166-.1081v-.0007ZM10.5594 29.9714c-.0845-.0998-.1677-.2009-.2483-.3039l-.2022.1388c.0691.114.1401.2253.2124.3347l.2374-.1696h.0007ZM13.3567 35.0427c-.2169-.0864-.4319-.1792-.6431-.279l-.3039.5663c.2156.1241.4338.2445.6572.3558l.2898-.6438v.0007ZM14.5211 35.4351c-.2508-.0698-.4997-.1459-.7448-.233l-.2861.6848c.2541.1158.5113.2246.7731.3238l.2585-.7756h-.0007ZM13.7341 34.2067c-.2048-.0698-.4045-.1453-.599-.2272l-.2873.5356c.199.1101.4018.2131.6079.3104l.279-.6188h-.0006ZM15.2636 33.2046c-.1901-.0666-.3776-.1382-.5612-.2163l-.8447 2.0189c.2342.0999.4729.1901.7148.2733l.6911-2.0759ZM12.7809 32.6076c.1395.0915.2815.1798.4274.2637l.2912-.4973c-.1331-.0806-.2643-.1644-.3935-.2514l-.3251.485ZM9.95668 31.8115c-.11583-.1151-.22909-.2335-.33916-.3545l-.18429.1523c.10238.1306.20733.2586.31548.3846l.20797-.183v.0006ZM13.2379 33.7878c.185.0947.3737.183.5657.2655l.551-1.2222c-.1607-.0762-.3181-.1568-.4736-.2413l-.6431 1.198ZM11.186 33.8897c-.0723-.0486-.1452-.096-.2163-.1459-.0767-.0544-.1503-.1113-.2252-.1676l-.2956.3583c.1427.1235.2886.2438.437.3609l.3001-.4057ZM10.7607 32.5374c-.1286-.1037-.2534-.2112-.3769-.3206l-.2278.2272c.1171.1222.2368.2419.3596.359l.2445-.2656h.0006ZM12.6825 33.7742c-.1696-.0825-.3379-.1702-.5043-.2649l-.2796.4172c.1651.1139.3321.224.5023.3289l.2816-.4812ZM10.1979 33.1471c-.135-.1133-.26682-.2297-.39672-.3488l-.26493.265c.12479.1318.25213.2604.38267.3871l.27898-.3027v-.0006ZM12.2399 34.5269c-.1823-.0966-.3621-.2003-.54-.3072l-.3072.4582c.1785.1267.3596.2496.5446.3673l.3033-.5183h-.0007ZM11.4186 33.5747l.2706-.3654c-.1363-.0889-.2738-.183-.4108-.2816l-.2636.32c.0672.0569.1331.1145.2015.1702.0666.0538.1357.1043.2029.1568h-.0006ZM16.8033 13.4597l-.0326-.2566c-.169.0173-.3379.0391-.5056.0653l.048.3033c.1626-.0416.3264-.0787.4908-.1113l-.0006-.0007ZM16.915 14.3357l-.0448-.3494c-.1612.016-.3225.0359-.4831.0602l.0621.3948c.1542-.039.309-.0742.4658-.1062v.0006ZM10.2152 14.0617l.5183.6341c.1843-.1676.3744-.3282.5683-.4831l-.4332-.6194c-.2227.1484-.4397.3058-.6534.4677v.0007ZM12.6554 14.3279l-.3046-.5388c-.1919.1081-.3801.2227-.5656.3417l.3737.5663c.1619-.128.327-.2515.4965-.3692ZM16.0039 11.6187l.0531.3347c.1786-.039.3584-.0742.5395-.1049l-.0384-.3002c-.185.0192-.3699.0429-.5536.0704h-.0006ZM13.2048 12.9782l-.2278-.5158c-.199.0838-.3955.1734-.5906.2675l.2815.5446c.176-.1031.3545-.2023.5363-.2963h.0006ZM12.2168 13.5512l-.3238-.5727c-.213.1146-.4217.2368-.6284.3635l.3936.5964c.1824-.1344.3679-.2643.558-.3872h.0006ZM17.2985 11.4947l.0141.2573c.1612-.0173.3238-.0314.4863-.0416l-.009-.2285c-.1638.0007-.3276.0058-.492.0128h.0006ZM17.83 12.5098l-.0064-.1568c-.1594 0-.3187.0039-.4774.0109l.0109.1901c.1568-.0186.3148-.0327.4729-.0442ZM9.91125 14.297c-.1491.1203-.29564.2451-.43962.3725-.07424.0697-.14783.1395-.22078.2105l2.25125 2.2685c.1504-.1465.3046-.288.4639-.4249l-2.05539-2.4272.00064.0006ZM17.8948 14.1888l-.0096-.2444c-.1504-.0026-.3007 0-.4511.0051l.0166.2937c.1478-.0211.2957-.0397.4448-.0544h-.0007ZM16.6995 12.6546l-.0314-.2425c-.1766.0186-.3532.0416-.5286.0685l.0442.2809c.1708-.0403.3423-.0755.5151-.1069h.0007ZM17.862 13.3086l-.0064-.16c-.1549-.0007-.3097.0006-.4646.007l.0115.2042c.1529-.0205.3059-.0384.4595-.0512ZM15.4345 12.1082l-.0845-.3763c-.1836.0371-.3666.0787-.5484.1248l.1095.4096c.1734-.057.3474-.1095.5234-.1581ZM15.7935 13.718l-.0781-.3493c-.1606.0345-.3206.0735-.4799.1164l.1036.3878c.1498-.0557.3014-.1069.4544-.1549ZM15.9864 14.5712l-.0972-.4345c-.1504.0314-.3002.0666-.4493.105l.1261.4697c.1389-.0499.279-.0967.4211-.1402h-.0007ZM12.7614 14.5156c-.1728.1018-.3424.2099-.5101.3219l.7391 1.1192c.1427-.0921.288-.1798.4358-.2649l-.6648-1.1762ZM13.554 13.7718l-.2118-.4793c-.1811.0793-.359.1644-.5349.2527l.2636.5094c.1581-.0992.3193-.1932.4831-.2828ZM13.9874 14.7554c-.1497.0678-.2982.1395-.4435.2156l.2656.5132c.1357-.0697.272-.1375.4115-.2009l-.233-.5273-.0006-.0006ZM9.04058 15.0898c-2.24482 2.3044-3.62896 5.4502-3.62896 8.9205h3.19702c0-2.5923 1.02962-4.9433 2.70106-6.6692l-2.26848-2.2513h-.00064ZM11.4169 14.377c-.199.1395-.3948.2847-.5855.4377L12.22 16.513c.1479-.1177.2989-.2316.4531-.3404l-1.2562-1.7956ZM14.1316 12.5492c.0416-.0173.0845-.032.1261-.0486l-.1491-.4537c-.1817.0563-.3616.1177-.5407.183l.1868.4825c.1248-.0563.2496-.112.3769-.1638v.0006ZM13.8978 14.5493l-.2234-.5049c-.1644.0749-.3263.1536-.4863.2368l.2765.5337c.1414-.0928.286-.1811.4332-.2662v.0006ZM14.5218 13.303l-.1331-.4051c-.0377.0122-.0761.0231-.1139.0352-.128.0429-.2547.0903-.3814.1376l.1696.4377c.151-.0723.304-.1407.4582-.206l.0006.0006ZM15.0506 14.9119l-.1664-.5061c-.1401.046-.279.094-.4165.1471l.2054.5305c.1241-.0595.2502-.1171.3769-.1715h.0006ZM14.7832 14.1l-.1433-.4364c-.153.0512-.304.1056-.4537.1638l.1811.4678c.1363-.0685.2758-.1331.4159-.1952ZM15.6138 12.9125l-.0723-.3212c-.1715.0358-.3424.0762-.5126.1203l.096.3596c.1619-.0569.3245-.11.4883-.1587h.0006ZM30.2283 22.6725c-1.2606-.2873-2.3497-.5356-2.3497-1.2216 0-.9355 1.2344-1.0757 1.9696-1.0757.7839 0 1.5832.1741 2.376.5171l.0634.0275 2.0522-2.0516-.2259-.1472c-1.0955-.6911-2.6441-1.0872-4.2471-1.0872-3.1906 0-5.2518 1.5518-5.2518 3.9521 0 2.7837 2.4995 3.3647 4.5152 3.8338 1.2619.2931 2.3524.5459 2.3524 1.2453 0 .8626-1.2549.9912-2.003.9912-1.0533 0-2.193-.2911-3.1272-.798l-.0666-.0358-1.9984 1.9985.1983.1548c1.1141.8646 3.0671 1.4232 4.9754 1.4232 3.9009 0 5.285-2.1194 5.285-3.9342 0-2.7555-2.502-3.3289-4.5178-3.7909v-.0013Z"/></g><defs><clipPath id="a"><path fill="#fff" transform="translate(.947021 .00048828)" d="M0 0h207.486v47.9992H0z"/></clipPath></defs></svg>