<svg width="208" height="49" viewBox="0 0 208 49" fill="none" xmlns="http://www.w3.org/2000/svg">
<g clip-path="url(#clip0_4128_11143)">
<path d="M67.245 13.9991H70.4977C70.5118 13.9991 70.5252 13.9979 70.5393 13.9979C70.5444 13.9979 70.5508 13.9979 70.5553 13.9979C71.2413 13.9889 71.8678 13.827 72.4335 13.5C73.0075 13.827 73.634 13.9895 74.3116 13.9979C74.3161 13.9979 74.3225 13.9979 74.3276 13.9979C74.3417 13.9979 74.3545 13.9991 74.3686 13.9991H74.3865C74.4012 13.9991 74.4159 13.9979 74.4306 13.9979C74.4345 13.9979 74.4396 13.9979 74.4434 13.9979C75.1294 13.9895 75.7559 13.827 76.3222 13.5C76.9129 13.836 77.5579 13.9998 78.258 13.9998H84.773C85.4813 13.9998 86.127 13.836 86.7081 13.5C87.2827 13.827 87.9085 13.9895 88.5862 13.9979C88.5913 13.9979 88.5984 13.9979 88.6041 13.9979C88.6176 13.9979 88.6304 13.9991 88.6438 13.9991H88.6617C88.6617 13.9991 88.6675 13.9991 88.6707 13.9991C88.702 13.9991 88.7276 13.9972 88.7468 13.9953C89.7061 13.9729 90.6135 13.5838 91.1427 13.0546V7.36572H90.0612V12.5907C89.6977 12.7814 89.1621 12.8812 88.6528 12.8812C88.1434 12.8812 87.6167 12.7814 87.2539 12.5907V9.45506H86.1725V12.5907C85.7815 12.7814 85.3182 12.8812 84.764 12.8812H82.9012C83.5098 12.3993 83.8188 11.7908 83.8188 11.0728C83.8188 9.82814 82.8737 8.99176 81.5196 8.99176C80.1656 8.99176 79.2115 9.8275 79.2115 11.0728C79.2115 11.7908 79.5205 12.3993 80.1291 12.8812H78.2663C77.7486 12.8812 77.2303 12.7814 76.8674 12.5907V9.45506H75.786V12.5907C75.395 12.7814 74.9317 12.8812 74.3775 12.8812C73.8592 12.8812 73.3415 12.7814 72.978 12.5907V9.45506H71.8966V12.5907C71.5056 12.7814 71.0423 12.8812 70.4881 12.8812H69.1072V9.86461C68.6349 9.60097 67.8805 9.36484 67.1171 9.36484C65.6267 9.36484 64.6361 10.2646 64.6361 11.682C64.6361 13.0994 65.6721 13.9991 67.2438 13.9991H67.245ZM81.5203 10.0278C82.2382 10.0278 82.738 10.4911 82.738 11.2091C82.738 11.5636 82.6107 11.8816 82.3656 12.1453C82.1205 12.4089 81.8383 12.5996 81.5203 12.7359C81.1933 12.6086 80.9027 12.4089 80.657 12.1453C80.4119 11.8816 80.2936 11.5636 80.2936 11.2091C80.2936 10.5097 80.8023 10.0278 81.5203 10.0278ZM67.0364 10.3823C67.4089 10.3823 67.7455 10.4553 68.027 10.6095V12.8812H67.0908C66.2551 12.8812 65.7092 12.4448 65.7092 11.6455C65.7092 10.8463 66.273 10.3823 67.0358 10.3823H67.0364Z" fill="#9CA3AF"/>
<path d="M66.246 8.57265C66.6005 8.57265 66.891 8.28212 66.891 7.91865C66.891 7.55517 66.6005 7.26465 66.246 7.26465C65.8736 7.26465 65.5824 7.55517 65.5824 7.91865C65.5824 8.28212 65.8729 8.57265 66.246 8.57265Z" fill="#9CA3AF"/>
<path d="M68.019 8.57265C68.3824 8.57265 68.673 8.28212 68.673 7.91865C68.673 7.55517 68.3818 7.26465 68.019 7.26465C67.6561 7.26465 67.3733 7.55517 67.3733 7.91865C67.3733 8.28212 67.6549 8.57265 68.019 8.57265Z" fill="#9CA3AF"/>
<path d="M72.6981 15.3166C72.6981 15.6711 72.9797 15.9616 73.3432 15.9616C73.7066 15.9616 73.9978 15.6711 73.9978 15.3166C73.9978 14.9442 73.7066 14.6626 73.3432 14.6626C72.9797 14.6626 72.6981 14.9442 72.6981 15.3166Z" fill="#9CA3AF"/>
<path d="M71.5695 15.9616C71.924 15.9616 72.2145 15.6711 72.2145 15.3166C72.2145 14.9621 71.9329 14.6626 71.5695 14.6626C71.206 14.6626 70.9059 14.9442 70.9059 15.3166C70.9059 15.689 71.1964 15.9616 71.5695 15.9616Z" fill="#9CA3AF"/>
<path d="M76.3424 8.63645C76.7059 8.63645 76.9964 8.34592 76.9964 7.98245C76.9964 7.61897 76.7059 7.31885 76.3424 7.31885C75.979 7.31885 75.6788 7.61001 75.6788 7.98245C75.6788 8.35488 75.9694 8.63645 76.3424 8.63645Z" fill="#9CA3AF"/>
<path d="M80.6293 8.2017C80.9838 8.2017 81.275 7.91054 81.275 7.54707C81.275 7.18359 80.9838 6.89307 80.6293 6.89307C80.2569 6.89307 79.9657 7.18423 79.9657 7.54707C79.9657 7.9099 80.2569 8.2017 80.6293 8.2017Z" fill="#9CA3AF"/>
<path d="M82.4027 8.2017C82.7662 8.2017 83.0567 7.91054 83.0567 7.54707C83.0567 7.18359 82.7662 6.89307 82.4027 6.89307C82.0393 6.89307 81.7577 7.18423 81.7577 7.54707C81.7577 7.9099 82.0393 8.2017 82.4027 8.2017Z" fill="#9CA3AF"/>
<path d="M85.8449 8.63661C86.1994 8.63661 86.4899 8.34609 86.4899 7.98261C86.4899 7.61914 86.1994 7.32861 85.8449 7.32861C85.4724 7.32861 85.1813 7.61978 85.1813 7.98261C85.1813 8.34545 85.4724 8.63661 85.8449 8.63661Z" fill="#9CA3AF"/>
<path d="M87.6176 8.63661C87.981 8.63661 88.2722 8.34609 88.2722 7.98261C88.2722 7.61914 87.981 7.32861 87.6176 7.32861C87.2541 7.32861 86.9725 7.61978 86.9725 7.98261C86.9725 8.34545 87.2541 8.63661 87.6176 8.63661Z" fill="#9CA3AF"/>
<path d="M94.0613 7.36572H92.9799V13.9991H94.0613V7.36572Z" fill="#9CA3AF"/>
<path d="M98.1313 13.9985H98.9216C98.8583 14.8982 98.3943 15.325 97.3493 15.325C96.8131 15.325 96.2404 15.2066 95.8859 15.0703L95.6952 16.0968C96.177 16.2695 96.7766 16.3604 97.3129 16.3604C98.976 16.3604 100.002 15.5336 100.002 13.6798V10.0354C99.3388 9.69946 98.6663 9.53564 98.0033 9.53564C96.4861 9.53564 95.5134 10.4443 95.5134 11.7805C95.5134 13.1166 96.4861 13.9978 98.1307 13.9978L98.1313 13.9985ZM97.9406 10.5454C98.2766 10.5454 98.6042 10.6184 98.9223 10.7726V12.8805H97.9592C97.1503 12.8805 96.5872 12.4537 96.5872 11.7171C96.5872 10.9806 97.151 10.5448 97.9413 10.5448L97.9406 10.5454Z" fill="#9CA3AF"/>
<path d="M107.545 12.8798H106.227C105.618 12.8164 105.237 12.5253 105.237 11.9077C105.237 11.3536 105.555 11.0355 106.054 11.0355C106.299 11.0355 106.518 11.1174 106.69 11.2723L107.417 10.5908C107.081 10.2727 106.554 10.0635 106 10.0635C104.973 10.0635 104.264 10.7994 104.264 11.781C104.264 12.2175 104.391 12.5809 104.655 12.8804H103.774V13.9984H107.545V12.8804V12.8798Z" fill="#9CA3AF"/>
<path d="M109.579 13.5083C110.084 13.7918 110.789 13.9876 111.565 13.9972C111.573 13.9972 111.583 13.9972 111.591 13.9979C111.602 13.9979 111.612 13.9991 111.623 13.9991H127.388C128.379 13.9991 129.324 13.5992 129.869 13.054V7.36572H128.788V12.5907C128.424 12.7814 127.888 12.8812 127.379 12.8812H125.516C126.125 12.3993 126.434 11.7908 126.434 11.0728C126.434 9.82814 125.489 8.99176 124.135 8.99176C122.781 8.99176 121.827 9.8275 121.827 11.0728C121.827 11.7908 122.136 12.3993 122.744 12.8812H119.555V11.6634C119.555 10.8546 119.346 10.2274 118.928 9.80062C118.519 9.37379 117.974 9.15558 117.293 9.15558C116.193 9.15558 115.239 9.73727 114.121 10.891V9.80062H113.04V12.8812H111.631C111.113 12.8812 110.595 12.7814 110.223 12.5907V7.36572H109.141V12.7635C109.141 13.1544 109.251 13.3362 109.578 13.5083H109.579ZM124.136 10.0278C124.854 10.0278 125.354 10.4911 125.354 11.2091C125.354 11.5636 125.226 11.8816 124.981 12.1453C124.736 12.4089 124.454 12.5996 124.136 12.7359C123.809 12.6086 123.518 12.4089 123.273 12.1453C123.028 11.8816 122.909 11.5636 122.909 11.2091C122.909 10.5097 123.418 10.0278 124.136 10.0278ZM114.123 12.2176C115.313 10.8367 116.204 10.2095 117.121 10.2095C117.603 10.2095 117.948 10.3638 118.157 10.6728C118.375 10.9819 118.485 11.3723 118.485 11.8362V12.8812H114.123V12.2176Z" fill="#9CA3AF"/>
<path d="M115.177 8.33615C115.541 8.33615 115.831 8.04499 115.831 7.68215C115.831 7.31932 115.541 7.01855 115.177 7.01855C114.814 7.01855 114.514 7.30908 114.514 7.68215C114.514 8.05523 114.805 8.33615 115.177 8.33615Z" fill="#9CA3AF"/>
<path d="M124.129 8.20154C124.493 8.20154 124.783 7.91037 124.783 7.5469C124.783 7.18342 124.493 6.8833 124.129 6.8833C123.766 6.8833 123.466 7.17447 123.466 7.5469C123.466 7.91933 123.756 8.20154 124.129 8.20154Z" fill="#9CA3AF"/>
<path d="M132.787 7.36572H131.706V13.9991H132.787V7.36572Z" fill="#9CA3AF"/>
<path d="M136.857 13.9985H137.648C137.584 14.8982 137.121 15.325 136.076 15.325C135.54 15.325 134.968 15.2066 134.613 15.0703L134.423 16.0968C134.904 16.2695 135.504 16.3604 136.04 16.3604C137.703 16.3604 138.73 15.5336 138.73 13.6798V10.0354C138.067 9.69946 137.394 9.53564 136.731 9.53564C135.213 9.53564 134.241 10.4443 134.241 11.7805C134.241 13.1166 135.213 13.9978 136.859 13.9978L136.857 13.9985ZM136.667 10.5454C137.003 10.5454 137.33 10.6184 137.648 10.7726V12.8805H136.685C135.876 12.8805 135.313 12.4537 135.313 11.7171C135.313 10.9806 135.876 10.5448 136.667 10.5448L136.667 10.5454Z" fill="#9CA3AF"/>
<path d="M145.165 13.999H148.754C150.054 13.999 151.089 13.7718 151.698 13.4448V9.45557H150.617V12.6181C150.29 12.7729 149.672 12.8817 148.908 12.8817H145.237C144.147 12.8817 143.601 12.4184 143.601 11.4912C143.601 11.1821 143.656 10.8186 143.773 10.4097L142.783 10.228C142.61 10.7911 142.528 11.3184 142.528 11.8092C142.528 13.3994 143.491 13.999 145.163 13.999H145.165Z" fill="#9CA3AF"/>
<path d="M148.016 9.75429C148.38 9.75429 148.671 9.46312 148.671 9.10029C148.671 8.73745 148.38 8.44629 148.016 8.44629C147.653 8.44629 147.371 8.73681 147.371 9.10029C147.371 9.46376 147.653 9.75429 148.016 9.75429Z" fill="#9CA3AF"/>
<path d="M146.245 9.75429C146.599 9.75429 146.89 9.46312 146.89 9.10029C146.89 8.73745 146.599 8.44629 146.245 8.44629C145.872 8.44629 145.581 8.73681 145.581 9.10029C145.581 9.46376 145.872 9.75429 146.245 9.75429Z" fill="#9CA3AF"/>
<path d="M158.266 13.054V7.36572H157.185V12.5363C156.867 12.7545 156.421 12.8722 155.849 12.8818L154.831 8.5291H153.758L154.758 12.8818H153.013V13.9998H155.802C156.793 13.9998 157.719 13.5998 158.265 13.0546L158.266 13.054Z" fill="#9CA3AF"/>
<path d="M160.537 13.5083C161.042 13.7918 161.747 13.9876 162.523 13.9972C162.531 13.9972 162.541 13.9972 162.549 13.9979C162.56 13.9979 162.57 13.9991 162.581 13.9991H171.849C171.857 13.9991 171.865 13.9985 171.872 13.9985C171.886 13.9985 171.9 13.9985 171.911 13.9972C172.371 13.9921 172.822 13.93 173.249 13.8084C173.694 13.6811 174.058 13.5269 174.33 13.3362V9.4557H173.249V12.6457C172.931 12.791 172.394 12.8818 171.84 12.8818H170.514V11.6641C170.514 10.8552 170.305 10.2281 169.887 9.80126C169.478 9.37443 168.933 9.15622 168.252 9.15622C167.152 9.15622 166.198 9.73791 165.08 10.8917V9.80126H163.999V12.8818H162.59C162.072 12.8818 161.554 12.782 161.182 12.5913V7.36572H160.1V12.7635C160.1 13.1544 160.21 13.3362 160.537 13.5083H160.537ZM165.081 12.2176C166.271 10.8367 167.162 10.2095 168.079 10.2095C168.561 10.2095 168.906 10.3638 169.115 10.6728C169.334 10.9819 169.443 11.3723 169.443 11.8362V12.8812H165.081V12.2176Z" fill="#9CA3AF"/>
<path d="M172.877 8.63661C173.232 8.63661 173.522 8.34609 173.522 7.98261C173.522 7.61914 173.231 7.32861 172.877 7.32861C172.505 7.32861 172.214 7.61978 172.214 7.98261C172.214 8.34545 172.504 8.63661 172.877 8.63661Z" fill="#9CA3AF"/>
<path d="M174.65 8.63661C175.013 8.63661 175.304 8.34609 175.304 7.98261C175.304 7.61914 175.013 7.32861 174.65 7.32861C174.286 7.32861 174.005 7.61978 174.005 7.98261C174.005 8.34545 174.286 8.63661 174.65 8.63661Z" fill="#9CA3AF"/>
<path d="M180.903 13.054V7.36572H179.821V12.5363C179.503 12.7545 179.058 12.8722 178.485 12.8818L177.467 8.5291H176.395L177.394 12.8818H175.649V13.9998H178.439C179.429 13.9998 180.356 13.5998 180.902 13.0546L180.903 13.054Z" fill="#9CA3AF"/>
<path d="M183.817 7.36572H182.735V13.9991H183.817V7.36572Z" fill="#9CA3AF"/>
<path d="M190.924 8.57265C191.288 8.57265 191.578 8.28212 191.578 7.91865C191.578 7.55517 191.287 7.26465 190.924 7.26465C190.562 7.26465 190.279 7.55517 190.279 7.91865C190.279 8.28212 190.561 8.57265 190.924 8.57265Z" fill="#9CA3AF"/>
<path d="M189.152 8.57265C189.507 8.57265 189.797 8.28212 189.797 7.91865C189.797 7.55517 189.507 7.26465 189.152 7.26465C188.78 7.26465 188.488 7.55517 188.488 7.91865C188.488 8.28212 188.78 8.57265 189.152 8.57265Z" fill="#9CA3AF"/>
<path d="M196.312 7.89201H195.784C195.393 7.89201 195.212 7.72819 195.212 7.4831C195.212 7.2924 195.348 7.13754 195.557 7.13754C195.667 7.13754 195.766 7.17402 195.848 7.24697L196.239 6.8291C196.066 6.65632 195.802 6.52002 195.484 6.52002C194.975 6.52002 194.621 6.88349 194.621 7.3468C194.621 7.55541 194.694 7.73779 194.83 7.89201H194.394V8.60104H196.311V7.89201H196.312Z" fill="#9CA3AF"/>
<path d="M199.01 15.3166C199.01 14.9531 198.728 14.6626 198.365 14.6626C198.002 14.6626 197.701 14.9442 197.701 15.3166C197.701 15.689 197.992 15.9616 198.365 15.9616C198.738 15.9616 199.01 15.6711 199.01 15.3166Z" fill="#9CA3AF"/>
<path d="M200.138 14.6626C199.775 14.6626 199.492 14.9442 199.492 15.3166C199.492 15.689 199.774 15.9616 200.138 15.9616C200.502 15.9616 200.792 15.6711 200.792 15.3166C200.792 14.9442 200.501 14.6626 200.138 14.6626Z" fill="#9CA3AF"/>
<path d="M206.943 8.89128C206.243 8.28271 205.326 7.97363 204.181 7.97363C203.817 7.97363 203.436 8.00115 203.045 8.05554V9.0551C203.408 8.99175 203.781 8.95527 204.154 8.95527C204.954 8.95527 205.617 9.17348 206.135 9.60095C206.653 10.0278 206.916 10.7279 206.916 11.6999V12.8901H205.435C205.771 12.5356 205.935 12.1088 205.935 11.5905C205.935 10.4911 205.072 9.77309 203.999 9.77309C202.927 9.77309 202.082 10.4725 202.082 11.5905C202.082 12.1082 202.246 12.5446 202.573 12.8805H201.173C200.655 12.8805 200.137 12.7807 199.774 12.59V9.45441H198.692V12.59C198.301 12.7807 197.838 12.8805 197.284 12.8805C196.766 12.8805 196.248 12.7807 195.884 12.59V9.45441H194.803V12.59C194.412 12.7807 193.949 12.8805 193.394 12.8805H192.013V9.86396C191.541 9.60031 190.787 9.36418 190.023 9.36418C188.533 9.36418 187.542 10.2639 187.542 11.6813C187.542 13.0988 188.578 13.9985 190.15 13.9985H193.403C193.417 13.9985 193.43 13.9972 193.444 13.9972C193.449 13.9972 193.455 13.9972 193.46 13.9972C194.146 13.9882 194.772 13.8263 195.338 13.4993C195.912 13.8263 196.538 13.9889 197.216 13.9972C197.221 13.9972 197.227 13.9972 197.233 13.9972C197.247 13.9972 197.26 13.9985 197.274 13.9985H197.291C197.306 13.9985 197.32 13.9972 197.334 13.9972C197.339 13.9972 197.345 13.9972 197.348 13.9972C198.034 13.9882 198.661 13.8263 199.227 13.4993C199.801 13.8263 200.428 13.9889 201.105 13.9972C201.11 13.9972 201.116 13.9972 201.121 13.9972C201.135 13.9972 201.149 13.9985 201.163 13.9985H207.997V11.7536C207.997 10.454 207.642 9.49984 206.943 8.89128H206.943ZM190.933 12.8805H189.996C189.161 12.8805 188.615 12.4441 188.615 11.6449C188.615 10.8456 189.179 10.3817 189.942 10.3817C190.314 10.3817 190.65 10.4546 190.933 10.6088V12.8805ZM203.999 12.8805C203.39 12.7986 203.063 12.3539 203.063 11.7268C203.063 11.1361 203.463 10.7451 203.999 10.7451C204.535 10.7451 204.935 11.1361 204.935 11.7268C204.935 12.3718 204.617 12.7993 203.999 12.8805Z" fill="#9CA3AF"/>
<path d="M67.9681 22.4089C68.6177 22.4089 69.2224 22.7071 69.6102 23.2031L70.5848 22.5894C69.98 21.7952 69.015 21.3083 67.9592 21.3083C66.1725 21.2718 64.6028 22.8063 64.6387 24.5565C64.6028 26.3073 66.1725 27.8412 67.9592 27.8047C69.015 27.8047 69.9807 27.3178 70.5848 26.5236L69.6102 25.892C69.2038 26.3975 68.6177 26.7041 67.9681 26.7041C66.7862 26.7041 65.875 25.7384 65.875 24.5565C65.875 23.3746 66.7862 22.4089 67.9681 22.4089Z" fill="#9CA3AF"/>
<path d="M75.014 23.1128C73.6152 23.1128 72.5145 24.1322 72.5145 25.4588C72.5145 26.7853 73.6152 27.8047 75.014 27.8047C76.4129 27.8316 77.5583 26.7668 77.5315 25.4588C77.5583 24.1501 76.4129 23.0859 75.014 23.1128ZM75.014 26.8666C74.2109 26.8666 73.5973 26.2529 73.5973 25.4588C73.5973 24.6646 74.2109 24.0509 75.014 24.0509C75.8171 24.0509 76.4487 24.6646 76.4487 25.4588C76.4487 26.2529 75.835 26.8666 75.014 26.8666Z" fill="#9CA3AF"/>
<path d="M85.4185 24.0063C85.9957 24.0063 86.3477 24.3761 86.3477 25.0346V27.7146H87.4483V24.7185C87.4483 23.6812 86.7898 23.1123 85.8421 23.1123C85.1472 23.1123 84.561 23.3107 83.9384 23.8431C83.6856 23.3651 83.1897 23.1123 82.585 23.1123C81.9802 23.1123 81.3762 23.3472 80.8348 23.8162V23.2025H79.7341V27.714H80.8348V24.4926C81.268 24.1407 81.6379 24.0056 82.1069 24.0056C82.6841 24.0056 83.0457 24.3755 83.0457 25.034V27.714H84.1374V25.1242C84.1374 24.899 84.1195 24.682 84.074 24.4926C84.4714 24.1675 84.9226 24.0056 85.4185 24.0056V24.0063Z" fill="#9CA3AF"/>
<path d="M95.8929 23.1129C95.198 23.1129 94.6112 23.3113 93.9892 23.8437C93.7364 23.3657 93.2405 23.1129 92.6357 23.1129C92.031 23.1129 91.4269 23.3478 90.8856 23.8169V23.2032H89.7849V27.7146H90.8856V24.4933C91.3188 24.1413 91.6887 24.0063 92.1577 24.0063C92.7349 24.0063 93.0965 24.3761 93.0965 25.0346V27.7146H94.1882V25.1249C94.1882 24.8996 94.1703 24.6827 94.1248 24.4933C94.5222 24.1682 94.9734 24.0063 95.4693 24.0063C96.0465 24.0063 96.3984 24.3761 96.3984 25.0346V27.7146H97.4991V24.7185C97.4991 23.6812 96.84 23.1123 95.8929 23.1123V23.1129Z" fill="#9CA3AF"/>
<path d="M103.272 26.3442C102.866 26.7051 102.352 26.9035 101.873 26.9035C101.224 26.9035 100.863 26.5336 100.863 25.8841V23.2041H99.7714V26.1996C99.7714 27.201 100.394 27.8058 101.413 27.8058C102.063 27.8058 102.722 27.5709 103.272 27.1383V27.7155H104.373V23.2041H103.272V26.3442Z" fill="#9CA3AF"/>
<path d="M110.307 25.0346V27.7146H111.398V24.7185C111.398 23.717 110.776 23.1123 109.756 23.1123C109.116 23.1123 108.448 23.3472 107.897 23.7708V23.2025H106.797V27.714H107.897V24.5739C108.304 24.213 108.817 24.0056 109.296 24.0056C109.946 24.0056 110.307 24.3845 110.307 25.034V25.0346Z" fill="#9CA3AF"/>
<path d="M114.911 23.2041H113.82V27.7155H114.911V23.2041Z" fill="#9CA3AF"/>
<path d="M114.361 21.4971C114.027 21.4971 113.757 21.7409 113.757 22.057C113.757 22.3731 114.028 22.6163 114.361 22.6163C114.694 22.6163 114.957 22.3725 114.957 22.057C114.957 21.7588 114.686 21.4971 114.361 21.4971Z" fill="#9CA3AF"/>
<path d="M119.64 26.8666C118.872 26.8666 118.268 26.2439 118.268 25.4587C118.268 24.6736 118.873 24.0509 119.64 24.0509C120.091 24.0509 120.452 24.2045 120.731 24.52L121.57 24.0509C121.11 23.4647 120.388 23.1128 119.621 23.1128C118.322 23.0859 117.167 24.1866 117.194 25.4587C117.167 26.7309 118.322 27.8322 119.621 27.8047C120.415 27.8047 121.137 27.4438 121.606 26.8301L120.758 26.361C120.496 26.6861 120.108 26.8666 119.639 26.8666H119.64Z" fill="#9CA3AF"/>
<path d="M125.992 23.1129C125.261 23.1129 124.53 23.3113 123.908 23.6998L124.259 24.4664C124.738 24.1509 125.234 23.9884 125.739 23.9884C126.452 23.9884 126.822 24.3038 126.822 24.9086V24.9623H125.288C124.205 24.9623 123.528 25.4947 123.528 26.3701C123.528 27.2456 124.178 27.8048 125.216 27.8048C125.82 27.8048 126.353 27.6065 126.822 27.218V27.7146H127.913V24.7998C127.913 23.726 127.218 23.1123 125.992 23.1123V23.1129ZM126.822 26.6229C126.425 26.8757 126.001 27.0017 125.541 27.0017C124.954 27.0017 124.611 26.749 124.611 26.3068C124.611 25.8646 124.963 25.6118 125.568 25.6118H126.822V26.6223L126.822 26.6229Z" fill="#9CA3AF"/>
<path d="M133.102 26.7134C132.886 26.8216 132.651 26.876 132.407 26.876C131.947 26.876 131.622 26.5963 131.622 26.0639V24.0789H132.903V23.2035H131.622V21.9492H130.531V23.2035H129.818V24.0789H130.531V26.2354C130.531 27.2369 131.171 27.8058 132.064 27.8058C132.461 27.8058 132.859 27.6976 133.246 27.4903L133.102 26.7141L133.102 26.7134Z" fill="#9CA3AF"/>
<path d="M136.493 23.2041H135.402V27.7155H136.493V23.2041Z" fill="#9CA3AF"/>
<path d="M135.943 21.4971C135.609 21.4971 135.339 21.7409 135.339 22.057C135.339 22.3731 135.609 22.6163 135.943 22.6163C136.276 22.6163 136.538 22.3725 136.538 22.057C136.538 21.7588 136.268 21.4971 135.943 21.4971Z" fill="#9CA3AF"/>
<path d="M143.792 25.4588C143.819 24.1501 142.674 23.0859 141.275 23.1128C139.876 23.1128 138.775 24.1322 138.775 25.4588C138.775 26.7853 139.876 27.8047 141.275 27.8047C142.674 27.8316 143.819 26.7668 143.792 25.4588ZM139.858 25.4588C139.858 24.6646 140.472 24.0509 141.275 24.0509C142.078 24.0509 142.709 24.6646 142.709 25.4588C142.709 26.2529 142.096 26.8666 141.275 26.8666C140.454 26.8666 139.858 26.2529 139.858 25.4588Z" fill="#9CA3AF"/>
<path d="M149.512 25.0346V27.7146H150.603V24.7185C150.603 23.717 149.981 23.1123 148.961 23.1123C148.321 23.1123 147.653 23.3472 147.102 23.7708V23.2025H146.002V27.714H147.102V24.5739C147.509 24.213 148.023 24.0056 148.501 24.0056C149.151 24.0056 149.512 24.3845 149.512 25.034V25.0346Z" fill="#9CA3AF"/>
<path d="M155.126 25.0615L154.62 24.9265C153.997 24.755 153.844 24.6558 153.844 24.3941C153.844 24.06 154.088 23.8975 154.584 23.8975C155.08 23.8975 155.648 24.06 156.091 24.3218L156.46 23.6089C155.955 23.2934 155.27 23.1123 154.611 23.1123C153.483 23.1123 152.798 23.6268 152.798 24.4926C152.798 24.8177 152.906 25.0698 153.123 25.2599C153.348 25.4493 153.736 25.6208 154.287 25.7744L154.855 25.928C155.423 26.0995 155.559 26.1986 155.559 26.4604C155.559 26.8302 155.288 27.0197 154.738 27.0197C154.151 27.0197 153.51 26.8302 152.979 26.5058L152.6 27.2008C153.177 27.5892 153.935 27.8055 154.703 27.8055C155.894 27.8055 156.588 27.282 156.588 26.3797C156.588 25.7027 156.182 25.3514 155.127 25.0621L155.126 25.0615Z" fill="#9CA3AF"/>
<path d="M158.725 28.9954L159.582 27.5427C159.645 27.4436 159.672 27.3354 159.672 27.2362C159.672 26.9207 159.392 26.668 159.058 26.668C158.724 26.668 158.454 26.9207 158.454 27.2362C158.454 27.4615 158.58 27.6515 158.797 27.7507L158.39 28.8424L158.724 28.996L158.725 28.9954Z" fill="#9CA3AF"/>
<path d="M168.272 24.0334L167.586 23.844C166.584 23.5733 166.404 23.4287 166.404 23.0953C166.404 22.5808 166.864 22.328 167.541 22.328C168.181 22.328 169.012 22.5628 169.688 22.9238L170.203 21.985C169.49 21.5614 168.542 21.3086 167.631 21.3086C166.891 21.3086 166.287 21.4711 165.826 21.7866C165.366 22.1021 165.132 22.5622 165.132 23.1759C165.168 24.2049 165.764 24.5748 167.262 24.9536L167.975 25.134C168.877 25.3599 169.121 25.486 169.121 25.9192C169.121 26.506 168.615 26.7761 167.849 26.7761C167.082 26.7761 166.152 26.5233 165.403 26.0811L164.862 26.9655C165.656 27.5069 166.711 27.8044 167.749 27.8044C169.347 27.8044 170.357 27.1184 170.357 25.8552C170.321 24.7635 169.672 24.4205 168.273 24.0327L168.272 24.0334Z" fill="#9CA3AF"/>
<path d="M175.174 23.1128C174.561 23.1128 174.047 23.338 173.695 23.7265V23.203H172.594V29.4742H173.695V27.1821C174.047 27.5705 174.561 27.8047 175.174 27.8047C176.384 27.8316 177.376 26.7488 177.349 25.4587C177.376 24.1687 176.383 23.0859 175.174 23.1128ZM175.896 26.4692C175.652 26.7309 175.337 26.8659 174.949 26.8659C174.408 26.8659 173.957 26.6407 173.695 26.2522V24.664C173.957 24.2762 174.408 24.0503 174.949 24.0503C175.337 24.0503 175.653 24.1859 175.896 24.4566C176.14 24.7184 176.266 25.0524 176.266 25.4581C176.266 25.8638 176.139 26.1979 175.896 26.4685V26.4692Z" fill="#9CA3AF"/>
<path d="M181.805 23.1129C181.074 23.1129 180.343 23.3113 179.721 23.6998L180.072 24.4664C180.55 24.1509 181.047 23.9884 181.552 23.9884C182.265 23.9884 182.635 24.3038 182.635 24.9086V24.9623H181.101C180.018 24.9623 179.341 25.4947 179.341 26.3701C179.341 27.2456 179.991 27.8048 181.029 27.8048C181.633 27.8048 182.166 27.6065 182.635 27.218V27.7146H183.726V24.7998C183.726 23.726 183.031 23.1123 181.805 23.1123V23.1129ZM182.635 26.6229C182.238 26.8757 181.814 27.0017 181.354 27.0017C180.767 27.0017 180.424 26.749 180.424 26.3068C180.424 25.8646 180.776 25.6118 181.381 25.6118H182.635V26.6223L182.635 26.6229Z" fill="#9CA3AF"/>
<path d="M190.286 26.8301L189.437 26.361C189.175 26.6861 188.787 26.8666 188.318 26.8666C187.551 26.8666 186.947 26.2439 186.947 25.4587C186.947 24.6736 187.552 24.0509 188.318 24.0509C188.77 24.0509 189.13 24.2045 189.41 24.52L190.249 24.0509C189.789 23.4647 189.067 23.1128 188.3 23.1128C187.001 23.0859 185.846 24.1866 185.873 25.4587C185.846 26.7309 187.001 27.8322 188.3 27.8047C189.094 27.8047 189.816 27.4438 190.285 26.8301H190.286Z" fill="#9CA3AF"/>
<path d="M195.88 26.4604C195.546 26.7759 195.094 26.9384 194.526 26.9384C193.795 26.9384 193.308 26.5148 193.191 25.8013H196.836V25.4583C196.836 24.1138 195.826 23.1123 194.463 23.1123C193.101 23.1123 192.09 24.1496 192.09 25.4493C192.09 26.749 193.109 27.8042 194.49 27.8042C195.249 27.8042 195.952 27.5246 196.484 27.028L195.88 26.4597V26.4604ZM194.472 23.9608C194.842 23.9608 195.158 24.069 195.401 24.2942C195.645 24.5112 195.771 24.7819 195.771 25.1159H193.19C193.289 24.3941 193.758 23.9608 194.471 23.9608H194.472Z" fill="#9CA3AF"/>
<path d="M207.194 24.6102C207.005 25.0524 206.788 25.4313 206.536 25.7653L205.3 24.4567C206.301 23.9518 206.689 23.5185 206.689 22.7692C206.689 21.9303 205.976 21.3076 205.01 21.3076C203.981 21.3076 203.188 22.0115 203.188 22.9228C203.188 23.3291 203.35 23.6715 203.747 24.1137L203.846 24.2218C202.691 24.799 202.249 25.3321 202.249 26.0897C202.249 27.1635 203.125 27.8041 204.523 27.8041C205.289 27.8041 205.948 27.5961 206.499 27.1725L207.067 27.8041L207.843 27.1456L207.193 26.4596C207.491 26.0718 207.752 25.5752 207.996 24.9705L207.193 24.6096L207.194 24.6102ZM204.993 22.1197C205.453 22.1197 205.76 22.3814 205.76 22.7871C205.76 23.1928 205.58 23.4277 204.704 23.834L204.551 23.6715C204.326 23.4277 204.154 23.1032 204.154 22.8415C204.154 22.4352 204.515 22.1197 204.993 22.1197ZM204.56 26.9018C203.838 26.9018 203.378 26.5588 203.378 25.9906C203.378 25.5842 203.64 25.2866 204.434 24.8803L205.86 26.4596C205.453 26.7578 205.021 26.9018 204.561 26.9018H204.56Z" fill="#9CA3AF"/>
<path d="M64.6381 34.4999H66.6736V39.8247H67.8549V34.4999H69.8905V33.4639H64.6381V34.4999Z" fill="#9CA3AF"/>
<path d="M73.4791 35.1899C72.1071 35.1899 71.089 36.2349 71.089 37.5436C71.089 38.8522 72.116 39.9158 73.5059 39.9158C74.2694 39.9158 74.9784 39.6342 75.514 39.1344L74.9048 38.5617C74.5688 38.8797 74.1145 39.0435 73.5418 39.0435C72.8059 39.0435 72.3151 38.6167 72.1967 37.8987H75.8679V37.5532C75.8679 36.1991 74.8498 35.1906 73.4778 35.1906L73.4791 35.1899ZM72.198 37.207C72.2978 36.48 72.7707 36.0436 73.488 36.0436C73.8605 36.0436 74.1785 36.153 74.4242 36.3796C74.6693 36.5978 74.7967 36.8704 74.7967 37.2063H72.198V37.207Z" fill="#9CA3AF"/>
<path d="M80.3204 38.9705C79.548 38.9705 78.9388 38.3433 78.9388 37.553C78.9388 36.7627 79.548 36.1356 80.3204 36.1356C80.7747 36.1356 81.1382 36.2905 81.4198 36.6085L82.2651 36.1356C81.8018 35.545 81.0749 35.1904 80.3025 35.1904C78.9939 35.1629 77.8311 36.2719 77.858 37.553C77.8311 38.8342 78.9939 39.9431 80.3025 39.9156C81.1024 39.9156 81.8293 39.5521 82.3016 38.934L81.4473 38.4611C81.1836 38.7881 80.7933 38.9698 80.3204 38.9698V38.9705Z" fill="#9CA3AF"/>
<path d="M87.4638 35.1904C86.8187 35.1904 86.1462 35.4265 85.592 35.854V33.4639H84.483V39.8247H85.592V36.6622C86.0009 36.2987 86.5186 36.0895 87.0005 36.0895C87.6544 36.0895 88.0179 36.4709 88.0179 37.1255V39.8247H89.1173V36.8075C89.1173 35.7989 88.4902 35.1904 87.4638 35.1904Z" fill="#9CA3AF"/>
<path d="M94.4605 35.1899C93.8154 35.1899 93.1429 35.4261 92.5887 35.8535V35.2808H91.4797V39.8242H92.5887V36.6618C92.9976 36.2983 93.5153 36.089 93.9972 36.089C94.6512 36.089 95.0146 36.4704 95.0146 37.1251V39.8242H96.114V36.807C96.114 35.7985 95.4869 35.1899 94.4605 35.1899Z" fill="#9CA3AF"/>
<path d="M100.794 35.1905C99.3852 35.1905 98.2762 36.2169 98.2762 37.553C98.2762 38.8892 99.3852 39.9156 100.794 39.9156C102.202 39.9432 103.357 38.8706 103.329 37.553C103.356 36.2354 102.202 35.1629 100.794 35.1905ZM100.794 38.9705C99.9848 38.9705 99.3667 38.3529 99.3667 37.553C99.3667 36.7531 99.9848 36.1356 100.794 36.1356C101.603 36.1356 102.239 36.7538 102.239 37.553C102.239 38.3523 101.62 38.9705 100.794 38.9705Z" fill="#9CA3AF"/>
<path d="M106.663 33.4639H105.554V39.8247H106.663V33.4639Z" fill="#9CA3AF"/>
<path d="M111.415 35.1905C110.007 35.1905 108.898 36.2169 108.898 37.553C108.898 38.8892 110.007 39.9156 111.415 39.9156C112.824 39.9432 113.978 38.8706 113.95 37.553C113.977 36.2354 112.824 35.1629 111.415 35.1905ZM111.415 38.9705C110.606 38.9705 109.988 38.3529 109.988 37.553C109.988 36.7531 110.606 36.1356 111.415 36.1356C112.224 36.1356 112.86 36.7538 112.86 37.553C112.86 38.3523 112.242 38.9705 111.415 38.9705Z" fill="#9CA3AF"/>
<path d="M119.628 35.808C119.274 35.417 118.756 35.1905 118.138 35.1905C116.911 35.1629 115.93 36.2444 115.948 37.5441C115.921 38.8438 116.921 39.9252 118.138 39.8977C118.756 39.8977 119.274 39.6705 119.628 39.2802V39.4798C119.628 40.3975 119.065 40.8429 118.22 40.8429C117.566 40.8429 116.975 40.6791 116.439 40.3431L116.084 41.1155C116.729 41.5065 117.493 41.7061 118.374 41.7061C119.074 41.7061 119.646 41.5244 120.074 41.152C120.509 40.7795 120.728 40.2247 120.728 39.4798V35.2813H119.628V35.808ZM119.628 38.3433C119.365 38.7343 118.91 38.9609 118.365 38.9609C117.974 38.9609 117.657 38.8246 117.411 38.5609C117.166 38.2883 117.039 37.9524 117.039 37.5428C117.039 36.7429 117.602 36.1254 118.365 36.1254C118.91 36.1254 119.365 36.3526 119.628 36.7429V38.3421V38.3433Z" fill="#9CA3AF"/>
<path d="M125.218 38.6351L123.873 35.2819H122.709L124.727 39.9706L124.654 40.1159C124.372 40.6335 124.109 40.8428 123.681 40.8428C123.454 40.8428 123.209 40.7884 122.936 40.679L122.618 41.4424C123.064 41.6062 123.473 41.6875 123.827 41.6875C124.663 41.6875 125.236 41.2421 125.627 40.2701L127.635 35.2812H126.489L125.217 38.6344L125.218 38.6351Z" fill="#9CA3AF"/>
<path d="M136.223 34.482C136.877 34.482 137.486 34.7821 137.876 35.2819L138.858 34.6638C138.249 33.8639 137.276 33.3737 136.214 33.3737C134.414 33.3372 132.833 34.882 132.869 36.645C132.833 38.4079 134.414 39.9527 136.214 39.9162C137.277 39.9162 138.249 39.4254 138.858 38.6255L137.876 37.9894C137.467 38.4982 136.877 38.8072 136.223 38.8072C135.032 38.8072 134.115 37.8352 134.115 36.6443C134.115 35.4534 135.032 34.4814 136.223 34.4814V34.482Z" fill="#9CA3AF"/>
<path d="M143.318 35.1905C141.91 35.1905 140.801 36.2169 140.801 37.553C140.801 38.8892 141.91 39.9156 143.318 39.9156C144.727 39.9432 145.881 38.8706 145.854 37.553C145.881 36.2354 144.727 35.1629 143.318 35.1905ZM143.318 38.9705C142.509 38.9705 141.891 38.3529 141.891 37.553C141.891 36.7531 142.509 36.1356 143.318 36.1356C144.127 36.1356 144.763 36.7538 144.763 37.553C144.763 38.3523 144.145 38.9705 143.318 38.9705Z" fill="#9CA3AF"/>
<path d="M154.222 35.1899C153.522 35.1899 152.931 35.3896 152.305 35.9259C152.05 35.444 151.55 35.1899 150.942 35.1899C150.333 35.1899 149.724 35.4261 149.179 35.8983V35.2808H148.07V39.8242H149.179V36.5798C149.615 36.2253 149.988 36.089 150.46 36.089C151.042 36.089 151.405 36.4615 151.405 37.1251V39.8242H152.505V37.2159C152.505 36.9888 152.487 36.7705 152.441 36.5798C152.841 36.2528 153.295 36.089 153.795 36.089C154.376 36.089 154.731 36.4615 154.731 37.1251V39.8242H155.84V36.807C155.84 35.762 155.176 35.1899 154.222 35.1899Z" fill="#9CA3AF"/>
<path d="M164.344 35.1899C163.644 35.1899 163.054 35.3896 162.427 35.9259C162.172 35.444 161.672 35.1899 161.064 35.1899C160.455 35.1899 159.846 35.4261 159.301 35.8983V35.2808H158.192V39.8242H159.301V36.5798C159.737 36.2253 160.11 36.089 160.582 36.089C161.164 36.089 161.527 36.4615 161.527 37.1251V39.8242H162.626V37.2159C162.626 36.9888 162.608 36.7705 162.562 36.5798C162.962 36.2528 163.417 36.089 163.916 36.089C164.498 36.089 164.853 36.4615 164.853 37.1251V39.8242H165.961V36.807C165.961 35.762 165.297 35.1899 164.343 35.1899H164.344Z" fill="#9CA3AF"/>
<path d="M169.505 35.2817H168.406V39.8252H169.505V35.2817Z" fill="#9CA3AF"/>
<path d="M168.951 33.5645C168.615 33.5645 168.342 33.8095 168.342 34.1282C168.342 34.4469 168.615 34.6914 168.951 34.6914C169.287 34.6914 169.55 34.4463 169.55 34.1282C169.55 33.8281 169.278 33.5645 168.951 33.5645Z" fill="#9CA3AF"/>
<path d="M174.195 37.1532L173.687 37.0169C173.059 36.8441 172.905 36.7443 172.905 36.4807C172.905 36.1447 173.15 35.9809 173.65 35.9809C174.15 35.9809 174.723 36.1447 175.168 36.4077L175.54 35.6897C175.032 35.3717 174.341 35.1899 173.678 35.1899C172.542 35.1899 171.851 35.7083 171.851 36.5805C171.851 36.9075 171.96 37.1622 172.178 37.3529C172.405 37.5436 172.796 37.7163 173.351 37.8712L173.923 38.0254C174.496 38.1982 174.632 38.298 174.632 38.5617C174.632 38.9341 174.359 39.1248 173.805 39.1248C173.214 39.1248 172.569 38.9341 172.033 38.6071L171.651 39.3065C172.233 39.6975 172.996 39.9158 173.768 39.9158C174.968 39.9158 175.668 39.3885 175.668 38.4798C175.668 37.7983 175.259 37.4437 174.196 37.1532H174.195Z" fill="#9CA3AF"/>
<path d="M180.064 37.1532L179.555 37.0169C178.928 36.8441 178.774 36.7443 178.774 36.4807C178.774 36.1447 179.019 35.9809 179.518 35.9809C180.018 35.9809 180.591 36.1447 181.036 36.4077L181.409 35.6897C180.9 35.3717 180.21 35.1899 179.546 35.1899C178.41 35.1899 177.72 35.7083 177.72 36.5805C177.72 36.9075 177.828 37.1622 178.047 37.3529C178.274 37.5436 178.664 37.7163 179.219 37.8712L179.792 38.0254C180.364 38.1982 180.5 38.298 180.5 38.5617C180.5 38.9341 180.227 39.1248 179.673 39.1248C179.083 39.1248 178.438 38.9341 177.901 38.6071L177.519 39.3065C178.101 39.6975 178.864 39.9158 179.637 39.9158C180.836 39.9158 181.536 39.3885 181.536 38.4798C181.536 37.7983 181.127 37.4437 180.064 37.1532H180.064Z" fill="#9CA3AF"/>
<path d="M184.37 33.5645C184.034 33.5645 183.762 33.8095 183.762 34.1282C183.762 34.4469 184.034 34.6914 184.37 34.6914C184.706 34.6914 184.97 34.4463 184.97 34.1282C184.97 33.8281 184.697 33.5645 184.37 33.5645Z" fill="#9CA3AF"/>
<path d="M184.925 35.2817H183.826V39.8252H184.925V35.2817Z" fill="#9CA3AF"/>
<path d="M189.741 35.1905C188.333 35.1905 187.224 36.2169 187.224 37.553C187.224 38.8892 188.333 39.9156 189.741 39.9156C191.15 39.9432 192.304 38.8706 192.277 37.553C192.304 36.2354 191.15 35.1629 189.741 35.1905ZM189.741 38.9705C188.933 38.9705 188.314 38.3529 188.314 37.553C188.314 36.7531 188.933 36.1356 189.741 36.1356C190.55 36.1356 191.186 36.7538 191.186 37.553C191.186 38.3523 190.568 38.9705 189.741 38.9705Z" fill="#9CA3AF"/>
<path d="M197.482 35.1899C196.837 35.1899 196.165 35.4261 195.611 35.8535V35.2808H194.502V39.8242H195.611V36.6618C196.02 36.2983 196.537 36.089 197.019 36.089C197.673 36.089 198.037 36.4704 198.037 37.1251V39.8242H199.136V36.807C199.136 35.7985 198.509 35.1899 197.482 35.1899Z" fill="#9CA3AF"/>
<path d="M55.1503 0.11377H54.5104V48.113H55.1503V0.11377Z" fill="#9CA3AF"/>
<path d="M20.2328 26.3786C19.6518 26.9597 18.8499 27.3187 17.9637 27.3187C16.1911 27.3187 14.7545 25.8821 14.7545 24.1095C14.7545 22.3369 16.1911 20.9003 17.9637 20.9003C18.8499 20.9003 19.6524 21.2593 20.2328 21.8403L22.5026 19.5705C21.3411 18.4091 19.7362 17.6904 17.9637 17.6904C14.4185 17.6904 11.5447 20.5643 11.5447 24.1095C11.5447 27.6546 14.4185 30.5285 17.9637 30.5285C19.7362 30.5285 21.3411 29.8099 22.5026 28.6484L20.2328 26.3786Z" fill="#9CA3AF"/>
<path d="M45.0205 17.7451H35.7162V20.9543H40.6045L38.7641 22.007V30.5096H41.9733V20.9543H45.0205V17.7451Z" fill="#9CA3AF"/>
<path d="M2.91153 16.2982L2.69332 16.1978C2.64341 16.2989 2.59414 16.4006 2.54614 16.5024L2.7458 16.6041C2.80019 16.5011 2.85522 16.3993 2.91089 16.2976L2.91153 16.2982Z" fill="#9CA3AF"/>
<path d="M2.81669 13.3573L2.48458 13.1416C2.43403 13.2165 2.38411 13.2907 2.33484 13.3662L2.6484 13.5787C2.70279 13.5038 2.76038 13.4315 2.81605 13.3579L2.81669 13.3573Z" fill="#9CA3AF"/>
<path d="M2.75385 14.8806L2.55355 14.7705C2.50428 14.8556 2.45437 14.9407 2.40637 15.0265L2.58939 15.1346C2.64314 15.0495 2.69817 14.965 2.75385 14.8806Z" fill="#9CA3AF"/>
<path d="M3.51064 15.2975L3.25468 15.1567C3.20092 15.2482 3.14717 15.3404 3.09534 15.4332L3.33658 15.5752C3.39418 15.4825 3.45113 15.389 3.51064 15.2975Z" fill="#9CA3AF"/>
<path d="M3.12961 17.7255L2.99458 17.6743C2.95683 17.7722 2.91843 17.8695 2.88196 17.9687L2.99458 18.018C3.03874 17.92 3.08353 17.8221 3.12961 17.7255Z" fill="#9CA3AF"/>
<path d="M3.10083 13.8849L3.33888 14.0462C3.39775 13.9681 3.4579 13.8913 3.51805 13.8145L3.26401 13.6494C3.20962 13.7281 3.15394 13.8056 3.10083 13.8849Z" fill="#9CA3AF"/>
<path d="M1.74776 14.3271C1.70361 14.4046 1.65945 14.4833 1.61658 14.5614L1.8847 14.7194C1.93334 14.6407 1.98389 14.5626 2.0338 14.4846L1.7484 14.3278L1.74776 14.3271Z" fill="#9CA3AF"/>
<path d="M3.68079 12.297L3.30771 12.0122C3.23284 12.1069 3.15861 12.2023 3.0863 12.2989L3.4421 12.5747C3.48177 12.528 3.51889 12.4793 3.5592 12.4333C3.59888 12.3872 3.64111 12.343 3.68142 12.2976L3.68079 12.297Z" fill="#9CA3AF"/>
<path d="M2.34189 17.4284L2.17615 17.3657C2.14288 17.4496 2.11024 17.5334 2.07825 17.6185L2.22607 17.6831C2.26382 17.5974 2.30286 17.5135 2.34189 17.4284Z" fill="#9CA3AF"/>
<path d="M5.62907 10.3957L5.19585 9.9458C5.06211 10.0725 4.92836 10.1979 4.79846 10.3285L5.21697 10.7508C5.35263 10.6305 5.48957 10.5115 5.62843 10.395L5.62907 10.3957Z" fill="#9CA3AF"/>
<path d="M4.77936 13.6109C4.86191 13.5156 4.94637 13.4209 5.03084 13.3274L4.70833 13.0811C4.62898 13.1777 4.54899 13.2737 4.47156 13.3722L4.77872 13.6103L4.77936 13.6109Z" fill="#9CA3AF"/>
<path d="M4.94923 12.205C5.05673 12.0988 5.16616 11.9951 5.27686 11.8921L4.93067 11.583C4.827 11.6931 4.72718 11.8057 4.62671 11.9183L4.94987 12.2044L4.94923 12.205Z" fill="#9CA3AF"/>
<path d="M4.45386 14.8004L4.7623 15.009C4.82693 14.922 4.8922 14.8363 4.95811 14.7505L4.62919 14.5361C4.57032 14.6232 4.51145 14.7108 4.45386 14.7998V14.8004Z" fill="#9CA3AF"/>
<path d="M4.23353 14.2796L3.94045 14.0889C3.88286 14.1714 3.82398 14.2533 3.76831 14.3365L4.04731 14.5253C4.10875 14.4427 4.17146 14.3608 4.23417 14.2796H4.23353Z" fill="#9CA3AF"/>
<path d="M4.05831 12.5845C4.01608 12.6363 3.97256 12.6869 3.93097 12.7393C3.89577 12.7835 3.86378 12.8296 3.82922 12.8744L4.11143 13.0932C4.19334 12.9991 4.27716 12.9076 4.36099 12.8161L4.05831 12.5851V12.5845Z" fill="#9CA3AF"/>
<path d="M2.11643 15.9334L1.96669 15.8643C1.9219 15.9558 1.88031 16.0492 1.83679 16.142L1.96605 16.2079C2.01469 16.1157 2.06588 16.0249 2.11643 15.9334Z" fill="#9CA3AF"/>
<path d="M3.9115 11.2875L4.29929 11.6305C4.40487 11.5217 4.51046 11.4123 4.61861 11.3067L4.21162 10.9438C4.10923 11.0565 4.01133 11.1729 3.9115 11.2875Z" fill="#9CA3AF"/>
<path d="M4.26592 15.7132L3.99075 15.5615C3.93444 15.6607 3.88005 15.7625 3.82629 15.8636L4.07394 16.0095C4.13729 15.9103 4.20128 15.8111 4.26656 15.7132H4.26592Z" fill="#9CA3AF"/>
<path d="M3.68735 16.6549L3.47489 16.5576C3.42178 16.6696 3.36867 16.7822 3.31812 16.8961L3.50177 16.9896C3.56256 16.8776 3.62399 16.7656 3.68735 16.6549Z" fill="#9CA3AF"/>
<path d="M6.99642 11.8154C6.86843 11.9306 6.74301 12.0477 6.61951 12.1667L6.98042 12.5309C7.10264 12.4131 7.22615 12.2973 7.35221 12.184L6.99642 11.8154Z" fill="#9CA3AF"/>
<path d="M7.45049 10.4673C7.28923 10.5876 7.13053 10.7111 6.97375 10.8378L7.80436 11.7926C7.95091 11.6697 8.09937 11.55 8.25039 11.4323L7.45049 10.4679V10.4673Z" fill="#9CA3AF"/>
<path d="M1.51967 17.1169L1.42944 17.083C1.40129 17.1547 1.37505 17.2263 1.34753 17.2987L1.42304 17.3319C1.4544 17.2603 1.48704 17.1886 1.51967 17.1176V17.1169Z" fill="#9CA3AF"/>
<path d="M7.36452 8.1665C7.16103 8.30921 6.96138 8.45639 6.76428 8.60677L7.22502 9.21021C7.42531 9.07839 7.62881 8.95041 7.83486 8.82626L7.36452 8.1665Z" fill="#9CA3AF"/>
<path d="M6.13529 12.6572C6.03291 12.766 5.93244 12.8761 5.83325 12.9874L6.2108 13.3215C6.22232 13.3099 6.2332 13.2984 6.24408 13.2869C6.33303 13.189 6.42389 13.0924 6.5154 12.9964L6.13465 12.6572H6.13529Z" fill="#9CA3AF"/>
<path d="M8.54697 7.40332C8.30572 7.5473 8.06832 7.6964 7.83411 7.85126L9.60091 10.4871C9.80121 10.3617 10.0047 10.2414 10.2108 10.1249L8.54761 7.40332H8.54697Z" fill="#9CA3AF"/>
<path d="M18.0614 4.86963C15.2323 4.86963 12.5472 5.48331 10.1302 6.5827L11.5886 9.43291C13.5679 8.55557 15.7577 8.06667 18.062 8.06667C20.0067 8.06667 21.8708 8.41415 23.5947 9.05023L24.7011 6.04964C22.6323 5.28622 20.3958 4.86963 18.062 4.86963H18.0614Z" fill="#9CA3AF"/>
<path d="M9.7887 6.74121C9.50522 6.87687 9.22621 7.01894 8.95105 7.16804L10.57 9.92866C10.7998 9.80643 11.0327 9.68997 11.2688 9.57926L9.7887 6.74185V6.74121Z" fill="#9CA3AF"/>
<path d="M7.97548 9.02051C7.77774 9.15169 7.58321 9.28607 7.39124 9.42494L8.67874 11.1092C8.85152 10.9838 9.02686 10.8628 9.20475 10.7445L7.97548 9.02051Z" fill="#9CA3AF"/>
<path d="M0.689674 17.0103C0.715271 16.9508 0.739588 16.8906 0.765824 16.8318L0.577049 16.7607C0.554652 16.8177 0.532895 16.8753 0.510498 16.9322L0.689034 17.0103H0.689674Z" fill="#9CA3AF"/>
<path d="M5.55066 12.1377C5.44635 12.2452 5.34268 12.354 5.24158 12.4647L5.57497 12.7603C5.6812 12.6548 5.78934 12.5504 5.89877 12.4487L5.55066 12.1383V12.1377Z" fill="#9CA3AF"/>
<path d="M5.10684 13.867L5.45687 14.1383C5.5407 14.0411 5.62517 13.9444 5.71092 13.8491L5.34105 13.5669C5.2617 13.6661 5.18299 13.7659 5.1062 13.867H5.10684Z" fill="#9CA3AF"/>
<path d="M1.02136 15.7272L1.24597 15.8418C1.28949 15.7592 1.33108 15.6754 1.37524 15.5935L1.13655 15.4834C1.09751 15.564 1.05912 15.6459 1.02136 15.7272Z" fill="#9CA3AF"/>
<path d="M6.89365 9.7959C6.7292 9.92388 6.56666 10.0538 6.40796 10.1869L6.79831 10.6355C6.96341 10.5158 7.13042 10.3987 7.3 10.2854L6.89365 9.7959Z" fill="#9CA3AF"/>
<path d="M5.8771 10.6514C5.74464 10.7723 5.61474 10.8952 5.48547 11.0206L5.84575 11.3841C5.98141 11.2689 6.11899 11.1569 6.25785 11.0468L5.87646 10.6514H5.8771Z" fill="#9CA3AF"/>
<path d="M6.83478 11.646L6.46747 11.2646C6.33564 11.3805 6.20574 11.4982 6.07776 11.6185L6.43227 11.9762C6.56473 11.8643 6.69912 11.7542 6.83542 11.646H6.83478Z" fill="#9CA3AF"/>
<path d="M6.70317 9.56761L6.24755 9.01855C6.08054 9.1555 5.91608 9.295 5.75354 9.43706L6.19316 9.9426C6.36018 9.81398 6.53104 9.68983 6.70253 9.56761H6.70317Z" fill="#9CA3AF"/>
<path d="M29.3768 39.4114L29.0613 38.9941C28.9353 39.0812 28.8105 39.1695 28.6825 39.2533L29.0108 39.6897C29.1343 39.5982 29.2565 39.5054 29.3774 39.4114H29.3768Z" fill="#9CA3AF"/>
<path d="M28.7947 38.641L28.5336 38.2954C28.4063 38.3792 28.2783 38.4612 28.149 38.5418L28.4293 38.9149C28.5528 38.8265 28.6738 38.7331 28.7954 38.641H28.7947Z" fill="#9CA3AF"/>
<path d="M29.5362 35.8329L29.2629 35.5552C29.1836 35.6268 29.101 35.6947 29.0204 35.7651L29.316 36.055C29.3903 35.982 29.4638 35.9084 29.5368 35.8335L29.5362 35.8329Z" fill="#9CA3AF"/>
<path d="M27.924 38.2424C28.0482 38.156 28.1717 38.0683 28.2939 37.9781L28.027 37.6255C27.901 37.7093 27.7736 37.7906 27.645 37.8706L27.924 38.2424Z" fill="#9CA3AF"/>
<path d="M28.3091 40.1839L27.9814 39.686C27.8227 39.7795 27.6621 39.8703 27.5009 39.9586L27.84 40.4891C27.9981 40.3893 28.1548 40.2882 28.3097 40.1839H28.3091Z" fill="#9CA3AF"/>
<path d="M30.3872 38.569L30.0929 38.2285C30.034 38.2752 29.977 38.3245 29.9182 38.3706C29.8811 38.3994 29.8427 38.4263 29.8055 38.4551L30.1133 38.8057C30.2048 38.727 30.2976 38.6496 30.3879 38.5696L30.3872 38.569Z" fill="#9CA3AF"/>
<path d="M29.6098 37.9914C29.6635 37.9453 29.7147 37.8973 29.7678 37.8513L29.5343 37.5806C29.4357 37.6567 29.3365 37.7309 29.2367 37.8045L29.4882 38.0912C29.5285 38.0573 29.5701 38.0253 29.6104 37.9914H29.6098Z" fill="#9CA3AF"/>
<path d="M30.3617 34.913L30.1275 34.7031C30.0481 34.787 29.9701 34.8714 29.8888 34.9533L30.1454 35.1703C30.2184 35.0858 30.29 34.9994 30.3617 34.913Z" fill="#9CA3AF"/>
<path d="M30.1095 36.4172L29.881 36.1855C29.8055 36.2534 29.7293 36.3199 29.6532 36.3865L29.8957 36.6245C29.9674 36.5561 30.0391 36.4869 30.1088 36.4172H30.1095Z" fill="#9CA3AF"/>
<path d="M30.6814 36.9984L30.4791 36.793C30.4075 36.857 30.3352 36.9203 30.2622 36.9837L30.4779 37.1955C30.545 37.1296 30.6148 37.0656 30.6807 36.999L30.6814 36.9984Z" fill="#9CA3AF"/>
<path d="M28.1016 36.5113L28.4184 36.8723C28.5156 36.7903 28.6122 36.7084 28.707 36.624L28.4043 36.2739C28.3038 36.3533 28.204 36.4345 28.101 36.5113H28.1016Z" fill="#9CA3AF"/>
<path d="M26.69 40.0118L26.3931 39.4902C26.2043 39.5773 26.0136 39.6611 25.8217 39.7411L26.1263 40.3068C26.3157 40.2114 26.5038 40.1135 26.69 40.0111V40.0118Z" fill="#9CA3AF"/>
<path d="M24.9904 41.0846L25.3244 41.8314C25.5573 41.729 25.7877 41.6215 26.0155 41.5095L25.6802 40.8223C25.4517 40.9151 25.222 41.0021 24.9904 41.0846Z" fill="#9CA3AF"/>
<path d="M22.4875 39.4551C22.2302 39.5319 21.9704 39.6035 21.7074 39.6675L22.6078 42.7705C22.922 42.6912 23.2336 42.6048 23.5414 42.5107L22.4875 39.4551Z" fill="#9CA3AF"/>
<path d="M27.3018 38.6542L27.0248 38.2344C26.8705 38.3201 26.7144 38.4027 26.5576 38.4827L26.8437 38.9306C26.9979 38.841 27.1502 38.7489 27.3012 38.6542H27.3018Z" fill="#9CA3AF"/>
<path d="M29.2319 37.2311L28.9817 36.9419C28.8819 37.0193 28.7808 37.0955 28.6797 37.1703L28.944 37.4717C29.0406 37.3924 29.1366 37.3124 29.2319 37.2311Z" fill="#9CA3AF"/>
<path d="M27.7711 39.3649L27.487 38.9336C27.3296 39.0213 27.1709 39.1064 27.0103 39.1889L27.3078 39.6548C27.4633 39.5607 27.6175 39.4641 27.7705 39.3643L27.7711 39.3649Z" fill="#9CA3AF"/>
<path d="M27.1885 40.8855L26.8532 40.2974C26.6599 40.3927 26.4654 40.4836 26.2689 40.5719L26.61 41.2054C26.8045 41.1017 26.9971 40.9955 27.1878 40.8855H27.1885Z" fill="#9CA3AF"/>
<path d="M26.4308 38.2838C26.5812 38.1948 26.7296 38.1033 26.8768 38.0086L26.5869 37.5684C26.4423 37.6611 26.2958 37.752 26.1479 37.841L26.4308 38.2838Z" fill="#9CA3AF"/>
<path d="M33.5591 34.5591L33.7299 34.666C33.76 34.6193 33.7882 34.5707 33.8182 34.5239L33.6589 34.4126C33.625 34.4612 33.593 34.5111 33.5591 34.5591Z" fill="#9CA3AF"/>
<path d="M32.9268 35.8075C32.9787 35.739 33.0311 35.6706 33.0817 35.6015L32.8846 35.4453C32.8283 35.5151 32.7733 35.5855 32.7163 35.6546L32.9268 35.8075Z" fill="#9CA3AF"/>
<path d="M27.4556 37.6176C27.5785 37.5305 27.6994 37.4409 27.8197 37.3501L27.5068 36.936C27.478 36.9559 27.4499 36.9776 27.4211 36.9968C27.3289 37.0647 27.2336 37.1293 27.1401 37.1952L27.4569 37.6169L27.4556 37.6176Z" fill="#9CA3AF"/>
<path d="M33.0647 33.9977L32.9968 33.9497C32.9553 34.0092 32.9124 34.0687 32.8695 34.1276L32.9514 34.1788C32.9898 34.1186 33.0269 34.0579 33.0647 33.9971V33.9977Z" fill="#9CA3AF"/>
<path d="M25.7089 39.5305C25.8945 39.4422 26.0782 39.3501 26.2593 39.2541L25.6251 38.1406C25.4543 38.2347 25.2821 38.3256 25.1074 38.4132L25.7089 39.5299V39.5305Z" fill="#9CA3AF"/>
<path d="M30.9849 35.4707L30.7891 35.2954C30.7162 35.3728 30.6432 35.4509 30.569 35.5271L30.7808 35.7056C30.8499 35.6282 30.9177 35.5495 30.9856 35.4707H30.9849Z" fill="#9CA3AF"/>
<path d="M23.9907 42.3611C24.2627 42.2645 24.5327 42.1621 24.8002 42.0533L23.5747 39.0898C23.3469 39.1756 23.1166 39.2556 22.8843 39.3317L23.9907 42.3611Z" fill="#9CA3AF"/>
<path d="M24.8928 40.8651C25.1174 40.7736 25.3408 40.6776 25.5615 40.5765L24.6202 38.6484C24.4219 38.7399 24.2209 38.8276 24.0181 38.9114L24.8928 40.8651Z" fill="#9CA3AF"/>
<path d="M21.3646 39.7457C20.2377 39.9946 19.0679 40.129 17.8662 40.129C14.7632 40.129 11.8651 39.2536 9.40522 37.7363L7.71265 40.4861C10.6652 42.3066 14.1425 43.3574 17.8662 43.3574C19.3713 43.3574 20.8354 43.184 22.2413 42.8595L21.3646 39.7457Z" fill="#9CA3AF"/>
<path d="M31.5884 36.0112L31.4297 35.8691C31.3619 35.9402 31.2941 36.0112 31.225 36.081L31.399 36.2281C31.4624 36.1558 31.5264 36.0848 31.5884 36.0118V36.0112Z" fill="#9CA3AF"/>
<path d="M31.5327 34.7919C31.5993 34.7055 31.6645 34.6185 31.7292 34.5302L31.5705 34.4048C31.4995 34.4918 31.4278 34.5776 31.3555 34.6627L31.5327 34.7913V34.7919Z" fill="#9CA3AF"/>
<path d="M31.3325 37.6601L31.0695 37.3926C31.0029 37.454 30.9332 37.5129 30.8654 37.5737L31.1463 37.8488C31.209 37.7861 31.2711 37.7234 31.3325 37.6601Z" fill="#9CA3AF"/>
<path d="M31.0648 34.0048L30.8831 33.8608C30.8037 33.9562 30.7206 34.0483 30.6393 34.1418L30.8511 34.296C30.9234 34.2 30.9944 34.1027 31.0648 34.0048Z" fill="#9CA3AF"/>
<path d="M32.405 33.5357L32.2924 33.457C32.2418 33.5287 32.19 33.5991 32.1388 33.6695L32.2687 33.7508C32.3148 33.6791 32.3608 33.6081 32.4056 33.5357H32.405Z" fill="#9CA3AF"/>
<path d="M31.8566 36.6136L32.1061 36.8242C32.1631 36.7583 32.2181 36.6911 32.2738 36.6252L32.0434 36.4185C31.982 36.4844 31.9193 36.549 31.8566 36.6136Z" fill="#9CA3AF"/>
<path d="M32.1847 35.2676C32.2442 35.1895 32.3012 35.1095 32.3594 35.0302L32.2455 34.9399C32.1821 35.018 32.1175 35.0948 32.0522 35.171L32.1847 35.2676Z" fill="#9CA3AF"/>
<path d="M31.5749 32.9551C31.5154 33.0383 31.4584 33.1234 31.397 33.2053L31.5422 33.2962C31.596 33.2123 31.6491 33.1285 31.7016 33.044L31.5749 32.9557V32.9551Z" fill="#9CA3AF"/>
<path d="M11.4819 31.3979C11.3712 31.3096 11.2624 31.2188 11.1555 31.126L10.833 31.4479C10.9348 31.556 11.0397 31.6603 11.1459 31.7621L11.4819 31.3979Z" fill="#9CA3AF"/>
<path d="M10.4906 30.4888L10.2161 30.7159C10.3076 30.8369 10.4016 30.954 10.4983 31.0692L10.8022 30.8023C10.696 30.7006 10.5923 30.5956 10.4906 30.4888Z" fill="#9CA3AF"/>
<path d="M11.7538 32.6486C11.6239 32.5705 11.496 32.4879 11.3699 32.4028L11.0787 32.7561C11.2016 32.8585 11.3257 32.9583 11.4531 33.0543L11.7538 32.6479V32.6486Z" fill="#9CA3AF"/>
<path d="M9.4047 30.5991C9.31959 30.4948 9.23512 30.3886 9.15321 30.2798L9.02075 30.3707C9.09306 30.4871 9.16729 30.6017 9.24344 30.7143L9.4047 30.5991Z" fill="#9CA3AF"/>
<path d="M10.8825 32.0473C10.7615 31.9526 10.6419 31.856 10.5254 31.7549L10.2771 32.0025C10.3865 32.1177 10.4979 32.231 10.6124 32.3398L10.8825 32.0473Z" fill="#9CA3AF"/>
<path d="M9.90721 31.5868L10.1312 31.3897C10.0198 31.2816 9.91041 31.1708 9.80418 31.0557L9.60901 31.2169C9.70564 31.343 9.80546 31.4659 9.90721 31.5862V31.5868Z" fill="#9CA3AF"/>
<path d="M23.1455 32.376C21.6008 33.3551 19.7598 33.9041 17.7946 33.8587C17.202 33.8446 16.6242 33.7768 16.0636 33.6603L15.3738 36.7818C16.1327 36.9412 16.9166 37.0365 17.7203 37.0551C20.3408 37.1159 22.7962 36.3838 24.8554 35.0784L23.1455 32.376Z" fill="#9CA3AF"/>
<path d="M7.83523 31.186L7.64709 31.3153C7.7258 31.4375 7.80707 31.5585 7.88962 31.6788L8.09696 31.531C8.00801 31.4177 7.92034 31.3031 7.83523 31.186Z" fill="#9CA3AF"/>
<path d="M15.1427 33.4209L14.1912 36.4509C14.4068 36.5252 14.6244 36.5943 14.8432 36.657C14.9226 36.6775 15.0019 36.6979 15.0819 36.7165L15.7961 33.6007C15.5753 33.5482 15.3571 33.4887 15.1427 33.4209Z" fill="#9CA3AF"/>
<path d="M8.55868 32.0876L8.32959 32.277C8.4371 32.4139 8.54716 32.5489 8.66043 32.6814L8.90871 32.4632C8.78905 32.3403 8.67258 32.2149 8.55868 32.0869V32.0876Z" fill="#9CA3AF"/>
<path d="M11.5787 32.1501C11.6907 32.2435 11.8053 32.3344 11.9224 32.4221L12.2641 31.9607C12.1495 31.8865 12.0363 31.8103 11.9243 31.731L11.5794 32.1495L11.5787 32.1501Z" fill="#9CA3AF"/>
<path d="M12.3765 33.6662L12.6868 33.1357C12.5288 33.0647 12.3739 32.9885 12.2216 32.9092L11.9087 33.3757C12.0616 33.4774 12.2178 33.5741 12.3771 33.6662H12.3765Z" fill="#9CA3AF"/>
<path d="M8.75144 31.0655C8.66377 30.9567 8.57802 30.846 8.49483 30.7334L8.36621 30.8223C8.44172 30.9414 8.51979 31.0585 8.59978 31.1743L8.75144 31.0662V31.0655Z" fill="#9CA3AF"/>
<path d="M10.1263 30.0837C10.0418 29.9839 9.95862 29.8828 9.87799 29.7798L9.67578 29.9186C9.74489 30.0326 9.81592 30.1439 9.88823 30.2533L10.1256 30.0837H10.1263Z" fill="#9CA3AF"/>
<path d="M12.9236 35.155C12.7067 35.0686 12.4917 34.9758 12.2805 34.876L11.9766 35.4423C12.1922 35.5665 12.4104 35.6868 12.6338 35.7981L12.9236 35.1543V35.155Z" fill="#9CA3AF"/>
<path d="M14.088 35.5474C13.8372 35.4776 13.5883 35.4015 13.3432 35.3145L13.0571 35.9992C13.3112 36.115 13.5684 36.2238 13.8301 36.323L14.0887 35.5474H14.088Z" fill="#9CA3AF"/>
<path d="M13.301 34.319C13.0962 34.2492 12.8965 34.1737 12.702 34.0918L12.4147 34.6274C12.6137 34.7375 12.8165 34.8405 13.0226 34.9378L13.3016 34.319H13.301Z" fill="#9CA3AF"/>
<path d="M14.8305 33.3169C14.6404 33.2503 14.4529 33.1787 14.2692 33.1006L13.4246 35.1195C13.6588 35.2194 13.8975 35.3096 14.1393 35.3928L14.8305 33.3169Z" fill="#9CA3AF"/>
<path d="M12.3478 32.7199C12.4873 32.8114 12.6293 32.8997 12.7752 32.9836L13.0664 32.4864C12.9333 32.4057 12.8021 32.3219 12.6729 32.2349L12.3478 32.7199Z" fill="#9CA3AF"/>
<path d="M9.52357 31.9239C9.40775 31.8087 9.29448 31.6903 9.18442 31.5693L9.00012 31.7216C9.10251 31.8522 9.20746 31.9802 9.3156 32.1062L9.52357 31.9232V31.9239Z" fill="#9CA3AF"/>
<path d="M12.8048 33.9001C12.9897 33.9948 13.1785 34.0831 13.3705 34.1656L13.9215 32.9434C13.7608 32.8672 13.6034 32.7866 13.4479 32.7021L12.8048 33.9001Z" fill="#9CA3AF"/>
<path d="M10.7529 34.002C10.6806 33.9534 10.6077 33.906 10.5366 33.8561C10.4598 33.8017 10.3863 33.7448 10.3114 33.6885L10.0157 34.0468C10.1584 34.1703 10.3043 34.2906 10.4528 34.4077L10.7529 34.002Z" fill="#9CA3AF"/>
<path d="M10.3276 32.6497C10.199 32.546 10.0742 32.4385 9.95071 32.3291L9.7229 32.5563C9.84 32.6785 9.95967 32.7982 10.0825 32.9153L10.327 32.6497H10.3276Z" fill="#9CA3AF"/>
<path d="M12.2494 33.8865C12.0798 33.804 11.9115 33.7163 11.7451 33.6216L11.4655 34.0388C11.6306 34.1527 11.7976 34.2628 11.9678 34.3677L12.2494 33.8865Z" fill="#9CA3AF"/>
<path d="M9.76482 33.2594C9.6298 33.1461 9.49798 33.0297 9.36807 32.9106L9.10315 33.1756C9.22793 33.3074 9.35528 33.436 9.48582 33.5627L9.76482 33.26V33.2594Z" fill="#9CA3AF"/>
<path d="M11.8068 34.6392C11.6245 34.5426 11.4447 34.4389 11.2668 34.332L10.9596 34.7902C11.1381 34.9169 11.3192 35.0398 11.5042 35.1575L11.8075 34.6392H11.8068Z" fill="#9CA3AF"/>
<path d="M10.9855 33.687L11.2561 33.3216C11.1198 33.2327 10.9823 33.1386 10.8453 33.04L10.5817 33.36C10.6489 33.417 10.7148 33.4745 10.7832 33.5302C10.8498 33.584 10.9189 33.6345 10.9861 33.687H10.9855Z" fill="#9CA3AF"/>
<path d="M16.3702 13.572L16.3376 13.3154C16.1686 13.3327 15.9997 13.3545 15.832 13.3807L15.88 13.684C16.0426 13.6424 16.2064 13.6053 16.3708 13.5727L16.3702 13.572Z" fill="#9CA3AF"/>
<path d="M16.4819 14.448L16.4371 14.0986C16.2759 14.1146 16.1146 14.1345 15.954 14.1588L16.0161 14.5536C16.1703 14.5146 16.3251 14.4794 16.4819 14.4474V14.448Z" fill="#9CA3AF"/>
<path d="M9.7821 14.174L10.3004 14.8082C10.4847 14.6405 10.6748 14.4799 10.8687 14.325L10.4355 13.7056C10.2128 13.854 9.99584 14.0114 9.7821 14.1733V14.174Z" fill="#9CA3AF"/>
<path d="M12.2223 14.4402L11.9177 13.9014C11.7258 14.0095 11.5376 14.1241 11.3521 14.2431L11.7258 14.8094C11.8877 14.6814 12.0528 14.5579 12.2223 14.4402Z" fill="#9CA3AF"/>
<path d="M15.5708 11.731L15.6239 12.0657C15.8025 12.0267 15.9823 11.9915 16.1634 11.9608L16.125 11.6606C15.94 11.6798 15.7551 11.7035 15.5714 11.731H15.5708Z" fill="#9CA3AF"/>
<path d="M12.7717 13.0905L12.5439 12.5747C12.3449 12.6585 12.1484 12.7481 11.9532 12.8422L12.2348 13.3868C12.4108 13.2837 12.5893 13.1846 12.7711 13.0905H12.7717Z" fill="#9CA3AF"/>
<path d="M11.7837 13.6635L11.4599 13.0908C11.2468 13.2054 11.0382 13.3276 10.8315 13.4543L11.2251 14.0507C11.4075 13.9163 11.593 13.7864 11.7831 13.6635H11.7837Z" fill="#9CA3AF"/>
<path d="M16.8654 11.607L16.8795 11.8643C17.0407 11.847 17.2033 11.8329 17.3658 11.8227L17.3568 11.5942C17.193 11.5949 17.0292 11.6 16.8647 11.607H16.8654Z" fill="#9CA3AF"/>
<path d="M17.3969 12.6221L17.3905 12.4653C17.2311 12.4653 17.0718 12.4692 16.9131 12.4762L16.924 12.6663C17.0807 12.6477 17.2388 12.6336 17.3969 12.6221Z" fill="#9CA3AF"/>
<path d="M9.47814 14.4093C9.32904 14.5296 9.1825 14.6544 9.03852 14.7818C8.96429 14.8515 8.8907 14.9213 8.81775 14.9923L11.069 17.2608C11.2194 17.1143 11.3736 16.9729 11.5329 16.8359L9.4775 14.4087L9.47814 14.4093Z" fill="#9CA3AF"/>
<path d="M17.4617 14.3011L17.4521 14.0567C17.3017 14.0541 17.1514 14.0567 17.001 14.0618L17.0176 14.3555C17.1654 14.3344 17.3133 14.3158 17.4624 14.3011H17.4617Z" fill="#9CA3AF"/>
<path d="M16.2663 12.7669L16.235 12.5244C16.0584 12.543 15.8818 12.566 15.7064 12.5929L15.7506 12.8738C15.9214 12.8335 16.0929 12.7983 16.2657 12.7669H16.2663Z" fill="#9CA3AF"/>
<path d="M17.4289 13.4209L17.4225 13.2609C17.2676 13.2602 17.1127 13.2615 16.9579 13.2679L16.9694 13.4721C17.1223 13.4516 17.2753 13.4337 17.4289 13.4209Z" fill="#9CA3AF"/>
<path d="M15.0014 12.2205L14.9169 11.8442C14.7333 11.8814 14.5503 11.9229 14.3685 11.969L14.478 12.3786C14.6514 12.3216 14.8254 12.2691 15.0014 12.2205Z" fill="#9CA3AF"/>
<path d="M15.3604 13.8304L15.2823 13.481C15.1217 13.5155 14.9617 13.5545 14.8024 13.5974L14.906 13.9852C15.0558 13.9295 15.2074 13.8783 15.3604 13.8304Z" fill="#9CA3AF"/>
<path d="M15.5533 14.6835L15.4561 14.249C15.3057 14.2804 15.1559 14.3156 15.0068 14.354L15.1329 14.8237C15.2718 14.7738 15.4119 14.727 15.554 14.6835H15.5533Z" fill="#9CA3AF"/>
<path d="M12.3282 14.6279C12.1555 14.7297 11.9859 14.8378 11.8182 14.9498L12.5573 16.069C12.7 15.9769 12.8453 15.8892 12.9931 15.8041L12.3282 14.6279Z" fill="#9CA3AF"/>
<path d="M13.1209 13.8841L12.9091 13.4048C12.728 13.4841 12.5501 13.5692 12.3741 13.6576L12.6378 14.1669C12.7958 14.0677 12.9571 13.9737 13.1209 13.8841Z" fill="#9CA3AF"/>
<path d="M13.5543 14.8677C13.4046 14.9355 13.2561 15.0072 13.1108 15.0833L13.3764 15.5965C13.5121 15.5268 13.6484 15.459 13.7879 15.3956L13.5549 14.8683L13.5543 14.8677Z" fill="#9CA3AF"/>
<path d="M8.60747 15.2021C6.36265 17.5065 4.97852 20.6524 4.97852 24.1226H8.17553C8.17553 21.5303 9.20516 19.1793 10.8766 17.4534L8.60811 15.2021H8.60747Z" fill="#9CA3AF"/>
<path d="M10.9838 14.4893C10.7848 14.6288 10.589 14.774 10.3983 14.927L11.7869 16.6253C11.9348 16.5076 12.0858 16.3937 12.24 16.2849L10.9838 14.4893Z" fill="#9CA3AF"/>
<path d="M13.6985 12.6615C13.7401 12.6442 13.783 12.6295 13.8246 12.6129L13.6755 12.1592C13.4938 12.2155 13.3139 12.2769 13.1348 12.3422L13.3216 12.8247C13.4464 12.7684 13.5712 12.7127 13.6985 12.6609V12.6615Z" fill="#9CA3AF"/>
<path d="M13.4647 14.6616L13.2413 14.1567C13.0769 14.2316 12.915 14.3103 12.755 14.3935L13.0314 14.9272C13.1729 14.8344 13.3175 14.7461 13.4647 14.661V14.6616Z" fill="#9CA3AF"/>
<path d="M14.0887 13.4153L13.9556 13.0103C13.9179 13.0224 13.8795 13.0333 13.8417 13.0454C13.7137 13.0883 13.587 13.1357 13.4603 13.183L13.6299 13.6207C13.7809 13.5484 13.9339 13.48 14.0881 13.4147L14.0887 13.4153Z" fill="#9CA3AF"/>
<path d="M14.6175 15.0242L14.4511 14.5181C14.311 14.5641 14.1721 14.6121 14.0345 14.6652L14.24 15.1957C14.3641 15.1362 14.4902 15.0786 14.6169 15.0242H14.6175Z" fill="#9CA3AF"/>
<path d="M14.3501 14.2123L14.2068 13.7759C14.0538 13.8271 13.9028 13.8815 13.7531 13.9397L13.9341 14.4075C14.0704 14.339 14.21 14.2744 14.3501 14.2123Z" fill="#9CA3AF"/>
<path d="M15.1807 13.0249L15.1084 12.7036C14.9369 12.7394 14.766 12.7798 14.5958 12.8239L14.6918 13.1836C14.8537 13.1266 15.0162 13.0735 15.1801 13.0249H15.1807Z" fill="#9CA3AF"/>
<path d="M29.7952 22.7848C28.5346 22.4975 27.4455 22.2492 27.4455 21.5632C27.4455 20.6277 28.6798 20.4875 29.4151 20.4875C30.199 20.4875 30.9983 20.6616 31.7911 21.0046L31.8545 21.0321L33.9067 18.9805L33.6808 18.8333C32.5853 18.1422 31.0367 17.7461 29.4337 17.7461C26.2431 17.7461 24.1819 19.2979 24.1819 21.6982C24.1819 24.4819 26.6814 25.0629 28.6971 25.532C29.959 25.8251 31.0495 26.0779 31.0495 26.7773C31.0495 27.6399 29.7946 27.7685 29.0465 27.7685C27.9932 27.7685 26.8535 27.4774 25.9193 26.9706L25.8527 26.9347L23.8542 28.9332L24.0526 29.088C25.1667 29.9526 27.1197 30.5112 29.028 30.5112C32.9289 30.5112 34.313 28.3918 34.313 26.577C34.313 23.8215 31.811 23.2481 29.7952 22.7861V22.7848Z" fill="#9CA3AF"/>
</g>
<defs>
<clipPath id="clip0_4128_11143">
<rect width="207.486" height="47.9992" fill="white" transform="translate(0.513916 0.112793)"/>
</clipPath>
</defs>
</svg>
