<svg width="194" height="48" viewBox="0 0 194 48" fill="none" xmlns="http://www.w3.org/2000/svg">
<g clip-path="url(#clip0_4215_5722)">
<path d="M4.11116 19.3707L0.973193 17.4903C0.655897 17.299 0.259277 17.5346 0.259277 17.9126V26.006C0.259277 26.384 0.655897 26.6196 0.973193 26.433L4.11116 24.5479C4.25581 24.4615 4.3468 24.3005 4.3468 24.1256V19.7907C4.3468 19.6157 4.25581 19.4547 4.11116 19.3684" fill="#212855"/>
<path d="M4.11116 19.3707L0.973193 17.4903C0.655897 17.299 0.259277 17.5346 0.259277 17.9126V26.006C0.259277 26.384 0.655897 26.6196 0.973193 26.433L4.11116 24.5479C4.25581 24.4615 4.3468 24.3005 4.3468 24.1256V19.7907C4.3468 19.6157 4.25581 19.4547 4.11116 19.3684" fill="#9CA3AF"/>
<path d="M4.60121 14.4633L8.20812 12.3098C8.3551 12.2235 8.44842 12.0625 8.44842 11.8875L8.46242 8.11028C8.46242 7.73699 8.07047 7.49668 7.75317 7.68333L0.977962 11.7312C0.660666 11.9225 0.660666 12.3938 0.977962 12.5805L4.1276 14.4656C4.27458 14.5519 4.45422 14.5519 4.60121 14.4656" fill="#212855"/>
<path d="M4.60121 14.4633L8.20812 12.3098C8.3551 12.2235 8.44842 12.0625 8.44842 11.8875L8.46242 8.11028C8.46242 7.73699 8.07047 7.49668 7.75317 7.68333L0.977962 11.7312C0.660666 11.9225 0.660666 12.3938 0.977962 12.5805L4.1276 14.4656C4.27458 14.5519 4.45422 14.5519 4.60121 14.4656" fill="#9CA3AF"/>
<path d="M4.12509 29.4362L0.94746 31.333C0.63483 31.5197 0.634833 31.9909 0.942797 32.1776L7.74833 36.3025C8.06096 36.4938 8.46225 36.2535 8.45758 35.8755L8.44359 32.0329C8.44359 31.858 8.35259 31.697 8.20794 31.6106L4.59637 29.4339C4.44939 29.3476 4.26974 29.3476 4.12275 29.4339" fill="#212855"/>
<path d="M4.12509 29.4362L0.94746 31.333C0.63483 31.5197 0.634833 31.9909 0.942797 32.1776L7.74833 36.3025C8.06096 36.4938 8.46225 36.2535 8.45758 35.8755L8.44359 32.0329C8.44359 31.858 8.35259 31.697 8.20794 31.6106L4.59637 29.4339C4.44939 29.3476 4.26974 29.3476 4.12275 29.4339" fill="#9CA3AF"/>
<path d="M12.5521 35.0523L12.5661 38.8086C12.5661 38.9835 12.6571 39.1445 12.8018 39.2308L20.5429 43.8573C20.6875 43.9437 20.8695 43.9437 21.0118 43.8573L28.7482 39.2308C28.8929 39.1445 28.9839 38.9835 28.9839 38.8086L29.0002 35.0523C29.0002 34.6743 28.6036 34.4387 28.2863 34.6253L21.0095 38.9602C20.8648 39.0465 20.6829 39.0465 20.5405 38.9602L13.2591 34.6253C12.9418 34.4387 12.5498 34.6743 12.5498 35.0523" fill="#212855"/>
<path d="M12.5521 35.0523L12.5661 38.8086C12.5661 38.9835 12.6571 39.1445 12.8018 39.2308L20.5429 43.8573C20.6875 43.9437 20.8695 43.9437 21.0118 43.8573L28.7482 39.2308C28.8929 39.1445 28.9839 38.9835 28.9839 38.8086L29.0002 35.0523C29.0002 34.6743 28.6036 34.4387 28.2863 34.6253L21.0095 38.9602C20.8648 39.0465 20.6829 39.0465 20.5405 38.9602L13.2591 34.6253C12.9418 34.4387 12.5498 34.6743 12.5498 35.0523" fill="#9CA3AF"/>
<path d="M8.47394 17.3349V26.5646C8.47394 26.7396 8.56493 26.9005 8.71424 26.9869L20.5429 34.0538C20.6898 34.1401 20.8695 34.1401 21.0165 34.0538L32.8451 26.9869C32.9897 26.9005 33.0807 26.7396 33.0807 26.5646V17.3349C33.0807 17.1599 32.9897 16.9989 32.8451 16.9126L21.0165 9.87138C20.8695 9.78506 20.6898 9.78506 20.5429 9.87138L8.71424 16.9126C8.56726 16.9989 8.47394 17.1599 8.47394 17.3349ZM28.9932 19.7846V24.1148C28.9932 24.2898 28.9022 24.4531 28.7576 24.5418L21.0165 29.1893C20.8695 29.2803 20.6852 29.2803 20.5429 29.1893L12.8018 24.5418C12.6548 24.4555 12.5615 24.2898 12.5615 24.1148V19.7846C12.5615 19.6097 12.6524 19.4487 12.8018 19.3577L20.5429 14.7662C20.6898 14.6799 20.8695 14.6799 21.0165 14.7662L28.7529 19.3577C28.8999 19.4487 28.9932 19.6097 28.9932 19.7846Z" fill="#212855"/>
<path d="M8.47394 17.3349V26.5646C8.47394 26.7396 8.56493 26.9005 8.71424 26.9869L20.5429 34.0538C20.6898 34.1401 20.8695 34.1401 21.0165 34.0538L32.8451 26.9869C32.9897 26.9005 33.0807 26.7396 33.0807 26.5646V17.3349C33.0807 17.1599 32.9897 16.9989 32.8451 16.9126L21.0165 9.87138C20.8695 9.78506 20.6898 9.78506 20.5429 9.87138L8.71424 16.9126C8.56726 16.9989 8.47394 17.1599 8.47394 17.3349ZM28.9932 19.7846V24.1148C28.9932 24.2898 28.9022 24.4531 28.7576 24.5418L21.0165 29.1893C20.8695 29.2803 20.6852 29.2803 20.5429 29.1893L12.8018 24.5418C12.6548 24.4555 12.5615 24.2898 12.5615 24.1148V19.7846C12.5615 19.6097 12.6524 19.4487 12.8018 19.3577L20.5429 14.7662C20.6898 14.6799 20.8695 14.6799 21.0165 14.7662L28.7529 19.3577C28.8999 19.4487 28.9932 19.6097 28.9932 19.7846Z" fill="#9CA3AF"/>
<path d="M37.446 24.5513L40.5839 26.4317C40.9012 26.623 41.2979 26.3874 41.2979 26.0094V17.916C41.2979 17.538 40.9012 17.3024 40.5839 17.4937L37.446 19.3742C37.3013 19.4605 37.2103 19.6215 37.2103 19.7964V24.1313C37.2103 24.3063 37.3013 24.4673 37.446 24.5536" fill="#212855"/>
<path d="M37.446 24.5513L40.5839 26.4317C40.9012 26.623 41.2979 26.3874 41.2979 26.0094V17.916C41.2979 17.538 40.9012 17.3024 40.5839 17.4937L37.446 19.3742C37.3013 19.4605 37.2103 19.6215 37.2103 19.7964V24.1313C37.2103 24.3063 37.3013 24.4673 37.446 24.5536" fill="#9CA3AF"/>
<path d="M37.4178 14.4639L40.5721 12.5788C40.8847 12.3922 40.8847 11.9209 40.5721 11.7296L33.7922 7.68168C33.4749 7.49503 33.0829 7.73301 33.0829 8.10864L33.0993 11.8859C33.0993 12.0609 33.1856 12.2219 33.3349 12.3082L36.9418 14.4616C37.0888 14.5479 37.2685 14.5479 37.4154 14.4616" fill="#212855"/>
<path d="M37.4178 14.4639L40.5721 12.5788C40.8847 12.3922 40.8847 11.9209 40.5721 11.7296L33.7922 7.68168C33.4749 7.49503 33.0829 7.73301 33.0829 8.10864L33.0993 11.8859C33.0993 12.0609 33.1856 12.2219 33.3349 12.3082L36.9418 14.4616C37.0888 14.5479 37.2685 14.5479 37.4154 14.4616" fill="#9CA3AF"/>
<path d="M36.9442 29.4359L33.3326 31.6127C33.1879 31.699 33.1016 31.86 33.0969 32.035L33.0829 35.8776C33.0829 36.2555 33.4796 36.4958 33.7969 36.3045L40.5977 32.1796C40.9104 31.993 40.9104 31.5217 40.5931 31.3351L37.4154 29.4383C37.2685 29.352 37.0888 29.352 36.9418 29.4383" fill="#212855"/>
<path d="M36.9442 29.4359L33.3326 31.6127C33.1879 31.699 33.1016 31.86 33.0969 32.035L33.0829 35.8776C33.0829 36.2555 33.4796 36.4958 33.7969 36.3045L40.5977 32.1796C40.9104 31.993 40.9104 31.5217 40.5931 31.3351L37.4154 29.4383C37.2685 29.352 37.0888 29.352 36.9418 29.4383" fill="#9CA3AF"/>
<path d="M28.9977 8.86745L28.9814 5.0902C28.9814 4.91521 28.895 4.75423 28.7457 4.66791L21.0093 0.064743C20.8646 -0.021581 20.6827 -0.021581 20.5403 0.064743L12.8039 4.66791C12.6593 4.75423 12.5683 4.91521 12.5683 5.0902L12.5519 8.86745C12.5519 9.24541 12.9486 9.48106 13.2612 9.29441L20.5427 4.95488C20.6873 4.86389 20.8693 4.86389 21.0116 4.95488L28.2931 9.29441C28.6057 9.48106 29.0024 9.24541 29.0024 8.86745" fill="#212855"/>
<path d="M28.9977 8.86745L28.9814 5.0902C28.9814 4.91521 28.895 4.75423 28.7457 4.66791L21.0093 0.064743C20.8646 -0.021581 20.6827 -0.021581 20.5403 0.064743L12.8039 4.66791C12.6593 4.75423 12.5683 4.91521 12.5683 5.0902L12.5519 8.86745C12.5519 9.24541 12.9486 9.48106 13.2612 9.29441L20.5427 4.95488C20.6873 4.86389 20.8693 4.86389 21.0116 4.95488L28.2931 9.29441C28.6057 9.48106 29.0024 9.24541 29.0024 8.86745" fill="#9CA3AF"/>
<path d="M69.0456 18.231H68.32C66.3625 18.231 65.0304 17.4121 64.2978 15.8023C63.6189 17.4121 62.2867 18.231 60.2499 18.231C57.2333 18.231 55.7098 16.0589 55.7098 11.7427C55.7098 9.40031 56.2277 7.68316 57.2893 6.58195C58.0195 5.82136 58.9994 5.45508 60.2476 5.45508H64.6874C64.9347 5.45508 65.1353 5.66506 65.1353 5.92169V13.2942C65.1353 15.8046 66.2505 17.0458 68.5043 17.0458H69.0176L69.0432 18.2334L69.0456 18.231ZM63.8615 11.7427V6.46763H60.4366C58.1292 6.46763 56.9906 8.21743 56.9906 11.7427C56.9906 15.268 58.1315 17.0435 60.4366 17.0435C62.7416 17.0435 63.8615 15.268 63.8615 11.7427Z" fill="#212855"/>
<path d="M69.0456 18.231H68.32C66.3625 18.231 65.0304 17.4121 64.2978 15.8023C63.6189 17.4121 62.2867 18.231 60.2499 18.231C57.2333 18.231 55.7098 16.0589 55.7098 11.7427C55.7098 9.40031 56.2277 7.68316 57.2893 6.58195C58.0195 5.82136 58.9994 5.45508 60.2476 5.45508H64.6874C64.9347 5.45508 65.1353 5.66506 65.1353 5.92169V13.2942C65.1353 15.8046 66.2505 17.0458 68.5043 17.0458H69.0176L69.0432 18.2334L69.0456 18.231ZM63.8615 11.7427V6.46763H60.4366C58.1292 6.46763 56.9906 8.21743 56.9906 11.7427C56.9906 15.268 58.1315 17.0435 60.4366 17.0435C62.7416 17.0435 63.8615 15.268 63.8615 11.7427Z" fill="#9CA3AF"/>
<path d="M74.0967 13.5185C74.0967 16.3135 72.3609 18.2266 69.6149 18.2266H68.313V17.0438H69.4539C71.7076 17.0438 72.8229 15.8026 72.8229 13.2922V5.91964C72.8229 5.663 73.0235 5.45068 73.2755 5.45068H73.6464C73.8937 5.45068 74.099 5.663 74.099 5.91964V13.5185H74.0967Z" fill="#212855"/>
<path d="M74.0967 13.5185C74.0967 16.3135 72.3609 18.2266 69.6149 18.2266H68.313V17.0438H69.4539C71.7076 17.0438 72.8229 15.8026 72.8229 13.2922V5.91964C72.8229 5.663 73.0235 5.45068 73.2755 5.45068H73.6464C73.8937 5.45068 74.099 5.663 74.099 5.91964V13.5185H74.0967Z" fill="#9CA3AF"/>
<path d="M77.9882 8.28325C77.7969 8.10127 77.7969 7.7863 77.9789 7.59966C78.8235 6.74575 79.8547 6.32812 81.0772 6.32812C83.8745 6.32812 85.72 8.12926 85.72 11.0619V18.2245H77.6429C77.391 18.2245 77.1857 18.0145 77.1903 17.7556V17.5082C77.1903 17.2516 77.3956 17.0416 77.6429 17.0416H84.4182V11.2626C84.4182 8.75219 83.3029 7.511 81.0749 7.511C80.1393 7.511 79.3601 7.8073 78.7371 8.41156C78.5622 8.58188 78.2939 8.58188 78.1189 8.41156L77.9836 8.28091L77.9882 8.28325Z" fill="#212855"/>
<path d="M77.9882 8.28325C77.7969 8.10127 77.7969 7.7863 77.9789 7.59966C78.8235 6.74575 79.8547 6.32812 81.0772 6.32812C83.8745 6.32812 85.72 8.12926 85.72 11.0619V18.2245H77.6429C77.391 18.2245 77.1857 18.0145 77.1903 17.7556V17.5082C77.1903 17.2516 77.3956 17.0416 77.6429 17.0416H84.4182V11.2626C84.4182 8.75219 83.3029 7.511 81.0749 7.511C80.1393 7.511 79.3601 7.8073 78.7371 8.41156C78.5622 8.58188 78.2939 8.58188 78.1189 8.41156L77.9836 8.28091L77.9882 8.28325Z" fill="#9CA3AF"/>
<path d="M89.3548 22.4768C89.4108 22.2248 89.6558 22.0685 89.8984 22.1292C90.421 22.2551 90.9903 22.3158 91.6132 22.3158C92.7541 22.3158 93.6547 21.9238 94.3032 21.1049C94.9028 20.37 95.2575 19.4111 95.3648 18.2283H92.5674C91.044 18.1979 89.8518 17.6053 88.9815 16.4784C88.193 15.4332 87.815 14.1057 87.815 12.4445C87.815 10.6131 88.1673 9.17123 88.8719 8.07468C89.6605 6.83115 90.8573 6.21289 92.4578 6.21289C95.3648 6.21289 96.8043 8.29632 96.8043 12.4445C96.8043 14.164 96.774 15.7179 96.7226 17.0407H99.1024V18.2283H96.6386C96.5033 19.8031 96.0157 21.0489 95.1711 21.9495C94.3009 22.9364 93.1344 23.4474 91.6412 23.4474C90.9763 23.4474 90.2927 23.326 89.6208 23.0811C89.4038 23.0064 89.2848 22.7684 89.3385 22.5375L89.3525 22.4768H89.3548ZM95.6074 12.4469C95.6331 9.03591 94.6019 7.34209 92.4578 7.34209C90.1784 7.34209 89.0375 9.03591 89.0375 12.4469C89.0375 13.7441 89.3082 14.815 89.8774 15.6619C90.5004 16.5928 91.3963 17.0407 92.5674 17.0407H95.5538C95.5841 15.0949 95.5841 13.5458 95.6098 12.4445" fill="#212855"/>
<path d="M89.3548 22.4768C89.4108 22.2248 89.6558 22.0685 89.8984 22.1292C90.421 22.2551 90.9903 22.3158 91.6132 22.3158C92.7541 22.3158 93.6547 21.9238 94.3032 21.1049C94.9028 20.37 95.2575 19.4111 95.3648 18.2283H92.5674C91.044 18.1979 89.8518 17.6053 88.9815 16.4784C88.193 15.4332 87.815 14.1057 87.815 12.4445C87.815 10.6131 88.1673 9.17123 88.8719 8.07468C89.6605 6.83115 90.8573 6.21289 92.4578 6.21289C95.3648 6.21289 96.8043 8.29632 96.8043 12.4445C96.8043 14.164 96.774 15.7179 96.7226 17.0407H99.1024V18.2283H96.6386C96.5033 19.8031 96.0157 21.0489 95.1711 21.9495C94.3009 22.9364 93.1344 23.4474 91.6412 23.4474C90.9763 23.4474 90.2927 23.326 89.6208 23.0811C89.4038 23.0064 89.2848 22.7684 89.3385 22.5375L89.3525 22.4768H89.3548ZM95.6074 12.4469C95.6331 9.03591 94.6019 7.34209 92.4578 7.34209C90.1784 7.34209 89.0375 9.03591 89.0375 12.4469C89.0375 13.7441 89.3082 14.815 89.8774 15.6619C90.5004 16.5928 91.3963 17.0407 92.5674 17.0407H95.5538C95.5841 15.0949 95.5841 13.5458 95.6098 12.4445" fill="#9CA3AF"/>
<path d="M130.086 18.229H111.421V17.0461H113.992V8.60268C113.992 8.34137 114.197 8.13373 114.445 8.13373H114.816C115.068 8.13373 115.273 8.34371 115.273 8.60268V17.0461H120.016V7.28448C120.016 7.02318 120.226 6.81087 120.478 6.81787L120.849 6.82254C121.096 6.83187 121.292 7.03952 121.292 7.29149V17.0438H126.089V5.91964C126.089 5.65833 126.294 5.45068 126.542 5.45068H126.913C127.165 5.45068 127.37 5.66066 127.37 5.91964V17.0438H130.09V18.2266L130.086 18.229Z" fill="#212855"/>
<path d="M130.086 18.229H111.421V17.0461H113.992V8.60268C113.992 8.34137 114.197 8.13373 114.445 8.13373H114.816C115.068 8.13373 115.273 8.34371 115.273 8.60268V17.0461H120.016V7.28448C120.016 7.02318 120.226 6.81087 120.478 6.81787L120.849 6.82254C121.096 6.83187 121.292 7.03952 121.292 7.29149V17.0438H126.089V5.91964C126.089 5.65833 126.294 5.45068 126.542 5.45068H126.913C127.165 5.45068 127.37 5.66066 127.37 5.91964V17.0438H130.09V18.2266L130.086 18.229Z" fill="#9CA3AF"/>
<path d="M135.379 13.5177C135.379 16.3127 133.643 18.2258 130.897 18.2258H129.103V17.0429H130.734C132.988 17.0429 134.103 15.8017 134.103 13.2913V0.506061C134.103 0.244756 134.304 0.0371094 134.556 0.0371094H134.926C135.174 0.0371094 135.379 0.247089 135.379 0.506061V13.5177Z" fill="#212855"/>
<path d="M135.379 13.5177C135.379 16.3127 133.643 18.2258 130.897 18.2258H129.103V17.0429H130.734C132.988 17.0429 134.103 15.8017 134.103 13.2913V0.506061C134.103 0.244756 134.304 0.0371094 134.556 0.0371094H134.926C135.174 0.0371094 135.379 0.247089 135.379 0.506061V13.5177Z" fill="#9CA3AF"/>
<path d="M139.346 18.2281H138.069V0.506061C138.069 0.244756 138.27 0.0371094 138.522 0.0371094H138.893C139.14 0.0371094 139.346 0.247089 139.346 0.506061V18.2281Z" fill="#212855"/>
<path d="M139.346 18.2281H138.069V0.506061C138.069 0.244756 138.27 0.0371094 138.522 0.0371094H138.893C139.14 0.0371094 139.346 0.247089 139.346 0.506061V18.2281Z" fill="#9CA3AF"/>
<path d="M163.187 18.2262H162.513C160.688 18.2262 159.363 17.5776 158.519 16.2501C157.623 17.5776 156.181 18.2262 154.228 18.2262H146.916C143.984 18.2262 142.029 16.2804 142.029 13.3734V11.171C142.029 10.814 142.306 10.527 142.651 10.5224L143.949 10.513C144.296 10.5084 144.579 10.8 144.579 11.1616V13.0934C144.579 14.9249 145.474 15.8558 147.269 15.8558H154.093C155.913 15.8558 156.808 14.9249 156.808 13.0934V0.504108C156.808 0.242803 157.014 0.0351562 157.261 0.0351562H158.88C159.132 0.0351562 159.333 0.245136 159.333 0.504108V12.2465C159.333 14.6449 160.448 15.8581 162.676 15.8581H163.189V18.2262H163.187ZM154.135 9.76644H146.324C146.072 9.76644 145.871 9.55646 145.871 9.29749V8.60224C145.871 8.34093 146.072 8.13328 146.324 8.13328H148.503V7.56868C148.503 5.45258 149.781 3.79142 151.928 3.79142C152.632 3.79142 153.316 4.06906 153.95 4.622C154.156 4.79932 154.167 5.12594 153.976 5.31725L153.454 5.85152C153.276 6.02651 153.001 6.02184 152.819 5.85152C152.488 5.54356 152.126 5.39425 151.736 5.39425C150.68 5.39425 150.162 6.04751 150.162 7.31437V8.13328H154.135C154.387 8.13328 154.587 8.34326 154.587 8.60224V9.29749C154.587 9.55879 154.387 9.76644 154.135 9.76644Z" fill="#212855"/>
<path d="M163.187 18.2262H162.513C160.688 18.2262 159.363 17.5776 158.519 16.2501C157.623 17.5776 156.181 18.2262 154.228 18.2262H146.916C143.984 18.2262 142.029 16.2804 142.029 13.3734V11.171C142.029 10.814 142.306 10.527 142.651 10.5224L143.949 10.513C144.296 10.5084 144.579 10.8 144.579 11.1616V13.0934C144.579 14.9249 145.474 15.8558 147.269 15.8558H154.093C155.913 15.8558 156.808 14.9249 156.808 13.0934V0.504108C156.808 0.242803 157.014 0.0351562 157.261 0.0351562H158.88C159.132 0.0351562 159.333 0.245136 159.333 0.504108V12.2465C159.333 14.6449 160.448 15.8581 162.676 15.8581H163.189V18.2262H163.187ZM154.135 9.76644H146.324C146.072 9.76644 145.871 9.55646 145.871 9.29749V8.60224C145.871 8.34093 146.072 8.13328 146.324 8.13328H148.503V7.56868C148.503 5.45258 149.781 3.79142 151.928 3.79142C152.632 3.79142 153.316 4.06906 153.95 4.622C154.156 4.79932 154.167 5.12594 153.976 5.31725L153.454 5.85152C153.276 6.02651 153.001 6.02184 152.819 5.85152C152.488 5.54356 152.126 5.39425 151.736 5.39425C150.68 5.39425 150.162 6.04751 150.162 7.31437V8.13328H154.135C154.387 8.13328 154.587 8.34326 154.587 8.60224V9.29749C154.587 9.55879 154.387 9.76644 154.135 9.76644Z" fill="#9CA3AF"/>
<path d="M172.818 18.2284H171.656C170.051 18.2284 168.8 17.7198 167.879 16.7352C166.957 17.7198 165.676 18.2284 164.022 18.2284H163V15.9186H163.856C165.676 15.9186 166.572 14.9574 166.572 13.0419V6.85695C166.572 6.56531 166.829 6.34834 167.106 6.395L168.751 6.70297C168.968 6.74263 169.124 6.93861 169.124 7.16492V13.1236C169.124 14.9854 170.02 15.9186 171.814 15.9186H172.815V18.2284H172.818Z" fill="#212855"/>
<path d="M172.818 18.2284H171.656C170.051 18.2284 168.8 17.7198 167.879 16.7352C166.957 17.7198 165.676 18.2284 164.022 18.2284H163V15.9186H163.856C165.676 15.9186 166.572 14.9574 166.572 13.0419V6.85695C166.572 6.56531 166.829 6.34834 167.106 6.395L168.751 6.70297C168.968 6.74263 169.124 6.93861 169.124 7.16492V13.1236C169.124 14.9854 170.02 15.9186 171.814 15.9186H172.815V18.2284H172.818Z" fill="#9CA3AF"/>
<path d="M182.451 18.2286H181.289C179.684 18.2286 178.433 17.7199 177.512 16.7354C176.59 17.7199 175.314 18.2286 173.655 18.2286H172.633V15.9188H173.49C175.314 15.9188 176.205 14.9576 176.205 13.0421V6.85712C176.205 6.56548 176.462 6.34384 176.739 6.3905L178.384 6.68681C178.601 6.72647 178.758 6.92245 178.758 7.15342V13.1238C178.758 14.9856 179.653 15.9188 181.448 15.9188H182.448V18.2286H182.451Z" fill="#212855"/>
<path d="M182.451 18.2286H181.289C179.684 18.2286 178.433 17.7199 177.512 16.7354C176.59 17.7199 175.314 18.2286 173.655 18.2286H172.633V15.9188H173.49C175.314 15.9188 176.205 14.9576 176.205 13.0421V6.85712C176.205 6.56548 176.462 6.34384 176.739 6.3905L178.384 6.68681C178.601 6.72647 178.758 6.92245 178.758 7.15342V13.1238C178.758 14.9856 179.653 15.9188 181.448 15.9188H182.448V18.2286H182.451Z" fill="#9CA3AF"/>
<path d="M111.582 18.2284H108.157C107.588 18.2284 106.046 18.0581 105.04 17.6941C104.356 18.0604 103.57 18.2284 102.702 18.2284H99.1024V17.0455C102.688 17.1272 103.241 17.0455 103.542 16.7889C100.666 14.9574 99.3333 12.559 99.52 9.62632C99.6016 8.35479 100.064 7.34222 100.852 6.60964C101.748 5.79073 102.945 5.42677 104.464 5.45244C106.008 5.48277 107.658 5.94938 108.799 7.0716C110.656 8.8914 110.548 12.1017 109.461 14.3088C108.918 15.41 108.185 16.2546 107.233 16.7889C107.476 17.0455 108.918 17.1272 111.58 17.0455V18.2284H111.582ZM105.094 16.4226C106.074 16.0563 107.613 15.3774 108.187 14.3648C109.062 12.8063 109.37 10.7882 108.705 9.08505C107.977 7.23025 106.081 6.63997 104.279 6.52098C102.103 6.40899 100.612 7.9045 100.612 10.1886C100.612 11.3715 100.964 12.531 101.699 13.6579C102.539 14.9551 103.68 15.886 105.094 16.4203" fill="#212855"/>
<path d="M111.582 18.2284H108.157C107.588 18.2284 106.046 18.0581 105.04 17.6941C104.356 18.0604 103.57 18.2284 102.702 18.2284H99.1024V17.0455C102.688 17.1272 103.241 17.0455 103.542 16.7889C100.666 14.9574 99.3333 12.559 99.52 9.62632C99.6016 8.35479 100.064 7.34222 100.852 6.60964C101.748 5.79073 102.945 5.42677 104.464 5.45244C106.008 5.48277 107.658 5.94938 108.799 7.0716C110.656 8.8914 110.548 12.1017 109.461 14.3088C108.918 15.41 108.185 16.2546 107.233 16.7889C107.476 17.0455 108.918 17.1272 111.58 17.0455V18.2284H111.582ZM105.094 16.4226C106.074 16.0563 107.613 15.3774 108.187 14.3648C109.062 12.8063 109.37 10.7882 108.705 9.08505C107.977 7.23025 106.081 6.63997 104.279 6.52098C102.103 6.40899 100.612 7.9045 100.612 10.1886C100.612 11.3715 100.964 12.531 101.699 13.6579C102.539 14.9551 103.68 15.886 105.094 16.4203" fill="#9CA3AF"/>
<path d="M59.5734 2.77869H59.4288C59.1885 2.77869 58.9715 2.57805 58.9715 2.30974V0.468952C58.9715 0.221645 59.1885 0 59.4288 0H59.5734C59.8137 0 60.0307 0.221645 60.0307 0.468952V2.30974C60.0307 2.58038 59.8137 2.77869 59.5734 2.77869Z" fill="#212855"/>
<path d="M59.5734 2.77869H59.4288C59.1885 2.77869 58.9715 2.57805 58.9715 2.30974V0.468952C58.9715 0.221645 59.1885 0 59.4288 0H59.5734C59.8137 0 60.0307 0.221645 60.0307 0.468952V2.30974C60.0307 2.58038 59.8137 2.77869 59.5734 2.77869Z" fill="#9CA3AF"/>
<path d="M62.6973 2.77869H62.5526C62.3123 2.77869 62.0953 2.57805 62.0953 2.30974V0.468952C62.0953 0.221645 62.3123 0 62.5526 0H62.6973C62.9376 0 63.1545 0.221645 63.1545 0.468952V2.30974C63.1545 2.58038 62.9376 2.77869 62.6973 2.77869Z" fill="#212855"/>
<path d="M62.6973 2.77869H62.5526C62.3123 2.77869 62.0953 2.57805 62.0953 2.30974V0.468952C62.0953 0.221645 62.3123 0 62.5526 0H62.6973C62.9376 0 63.1545 0.221645 63.1545 0.468952V2.30974C63.1545 2.58038 62.9376 2.77869 62.6973 2.77869Z" fill="#9CA3AF"/>
<path d="M69.666 23.4882H69.5214C69.2811 23.4882 69.0641 23.2875 69.0641 23.0192V21.1784C69.0641 20.9311 69.2811 20.7095 69.5214 20.7095H69.666C69.9063 20.7095 70.1233 20.9311 70.1233 21.1784V23.0192C70.1233 23.2899 69.9063 23.4882 69.666 23.4882Z" fill="#212855"/>
<path d="M69.666 23.4882H69.5214C69.2811 23.4882 69.0641 23.2875 69.0641 23.0192V21.1784C69.0641 20.9311 69.2811 20.7095 69.5214 20.7095H69.666C69.9063 20.7095 70.1233 20.9311 70.1233 21.1784V23.0192C70.1233 23.2899 69.9063 23.4882 69.666 23.4882Z" fill="#9CA3AF"/>
<path d="M72.7903 23.4882H72.6456C72.4053 23.4882 72.1884 23.2875 72.1884 23.0192V21.1784C72.1884 20.9311 72.4053 20.7095 72.6456 20.7095H72.7903C73.0306 20.7095 73.2476 20.9311 73.2476 21.1784V23.0192C73.2476 23.2899 73.0306 23.4882 72.7903 23.4882Z" fill="#212855"/>
<path d="M72.7903 23.4882H72.6456C72.4053 23.4882 72.1884 23.2875 72.1884 23.0192V21.1784C72.1884 20.9311 72.4053 20.7095 72.6456 20.7095H72.7903C73.0306 20.7095 73.2476 20.9311 73.2476 21.1784V23.0192C73.2476 23.2899 73.0306 23.4882 72.7903 23.4882Z" fill="#9CA3AF"/>
<path d="M191.884 6.41167C190.932 5.45511 189.525 4.97217 187.7 4.97217C184.441 4.97217 182.435 6.7523 182.435 9.48434C182.435 11.0078 182.731 12.1044 183.3 12.7786C183.984 13.5976 185.176 13.9895 186.916 13.9895H188.897C189.159 13.9895 189.371 13.7725 189.371 13.5019V12.2397C189.371 11.9691 189.159 11.7521 188.897 11.7521H187.43C186.347 11.7521 185.668 11.6354 185.393 11.4091C185.122 11.1572 184.989 10.5599 184.989 9.573C184.989 8.07982 185.878 7.34491 187.696 7.34491C189.623 7.34491 190.568 8.07516 190.568 9.573V13.9989C190.568 14.8738 190.276 15.443 189.707 15.695C189.406 15.807 188.762 15.8653 187.815 15.8653L182.274 15.9166V18.2241H188.139C189.767 18.2241 190.96 17.9464 191.72 17.3538C192.67 16.6492 193.157 15.464 193.157 13.8029V9.48667C193.157 8.24547 192.726 7.23292 191.881 6.41401" fill="#212855"/>
<path d="M191.884 6.41167C190.932 5.45511 189.525 4.97217 187.7 4.97217C184.441 4.97217 182.435 6.7523 182.435 9.48434C182.435 11.0078 182.731 12.1044 183.3 12.7786C183.984 13.5976 185.176 13.9895 186.916 13.9895H188.897C189.159 13.9895 189.371 13.7725 189.371 13.5019V12.2397C189.371 11.9691 189.159 11.7521 188.897 11.7521H187.43C186.347 11.7521 185.668 11.6354 185.393 11.4091C185.122 11.1572 184.989 10.5599 184.989 9.573C184.989 8.07982 185.878 7.34491 187.696 7.34491C189.623 7.34491 190.568 8.07516 190.568 9.573V13.9989C190.568 14.8738 190.276 15.443 189.707 15.695C189.406 15.807 188.762 15.8653 187.815 15.8653L182.274 15.9166V18.2241H188.139C189.767 18.2241 190.96 17.9464 191.72 17.3538C192.67 16.6492 193.157 15.464 193.157 13.8029V9.48667C193.157 8.24547 192.726 7.23292 191.881 6.41401" fill="#9CA3AF"/>
<path d="M178.207 3.30662H176.87C176.583 3.30662 176.348 3.06398 176.348 2.76768V0.595582C176.348 0.29928 176.583 0.0566406 176.87 0.0566406H178.207C178.494 0.0566406 178.73 0.29928 178.73 0.595582V2.76768C178.73 3.06398 178.494 3.30662 178.207 3.30662Z" fill="#212855"/>
<path d="M178.207 3.30662H176.87C176.583 3.30662 176.348 3.06398 176.348 2.76768V0.595582C176.348 0.29928 176.583 0.0566406 176.87 0.0566406H178.207C178.494 0.0566406 178.73 0.29928 178.73 0.595582V2.76768C178.73 3.06398 178.494 3.30662 178.207 3.30662Z" fill="#9CA3AF"/>
<path d="M188.554 3.30662H187.218C186.931 3.30662 186.695 3.06398 186.695 2.76768V0.595582C186.695 0.29928 186.931 0.0566406 187.218 0.0566406H188.554C188.841 0.0566406 189.077 0.29928 189.077 0.595582V2.76768C189.077 3.06398 188.841 3.30662 188.554 3.30662Z" fill="#212855"/>
<path d="M188.554 3.30662H187.218C186.931 3.30662 186.695 3.06398 186.695 2.76768V0.595582C186.695 0.29928 186.931 0.0566406 187.218 0.0566406H188.554C188.841 0.0566406 189.077 0.29928 189.077 0.595582V2.76768C189.077 3.06398 188.841 3.30662 188.554 3.30662Z" fill="#9CA3AF"/>
<path d="M170.244 3.30662H168.908C168.621 3.30662 168.385 3.06398 168.385 2.76768V0.595582C168.385 0.29928 168.621 0.0566406 168.908 0.0566406H170.244C170.531 0.0566406 170.767 0.29928 170.767 0.595582V2.76768C170.767 3.06398 170.531 3.30662 170.244 3.30662Z" fill="#212855"/>
<path d="M170.244 3.30662H168.908C168.621 3.30662 168.385 3.06398 168.385 2.76768V0.595582C168.385 0.29928 168.621 0.0566406 168.908 0.0566406H170.244C170.531 0.0566406 170.767 0.29928 170.767 0.595582V2.76768C170.767 3.06398 170.531 3.30662 170.244 3.30662Z" fill="#9CA3AF"/>
<path d="M166.668 3.30662H165.331C165.044 3.30662 164.809 3.06398 164.809 2.76768V0.595582C164.809 0.29928 165.044 0.0566406 165.331 0.0566406H166.668C166.955 0.0566406 167.191 0.29928 167.191 0.595582V2.76768C167.191 3.06398 166.955 3.30662 166.668 3.30662Z" fill="#212855"/>
<path d="M166.668 3.30662H165.331C165.044 3.30662 164.809 3.06398 164.809 2.76768V0.595582C164.809 0.29928 165.044 0.0566406 165.331 0.0566406H166.668C166.955 0.0566406 167.191 0.29928 167.191 0.595582V2.76768C167.191 3.06398 166.955 3.30662 166.668 3.30662Z" fill="#9CA3AF"/>
<path d="M66.3556 38.2062H58.1479V47.2492C58.1479 47.5548 57.9053 47.8021 57.6137 47.8021H56.2465C55.9549 47.8021 55.7122 47.5548 55.7122 47.2492V32.2055C55.7122 28.5285 57.6673 27.061 61.4096 27.061C62.989 27.061 65.4994 27.117 66.6263 27.2267C66.7826 27.2523 66.8922 27.4483 66.8922 27.614V28.9975C66.8922 29.1888 66.7826 29.3288 66.5959 29.3288H61.4352C58.6029 29.3288 58.1503 30.1034 58.1503 32.2055V36.0481H66.358C66.6543 36.0481 66.8922 36.2954 66.8922 36.601V37.6532C66.8922 37.9588 66.6519 38.2062 66.358 38.2062" fill="#212855"/>
<path d="M66.3556 38.2062H58.1479V47.2492C58.1479 47.5548 57.9053 47.8021 57.6137 47.8021H56.2465C55.9549 47.8021 55.7122 47.5548 55.7122 47.2492V32.2055C55.7122 28.5285 57.6673 27.061 61.4096 27.061C62.989 27.061 65.4994 27.117 66.6263 27.2267C66.7826 27.2523 66.8922 27.4483 66.8922 27.614V28.9975C66.8922 29.1888 66.7826 29.3288 66.5959 29.3288H61.4352C58.6029 29.3288 58.1503 30.1034 58.1503 32.2055V36.0481H66.358C66.6543 36.0481 66.8922 36.2954 66.8922 36.601V37.6532C66.8922 37.9588 66.6519 38.2062 66.358 38.2062" fill="#9CA3AF"/>
<path d="M71.8104 30.3938H70.4479C70.1516 30.3938 69.9136 30.1465 69.9136 29.8409V27.6291C69.9136 27.3235 70.1539 27.0762 70.4479 27.0762H71.8104C72.1067 27.0762 72.3447 27.3235 72.3447 27.6291V29.8409C72.3447 30.1465 72.1044 30.3938 71.8104 30.3938ZM71.7591 47.8056H70.4759C70.1796 47.8056 69.9416 47.5583 69.9416 47.2527V33.1492C69.9416 32.8435 70.1819 32.5962 70.4759 32.5962H71.7591C72.0554 32.5962 72.2934 32.8435 72.2934 33.1492V47.2527C72.2934 47.5583 72.0531 47.8056 71.7591 47.8056Z" fill="#212855"/>
<path d="M71.8104 30.3938H70.4479C70.1516 30.3938 69.9136 30.1465 69.9136 29.8409V27.6291C69.9136 27.3235 70.1539 27.0762 70.4479 27.0762H71.8104C72.1067 27.0762 72.3447 27.3235 72.3447 27.6291V29.8409C72.3447 30.1465 72.1044 30.3938 71.8104 30.3938ZM71.7591 47.8056H70.4759C70.1796 47.8056 69.9416 47.5583 69.9416 47.2527V33.1492C69.9416 32.8435 70.1819 32.5962 70.4759 32.5962H71.7591C72.0554 32.5962 72.2934 32.8435 72.2934 33.1492V47.2527C72.2934 47.5583 72.0531 47.8056 71.7591 47.8056Z" fill="#9CA3AF"/>
<path d="M86.4922 47.8062H85.0993C84.8077 47.8062 84.6211 47.5589 84.6211 47.2533V37.3797C84.6211 35.3079 84.1125 34.503 82.2927 34.503H80.3959C78.5761 34.503 78.0675 35.3079 78.0675 37.3797V47.2533C78.0675 47.5589 77.8808 47.8062 77.5892 47.8062H76.1964C75.9047 47.8062 75.7134 47.5589 75.7134 47.2533V37.3797C75.7134 33.1241 78.5761 32.4009 80.3959 32.4009H82.2927C84.1125 32.4009 86.9751 33.1241 86.9751 37.3797V47.2533C86.9751 47.5589 86.7885 47.8062 86.4922 47.8062Z" fill="#212855"/>
<path d="M86.4922 47.8062H85.0993C84.8077 47.8062 84.6211 47.5589 84.6211 47.2533V37.3797C84.6211 35.3079 84.1125 34.503 82.2927 34.503H80.3959C78.5761 34.503 78.0675 35.3079 78.0675 37.3797V47.2533C78.0675 47.5589 77.8808 47.8062 77.5892 47.8062H76.1964C75.9047 47.8062 75.7134 47.5589 75.7134 47.2533V37.3797C75.7134 33.1241 78.5761 32.4009 80.3959 32.4009H82.2927C84.1125 32.4009 86.9751 33.1241 86.9751 37.3797V47.2533C86.9751 47.5589 86.7885 47.8062 86.4922 47.8062Z" fill="#9CA3AF"/>
<path d="M96.5989 47.8341C96.0903 47.9158 94.9937 47.9998 94.0302 47.9998C91.5198 47.9998 90.0733 47.1436 90.0733 44.1572V29.8881C90.0733 29.6104 90.3136 29.4191 90.6076 29.3608L91.9164 29.1392H91.9677C92.2384 29.1392 92.425 29.3865 92.425 29.6664V32.5945H96.5942C96.8905 32.5945 97.1028 32.7904 97.1028 33.0961V34.0363C97.1028 34.3116 96.8905 34.5333 96.5942 34.5333H92.425V44.1595C92.425 45.76 92.929 46.04 94.4011 46.04H96.5685C96.9418 46.04 97.1308 46.1497 97.1308 46.4273V47.3675C97.1308 47.6148 96.9955 47.7805 96.5965 47.8365" fill="#212855"/>
<path d="M96.5989 47.8341C96.0903 47.9158 94.9937 47.9998 94.0302 47.9998C91.5198 47.9998 90.0733 47.1436 90.0733 44.1572V29.8881C90.0733 29.6104 90.3136 29.4191 90.6076 29.3608L91.9164 29.1392H91.9677C92.2384 29.1392 92.425 29.3865 92.425 29.6664V32.5945H96.5942C96.8905 32.5945 97.1028 32.7904 97.1028 33.0961V34.0363C97.1028 34.3116 96.8905 34.5333 96.5942 34.5333H92.425V44.1595C92.425 45.76 92.929 46.04 94.4011 46.04H96.5685C96.9418 46.04 97.1308 46.1497 97.1308 46.4273V47.3675C97.1308 47.6148 96.9955 47.7805 96.5965 47.8365" fill="#9CA3AF"/>
<path d="M121.654 47.6938C120.77 47.8595 119.57 47.9995 118.31 47.9995C114.673 47.9995 112.613 45.3444 112.613 41.2802V39.1221C112.613 35.0579 114.645 32.4028 118.31 32.4028C119.542 32.4028 120.77 32.5382 121.654 32.7085C122.081 32.7901 122.188 32.9254 122.188 33.3127V34.309C122.188 34.5866 121.976 34.7219 121.731 34.7219H121.626C120.448 34.5866 119.619 34.5306 118.31 34.5306C116.169 34.5306 114.967 35.9981 114.967 39.1221V41.2802C114.967 44.3739 116.143 45.8717 118.31 45.8717C119.619 45.8717 120.448 45.8157 121.626 45.6757H121.731C121.973 45.6757 122.188 45.8157 122.188 46.0887V47.0849C122.188 47.4465 122.078 47.6122 121.654 47.6938Z" fill="#212855"/>
<path d="M121.654 47.6938C120.77 47.8595 119.57 47.9995 118.31 47.9995C114.673 47.9995 112.613 45.3444 112.613 41.2802V39.1221C112.613 35.0579 114.645 32.4028 118.31 32.4028C119.542 32.4028 120.77 32.5382 121.654 32.7085C122.081 32.7901 122.188 32.9254 122.188 33.3127V34.309C122.188 34.5866 121.976 34.7219 121.731 34.7219H121.626C120.448 34.5866 119.619 34.5306 118.31 34.5306C116.169 34.5306 114.967 35.9981 114.967 39.1221V41.2802C114.967 44.3739 116.143 45.8717 118.31 45.8717C119.619 45.8717 120.448 45.8157 121.626 45.6757H121.731C121.973 45.6757 122.188 45.8157 122.188 46.0887V47.0849C122.188 47.4465 122.078 47.6122 121.654 47.6938Z" fill="#9CA3AF"/>
<path d="M135.372 47.8053H134.089C133.793 47.8053 133.555 47.558 133.555 47.2523V37.962C133.555 35.6639 132.484 34.4764 130.078 34.4764C129.012 34.4764 127.832 34.642 127.006 34.8893V47.2523C127.006 47.558 126.763 47.8053 126.472 47.8053H125.188C124.892 47.8053 124.654 47.558 124.654 47.2523V27.5331C124.654 27.2555 124.841 27.0059 125.132 27.0059H126.5C126.765 27.0059 127.008 27.2275 127.008 27.5331V32.7849C127.918 32.5632 129.04 32.3976 130.081 32.3976C134.094 32.3976 135.911 34.6654 135.911 37.9597V47.25C135.911 47.5556 135.671 47.8029 135.377 47.8029" fill="#212855"/>
<path d="M135.372 47.8053H134.089C133.793 47.8053 133.555 47.558 133.555 47.2523V37.962C133.555 35.6639 132.484 34.4764 130.078 34.4764C129.012 34.4764 127.832 34.642 127.006 34.8893V47.2523C127.006 47.558 126.763 47.8053 126.472 47.8053H125.188C124.892 47.8053 124.654 47.558 124.654 47.2523V27.5331C124.654 27.2555 124.841 27.0059 125.132 27.0059H126.5C126.765 27.0059 127.008 27.2275 127.008 27.5331V32.7849C127.918 32.5632 129.04 32.3976 130.081 32.3976C134.094 32.3976 135.911 34.6654 135.911 37.9597V47.25C135.911 47.5556 135.671 47.8029 135.377 47.8029" fill="#9CA3AF"/>
<path d="M143.687 47.9708C141.951 47.9708 140.61 47.7748 139.539 47.6651C139.299 47.6395 139.061 47.4995 139.061 47.2218V46.8649C139.061 46.5872 139.301 46.5033 139.565 46.5033H139.674C141.067 46.6152 142.215 46.8089 143.687 46.8089C147.726 46.8089 148.661 44.9541 148.661 42.6887C148.661 40.6425 147.513 39.9263 144.543 38.0155L142.859 36.9353C140.421 35.3861 138.659 34.0586 138.659 31.5995C138.659 27.9739 141.788 27.1177 144.917 27.1177C146.331 27.1177 147.749 27.2833 148.899 27.3953C149.17 27.421 149.357 27.561 149.357 27.8083V28.1699C149.357 28.4452 149.144 28.5572 148.848 28.5572C148.26 28.5572 146.254 28.2795 144.889 28.2795C141.359 28.2795 139.863 29.3318 139.863 31.6252C139.863 33.34 141.095 34.3619 143.475 35.8597L145.185 36.9353C148.153 38.7901 149.893 40.1433 149.893 42.6887C149.893 45.234 148.848 47.9708 143.687 47.9708Z" fill="#212855"/>
<path d="M143.687 47.9708C141.951 47.9708 140.61 47.7748 139.539 47.6651C139.299 47.6395 139.061 47.4995 139.061 47.2218V46.8649C139.061 46.5872 139.301 46.5033 139.565 46.5033H139.674C141.067 46.6152 142.215 46.8089 143.687 46.8089C147.726 46.8089 148.661 44.9541 148.661 42.6887C148.661 40.6425 147.513 39.9263 144.543 38.0155L142.859 36.9353C140.421 35.3861 138.659 34.0586 138.659 31.5995C138.659 27.9739 141.788 27.1177 144.917 27.1177C146.331 27.1177 147.749 27.2833 148.899 27.3953C149.17 27.421 149.357 27.561 149.357 27.8083V28.1699C149.357 28.4452 149.144 28.5572 148.848 28.5572C148.26 28.5572 146.254 28.2795 144.889 28.2795C141.359 28.2795 139.863 29.3318 139.863 31.6252C139.863 33.34 141.095 34.3619 143.475 35.8597L145.185 36.9353C148.153 38.7901 149.893 40.1433 149.893 42.6887C149.893 45.234 148.848 47.9708 143.687 47.9708Z" fill="#9CA3AF"/>
<path d="M162.032 47.4444C160.856 47.6964 159.064 47.9717 157.541 47.9717C153.85 47.9717 152.296 45.235 152.296 41.2525V39.5376C152.296 35.5551 153.85 32.8184 157.541 32.8184C159.064 32.8184 160.856 33.0937 162.032 33.341C162.354 33.4226 162.433 33.5369 162.433 33.8682V46.9242C162.433 47.2555 162.354 47.3628 162.032 47.4468M161.257 34.2555C160.296 34.0899 158.824 33.8939 157.541 33.8939C154.548 33.8939 153.477 35.9703 153.477 39.5376V41.2525C153.477 44.8221 154.548 46.8915 157.541 46.8915C158.824 46.8915 160.296 46.7002 161.257 46.5345V34.2532V34.2555Z" fill="#212855"/>
<path d="M162.032 47.4444C160.856 47.6964 159.064 47.9717 157.541 47.9717C153.85 47.9717 152.296 45.235 152.296 41.2525V39.5376C152.296 35.5551 153.85 32.8184 157.541 32.8184C159.064 32.8184 160.856 33.0937 162.032 33.341C162.354 33.4226 162.433 33.5369 162.433 33.8682V46.9242C162.433 47.2555 162.354 47.3628 162.032 47.4468M161.257 34.2555C160.296 34.0899 158.824 33.8939 157.541 33.8939C154.548 33.8939 153.477 35.9703 153.477 39.5376V41.2525C153.477 44.8221 154.548 46.8915 157.541 46.8915C158.824 46.8915 160.296 46.7002 161.257 46.5345V34.2532V34.2555Z" fill="#9CA3AF"/>
<path d="M170.856 47.9712H170.347C168.527 47.9712 165.508 46.9749 165.508 42.4138V33.4804C165.508 33.2028 165.695 32.9531 165.961 32.9531H166.232C166.498 32.9531 166.684 33.2004 166.684 33.4804V42.4138C166.684 45.9507 168.53 46.835 170.349 46.835H170.858C172.678 46.835 174.523 45.9507 174.523 42.4138V33.4804C174.523 33.2028 174.71 32.9531 174.976 32.9531H175.246C175.512 32.9531 175.699 33.2004 175.699 33.4804V42.4138C175.699 46.9749 172.678 47.9712 170.86 47.9712" fill="#212855"/>
<path d="M170.856 47.9712H170.347C168.527 47.9712 165.508 46.9749 165.508 42.4138V33.4804C165.508 33.2028 165.695 32.9531 165.961 32.9531H166.232C166.498 32.9531 166.684 33.2004 166.684 33.4804V42.4138C166.684 45.9507 168.53 46.835 170.349 46.835H170.858C172.678 46.835 174.523 45.9507 174.523 42.4138V33.4804C174.523 33.2028 174.71 32.9531 174.976 32.9531H175.246C175.512 32.9531 175.699 33.2004 175.699 33.4804V42.4138C175.699 46.9749 172.678 47.9712 170.86 47.9712" fill="#9CA3AF"/>
<path d="M188.104 47.4425C186.928 47.6945 185.136 47.9698 183.613 47.9698C179.922 47.9698 178.368 45.2331 178.368 41.2505V39.4237C178.368 35.0539 180.134 32.8165 183.613 32.8165C184.653 32.8165 186.259 32.9821 187.329 33.2294V27.7817C187.329 27.504 187.516 27.2544 187.782 27.2544H188.053C188.319 27.2544 188.505 27.5017 188.505 27.7817V46.9223C188.505 47.2536 188.426 47.3609 188.104 47.4449M187.329 34.2536C186.312 34.032 184.653 33.892 183.613 33.892C180.671 33.892 179.549 35.7771 179.549 39.4237V41.2505C179.549 44.8202 180.62 46.8896 183.613 46.8896C184.896 46.8896 186.368 46.6983 187.329 46.5326V34.2513V34.2536Z" fill="#212855"/>
<path d="M188.104 47.4425C186.928 47.6945 185.136 47.9698 183.613 47.9698C179.922 47.9698 178.368 45.2331 178.368 41.2505V39.4237C178.368 35.0539 180.134 32.8165 183.613 32.8165C184.653 32.8165 186.259 32.9821 187.329 33.2294V27.7817C187.329 27.504 187.516 27.2544 187.782 27.2544H188.053C188.319 27.2544 188.505 27.5017 188.505 27.7817V46.9223C188.505 47.2536 188.426 47.3609 188.104 47.4449M187.329 34.2536C186.312 34.032 184.653 33.892 183.613 33.892C180.671 33.892 179.549 35.7771 179.549 39.4237V41.2505C179.549 44.8202 180.62 46.8896 183.613 46.8896C184.896 46.8896 186.368 46.6983 187.329 46.5326V34.2513V34.2536Z" fill="#9CA3AF"/>
<path d="M192.649 30.214H192.488C192.222 30.214 191.979 29.9923 191.979 29.6867V27.6406C191.979 27.3676 192.222 27.1133 192.488 27.1133H192.649C192.919 27.1133 193.157 27.3653 193.157 27.6406V29.6867C193.157 29.9923 192.917 30.214 192.649 30.214ZM192.649 47.9687H192.488C192.222 47.9687 191.979 47.7214 191.979 47.4414V33.4756C191.979 33.198 192.222 32.9483 192.488 32.9483H192.649C192.919 32.9483 193.157 33.1956 193.157 33.4756V47.4414C193.157 47.7191 192.917 47.9687 192.649 47.9687Z" fill="#212855"/>
<path d="M192.649 30.214H192.488C192.222 30.214 191.979 29.9923 191.979 29.6867V27.6406C191.979 27.3676 192.222 27.1133 192.488 27.1133H192.649C192.919 27.1133 193.157 27.3653 193.157 27.6406V29.6867C193.157 29.9923 192.917 30.214 192.649 30.214ZM192.649 47.9687H192.488C192.222 47.9687 191.979 47.7214 191.979 47.4414V33.4756C191.979 33.198 192.222 32.9483 192.488 32.9483H192.649C192.919 32.9483 193.157 33.1956 193.157 33.4756V47.4414C193.157 47.7191 192.917 47.9687 192.649 47.9687Z" fill="#9CA3AF"/>
<path d="M104.489 32.4009C100.663 32.4009 98.5704 35.3032 98.5704 39.2345V41.1709C98.5704 46.481 101.795 47.9999 104.872 47.9999C106.666 47.9999 107.91 47.8342 109.433 47.5309C109.865 47.4492 109.935 47.2556 109.935 46.8963V45.9561C109.935 45.6784 109.839 45.3985 109.622 45.3985H109.491C108.26 45.8348 106.51 45.8721 104.961 45.8721C102.497 45.8721 101.097 44.4886 101.097 41.3062V38.9825C101.097 36.1361 102.415 34.531 104.713 34.531C107.011 34.531 108.25 36.0288 108.25 38.9825V39.3045H102.658C102.38 39.3045 102.154 39.5401 102.154 39.8271V40.5223C102.154 40.8093 102.38 41.0449 102.658 41.0449H109.97C110.292 41.0449 110.357 40.7276 110.357 40.366V39.2041C110.357 35.2776 108.395 32.4032 104.492 32.4032" fill="#212855"/>
<path d="M104.489 32.4009C100.663 32.4009 98.5704 35.3032 98.5704 39.2345V41.1709C98.5704 46.481 101.795 47.9999 104.872 47.9999C106.666 47.9999 107.91 47.8342 109.433 47.5309C109.865 47.4492 109.935 47.2556 109.935 46.8963V45.9561C109.935 45.6784 109.839 45.3985 109.622 45.3985H109.491C108.26 45.8348 106.51 45.8721 104.961 45.8721C102.497 45.8721 101.097 44.4886 101.097 41.3062V38.9825C101.097 36.1361 102.415 34.531 104.713 34.531C107.011 34.531 108.25 36.0288 108.25 38.9825V39.3045H102.658C102.38 39.3045 102.154 39.5401 102.154 39.8271V40.5223C102.154 40.8093 102.38 41.0449 102.658 41.0449H109.97C110.292 41.0449 110.357 40.7276 110.357 40.366V39.2041C110.357 35.2776 108.395 32.4032 104.492 32.4032" fill="#9CA3AF"/>
</g>
<defs>
<clipPath id="clip0_4215_5722">
<rect width="192.898" height="48" fill="white" transform="translate(0.259277)"/>
</clipPath>
</defs>
</svg>
