<svg width="86" height="48" viewBox="0 0 86 48" fill="none" xmlns="http://www.w3.org/2000/svg">
<g clipPath="url(#clip0_4215_5830)">
<path d="M44.8893 42.592C44.4467 42.2758 43.8671 42.1178 43.1295 42.1178H40.3686C40.0524 42.1178 39.8312 42.044 39.6942 41.8965C39.5572 41.7384 39.4834 41.5382 39.4834 41.2642V40.9165C39.4834 40.6319 39.5466 40.4212 39.6625 40.3053C39.7785 40.1893 39.9681 40.1261 40.221 40.1261H45.1949V38.3452H40.5266C40.0735 38.3452 39.6731 38.3874 39.3464 38.4611C38.9881 38.5454 38.6825 38.693 38.4507 38.9143C38.2083 39.1356 38.0292 39.4201 37.9238 39.7678C37.8184 40.105 37.7657 40.516 37.7657 41.0113V41.4012C37.7657 42.2653 38.0081 42.8765 38.4823 43.2243C38.9354 43.5509 39.5572 43.7195 40.358 43.7195H43.0873C43.3508 43.7195 43.5405 43.7828 43.688 43.8987C43.8144 44.0146 43.8777 44.1832 43.8777 44.4256V45.1105C43.8777 45.6374 43.6458 45.8482 43.0873 45.8482H37.966V47.6291H43.14C44.0146 47.6291 44.6575 47.3867 45.0473 46.923C45.4267 46.4699 45.6164 45.785 45.6164 44.8892V44.3307C45.5848 43.4982 45.3529 42.9187 44.8893 42.592Z" fill="#9CA3AF"/>
<path d="M62.7507 38.3252H58.915V40.1904H62.7507C63.4568 40.1904 63.7729 40.5592 63.7729 41.3917V41.7921H60.7275C59.2311 41.7921 58.4408 42.5614 58.4408 44.0051V45.2802C58.4408 46.0284 58.6305 46.608 59.0098 47.0084C59.3892 47.4088 59.9688 47.6091 60.738 47.6091H65.5222V41.339C65.5011 39.3684 64.5527 38.3252 62.7507 38.3252ZM63.7624 43.4466V45.8492H60.8118C60.306 45.8492 60.1058 45.6385 60.1058 45.1116V44.2264C60.1058 43.6784 60.306 43.4571 60.8118 43.4571H63.7624V43.4466Z" fill="#9CA3AF"/>
<path d="M67.7249 39.7997H68.9472L69.4004 36.417H67.2717L67.7249 39.7997Z" fill="#9CA3AF"/>
<path d="M75.3435 38.2935H71.5078V40.1587H75.3435C76.0495 40.1587 76.3657 40.5275 76.3657 41.36V41.7604H73.3203C71.8239 41.7604 71.0336 42.5297 71.0336 43.9734V45.2379C71.0336 45.9861 71.2232 46.5657 71.6026 46.9661C71.982 47.3666 72.5615 47.5668 73.3308 47.5668H78.115V41.2967C78.1044 39.3367 77.1455 38.2935 75.3435 38.2935ZM76.3657 43.4043V45.807H73.4151C72.9198 45.807 72.7091 45.5962 72.7091 45.0693V44.1841C72.7091 43.6362 72.9093 43.4149 73.4151 43.4149H76.3657V43.4043Z" fill="#9CA3AF"/>
<path d="M85.5231 39.9902V38.3358H83.3734V35.4062H81.5925V44.5531C81.5925 47.0822 83.0257 47.6196 84.2375 47.6196H85.4915V45.8704H84.3429C83.8898 45.8704 83.3734 45.7228 83.3734 44.6058V40.0008H85.5231V39.9902Z" fill="#9CA3AF"/>
<path d="M21.5691 38.3037H19.3983C17.8388 38.3037 16.5742 39.5999 16.5742 41.2016V44.7107C16.5742 46.3125 17.8388 47.6086 19.3983 47.6086H21.5691C23.1287 47.6086 24.3933 46.3125 24.3933 44.7107V41.2016C24.4038 39.6104 23.1287 38.3037 21.5691 38.3037ZM22.6651 41.2016V44.7107C22.6651 45.3219 22.1803 45.8277 21.5797 45.8277H19.4089C18.8082 45.8277 18.3235 45.3219 18.3235 44.7107V41.2016C18.3235 40.5904 18.8082 40.0846 19.4089 40.0846H21.5797C22.1698 40.0846 22.6651 40.5904 22.6651 41.2016Z" fill="#9CA3AF"/>
<path d="M34.5415 42.1399C34.531 39.516 32.7712 38.3252 31.1484 38.3252H27.3442V47.5985H29.083V40.1061H31.1484C31.9914 40.1061 32.8028 40.928 32.8028 41.8027V47.2613L32.8239 47.5985H34.5521V42.161L34.5415 42.1399Z" fill="#9CA3AF"/>
<path d="M14.2243 42.1504V42.1399C14.2138 39.79 12.8017 38.5886 11.3475 38.3673L11.3159 38.3252H10.8417H9.47177L9.49284 38.3463C8.67089 38.4411 7.90164 38.8415 7.34314 39.4738C6.70033 38.7467 5.78354 38.3252 4.82461 38.3252H1.03101V47.5985H2.76974V40.1061H4.82461C5.72032 40.1061 6.47904 40.8648 6.47904 41.7605C6.47904 41.7711 6.47904 41.7816 6.47904 47.3351V47.5985H8.21777V47.3351C8.21777 42.0661 8.21777 41.7711 8.21777 41.7605C8.21777 40.8543 8.95542 40.1061 9.8722 40.1061H10.8522C11.6952 40.1061 12.5066 40.928 12.5066 41.8027V47.2613L12.5277 47.5985H14.2559V42.1504H14.2243Z" fill="#9CA3AF"/>
<path d="M55.8804 42.1508V42.1402C55.8699 39.5163 54.1101 38.3255 52.4872 38.3255H50.4218V35.396H48.6831V38.3255V47.5989H50.4218V40.1064H52.4872C53.3303 40.1064 54.1417 40.9284 54.1417 41.803V47.2616L54.1627 47.5989H55.8909V42.1508H55.8804Z" fill="#9CA3AF"/>
<path d="M70.2962 16.0375C70.2962 14.7518 67.5986 13.4873 67.5986 13.4873C67.5986 13.4873 64.8587 16.1218 64.9536 16.2061L67.9885 18.7457C67.9885 18.7562 70.2962 17.3231 70.2962 16.0375Z" fill="#007297"/>
<path d="M70.2962 16.0375C70.2962 14.7518 67.5986 13.4873 67.5986 13.4873C67.5986 13.4873 64.8587 16.1218 64.9536 16.2061L67.9885 18.7457C67.9885 18.7562 70.2962 17.3231 70.2962 16.0375Z" fill="#9CA3AF"/>
<path d="M54.6687 16.2058L57.7035 18.7454C57.7035 18.7454 60.0113 17.3228 60.0113 16.0372C60.0113 14.7516 57.3242 13.4976 57.3242 13.4976C57.3242 13.4976 54.5738 16.132 54.6687 16.2058Z" fill="#007297"/>
<path d="M54.6687 16.2058L57.7035 18.7454C57.7035 18.7454 60.0113 17.3228 60.0113 16.0372C60.0113 14.7516 57.3242 13.4976 57.3242 13.4976C57.3242 13.4976 54.5738 16.132 54.6687 16.2058Z" fill="#9CA3AF"/>
<path d="M53.1722 16.0375C53.1722 14.7518 50.4745 13.4873 50.4745 13.4873C50.4745 13.4873 47.7347 16.1218 47.8296 16.2061L50.8644 18.7457C50.875 18.7562 53.1722 17.3231 53.1722 16.0375Z" fill="#007297"/>
<path d="M53.1722 16.0375C53.1722 14.7518 50.4745 13.4873 50.4745 13.4873C50.4745 13.4873 47.7347 16.1218 47.8296 16.2061L50.8644 18.7457C50.875 18.7562 53.1722 17.3231 53.1722 16.0375Z" fill="#9CA3AF"/>
<path d="M55.8696 10.8617C55.8696 9.57607 53.1719 8.31152 53.1719 8.31152C53.1719 8.31152 50.4321 10.946 50.5269 11.0198L53.5618 13.5699C53.5618 13.5699 55.8696 12.1473 55.8696 10.8617Z" fill="#007297"/>
<path d="M55.8696 10.8617C55.8696 9.57607 53.1719 8.31152 53.1719 8.31152C53.1719 8.31152 50.4321 10.946 50.5269 11.0198L53.5618 13.5699C53.5618 13.5699 55.8696 12.1473 55.8696 10.8617Z" fill="#9CA3AF"/>
<path d="M85.5228 21.148C85.4912 20.3999 85.0381 17.6916 81.3815 17.6916H79.2107L73.7416 23.4348V28.3876C73.7416 28.651 73.7732 28.9039 73.8259 29.1358C72.2242 29.1358 70.3379 29.1463 69.4106 27.5551C69.0312 26.9123 68.9153 26.1641 68.9153 25.4264V20.7898L66.0385 23.7298V28.3876C66.0385 28.6405 66.0596 28.8828 66.0912 29.1358C64.4894 29.1358 62.6137 29.1358 61.6864 27.5551C61.307 26.9123 61.1911 26.1641 61.1911 25.4264V18.4082L58.3143 21.3588V28.3876C58.3143 28.6405 58.3354 28.8828 58.367 29.1358C57.6293 29.062 56.9022 28.7037 56.3332 28.2295C55.5007 27.5445 55.0054 26.5434 54.9949 25.4475V19.8835L52.1181 22.8236V28.3876C52.1181 28.6405 52.1497 28.8934 52.2024 29.1358C51.4542 29.0725 50.7166 28.7037 50.137 28.2295C49.3045 27.5445 48.8092 26.5434 48.7987 25.4475V18.4187L45.9324 21.3588V28.3876C45.9324 28.6405 45.964 28.8934 46.0167 29.1358C44.415 29.1358 42.5182 29.1463 41.5908 27.5551C41.2115 26.9123 41.0956 26.1641 41.0956 25.4264V7.5542L38.2188 10.4943V28.5562L38.2293 28.5456C38.2714 29.6837 38.6403 30.8007 39.6203 31.433C40.3895 31.9283 41.3274 32.0653 42.2231 32.0864C42.6025 32.0969 42.9818 32.0758 43.3612 32.0758C43.4982 32.0758 43.7932 31.7702 43.8565 31.7175C44.2147 31.4014 44.5625 31.0536 44.8997 30.7059C45.2369 30.3581 45.5741 30.0104 45.8902 29.631C45.9113 29.61 45.9956 29.473 46.0799 29.357C46.2802 30.0631 46.6911 30.6848 47.2812 31.1696C47.9135 31.6859 48.7355 32.0758 49.5574 32.0864C49.6944 32.0864 49.9894 31.7808 50.0527 31.7281C50.411 31.4119 50.7587 31.0642 51.0959 30.7164C51.4331 30.3687 51.7703 30.0209 52.0865 29.6416C52.1075 29.6205 52.2024 29.4835 52.2867 29.3676C52.4869 30.0736 52.8979 30.6954 53.4774 31.1696C54.1097 31.6859 54.9317 32.0758 55.7536 32.0864C55.8906 32.0864 56.1857 31.7808 56.2489 31.7281C56.6072 31.4119 56.9549 31.0642 57.2921 30.7164C57.6293 30.3687 57.9665 30.0209 58.2721 29.6416C58.2932 29.6205 58.3564 29.5257 58.4302 29.4203C58.5988 30.2317 58.9887 30.9588 59.7158 31.433C60.4851 31.9283 61.4229 32.0653 62.3186 32.0864C62.698 32.0969 63.0774 32.0758 63.4567 32.0758C63.5937 32.0758 63.8888 31.7702 63.952 31.7175C64.3103 31.4014 64.658 31.0536 64.9952 30.7059C65.3325 30.3581 65.6697 30.0104 65.9753 29.631C65.9963 29.61 66.0596 29.5151 66.1333 29.4097V29.4203C66.3019 30.2317 66.6918 30.9588 67.4189 31.433C68.1882 31.9283 69.126 32.0653 70.0218 32.0864C70.4011 32.0969 70.7805 32.0758 71.1598 32.0758C71.2968 32.0758 71.5919 31.7702 71.6551 31.7175C72.0134 31.4014 72.3611 31.0536 72.6984 30.7059C73.0356 30.3581 73.3728 30.0104 73.6889 29.631C73.71 29.61 73.7943 29.494 73.868 29.3781C74.4687 31.4014 76.924 32.0864 78.8946 32.0864H79.569L85.5228 26.0903C85.5228 26.1008 85.5228 21.2218 85.5228 21.148ZM79.1791 28.8407C76.4709 28.8407 76.6079 26.5224 76.5973 25.4475V20.579H80.7387C82.1718 20.579 82.6355 22.7498 82.6355 25.3C82.6355 25.3632 82.6355 28.1663 82.6355 28.8407C81.9821 28.8407 79.2529 28.8407 79.1791 28.8407Z" fill="#007297"/>
<path d="M85.5228 21.148C85.4912 20.3999 85.0381 17.6916 81.3815 17.6916H79.2107L73.7416 23.4348V28.3876C73.7416 28.651 73.7732 28.9039 73.8259 29.1358C72.2242 29.1358 70.3379 29.1463 69.4106 27.5551C69.0312 26.9123 68.9153 26.1641 68.9153 25.4264V20.7898L66.0385 23.7298V28.3876C66.0385 28.6405 66.0596 28.8828 66.0912 29.1358C64.4894 29.1358 62.6137 29.1358 61.6864 27.5551C61.307 26.9123 61.1911 26.1641 61.1911 25.4264V18.4082L58.3143 21.3588V28.3876C58.3143 28.6405 58.3354 28.8828 58.367 29.1358C57.6293 29.062 56.9022 28.7037 56.3332 28.2295C55.5007 27.5445 55.0054 26.5434 54.9949 25.4475V19.8835L52.1181 22.8236V28.3876C52.1181 28.6405 52.1497 28.8934 52.2024 29.1358C51.4542 29.0725 50.7166 28.7037 50.137 28.2295C49.3045 27.5445 48.8092 26.5434 48.7987 25.4475V18.4187L45.9324 21.3588V28.3876C45.9324 28.6405 45.964 28.8934 46.0167 29.1358C44.415 29.1358 42.5182 29.1463 41.5908 27.5551C41.2115 26.9123 41.0956 26.1641 41.0956 25.4264V7.5542L38.2188 10.4943V28.5562L38.2293 28.5456C38.2714 29.6837 38.6403 30.8007 39.6203 31.433C40.3895 31.9283 41.3274 32.0653 42.2231 32.0864C42.6025 32.0969 42.9818 32.0758 43.3612 32.0758C43.4982 32.0758 43.7932 31.7702 43.8565 31.7175C44.2147 31.4014 44.5625 31.0536 44.8997 30.7059C45.2369 30.3581 45.5741 30.0104 45.8902 29.631C45.9113 29.61 45.9956 29.473 46.0799 29.357C46.2802 30.0631 46.6911 30.6848 47.2812 31.1696C47.9135 31.6859 48.7355 32.0758 49.5574 32.0864C49.6944 32.0864 49.9894 31.7808 50.0527 31.7281C50.411 31.4119 50.7587 31.0642 51.0959 30.7164C51.4331 30.3687 51.7703 30.0209 52.0865 29.6416C52.1075 29.6205 52.2024 29.4835 52.2867 29.3676C52.4869 30.0736 52.8979 30.6954 53.4774 31.1696C54.1097 31.6859 54.9317 32.0758 55.7536 32.0864C55.8906 32.0864 56.1857 31.7808 56.2489 31.7281C56.6072 31.4119 56.9549 31.0642 57.2921 30.7164C57.6293 30.3687 57.9665 30.0209 58.2721 29.6416C58.2932 29.6205 58.3564 29.5257 58.4302 29.4203C58.5988 30.2317 58.9887 30.9588 59.7158 31.433C60.4851 31.9283 61.4229 32.0653 62.3186 32.0864C62.698 32.0969 63.0774 32.0758 63.4567 32.0758C63.5937 32.0758 63.8888 31.7702 63.952 31.7175C64.3103 31.4014 64.658 31.0536 64.9952 30.7059C65.3325 30.3581 65.6697 30.0104 65.9753 29.631C65.9963 29.61 66.0596 29.5151 66.1333 29.4097V29.4203C66.3019 30.2317 66.6918 30.9588 67.4189 31.433C68.1882 31.9283 69.126 32.0653 70.0218 32.0864C70.4011 32.0969 70.7805 32.0758 71.1598 32.0758C71.2968 32.0758 71.5919 31.7702 71.6551 31.7175C72.0134 31.4014 72.3611 31.0536 72.6984 30.7059C73.0356 30.3581 73.3728 30.0104 73.6889 29.631C73.71 29.61 73.7943 29.494 73.868 29.3781C74.4687 31.4014 76.924 32.0864 78.8946 32.0864H79.569L85.5228 26.0903C85.5228 26.1008 85.5228 21.2218 85.5228 21.148ZM79.1791 28.8407C76.4709 28.8407 76.6079 26.5224 76.5973 25.4475V20.579H80.7387C82.1718 20.579 82.6355 22.7498 82.6355 25.3C82.6355 25.3632 82.6355 28.1663 82.6355 28.8407C81.9821 28.8407 79.2529 28.8407 79.1791 28.8407Z" fill="#9CA3AF"/>
<path d="M19.1984 18.1972L22.3282 20.8212C22.3282 20.8212 24.7518 19.3248 24.7518 17.9759C24.7518 16.6271 21.9277 15.2993 21.9277 15.2993C21.9277 15.2993 19.62 17.5123 19.209 18.0392C19.1668 16.7009 16.3849 15.3942 16.3849 15.3942C16.3849 15.3942 13.508 18.1551 13.6029 18.2394L16.7853 20.916C16.7958 20.916 19.0509 19.5145 19.1984 18.1972Z" fill="#007297"/>
<path d="M19.1984 18.1972L22.3282 20.8212C22.3282 20.8212 24.7518 19.3248 24.7518 17.9759C24.7518 16.6271 21.9277 15.2993 21.9277 15.2993C21.9277 15.2993 19.62 17.5123 19.209 18.0392C19.1668 16.7009 16.3849 15.3942 16.3849 15.3942C16.3849 15.3942 13.508 18.1551 13.6029 18.2394L16.7853 20.916C16.7958 20.916 19.0509 19.5145 19.1984 18.1972Z" fill="#9CA3AF"/>
<path d="M41.6439 5.33036L45.1319 1.93717V0.862305L42.8557 3.02257L37.9556 1.37866L37.7027 1.3049L34.3096 4.66648V5.7308L36.4066 3.62323L41.412 5.2566L41.6439 5.33036Z" fill="#007297"/>
<path d="M41.6439 5.33036L45.1319 1.93717V0.862305L42.8557 3.02257L37.9556 1.37866L37.7027 1.3049L34.3096 4.66648V5.7308L36.4066 3.62323L41.412 5.2566L41.6439 5.33036Z" fill="#9CA3AF"/>
<path d="M34.4358 21.5679C34.2356 21.2097 33.7614 20.5142 33.7614 20.5142L30.6106 23.5701C30.6106 23.5701 31.97 25.8674 31.9911 27.29C32.0016 27.8801 31.9911 27.2689 31.9911 27.8591V29.0077H7.15353C4.93006 29.0077 4.03435 28.3859 4.03435 25.351L5.55179 23.7809V22.0316L1.01001 26.6999C1.01001 26.721 1.01001 28.3649 1.02055 28.4176C1.05216 29.1974 1.22077 29.9877 1.67389 30.6411C2.05325 31.1785 2.61175 31.5578 3.22294 31.7686C4.24511 32.1374 5.31996 32.0847 6.38428 32.0742H30.5158L35.1419 27.9117V26.584C35.1419 24.8874 35.2999 23.1276 34.4358 21.5679Z" fill="#007297"/>
<path d="M34.4358 21.5679C34.2356 21.2097 33.7614 20.5142 33.7614 20.5142L30.6106 23.5701C30.6106 23.5701 31.97 25.8674 31.9911 27.29C32.0016 27.8801 31.9911 27.2689 31.9911 27.8591V29.0077H7.15353C4.93006 29.0077 4.03435 28.3859 4.03435 25.351L5.55179 23.7809V22.0316L1.01001 26.6999C1.01001 26.721 1.01001 28.3649 1.02055 28.4176C1.05216 29.1974 1.22077 29.9877 1.67389 30.6411C2.05325 31.1785 2.61175 31.5578 3.22294 31.7686C4.24511 32.1374 5.31996 32.0847 6.38428 32.0742H30.5158L35.1419 27.9117V26.584C35.1419 24.8874 35.2999 23.1276 34.4358 21.5679Z" fill="#9CA3AF"/>
</g>
<defs>
<clipPath id="clip0_4215_5830">
<rect width="85.6216" height="48" fill="white" transform="translate(0.208862)"/>
</clipPath>
</defs>
</svg>
