<svg width="331" height="155" viewBox="0 0 331 155" fill="none" xmlns="http://www.w3.org/2000/svg">
<g filter="url(#filter0_dd_4509_15389)">
<g clip-path="url(#clip0_4509_15389)">
<rect x="5.40234" y="1.51636" width="320" height="144" rx="8" fill="white"/>
<path d="M28.2598 -15.4017V162.959" stroke="#E5E7EB" stroke-width="0.655738" stroke-dasharray="3.93 3.93"/>
<path d="M73.9736 -15.4017V162.959" stroke="#E5E7EB" stroke-width="0.655738" stroke-dasharray="3.93 3.93"/>
<path d="M119.688 -15.4017V162.959" stroke="#E5E7EB" stroke-width="0.655738" stroke-dasharray="3.93 3.93"/>
<path d="M165.402 -15.4017V162.959" stroke="#E5E7EB" stroke-width="0.655738" stroke-dasharray="3.93 3.93"/>
<path d="M211.116 -15.4017V162.959" stroke="#E5E7EB" stroke-width="0.655738" stroke-dasharray="3.93 3.93"/>
<path d="M256.831 -15.4017V162.959" stroke="#E5E7EB" stroke-width="0.655738" stroke-dasharray="3.93 3.93"/>
<path d="M302.545 -15.4017V162.959" stroke="#E5E7EB" stroke-width="0.655738" stroke-dasharray="3.93 3.93"/>
<path d="M325.402 123.385L298.736 104.464L272.069 123.385L245.402 68.6813L218.736 85.9291L192.069 118.365L165.402 104.464L138.736 40.1065L112.069 68.6813L85.4023 85.9291L58.7357 49.4754H32.069L5.40234 40.1065V123.385H272.069H325.402Z" fill="url(#paint0_linear_4509_15389)"/>
<path d="M325.402 123.385L298.736 104.464L272.069 123.385L245.402 68.6813L218.736 85.9291L192.069 118.365L165.402 104.464L138.736 40.1065L112.069 68.6813L85.4023 85.9291L58.7357 49.4754H32.069L5.40234 40.1065" stroke="#22C55E" stroke-width="1.31148" stroke-linecap="round" stroke-linejoin="round"/>
</g>
</g>
<defs>
<filter id="filter0_dd_4509_15389" x="0.402344" y="0.516357" width="330" height="154" filterUnits="userSpaceOnUse" color-interpolation-filters="sRGB">
<feFlood flood-opacity="0" result="BackgroundImageFix"/>
<feColorMatrix in="SourceAlpha" type="matrix" values="0 0 0 0 0 0 0 0 0 0 0 0 0 0 0 0 0 0 127 0" result="hardAlpha"/>
<feMorphology radius="1" operator="erode" in="SourceAlpha" result="effect1_dropShadow_4509_15389"/>
<feOffset dy="2"/>
<feGaussianBlur stdDeviation="2"/>
<feColorMatrix type="matrix" values="0 0 0 0 0 0 0 0 0 0 0 0 0 0 0 0 0 0 0.06 0"/>
<feBlend mode="normal" in2="BackgroundImageFix" result="effect1_dropShadow_4509_15389"/>
<feColorMatrix in="SourceAlpha" type="matrix" values="0 0 0 0 0 0 0 0 0 0 0 0 0 0 0 0 0 0 127 0" result="hardAlpha"/>
<feMorphology radius="1" operator="erode" in="SourceAlpha" result="effect2_dropShadow_4509_15389"/>
<feOffset dy="4"/>
<feGaussianBlur stdDeviation="3"/>
<feColorMatrix type="matrix" values="0 0 0 0 0 0 0 0 0 0 0 0 0 0 0 0 0 0 0.1 0"/>
<feBlend mode="normal" in2="effect1_dropShadow_4509_15389" result="effect2_dropShadow_4509_15389"/>
<feBlend mode="normal" in="SourceGraphic" in2="effect2_dropShadow_4509_15389" result="shape"/>
</filter>
<linearGradient id="paint0_linear_4509_15389" x1="165.402" y1="40.1065" x2="165.402" y2="123.385" gradientUnits="userSpaceOnUse">
<stop stop-color="#22C55E" stop-opacity="0.1"/>
<stop offset="1" stop-color="white" stop-opacity="0"/>
</linearGradient>
<clipPath id="clip0_4509_15389">
<rect x="5.40234" y="1.51636" width="320" height="144" rx="8" fill="white"/>
</clipPath>
</defs>
</svg>
