<svg width="321" height="145" viewBox="0 0 321 145" fill="none" xmlns="http://www.w3.org/2000/svg">
<g clip-path="url(#clip0_4509_15389)">
<rect x="0.402344" y="0.516357" width="320" height="144" rx="8" fill="white"/>
<path d="M23.2598 -16.4017V161.959" stroke="#E5E7EB" strokeWidth="0.655738" strokeDasharray="3.93 3.93"/>
<path d="M68.9736 -16.4017V161.959" stroke="#E5E7EB" strokeWidth="0.655738" strokeDasharray="3.93 3.93"/>
<path d="M114.688 -16.4017V161.959" stroke="#E5E7EB" strokeWidth="0.655738" strokeDasharray="3.93 3.93"/>
<path d="M160.402 -16.4017V161.959" stroke="#E5E7EB" strokeWidth="0.655738" strokeDasharray="3.93 3.93"/>
<path d="M206.116 -16.4017V161.959" stroke="#E5E7EB" strokeWidth="0.655738" strokeDasharray="3.93 3.93"/>
<path d="M251.831 -16.4017V161.959" stroke="#E5E7EB" strokeWidth="0.655738" strokeDasharray="3.93 3.93"/>
<path d="M297.545 -16.4017V161.959" stroke="#E5E7EB" strokeWidth="0.655738" strokeDasharray="3.93 3.93"/>
<path d="M320.402 122.385L293.736 103.464L267.069 122.385L240.402 67.6813L213.736 84.9291L187.069 117.365L160.402 103.464L133.736 39.1065L107.069 67.6813L80.4023 84.9291L53.7357 48.4754H27.069L0.402344 39.1065V122.385H267.069H320.402Z" fill="url(#paint0_linear_4509_15389)"/>
<path d="M320.402 122.385L293.736 103.464L267.069 122.385L240.402 67.6813L213.736 84.9291L187.069 117.365L160.402 103.464L133.736 39.1065L107.069 67.6813L80.4023 84.9291L53.7357 48.4754H27.069L0.402339 39.1065" stroke="url(#paint1_linear_4509_15389)" strokeWidth="1.31148" stroke-linecap="round" stroke-linejoin="round"/>
</g>
<defs>
<linearGradient id="paint0_linear_4509_15389" x1="160.402" y1="39.1065" x2="160.402" y2="122.385" gradientUnits="userSpaceOnUse">
<stop stop-color="#22C55E" stop-opacity="0.1"/>
<stop offset="1" stop-color="white" stop-opacity="0"/>
</linearGradient>
<linearGradient id="paint1_linear_4509_15389" x1="320.402" y1="80.7458" x2="0.402344" y2="80.7458" gradientUnits="userSpaceOnUse">
<stop stop-color="#22C55E" stop-opacity="0"/>
<stop offset="1" stop-color="#22C55E"/>
</linearGradient>
<clipPath id="clip0_4509_15389">
<rect x="0.402344" y="0.516357" width="320" height="144" rx="8" fill="white"/>
</clipPath>
</defs>
</svg>
