<svg width="337" height="155" viewBox="0 0 337 155" fill="none" xmlns="http://www.w3.org/2000/svg">
<g filter="url(#filter0_dd_4554_16508)">
<g clip-path="url(#clip0_4554_16508)">
<path d="M5.11719 9.51636C5.11719 5.09808 8.69891 1.51636 13.1172 1.51636H323.687C328.105 1.51636 331.687 5.09808 331.687 9.51636V137.516C331.687 141.935 328.105 145.516 323.687 145.516H13.1172C8.69891 145.516 5.11719 141.935 5.11719 137.516V9.51636Z" fill="white"/>
<path d="M31.1172 21.3914C29.5102 21.3914 27.9393 21.8679 26.6032 22.7607C25.267 23.6535 24.2256 24.9224 23.6107 26.4071C22.9957 27.8917 22.8348 29.5254 23.1483 31.1015C23.4618 32.6776 24.2356 34.1253 25.3719 35.2616C26.5083 36.3979 27.956 37.1717 29.5321 37.4852C31.1082 37.7987 32.7418 37.6378 34.2265 37.0229C35.7111 36.4079 36.9801 35.3665 37.8729 34.0304C38.7657 32.6942 39.2422 31.1233 39.2422 29.5164C39.2399 27.3622 38.3832 25.2969 36.8599 23.7736C35.3367 22.2504 33.2714 21.3936 31.1172 21.3914ZM34.6844 28.0835L30.3094 32.4585C30.2513 32.5167 30.1824 32.5628 30.1065 32.5942C30.0307 32.6257 29.9493 32.6418 29.8672 32.6418C29.7851 32.6418 29.7037 32.6257 29.6279 32.5942C29.552 32.5628 29.483 32.5167 29.425 32.4585L27.55 30.5835C27.4327 30.4663 27.3668 30.3072 27.3668 30.1414C27.3668 29.9755 27.4327 29.8164 27.55 29.6992C27.6673 29.5819 27.8263 29.516 27.9922 29.516C28.158 29.516 28.3171 29.5819 28.4344 29.6992L29.8672 31.1328L33.8 27.1992C33.8581 27.1411 33.927 27.095 34.0029 27.0636C34.0788 27.0322 34.1601 27.016 34.2422 27.016C34.3243 27.016 34.4056 27.0322 34.4815 27.0636C34.5574 27.095 34.6263 27.1411 34.6844 27.1992C34.7424 27.2572 34.7885 27.3262 34.8199 27.402C34.8514 27.4779 34.8675 27.5592 34.8675 27.6414C34.8675 27.7235 34.8514 27.8048 34.8199 27.8807C34.7885 27.9565 34.7424 28.0255 34.6844 28.0835Z" fill="#14B8A6"/>
<path d="M177.397 38.3862C176.592 38.3862 175.889 38.2665 175.291 38.027C174.703 37.7875 174.218 37.4609 173.837 37.0473C173.456 36.6445 173.168 36.1764 172.972 35.643C172.787 35.1096 172.694 34.5436 172.694 33.9449C172.694 33.4441 172.776 32.9216 172.939 32.3773C173.103 31.8222 173.358 31.267 173.707 30.7118C173.783 30.5703 173.865 30.4887 173.952 30.4669C174.05 30.4342 174.159 30.4397 174.278 30.4832L175.095 30.7935C175.258 30.8479 175.345 30.9241 175.356 31.0221C175.367 31.12 175.329 31.2452 175.242 31.3976C175.002 31.8222 174.823 32.214 174.703 32.5733C174.594 32.9325 174.54 33.3081 174.54 33.6999C174.54 34.2007 174.643 34.647 174.85 35.0389C175.068 35.4308 175.4 35.7356 175.846 35.9533C176.303 36.1819 176.891 36.2962 177.609 36.2962H178.85C179.612 36.2962 180.211 36.2091 180.646 36.0349C181.093 35.8716 181.316 35.5995 181.316 35.2185C181.316 34.9899 181.245 34.8048 181.104 34.6633C180.962 34.5327 180.766 34.4674 180.516 34.4674H179.618C179.389 34.4674 179.275 34.3476 179.275 34.1081V32.7855C179.275 32.5461 179.389 32.4263 179.618 32.4263H183.275C183.439 32.4263 183.52 32.508 183.52 32.6712V34.1245C183.52 34.4293 183.362 34.5817 183.047 34.5817H182.377L181.61 33.6836C182.067 33.8904 182.394 34.119 182.59 34.3694C182.796 34.6089 182.9 34.9137 182.9 35.2838C182.9 35.7301 182.818 36.1383 182.655 36.5084C182.492 36.8894 182.241 37.216 181.904 37.4881C181.566 37.7712 181.136 37.9889 180.614 38.1413C180.091 38.3046 179.476 38.3862 178.769 38.3862H177.397ZM177.25 41.1784C177.196 41.2328 177.125 41.2546 177.038 41.2437C176.951 41.2437 176.875 41.2165 176.809 41.162L176.107 40.4599C176.053 40.4055 176.025 40.3293 176.025 40.2313C176.025 40.1442 176.053 40.0735 176.107 40.0191L176.809 39.3169C176.875 39.2516 176.951 39.219 177.038 39.219C177.125 39.219 177.196 39.2516 177.25 39.3169L177.952 40.0191C178.018 40.0735 178.05 40.1442 178.05 40.2313C178.061 40.3293 178.034 40.4109 177.969 40.4763L177.25 41.1784ZM179.52 41.1784C179.465 41.2328 179.395 41.2546 179.307 41.2437C179.22 41.2437 179.144 41.2165 179.079 41.162L178.36 40.4599C178.306 40.4055 178.279 40.3293 178.279 40.2313C178.279 40.1442 178.306 40.0735 178.36 40.0191L179.079 39.3169C179.144 39.2516 179.215 39.219 179.291 39.219C179.378 39.219 179.449 39.2516 179.503 39.3169L180.206 40.0191C180.271 40.0735 180.304 40.1442 180.304 40.2313C180.314 40.3293 180.287 40.4109 180.222 40.4763L179.52 41.1784ZM183.023 34.5817C182.86 34.5817 182.778 34.4946 182.778 34.3204V32.9162C182.778 32.5896 182.941 32.4263 183.268 32.4263H183.431C183.899 32.4263 184.248 32.312 184.476 32.0834C184.716 31.8439 184.835 31.4085 184.835 30.7771V29.1933C184.835 28.9102 184.966 28.7687 185.227 28.7687H186.207C186.468 28.7687 186.599 28.9102 186.599 29.1933V30.7771C186.599 31.4194 186.74 31.8548 187.023 32.0834C187.306 32.312 187.72 32.4263 188.264 32.4263H188.493C188.656 32.4263 188.738 32.508 188.738 32.6712V34.0918C188.738 34.4184 188.575 34.5817 188.248 34.5817C187.693 34.5817 187.176 34.4783 186.697 34.2714C186.218 34.0646 185.831 33.689 185.538 33.1448C185.287 33.7108 184.933 34.0918 184.476 34.2878C184.019 34.4837 183.535 34.5817 183.023 34.5817ZM185.88 37.6514C185.815 37.7059 185.739 37.7276 185.652 37.7167C185.565 37.7167 185.483 37.6895 185.407 37.6351L184.705 36.9166C184.639 36.8622 184.607 36.786 184.607 36.688C184.607 36.601 184.639 36.5248 184.705 36.4594L185.407 35.741C185.483 35.6757 185.559 35.643 185.636 35.643C185.723 35.643 185.799 35.6757 185.864 35.741L186.566 36.4594C186.642 36.5248 186.681 36.601 186.681 36.688C186.691 36.786 186.659 36.8677 186.583 36.933L185.88 37.6514ZM193.266 34.6307C192.787 34.6307 192.314 34.5381 191.845 34.3531C191.388 34.1571 191.04 33.8033 190.8 33.2917C190.55 33.7925 190.191 34.1354 189.723 34.3204C189.266 34.4946 188.776 34.5817 188.253 34.5817C188.09 34.5817 188.008 34.4946 188.008 34.3204V32.9162C188.008 32.5896 188.172 32.4263 188.498 32.4263C189.108 32.4263 189.538 32.3229 189.788 32.1161C190.038 31.8984 190.164 31.5065 190.164 30.9404V29.7158C190.164 29.5852 190.196 29.4817 190.262 29.4055C190.327 29.3293 190.425 29.2912 190.556 29.2912H191.552C191.802 29.2912 191.927 29.4273 191.927 29.6995V30.9567C191.927 31.4793 192.041 31.8603 192.27 32.0997C192.509 32.3392 192.89 32.459 193.413 32.459C193.936 32.459 194.284 32.3283 194.458 32.0671C194.632 31.7949 194.719 31.4139 194.719 30.9241V29.7321C194.719 29.6015 194.752 29.4981 194.817 29.4219C194.883 29.3348 194.981 29.2912 195.111 29.2912H196.091C196.221 29.2912 196.319 29.3348 196.385 29.4219C196.45 29.4981 196.483 29.6015 196.483 29.7321V30.9894C196.483 31.5119 196.597 31.8929 196.826 32.1324C197.065 32.361 197.43 32.4753 197.92 32.4753C198.355 32.4753 198.676 32.3556 198.883 32.1161C199.09 31.8766 199.193 31.55 199.193 31.1364C199.193 31.0166 199.182 30.8914 199.161 30.7608C199.15 30.6302 199.128 30.4996 199.095 30.3689L198.769 29.1116C198.736 28.981 198.736 28.8721 198.769 28.7851C198.812 28.698 198.899 28.6381 199.03 28.6054L200.026 28.3442C200.178 28.3115 200.287 28.3279 200.353 28.3932C200.418 28.4585 200.467 28.5619 200.5 28.7034L200.777 29.8627C200.842 30.1567 200.891 30.4397 200.924 30.7118C200.968 30.984 200.989 31.2343 200.989 31.4629C200.989 32.0943 200.87 32.6495 200.63 33.1284C200.402 33.6074 200.059 33.9775 199.601 34.2388C199.144 34.5 198.573 34.6307 197.887 34.6307C197.364 34.6307 196.886 34.5436 196.45 34.3694C196.026 34.1952 195.688 33.9068 195.438 33.504C195.307 33.787 195.122 34.0102 194.883 34.1735C194.654 34.3367 194.398 34.451 194.115 34.5164C193.832 34.5926 193.549 34.6307 193.266 34.6307ZM206.818 34.5817H206.231C205.632 34.5817 205.126 34.4783 204.712 34.2714C204.298 34.0537 203.983 33.7054 203.765 33.2264C203.547 32.7474 203.438 32.1106 203.438 31.316V22.6619C203.438 22.5421 203.471 22.4496 203.536 22.3843C203.613 22.3081 203.721 22.27 203.863 22.27H204.859C204.99 22.27 205.082 22.3081 205.137 22.3843C205.191 22.4496 205.218 22.5367 205.218 22.6456V30.7282C205.218 31.1962 205.267 31.5555 205.365 31.8058C205.474 32.0453 205.643 32.2086 205.871 32.2957C206.1 32.3828 206.388 32.4263 206.737 32.4263H207.063C207.227 32.4263 207.308 32.508 207.308 32.6712V34.0918C207.308 34.4184 207.145 34.5817 206.818 34.5817ZM206.814 34.5817C206.651 34.5817 206.569 34.5 206.569 34.3367V32.9162C206.569 32.5896 206.732 32.4263 207.059 32.4263H209.868C210.76 32.4263 211.533 32.3338 212.186 32.1487C212.85 31.9637 213.52 31.6643 214.195 31.2507L215.778 30.2546L216.807 30.8588L214.619 32.5896C214.227 32.8944 213.781 33.2046 213.28 33.5203C212.79 33.8251 212.213 34.0809 211.549 34.2878C210.885 34.4837 210.096 34.5817 209.182 34.5817H206.814ZM218.456 34.5817C217.858 34.5817 217.319 34.5 216.84 34.3367C216.372 34.1626 215.98 33.8632 215.664 33.4387C215.348 33.0033 215.136 32.41 215.027 31.6589L216.121 30.6465C216.121 31.071 216.165 31.4031 216.252 31.6425C216.339 31.882 216.464 32.0562 216.627 32.1651C216.791 32.2739 216.987 32.3447 217.215 32.3773C217.455 32.41 217.722 32.4263 218.015 32.4263H219.207C219.294 32.4263 219.354 32.459 219.387 32.5243C219.431 32.5787 219.452 32.644 219.452 32.7202V34.1408C219.452 34.2932 219.409 34.4075 219.322 34.4837C219.235 34.549 219.115 34.5817 218.962 34.5817H218.456ZM216.448 31.12L216.317 31.0874C215.74 31.0874 215.245 31.0384 214.831 30.9404C214.418 30.8316 214.048 30.7009 213.721 30.5485C213.394 30.3961 213.084 30.2437 212.79 30.0913C212.507 29.9389 212.208 29.8138 211.892 29.7158C211.577 29.6069 211.223 29.5525 210.831 29.5525C210.504 29.5525 210.238 29.6124 210.031 29.7321C209.835 29.841 209.677 29.977 209.557 30.1403C209.459 30.271 209.372 30.3635 209.296 30.4179C209.231 30.4615 209.111 30.4832 208.937 30.4832H208.284C207.979 30.4832 207.826 30.3526 207.826 30.0913C207.826 29.8083 207.897 29.5253 208.039 29.2423C208.18 28.9592 208.382 28.7034 208.643 28.4748C208.904 28.2353 209.22 28.0448 209.59 27.9033C209.971 27.7618 210.395 27.6911 210.864 27.6911C211.343 27.6911 211.767 27.7455 212.137 27.8543C212.518 27.9632 212.877 28.0993 213.215 28.2626C213.552 28.415 213.884 28.5728 214.211 28.7361C214.548 28.8885 214.913 29.0191 215.305 29.128C215.708 29.2368 216.165 29.2912 216.676 29.2912H217.411C217.575 29.2912 217.678 29.3239 217.722 29.3892C217.776 29.4545 217.803 29.5688 217.803 29.7321V30.6955C217.803 30.8261 217.765 30.9295 217.689 31.0057C217.613 31.0819 217.504 31.12 217.362 31.12H216.448ZM224.418 34.696C224.157 34.696 223.907 34.6742 223.667 34.6307C223.428 34.5871 223.183 34.5164 222.933 34.4184C222.682 34.3204 222.405 34.1952 222.1 34.0428C221.806 33.8795 221.463 33.6782 221.071 33.4387C220.864 33.7435 220.641 33.983 220.402 34.1571C220.173 34.3204 219.934 34.4347 219.683 34.5C219.444 34.5545 219.204 34.5817 218.965 34.5817C218.801 34.5817 218.72 34.5 218.72 34.3367V32.9162C218.72 32.5896 218.883 32.4263 219.21 32.4263C219.395 32.4263 219.553 32.3937 219.683 32.3283C219.814 32.263 219.95 32.1378 220.091 31.9528C220.244 31.7677 220.418 31.4847 220.614 31.1037C220.995 30.3635 221.37 29.7974 221.741 29.4055C222.122 29.0028 222.503 28.7252 222.884 28.5728C223.265 28.4095 223.646 28.3279 224.027 28.3279C224.451 28.3279 224.854 28.4041 225.235 28.5565C225.616 28.7089 225.959 28.9701 226.264 29.3402C226.579 29.7103 226.862 30.2274 227.113 30.8914C227.276 31.3051 227.434 31.6262 227.586 31.8548C227.739 32.0725 227.913 32.2249 228.109 32.312C228.316 32.3882 228.571 32.4263 228.876 32.4263C229.039 32.4263 229.121 32.508 229.121 32.6712V34.0918C229.121 34.4184 228.958 34.5817 228.631 34.5817C228.218 34.5817 227.847 34.5 227.521 34.3367C227.205 34.1626 226.917 33.8687 226.655 33.455C226.438 33.8904 226.122 34.2061 225.708 34.4021C225.306 34.598 224.876 34.696 224.418 34.696ZM224.467 32.7529C224.74 32.7529 224.974 32.6821 225.17 32.5406C225.366 32.3882 225.469 32.1324 225.48 31.7732C225.491 31.4793 225.425 31.2017 225.284 30.9404C225.142 30.6792 224.957 30.4669 224.729 30.3036C224.5 30.1403 224.255 30.0587 223.994 30.0587C223.787 30.0587 223.58 30.1077 223.373 30.2056C223.177 30.2927 222.971 30.4615 222.753 30.7118C222.535 30.9622 222.279 31.3214 221.986 31.7895C222.475 32.0508 222.862 32.2521 223.145 32.3937C223.428 32.5243 223.662 32.6168 223.847 32.6712C224.043 32.7257 224.25 32.7529 224.467 32.7529ZM228.628 34.5817C228.465 34.5817 228.383 34.5 228.383 34.3367V32.9162C228.383 32.5896 228.546 32.4263 228.873 32.4263C229.232 32.4263 229.526 32.3773 229.755 32.2794C229.983 32.1705 230.146 31.9854 230.244 31.7242C230.353 31.452 230.408 31.0656 230.408 30.5649V22.6456C230.408 22.5367 230.44 22.4496 230.506 22.3843C230.582 22.3081 230.674 22.27 230.783 22.27H231.812C231.932 22.27 232.024 22.3081 232.09 22.3843C232.155 22.4496 232.187 22.5367 232.187 22.6456V30.4832C232.187 31.1799 232.128 31.7895 232.008 32.312C231.888 32.8345 231.687 33.2645 231.404 33.602C231.132 33.9394 230.767 34.1898 230.31 34.3531C229.863 34.5055 229.303 34.5817 228.628 34.5817ZM235.596 34.598C235.487 34.598 235.394 34.5653 235.318 34.5C235.253 34.4238 235.22 34.3313 235.22 34.2224V22.6456C235.22 22.5367 235.253 22.4496 235.318 22.3843C235.394 22.3081 235.487 22.27 235.596 22.27H236.625C236.744 22.27 236.837 22.3081 236.902 22.3843C236.967 22.4496 237 22.5367 237 22.6456V34.2224C237 34.3313 236.967 34.4238 236.902 34.5C236.837 34.5653 236.744 34.598 236.625 34.598H235.596ZM243.586 39.6435C243.324 39.6435 243.194 39.5183 243.194 39.2679V34.6143C243.194 33.7652 243.357 33.1176 243.684 32.6712C244.01 32.2249 244.44 31.9691 244.974 31.9038C245.159 31.0003 245.442 30.271 245.823 29.7158C246.215 29.1606 246.655 28.7578 247.145 28.5075C247.646 28.2571 248.158 28.1319 248.68 28.1319C249.268 28.1319 249.785 28.2734 250.231 28.5565C250.689 28.8286 251.048 29.215 251.309 29.7158C251.57 30.2056 251.701 30.7771 251.701 31.4303C251.701 32.1814 251.516 32.8236 251.146 33.357C250.787 33.8904 250.264 34.2551 249.578 34.451C248.903 34.6361 248.081 34.6034 247.113 34.3531L246.019 34.0755C245.638 33.9884 245.365 34.0319 245.202 34.2061C245.05 34.3694 244.974 34.6633 244.974 35.0879V39.2679C244.974 39.5183 244.843 39.6435 244.582 39.6435H243.586ZM248.484 32.5733C248.952 32.5733 249.301 32.459 249.529 32.2304C249.758 32.0018 249.872 31.7242 249.872 31.3976C249.872 30.9622 249.742 30.6247 249.48 30.3853C249.23 30.1349 248.909 30.0097 248.517 30.0097C248.114 30.0097 247.733 30.1893 247.374 30.5485C247.015 30.8969 246.743 31.4466 246.557 32.1977C246.993 32.3283 247.358 32.4263 247.651 32.4916C247.945 32.5461 248.223 32.5733 248.484 32.5733ZM257.287 34.5817H256.699C256.1 34.5817 255.594 34.4783 255.18 34.2714C254.767 34.0537 254.451 33.7054 254.233 33.2264C254.016 32.7474 253.907 32.1106 253.907 31.316V22.6619C253.907 22.5421 253.939 22.4496 254.005 22.3843C254.081 22.3081 254.19 22.27 254.331 22.27H255.327C255.458 22.27 255.551 22.3081 255.605 22.3843C255.659 22.4496 255.687 22.5367 255.687 22.6456V30.7282C255.687 31.1962 255.736 31.5555 255.834 31.8058C255.942 32.0453 256.111 32.2086 256.34 32.2957C256.568 32.3828 256.857 32.4263 257.205 32.4263H257.532C257.695 32.4263 257.777 32.508 257.777 32.6712V34.0918C257.777 34.4184 257.613 34.5817 257.287 34.5817ZM269.235 34.5817C268.658 34.5817 268.168 34.5164 267.765 34.3857C267.373 34.2551 267.041 34.0973 266.769 33.9122C266.497 33.7271 266.263 33.5475 266.067 33.3734L267.178 32.2467C267.395 32.2902 267.607 32.3283 267.814 32.361C268.032 32.3828 268.272 32.3991 268.533 32.41C268.794 32.4209 269.099 32.4263 269.447 32.4263C269.61 32.4263 269.692 32.508 269.692 32.6712V34.0918C269.692 34.2442 269.649 34.364 269.561 34.451C269.485 34.5381 269.376 34.5817 269.235 34.5817ZM257.397 34.5817C257.288 34.5817 257.201 34.549 257.135 34.4837C257.07 34.4184 257.038 34.3313 257.038 34.2224V32.7855C257.038 32.6876 257.076 32.6059 257.152 32.5406C257.217 32.4644 257.299 32.4263 257.397 32.4263H259.128C259.574 31.3922 260.102 30.5268 260.711 29.8301C261.332 29.1225 261.996 28.5891 262.704 28.2299C263.422 27.8707 264.14 27.6911 264.859 27.6911C265.556 27.6911 266.138 27.838 266.606 28.1319C267.074 28.415 267.422 28.7905 267.651 29.2586C267.891 29.7158 268.01 30.2165 268.01 30.7608C268.01 31.599 267.809 32.3011 267.406 32.8672C267.014 33.4332 266.443 33.8632 265.692 34.1571C264.941 34.4402 264.048 34.5817 263.014 34.5817H257.397ZM260.695 32.4263H263.667C264.549 32.4263 265.218 32.3011 265.675 32.0508C266.143 31.8004 266.377 31.4357 266.377 30.9567C266.377 30.554 266.214 30.222 265.888 29.9607C265.572 29.6886 265.131 29.5579 264.565 29.5688C264.053 29.5688 263.563 29.694 263.095 29.9444C262.627 30.1948 262.186 30.5322 261.773 30.9567C261.37 31.3813 261.011 31.8711 260.695 32.4263ZM259.111 32.8672V22.6456C259.111 22.5367 259.144 22.4496 259.209 22.3843C259.285 22.3081 259.378 22.27 259.487 22.27H260.499C260.619 22.27 260.711 22.3081 260.777 22.3843C260.842 22.4496 260.875 22.5367 260.875 22.6456V27.9197C260.875 28.2027 260.875 28.4585 260.875 28.6871C260.875 28.9048 260.869 29.1116 260.858 29.3076C260.858 29.4926 260.847 29.6831 260.826 29.8791C260.815 30.075 260.793 30.2873 260.76 30.5159C260.728 30.7336 260.69 30.9894 260.646 31.2833L259.111 32.8672ZM264.549 26.1562C264.483 26.2215 264.402 26.2541 264.304 26.2541C264.217 26.2433 264.14 26.2052 264.075 26.1399L263.34 25.4051C263.275 25.3289 263.242 25.2472 263.242 25.1601C263.242 25.0731 263.275 24.9969 263.34 24.9315L264.075 24.1804C264.14 24.1151 264.217 24.0825 264.304 24.0825C264.391 24.0825 264.467 24.1151 264.532 24.1804L265.267 24.9315C265.441 25.1057 265.447 25.269 265.283 25.4214L264.549 26.1562ZM269.21 34.5817C269.047 34.5817 268.965 34.4946 268.965 34.3204V32.9162C268.965 32.5896 269.128 32.4263 269.455 32.4263H269.618C270.086 32.4263 270.435 32.312 270.663 32.0834C270.903 31.8439 271.022 31.4085 271.022 30.7771V29.1933C271.022 28.9102 271.153 28.7687 271.414 28.7687H272.394C272.655 28.7687 272.786 28.9102 272.786 29.1933V30.7771C272.786 31.4194 272.927 31.8548 273.21 32.0834C273.493 32.312 273.907 32.4263 274.451 32.4263H274.68C274.843 32.4263 274.925 32.508 274.925 32.6712V34.0918C274.925 34.4184 274.762 34.5817 274.435 34.5817C273.88 34.5817 273.363 34.4783 272.884 34.2714C272.405 34.0646 272.018 33.689 271.724 33.1448C271.474 33.7108 271.12 34.0918 270.663 34.2878C270.206 34.4837 269.722 34.5817 269.21 34.5817ZM272.116 27.2012C272.051 27.2665 271.969 27.2992 271.871 27.2992C271.784 27.2883 271.708 27.2502 271.643 27.1849L270.908 26.4501C270.843 26.3739 270.81 26.2922 270.81 26.2052C270.81 26.1181 270.843 26.0419 270.908 25.9766L271.643 25.2255C271.708 25.1601 271.784 25.1275 271.871 25.1275C271.959 25.1275 272.035 25.1601 272.1 25.2255L272.835 25.9766C273.009 26.1507 273.014 26.314 272.851 26.4664L272.116 27.2012ZM274.44 34.5817C274.277 34.5817 274.195 34.5 274.195 34.3367V32.9162C274.195 32.5896 274.358 32.4263 274.685 32.4263C275.044 32.4263 275.338 32.3773 275.567 32.2794C275.795 32.1705 275.959 31.9854 276.057 31.7242C276.165 31.452 276.22 31.0656 276.22 30.5649V22.6456C276.22 22.5367 276.253 22.4496 276.318 22.3843C276.394 22.3081 276.487 22.27 276.595 22.27H277.624C277.744 22.27 277.836 22.3081 277.902 22.3843C277.967 22.4496 278 22.5367 278 22.6456V30.4832C278 31.1799 277.94 31.7895 277.82 32.312C277.7 32.8345 277.499 33.2645 277.216 33.602C276.944 33.9394 276.579 34.1898 276.122 34.3531C275.676 34.5055 275.115 34.5817 274.44 34.5817ZM281.408 34.598C281.299 34.598 281.207 34.5653 281.13 34.5C281.065 34.4238 281.032 34.3313 281.032 34.2224V22.6456C281.032 22.5367 281.065 22.4496 281.13 22.3843C281.207 22.3081 281.299 22.27 281.408 22.27H282.437C282.556 22.27 282.649 22.3081 282.714 22.3843C282.78 22.4496 282.812 22.5367 282.812 22.6456V34.2224C282.812 34.3313 282.78 34.4238 282.714 34.5C282.649 34.5653 282.556 34.598 282.437 34.598H281.408Z" fill="#030712"/>
<path d="M312.771 22.4877H295.276C295.082 22.4877 294.897 22.5645 294.76 22.7012C294.624 22.8379 294.547 23.0233 294.547 23.2166V35.6088C294.547 35.9954 294.7 36.3662 294.974 36.6397C295.247 36.9131 295.618 37.0667 296.005 37.0667H312.042C312.428 37.0667 312.799 36.9131 313.073 36.6397C313.346 36.3662 313.5 35.9954 313.5 35.6088V23.2166C313.5 23.0233 313.423 22.8379 313.286 22.7012C313.149 22.5645 312.964 22.4877 312.771 22.4877ZM296.005 28.3193H299.65V31.2351H296.005V28.3193ZM301.107 28.3193H312.042V31.2351H301.107V28.3193ZM312.042 23.9456V26.8614H296.005V23.9456H312.042ZM296.005 32.693H299.65V35.6088H296.005V32.693ZM312.042 35.6088H301.107V32.693H312.042V35.6088Z" fill="#030712"/>
<g opacity="0.8">
<path d="M31.1172 69.3914C29.5102 69.3914 27.9393 69.8679 26.6032 70.7607C25.267 71.6535 24.2256 72.9224 23.6107 74.4071C22.9957 75.8917 22.8348 77.5254 23.1483 79.1015C23.4618 80.6776 24.2356 82.1253 25.3719 83.2616C26.5083 84.3979 27.956 85.1717 29.5321 85.4852C31.1082 85.7987 32.7418 85.6378 34.2265 85.0229C35.7111 84.4079 36.9801 83.3665 37.8729 82.0304C38.7657 80.6942 39.2422 79.1233 39.2422 77.5164C39.2399 75.3622 38.3832 73.2969 36.8599 71.7736C35.3367 70.2504 33.2714 69.3936 31.1172 69.3914ZM34.6844 76.0835L30.3094 80.4585C30.2513 80.5167 30.1824 80.5628 30.1065 80.5942C30.0307 80.6257 29.9493 80.6418 29.8672 80.6418C29.7851 80.6418 29.7037 80.6257 29.6279 80.5942C29.552 80.5628 29.483 80.5167 29.425 80.4585L27.55 78.5835C27.4327 78.4663 27.3668 78.3072 27.3668 78.1414C27.3668 77.9755 27.4327 77.8164 27.55 77.6992C27.6673 77.5819 27.8263 77.516 27.9922 77.516C28.158 77.516 28.3171 77.5819 28.4344 77.6992L29.8672 79.1328L33.8 75.1992C33.8581 75.1411 33.927 75.095 34.0029 75.0636C34.0788 75.0322 34.1601 75.016 34.2422 75.016C34.3243 75.016 34.4056 75.0322 34.4815 75.0636C34.5574 75.095 34.6263 75.1411 34.6844 75.1992C34.7424 75.2572 34.7885 75.3262 34.8199 75.402C34.8514 75.4779 34.8675 75.5592 34.8675 75.6414C34.8675 75.7235 34.8514 75.8048 34.8199 75.8807C34.7885 75.9565 34.7424 76.0255 34.6844 76.0835Z" fill="#14B8A6"/>
<path d="M156.482 82.5817C155.666 82.5817 155.034 82.3912 154.588 82.0102C154.142 81.6292 153.853 81.025 153.723 80.1977C153.45 80.5787 153.102 80.8781 152.678 81.0958C152.264 81.3026 151.801 81.406 151.29 81.406C150.473 81.406 149.847 81.1883 149.412 80.7529C148.976 80.3175 148.759 79.7351 148.759 79.0057C148.759 78.5703 148.851 78.1512 149.036 77.7484C149.232 77.3457 149.553 76.9701 150 76.6218C150.446 76.2734 151.039 75.9632 151.779 75.6911L153.543 75.0216V74.3031C153.543 74.1834 153.581 74.0909 153.657 74.0256C153.744 73.9602 153.842 73.9276 153.951 73.9276H154.996C155.094 73.9276 155.17 73.9657 155.225 74.0419C155.29 74.1072 155.323 74.1888 155.323 74.2868V78.9078C155.323 79.5174 155.421 79.9256 155.617 80.1324C155.813 80.3283 156.172 80.4263 156.694 80.4263H157.249C157.326 80.4263 157.38 80.4535 157.413 80.508C157.456 80.5624 157.478 80.6277 157.478 80.7039V82.1571C157.478 82.4402 157.32 82.5817 157.005 82.5817H156.482ZM151.796 79.5936C152.144 79.5936 152.449 79.5228 152.71 79.3813C152.971 79.2289 153.178 79.0221 153.331 78.7608C153.483 78.4996 153.559 78.222 153.559 77.9281V76.6871L152.171 77.1443C151.66 77.3185 151.268 77.5307 150.996 77.7811C150.734 78.0315 150.604 78.3091 150.604 78.6139C150.604 78.9295 150.713 79.1745 150.93 79.3486C151.148 79.5119 151.437 79.5936 151.796 79.5936ZM153.429 72.5886C153.374 72.654 153.303 72.6866 153.216 72.6866C153.129 72.6866 153.048 72.6485 152.971 72.5723L152.269 71.8702C152.215 71.794 152.182 71.7178 152.171 71.6416C152.171 71.5545 152.204 71.4729 152.269 71.3967L152.971 70.6945C153.048 70.6183 153.129 70.5802 153.216 70.5802C153.303 70.5802 153.374 70.6183 153.429 70.6945L154.147 71.3967C154.223 71.462 154.261 71.5436 154.261 71.6416C154.272 71.7287 154.24 71.8103 154.163 71.8865L153.429 72.5886ZM155.911 72.5886C155.845 72.6648 155.769 72.6975 155.682 72.6866C155.595 72.6757 155.519 72.6376 155.453 72.5723L154.719 71.8702C154.653 71.8049 154.621 71.7287 154.621 71.6416C154.621 71.5436 154.653 71.462 154.719 71.3967L155.453 70.6945C155.519 70.6183 155.589 70.5802 155.666 70.5802C155.742 70.5802 155.818 70.6183 155.894 70.6945L156.613 71.3967C156.689 71.462 156.727 71.5436 156.727 71.6416C156.727 71.7287 156.689 71.8103 156.613 71.8865L155.911 72.5886ZM156.984 82.5817C156.907 82.5817 156.847 82.5545 156.804 82.5C156.76 82.4456 156.739 82.3803 156.739 82.3041V80.8835C156.739 80.5787 156.902 80.4263 157.228 80.4263H157.375C158.007 80.4263 158.426 80.263 158.633 79.9365C158.85 79.599 158.937 79.1309 158.894 78.5322C158.872 78.2492 158.829 77.9553 158.763 77.6505C158.709 77.3457 158.654 77.0518 158.6 76.7687C158.556 76.5837 158.562 76.4531 158.616 76.3769C158.682 76.3007 158.774 76.2517 158.894 76.2299L159.825 76.034C159.988 76.0013 160.108 76.034 160.184 76.1319C160.271 76.2299 160.331 76.3551 160.364 76.5075C160.407 76.6708 160.451 76.8667 160.494 77.0953C160.538 77.3239 160.576 77.5688 160.608 77.8301C160.652 78.0805 160.679 78.3199 160.69 78.5485C160.734 79.3867 160.641 80.1106 160.413 80.7202C160.195 81.3189 159.808 81.7816 159.253 82.1081C158.698 82.4347 157.941 82.5926 156.984 82.5817ZM157.882 85.7004C157.827 85.7657 157.756 85.7929 157.669 85.7821C157.582 85.7821 157.506 85.7494 157.441 85.6841L156.739 84.9983C156.684 84.933 156.657 84.8568 156.657 84.7697C156.646 84.6826 156.673 84.6064 156.739 84.5411L157.441 83.8553C157.506 83.79 157.577 83.7573 157.653 83.7573C157.74 83.7573 157.816 83.79 157.882 83.8553L158.567 84.5411C158.633 84.6064 158.665 84.6826 158.665 84.7697C158.676 84.8677 158.649 84.9493 158.584 85.0146L157.882 85.7004ZM160.151 85.7004C160.086 85.7657 160.01 85.7929 159.923 85.7821C159.846 85.7821 159.776 85.7494 159.71 85.6841L158.992 84.9983C158.937 84.933 158.905 84.8568 158.894 84.7697C158.894 84.6826 158.927 84.6064 158.992 84.5411L159.71 83.8553C159.776 83.79 159.846 83.7573 159.923 83.7573C159.999 83.7573 160.07 83.79 160.135 83.8553L160.821 84.5411C160.886 84.6064 160.919 84.6826 160.919 84.7697C160.93 84.8677 160.902 84.9493 160.837 85.0146L160.151 85.7004ZM161.298 86.5821C161.146 86.5821 161.037 86.5386 160.972 86.4515C160.896 86.3753 160.857 86.2665 160.857 86.125V85.0309C160.857 84.8894 160.901 84.7806 160.988 84.7044C161.075 84.6391 161.195 84.6064 161.347 84.6064H161.805C162.871 84.6064 163.639 84.3234 164.107 83.7573C164.586 83.1913 164.825 82.4075 164.825 81.406C164.825 81.0359 164.793 80.6549 164.727 80.263C164.662 79.8603 164.58 79.4629 164.482 79.071L164.188 77.7811C164.156 77.6287 164.167 77.509 164.221 77.4219C164.276 77.3239 164.39 77.2531 164.564 77.2096L165.446 76.9973C165.587 76.9647 165.691 76.9647 165.756 76.9973C165.821 77.03 165.87 77.0844 165.903 77.1606C165.936 77.2259 165.963 77.3021 165.985 77.3892L166.442 79.2343C166.518 79.55 166.643 79.7949 166.817 79.9691C166.992 80.1433 167.198 80.263 167.438 80.3283C167.677 80.3937 167.933 80.4263 168.205 80.4263H168.516C168.701 80.4263 168.793 80.508 168.793 80.6712V82.0918C168.793 82.4184 168.63 82.5817 168.303 82.5817C167.868 82.5817 167.476 82.5327 167.128 82.4347C166.79 82.3367 166.572 82.2116 166.474 82.0592C166.453 82.647 166.355 83.213 166.181 83.7573C166.006 84.3016 165.74 84.786 165.38 85.2106C165.021 85.6351 164.559 85.9671 163.993 86.2066C163.426 86.457 162.741 86.5821 161.935 86.5821H161.298ZM173.22 82.6307C172.97 82.6307 172.703 82.598 172.42 82.5327C172.137 82.4674 171.865 82.3367 171.603 82.1408C171.342 81.9449 171.124 81.6618 170.95 81.2917C170.776 81.6292 170.547 81.8904 170.264 82.0755C169.981 82.2605 169.671 82.3912 169.334 82.4674C168.996 82.5436 168.653 82.5817 168.305 82.5817C168.142 82.5817 168.06 82.4946 168.06 82.3204V80.9162C168.06 80.5896 168.223 80.4263 168.55 80.4263C169.192 80.4263 169.628 80.3283 169.856 80.1324C170.096 79.9256 170.215 79.5337 170.215 78.9567V77.7158C170.215 77.5852 170.248 77.4817 170.313 77.4055C170.379 77.3293 170.477 77.2912 170.607 77.2912H171.603C171.854 77.2912 171.979 77.4273 171.979 77.6995V79.0547C171.979 79.5881 172.099 79.9582 172.338 80.1651C172.578 80.3719 172.899 80.4753 173.302 80.4753C173.802 80.4753 174.14 80.3447 174.314 80.0834C174.499 79.8222 174.591 79.4357 174.591 78.9241V77.7321C174.591 77.6015 174.624 77.4981 174.689 77.4219C174.755 77.3348 174.853 77.2912 174.983 77.2912H175.963C176.094 77.2912 176.192 77.3348 176.257 77.4219C176.322 77.4981 176.355 77.6015 176.355 77.7321V79.0384C176.355 79.55 176.453 79.9201 176.649 80.1487C176.856 80.3664 177.204 80.4753 177.694 80.4753C178.184 80.4753 178.516 80.3447 178.69 80.0834C178.875 79.8222 178.968 79.4357 178.968 78.9241V77.6668C178.968 77.5579 178.995 77.4709 179.049 77.4055C179.104 77.3293 179.185 77.2912 179.294 77.2912H180.388C180.486 77.2912 180.568 77.3293 180.633 77.4055C180.709 77.4709 180.747 77.5579 180.747 77.6668V78.9567C180.747 79.501 180.867 79.882 181.107 80.0997C181.357 80.3175 181.792 80.4263 182.413 80.4263H182.723C182.886 80.4263 182.968 80.508 182.968 80.6712V82.0918C182.968 82.4184 182.799 82.5817 182.462 82.5817C181.809 82.5817 181.248 82.5 180.78 82.3367C180.312 82.1735 179.947 81.8959 179.686 81.504C179.468 81.9176 179.169 82.2116 178.788 82.3857C178.407 82.549 178.01 82.6307 177.596 82.6307C177.117 82.6307 176.676 82.549 176.273 82.3857C175.881 82.2116 175.56 81.9176 175.31 81.504C175.092 81.9285 174.793 82.2224 174.412 82.3857C174.031 82.549 173.634 82.6307 173.22 82.6307ZM175.685 73.4214C175.62 73.4758 175.549 73.503 175.473 73.503C175.397 73.4922 175.321 73.4595 175.245 73.4051L174.575 72.7193C174.434 72.5778 174.434 72.4362 174.575 72.2947L175.245 71.6089C175.386 71.4783 175.528 71.4783 175.669 71.6089L176.339 72.2947C176.491 72.4471 176.496 72.5941 176.355 72.7356L175.685 73.4214ZM174.461 75.6094C174.406 75.6747 174.336 75.7074 174.249 75.7074C174.162 75.7074 174.08 75.6693 174.004 75.5931L173.302 74.891C173.236 74.8148 173.204 74.7386 173.204 74.6624C173.204 74.5753 173.236 74.4936 173.302 74.4174L174.004 73.7153C174.156 73.552 174.308 73.552 174.461 73.7153L175.179 74.4174C175.256 74.4827 175.294 74.5644 175.294 74.6624C175.304 74.7494 175.272 74.8311 175.196 74.9073L174.461 75.6094ZM176.943 75.6094C176.877 75.6856 176.801 75.7183 176.714 75.7074C176.627 75.6965 176.551 75.6584 176.486 75.5931L175.751 74.891C175.685 74.8256 175.653 74.7494 175.653 74.6624C175.653 74.5644 175.685 74.4827 175.751 74.4174L176.486 73.7153C176.638 73.5629 176.785 73.5629 176.926 73.7153L177.645 74.4174C177.71 74.4827 177.743 74.5644 177.743 74.6624C177.754 74.7494 177.721 74.8311 177.645 74.9073L176.943 75.6094ZM182.481 82.5817C182.318 82.5817 182.236 82.4946 182.236 82.3204V80.9162C182.236 80.5896 182.399 80.4263 182.726 80.4263H182.889C183.357 80.4263 183.705 80.312 183.934 80.0834C184.174 79.8439 184.293 79.4085 184.293 78.7771V77.1933C184.293 76.9102 184.424 76.7687 184.685 76.7687H185.665C185.926 76.7687 186.057 76.9102 186.057 77.1933V78.7771C186.057 79.4194 186.198 79.8548 186.481 80.0834C186.764 80.312 187.178 80.4263 187.722 80.4263H187.951C188.114 80.4263 188.196 80.508 188.196 80.6712V82.0918C188.196 82.4184 188.033 82.5817 187.706 82.5817C187.151 82.5817 186.634 82.4783 186.155 82.2714C185.676 82.0646 185.289 81.689 184.995 81.1448C184.745 81.7108 184.391 82.0918 183.934 82.2878C183.477 82.4837 182.992 82.5817 182.481 82.5817ZM185.338 85.6514C185.273 85.7059 185.197 85.7276 185.11 85.7167C185.023 85.7167 184.941 85.6895 184.865 85.6351L184.163 84.9166C184.097 84.8622 184.065 84.786 184.065 84.688C184.065 84.601 184.097 84.5248 184.163 84.4594L184.865 83.741C184.941 83.6757 185.017 83.643 185.093 83.643C185.18 83.643 185.257 83.6757 185.322 83.741L186.024 84.4594C186.1 84.5248 186.138 84.601 186.138 84.688C186.149 84.786 186.117 84.8677 186.04 84.933L185.338 85.6514ZM187.711 82.5817C187.548 82.5817 187.466 82.5 187.466 82.3367V80.9162C187.466 80.5896 187.629 80.4263 187.956 80.4263C188.315 80.4263 188.609 80.3773 188.838 80.2794C189.066 80.1705 189.23 79.9854 189.328 79.7242C189.436 79.452 189.491 79.0656 189.491 78.5649V70.6456C189.491 70.5367 189.523 70.4496 189.589 70.3843C189.665 70.3081 189.758 70.27 189.866 70.27H190.895C191.015 70.27 191.107 70.3081 191.173 70.3843C191.238 70.4496 191.271 70.5367 191.271 70.6456V78.4832C191.271 79.1799 191.211 79.7895 191.091 80.312C190.971 80.8345 190.77 81.2645 190.487 81.602C190.215 81.9394 189.85 82.1898 189.393 82.3531C188.947 82.5055 188.386 82.5817 187.711 82.5817ZM194.679 82.598C194.57 82.598 194.478 82.5653 194.401 82.5C194.336 82.4238 194.303 82.3313 194.303 82.2224V70.6456C194.303 70.5367 194.336 70.4496 194.401 70.3843C194.478 70.3081 194.57 70.27 194.679 70.27H195.708C195.827 70.27 195.92 70.3081 195.985 70.3843C196.051 70.4496 196.083 70.5367 196.083 70.6456V82.2224C196.083 82.3313 196.051 82.4238 195.985 82.5C195.92 82.5653 195.827 82.598 195.708 82.598H194.679ZM204.955 82.5817C204.345 82.5817 203.839 82.4619 203.436 82.2224C203.033 81.983 202.734 81.6564 202.538 81.2427C202.342 80.8291 202.244 80.361 202.244 79.8385V79.2833C202.244 79.1309 202.277 79.0166 202.342 78.9404C202.418 78.8642 202.549 78.8261 202.734 78.8261H203.6C203.719 78.8261 203.806 78.8642 203.861 78.9404C203.915 79.0166 203.942 79.12 203.942 79.2507V79.6589C203.942 79.9092 204.013 80.0997 204.155 80.2304C204.296 80.361 204.503 80.4263 204.775 80.4263L206.816 80.41C207.263 80.41 207.573 80.3283 207.747 80.1651C207.932 80.0018 208.025 79.7786 208.025 79.4956C208.025 79.2779 207.986 79.0602 207.91 78.8425C207.845 78.6139 207.682 78.3472 207.42 78.0424L205.33 75.4788C205.211 75.3373 205.151 75.2066 205.151 75.0869C205.162 74.9672 205.216 74.8637 205.314 74.7767L206.13 74.1399C206.272 74.031 206.397 73.982 206.506 73.9929C206.615 73.9929 206.724 74.0582 206.833 74.1888L208.563 76.3115C208.879 76.6816 209.129 77.0354 209.315 77.3729C209.5 77.6995 209.636 78.0369 209.723 78.3853C209.81 78.7227 209.853 79.0983 209.853 79.5119C209.853 80.0889 209.728 80.6114 209.478 81.0795C209.227 81.5366 208.857 81.9013 208.367 82.1735C207.888 82.4347 207.29 82.5653 206.571 82.5653L204.955 82.5817ZM210.252 86.5821C210.099 86.5821 209.991 86.5386 209.925 86.4515C209.849 86.3753 209.811 86.2665 209.811 86.125V85.0309C209.811 84.8894 209.855 84.7806 209.942 84.7044C210.029 84.6391 210.148 84.6064 210.301 84.6064H210.823C211.542 84.6064 212.113 84.4649 212.538 84.1819C212.973 83.8988 213.284 83.5015 213.469 82.9899C213.654 82.4891 213.746 81.8959 213.746 81.2101C213.746 80.6658 213.686 80.127 213.567 79.5936C213.458 79.0602 213.322 78.505 213.158 77.9281C213.115 77.7103 213.115 77.5525 213.158 77.4545C213.202 77.3457 213.311 77.2695 213.485 77.2259L214.416 76.981C214.568 76.9375 214.688 76.9483 214.775 77.0137C214.862 77.0681 214.933 77.215 214.987 77.4545C215.15 78.0859 215.292 78.7554 215.412 79.4629C215.542 80.1705 215.608 80.8345 215.608 81.455C215.608 82.4238 215.439 83.2947 215.101 84.0676C214.775 84.8404 214.269 85.45 213.583 85.8964C212.908 86.3535 212.059 86.5821 211.036 86.5821H210.252ZM218.167 82.598C218.058 82.598 217.966 82.5653 217.89 82.5C217.824 82.4238 217.792 82.3313 217.792 82.2224V70.6456C217.792 70.5367 217.824 70.4496 217.89 70.3843C217.966 70.3081 218.058 70.27 218.167 70.27H219.196C219.316 70.27 219.408 70.3081 219.473 70.3843C219.539 70.4496 219.571 70.5367 219.571 70.6456V82.2224C219.571 82.3313 219.539 82.4238 219.473 82.5C219.408 82.5653 219.316 82.598 219.196 82.598H218.167ZM222.524 86.5332C222.251 86.5332 222.045 86.4951 221.903 86.4189C221.772 86.3427 221.707 86.2011 221.707 85.9943V84.9656C221.707 84.8023 221.756 84.6826 221.854 84.6064C221.952 84.5302 222.11 84.4921 222.328 84.4921H223.634C224.548 84.4921 225.272 84.3234 225.806 83.9859C226.35 83.6485 226.709 83.1423 226.883 82.4674H225.626C224.94 82.4674 224.347 82.3531 223.846 82.1245C223.345 81.8959 222.959 81.5693 222.687 81.1448C222.426 80.7093 222.295 80.1977 222.295 79.6099C222.295 79.1962 222.366 78.7989 222.507 78.4179C222.649 78.0369 222.85 77.6995 223.111 77.4055C223.373 77.1007 223.694 76.8613 224.075 76.6871C224.456 76.5129 224.891 76.4258 225.381 76.4258C226.393 76.4258 227.166 76.7687 227.7 77.4545C228.233 78.1294 228.527 79.12 228.581 80.4263H229.773C229.937 80.4263 230.018 80.508 230.018 80.6712V82.0918C230.018 82.4184 229.855 82.5817 229.529 82.5817H228.418C228.113 83.9533 227.553 84.9547 226.736 85.5861C225.92 86.2175 224.831 86.5332 223.471 86.5332H222.524ZM225.61 80.5243H226.998C226.921 79.7732 226.731 79.2017 226.426 78.8098C226.121 78.4179 225.702 78.222 225.169 78.222C224.864 78.222 224.608 78.2818 224.401 78.4016C224.205 78.5213 224.058 78.6737 223.961 78.8588C223.863 79.0329 223.814 79.218 223.814 79.4139C223.814 79.7949 223.971 80.078 224.287 80.263C224.614 80.4372 225.055 80.5243 225.61 80.5243ZM234.975 82.696C234.713 82.696 234.463 82.6742 234.223 82.6307C233.984 82.5871 233.739 82.5164 233.489 82.4184C233.238 82.3204 232.961 82.1952 232.656 82.0428C232.362 81.8795 232.019 81.6782 231.627 81.4387C231.42 81.7435 231.197 81.983 230.958 82.1571C230.729 82.3204 230.49 82.4347 230.239 82.5C230 82.5545 229.76 82.5817 229.521 82.5817C229.358 82.5817 229.276 82.5 229.276 82.3367V80.9162C229.276 80.5896 229.439 80.4263 229.766 80.4263C229.951 80.4263 230.109 80.3937 230.239 80.3283C230.37 80.263 230.506 80.1378 230.648 79.9528C230.8 79.7677 230.974 79.4847 231.17 79.1037C231.551 78.3635 231.927 77.7974 232.297 77.4055C232.678 77.0028 233.059 76.7252 233.44 76.5728C233.821 76.4095 234.202 76.3279 234.583 76.3279C235.007 76.3279 235.41 76.4041 235.791 76.5565C236.172 76.7089 236.515 76.9701 236.82 77.3402C237.135 77.7103 237.418 78.2274 237.669 78.8914C237.832 79.3051 237.99 79.6262 238.142 79.8548C238.295 80.0725 238.469 80.2249 238.665 80.312C238.872 80.3882 239.127 80.4263 239.432 80.4263C239.596 80.4263 239.677 80.508 239.677 80.6712V82.0918C239.677 82.4184 239.514 82.5817 239.187 82.5817C238.774 82.5817 238.404 82.5 238.077 82.3367C237.761 82.1626 237.473 81.8687 237.212 81.455C236.994 81.8904 236.678 82.2061 236.265 82.4021C235.862 82.598 235.432 82.696 234.975 82.696ZM235.024 80.7529C235.296 80.7529 235.53 80.6821 235.726 80.5406C235.922 80.3882 236.025 80.1324 236.036 79.7732C236.047 79.4793 235.981 79.2017 235.84 78.9404C235.698 78.6792 235.513 78.4669 235.285 78.3036C235.056 78.1403 234.811 78.0587 234.55 78.0587C234.343 78.0587 234.136 78.1077 233.93 78.2056C233.734 78.2927 233.527 78.4615 233.309 78.7118C233.091 78.9622 232.836 79.3214 232.542 79.7895C233.031 80.0508 233.418 80.2521 233.701 80.3937C233.984 80.5243 234.218 80.6168 234.403 80.6712C234.599 80.7257 234.806 80.7529 235.024 80.7529ZM239.184 82.5817C239.021 82.5817 238.939 82.5 238.939 82.3367V80.9162C238.939 80.5896 239.102 80.4263 239.429 80.4263C239.788 80.4263 240.082 80.3773 240.311 80.2794C240.539 80.1705 240.703 79.9854 240.801 79.7242C240.909 79.452 240.964 79.0656 240.964 78.5649V70.6456C240.964 70.5367 240.996 70.4496 241.062 70.3843C241.138 70.3081 241.231 70.27 241.339 70.27H242.368C242.488 70.27 242.58 70.3081 242.646 70.3843C242.711 70.4496 242.744 70.5367 242.744 70.6456V78.4832C242.744 79.1799 242.684 79.7895 242.564 80.312C242.444 80.8345 242.243 81.2645 241.96 81.602C241.688 81.9394 241.323 82.1898 240.866 82.3531C240.42 82.5055 239.859 82.5817 239.184 82.5817ZM246.152 82.598C246.043 82.598 245.951 82.5653 245.874 82.5C245.809 82.4238 245.776 82.3313 245.776 82.2224V70.6456C245.776 70.5367 245.809 70.4496 245.874 70.3843C245.951 70.3081 246.043 70.27 246.152 70.27H247.181C247.3 70.27 247.393 70.3081 247.458 70.3843C247.524 70.4496 247.556 70.5367 247.556 70.6456V82.2224C247.556 82.3313 247.524 82.4238 247.458 82.5C247.393 82.5653 247.3 82.598 247.181 82.598H246.152ZM254.142 87.6435C253.881 87.6435 253.75 87.5183 253.75 87.2679V82.6143C253.75 81.7652 253.913 81.1176 254.24 80.6712C254.566 80.2249 254.996 79.9691 255.53 79.9038C255.715 79.0003 255.998 78.271 256.379 77.7158C256.771 77.1606 257.212 76.7578 257.701 76.5075C258.202 76.2571 258.714 76.1319 259.236 76.1319C259.824 76.1319 260.341 76.2734 260.787 76.5565C261.245 76.8286 261.604 77.215 261.865 77.7158C262.126 78.2056 262.257 78.7771 262.257 79.4303C262.257 80.1814 262.072 80.8236 261.702 81.357C261.343 81.8904 260.82 82.2551 260.134 82.451C259.459 82.6361 258.638 82.6034 257.669 82.3531L256.575 82.0755C256.194 81.9884 255.922 82.0319 255.758 82.2061C255.606 82.3694 255.53 82.6633 255.53 83.0879V87.2679C255.53 87.5183 255.399 87.6435 255.138 87.6435H254.142ZM259.04 80.5733C259.508 80.5733 259.857 80.459 260.085 80.2304C260.314 80.0018 260.428 79.7242 260.428 79.3976C260.428 78.9622 260.298 78.6247 260.036 78.3853C259.786 78.1349 259.465 78.0097 259.073 78.0097C258.67 78.0097 258.289 78.1893 257.93 78.5485C257.571 78.8969 257.299 79.4466 257.114 80.1977C257.549 80.3283 257.914 80.4263 258.208 80.4916C258.501 80.5461 258.779 80.5733 259.04 80.5733ZM267.843 82.5817H267.255C266.656 82.5817 266.15 82.4783 265.737 82.2714C265.323 82.0537 265.007 81.7054 264.789 81.2264C264.572 80.7474 264.463 80.1106 264.463 79.316V70.6619C264.463 70.5421 264.496 70.4496 264.561 70.3843C264.637 70.3081 264.746 70.27 264.887 70.27H265.883C266.014 70.27 266.107 70.3081 266.161 70.3843C266.215 70.4496 266.243 70.5367 266.243 70.6456V78.7282C266.243 79.1962 266.292 79.5555 266.39 79.8058C266.499 80.0453 266.667 80.2086 266.896 80.2957C267.124 80.3828 267.413 80.4263 267.761 80.4263H268.088C268.251 80.4263 268.333 80.508 268.333 80.6712V82.0918C268.333 82.4184 268.169 82.5817 267.843 82.5817ZM279.791 82.5817C279.214 82.5817 278.724 82.5164 278.321 82.3857C277.93 82.2551 277.598 82.0973 277.325 81.9122C277.053 81.7271 276.819 81.5475 276.623 81.3734L277.734 80.2467C277.951 80.2902 278.164 80.3283 278.37 80.361C278.588 80.3828 278.828 80.3991 279.089 80.41C279.35 80.4209 279.655 80.4263 280.003 80.4263C280.167 80.4263 280.248 80.508 280.248 80.6712V82.0918C280.248 82.2442 280.205 82.364 280.118 82.451C280.041 82.5381 279.933 82.5817 279.791 82.5817ZM267.953 82.5817C267.844 82.5817 267.757 82.549 267.692 82.4837C267.626 82.4184 267.594 82.3313 267.594 82.2224V80.7855C267.594 80.6876 267.632 80.6059 267.708 80.5406C267.773 80.4644 267.855 80.4263 267.953 80.4263H269.684C270.13 79.3922 270.658 78.5268 271.268 77.8301C271.888 77.1225 272.552 76.5891 273.26 76.2299C273.978 75.8707 274.697 75.6911 275.415 75.6911C276.112 75.6911 276.694 75.838 277.162 76.1319C277.63 76.415 277.979 76.7905 278.207 77.2586C278.447 77.7158 278.566 78.2165 278.566 78.7608C278.566 79.599 278.365 80.3011 277.962 80.8672C277.57 81.4332 276.999 81.8632 276.248 82.1571C275.497 82.4402 274.604 82.5817 273.57 82.5817H267.953ZM271.251 80.4263H274.223C275.105 80.4263 275.774 80.3011 276.231 80.0508C276.699 79.8004 276.934 79.4357 276.934 78.9567C276.934 78.554 276.77 78.222 276.444 77.9607C276.128 77.6886 275.687 77.5579 275.121 77.5688C274.609 77.5688 274.12 77.694 273.651 77.9444C273.183 78.1948 272.743 78.5322 272.329 78.9567C271.926 79.3813 271.567 79.8711 271.251 80.4263ZM269.667 80.8672V70.6456C269.667 70.5367 269.7 70.4496 269.765 70.3843C269.842 70.3081 269.934 70.27 270.043 70.27H271.055C271.175 70.27 271.268 70.3081 271.333 70.3843C271.398 70.4496 271.431 70.5367 271.431 70.6456V75.9197C271.431 76.2027 271.431 76.4585 271.431 76.6871C271.431 76.9048 271.425 77.1116 271.414 77.3076C271.414 77.4926 271.404 77.6831 271.382 77.8791C271.371 78.075 271.349 78.2873 271.317 78.5159C271.284 78.7336 271.246 78.9894 271.202 79.2833L269.667 80.8672ZM275.105 74.1562C275.039 74.2215 274.958 74.2541 274.86 74.2541C274.773 74.2433 274.697 74.2052 274.631 74.1399L273.896 73.4051C273.831 73.3289 273.798 73.2472 273.798 73.1601C273.798 73.0731 273.831 72.9969 273.896 72.9315L274.631 72.1804C274.697 72.1151 274.773 72.0825 274.86 72.0825C274.947 72.0825 275.023 72.1151 275.088 72.1804L275.823 72.9315C275.997 73.1057 276.003 73.269 275.84 73.4214L275.105 74.1562ZM279.799 82.5817C279.701 82.5817 279.63 82.5545 279.586 82.5C279.543 82.4347 279.521 82.364 279.521 82.2878V80.8182C279.521 80.6658 279.565 80.5624 279.652 80.508C279.739 80.4535 279.859 80.4263 280.011 80.4263H280.158C280.626 80.4263 280.963 80.3066 281.17 80.0671C281.377 79.8167 281.48 79.4357 281.48 78.9241C281.48 78.7499 281.47 78.5866 281.448 78.4342C281.437 78.2818 281.41 78.1186 281.366 77.9444L281.089 76.6871C281.056 76.5238 281.072 76.4041 281.138 76.3279C281.203 76.2517 281.301 76.1972 281.432 76.1646L282.362 75.9686C282.656 75.9033 282.836 76.0231 282.901 76.3279L283.228 77.8954C283.282 78.1349 283.32 78.3907 283.342 78.6628C283.375 78.935 283.391 79.1581 283.391 79.3323C283.391 80.3011 283.151 81.0849 282.672 81.6836C282.193 82.2823 281.486 82.5817 280.55 82.5817H279.799ZM282.036 74.6134C281.97 74.6787 281.889 74.7113 281.791 74.7113C281.704 74.7005 281.627 74.6624 281.562 74.597L280.827 73.8623C280.762 73.7861 280.729 73.7044 280.729 73.6173C280.729 73.5303 280.762 73.4541 280.827 73.3887L281.562 72.6376C281.627 72.5723 281.704 72.5397 281.791 72.5397C281.878 72.5397 281.954 72.5723 282.019 72.6376L282.754 73.3887C282.928 73.5629 282.934 73.7262 282.77 73.8786L282.036 74.6134Z" fill="#030712"/>
<path d="M304.023 68.301C302.149 68.301 300.317 68.8567 298.758 69.898C297.2 70.9393 295.985 72.4193 295.268 74.1509C294.551 75.8824 294.363 77.7878 294.729 79.6261C295.095 81.4643 295.997 83.1528 297.322 84.4781C298.648 85.8034 300.336 86.7059 302.174 87.0716C304.013 87.4372 305.918 87.2496 307.65 86.5323C309.381 85.8151 310.861 84.6005 311.903 83.0421C312.944 81.4837 313.5 79.6516 313.5 77.7773C313.497 75.2648 312.498 72.856 310.721 71.0795C308.944 69.3029 306.536 68.3036 304.023 68.301ZM304.023 85.7958C302.437 85.7958 300.887 85.3255 299.568 84.4444C298.25 83.5633 297.222 82.311 296.615 80.8458C296.008 79.3807 295.849 77.7684 296.159 76.213C296.468 74.6576 297.232 73.2288 298.353 72.1074C299.475 70.986 300.903 70.2223 302.459 69.9129C304.014 69.6035 305.627 69.7623 307.092 70.3692C308.557 70.9761 309.809 72.0039 310.69 73.3225C311.571 74.6411 312.042 76.1914 312.042 77.7773C312.039 79.9032 311.194 81.9413 309.69 83.4445C308.187 84.9478 306.149 85.7933 304.023 85.7958ZM302.565 73.4036C302.565 73.1153 302.651 72.8334 302.811 72.5936C302.971 72.3539 303.199 72.167 303.465 72.0567C303.732 71.9463 304.025 71.9175 304.308 71.9737C304.59 72.03 304.85 72.1688 305.054 72.3727C305.258 72.5766 305.397 72.8364 305.453 73.1192C305.509 73.402 305.48 73.6951 305.37 73.9615C305.26 74.2279 305.073 74.4556 304.833 74.6158C304.593 74.776 304.312 74.8615 304.023 74.8615C303.637 74.8615 303.266 74.7079 302.992 74.4345C302.719 74.1611 302.565 73.7903 302.565 73.4036ZM309.126 76.3194C309.126 76.5127 309.049 76.6982 308.912 76.8349C308.776 76.9716 308.59 77.0484 308.397 77.0484H304.752V78.2858L307.546 82.4772C307.653 82.6382 307.692 82.8351 307.654 83.0248C307.616 83.2145 307.505 83.3813 307.344 83.4886C307.183 83.5959 306.986 83.6349 306.796 83.597C306.606 83.559 306.439 83.4473 306.332 83.2863L304.023 79.8238L301.714 83.2863C301.661 83.366 301.593 83.4345 301.513 83.4878C301.434 83.5411 301.344 83.5782 301.25 83.597C301.061 83.6349 300.864 83.5959 300.703 83.4886C300.542 83.3813 300.43 83.2145 300.392 83.0248C300.354 82.8351 300.393 82.6382 300.501 82.4772L303.294 78.2858V77.0484H299.65C299.456 77.0484 299.271 76.9716 299.134 76.8349C298.997 76.6982 298.921 76.5127 298.921 76.3194C298.921 76.1261 298.997 75.9407 299.134 75.804C299.271 75.6673 299.456 75.5905 299.65 75.5905H308.397C308.59 75.5905 308.776 75.6673 308.912 75.804C309.049 75.9407 309.126 76.1261 309.126 76.3194Z" fill="#030712"/>
</g>
<g opacity="0.6">
<path d="M31.1172 117.391C29.5102 117.391 27.9393 117.868 26.6032 118.761C25.267 119.653 24.2256 120.922 23.6107 122.407C22.9957 123.892 22.8348 125.525 23.1483 127.101C23.4618 128.678 24.2356 130.125 25.3719 131.262C26.5083 132.398 27.956 133.172 29.5321 133.485C31.1082 133.799 32.7418 133.638 34.2265 133.023C35.7111 132.408 36.9801 131.367 37.8729 130.03C38.7657 128.694 39.2422 127.123 39.2422 125.516C39.2399 123.362 38.3832 121.297 36.8599 119.774C35.3367 118.25 33.2714 117.394 31.1172 117.391ZM34.6844 124.084L30.3094 128.459C30.2513 128.517 30.1824 128.563 30.1065 128.594C30.0307 128.626 29.9493 128.642 29.8672 128.642C29.7851 128.642 29.7037 128.626 29.6279 128.594C29.552 128.563 29.483 128.517 29.425 128.459L27.55 126.584C27.4327 126.466 27.3668 126.307 27.3668 126.141C27.3668 125.976 27.4327 125.816 27.55 125.699C27.6673 125.582 27.8263 125.516 27.9922 125.516C28.158 125.516 28.3171 125.582 28.4344 125.699L29.8672 127.133L33.8 123.199C33.8581 123.141 33.927 123.095 34.0029 123.064C34.0788 123.032 34.1601 123.016 34.2422 123.016C34.3243 123.016 34.4056 123.032 34.4815 123.064C34.5574 123.095 34.6263 123.141 34.6844 123.199C34.7424 123.257 34.7885 123.326 34.8199 123.402C34.8514 123.478 34.8675 123.559 34.8675 123.641C34.8675 123.723 34.8514 123.805 34.8199 123.881C34.7885 123.957 34.7424 124.025 34.6844 124.084Z" fill="#14B8A6"/>
<path d="M149.028 130.81C148.908 130.821 148.821 130.788 148.767 130.712C148.723 130.647 148.696 130.554 148.685 130.435V129.079C148.685 128.971 148.718 128.894 148.783 128.851C148.848 128.796 148.93 128.764 149.028 128.753L150.955 128.573L150.987 129.112C150.541 128.796 150.198 128.388 149.959 127.887C149.719 127.387 149.648 126.848 149.746 126.271C149.812 125.738 149.986 125.291 150.269 124.932C150.563 124.573 150.917 124.306 151.33 124.132C151.744 123.947 152.179 123.854 152.637 123.854C152.92 123.854 153.208 123.882 153.502 123.936C153.796 123.99 154.052 124.072 154.269 124.181C154.389 124.235 154.465 124.295 154.498 124.361C154.542 124.415 154.563 124.491 154.563 124.589L154.547 125.716C154.547 125.857 154.503 125.944 154.416 125.977C154.34 126.01 154.248 126.01 154.139 125.977C153.91 125.901 153.671 125.841 153.42 125.797C153.17 125.754 152.93 125.732 152.702 125.732C152.266 125.732 151.896 125.841 151.592 126.059C151.298 126.266 151.151 126.587 151.151 127.022C151.151 127.283 151.227 127.528 151.379 127.757C151.543 127.975 151.777 128.143 152.081 128.263C152.397 128.372 152.773 128.405 153.208 128.361L154.874 128.214C155.026 128.203 155.129 128.236 155.184 128.312C155.249 128.377 155.282 128.486 155.282 128.639L155.298 129.896C155.298 130.07 155.26 130.184 155.184 130.239C155.119 130.293 155.01 130.331 154.857 130.353L149.028 130.81ZM157.281 130.957C157.129 130.99 157.009 130.968 156.922 130.892C156.846 130.816 156.807 130.718 156.807 130.598V129.177C156.807 128.96 156.944 128.829 157.216 128.786L158.914 128.475C159.534 128.377 160.09 128.285 160.579 128.198C161.069 128.1 161.494 127.98 161.853 127.838C162.212 127.697 162.506 127.501 162.735 127.251C162.974 126.989 163.148 126.652 163.257 126.238C163.377 125.814 163.437 125.275 163.437 124.622V118.646C163.437 118.537 163.464 118.45 163.518 118.384C163.573 118.308 163.655 118.27 163.763 118.27H164.89C164.999 118.27 165.081 118.308 165.135 118.384C165.189 118.45 165.217 118.537 165.217 118.646V126.549C165.217 127.049 165.277 127.436 165.396 127.708C165.527 127.98 165.728 128.17 166 128.279C166.283 128.377 166.643 128.426 167.078 128.426C167.241 128.426 167.323 128.508 167.323 128.671V130.092C167.323 130.418 167.16 130.582 166.833 130.582C166.322 130.582 165.853 130.516 165.429 130.386C165.015 130.244 164.656 130.005 164.351 129.667C164.057 129.319 163.829 128.84 163.665 128.23C163.448 128.764 163.116 129.188 162.669 129.504C162.223 129.809 161.662 130.054 160.988 130.239C160.313 130.413 159.518 130.582 158.604 130.745L157.281 130.957ZM160.367 129.194L157.183 120.556C157.129 120.404 157.123 120.289 157.167 120.213C157.221 120.126 157.308 120.061 157.428 120.017L158.277 119.789C158.429 119.734 158.549 119.734 158.636 119.789C158.723 119.843 158.8 119.952 158.865 120.115L162.065 128.704L160.367 129.194ZM172.292 130.696C172.03 130.696 171.78 130.674 171.541 130.631C171.301 130.587 171.056 130.516 170.806 130.418C170.555 130.32 170.278 130.195 169.973 130.043C169.679 129.88 169.336 129.678 168.944 129.439C168.738 129.743 168.514 129.983 168.275 130.157C168.046 130.32 167.807 130.435 167.556 130.5C167.317 130.554 167.078 130.582 166.838 130.582C166.675 130.582 166.593 130.5 166.593 130.337V128.916C166.593 128.59 166.756 128.426 167.083 128.426C167.268 128.426 167.426 128.394 167.556 128.328C167.687 128.263 167.823 128.138 167.965 127.953C168.117 127.768 168.291 127.485 168.487 127.104C168.868 126.363 169.244 125.797 169.614 125.406C169.995 125.003 170.376 124.725 170.757 124.573C171.138 124.41 171.519 124.328 171.9 124.328C172.324 124.328 172.727 124.404 173.108 124.556C173.489 124.709 173.832 124.97 174.137 125.34C174.453 125.71 174.736 126.227 174.986 126.891C175.149 127.305 175.307 127.626 175.459 127.855C175.612 128.073 175.786 128.225 175.982 128.312C176.189 128.388 176.445 128.426 176.749 128.426C176.913 128.426 176.994 128.508 176.994 128.671V130.092C176.994 130.418 176.831 130.582 176.504 130.582C176.091 130.582 175.721 130.5 175.394 130.337C175.078 130.163 174.79 129.869 174.529 129.455C174.311 129.89 173.995 130.206 173.582 130.402C173.179 130.598 172.749 130.696 172.292 130.696ZM172.341 128.753C172.613 128.753 172.847 128.682 173.043 128.541C173.239 128.388 173.342 128.132 173.353 127.773C173.364 127.479 173.299 127.202 173.157 126.94C173.016 126.679 172.831 126.467 172.602 126.304C172.373 126.14 172.128 126.059 171.867 126.059C171.66 126.059 171.454 126.108 171.247 126.206C171.051 126.293 170.844 126.461 170.626 126.712C170.409 126.962 170.153 127.321 169.859 127.79C170.349 128.051 170.735 128.252 171.018 128.394C171.301 128.524 171.535 128.617 171.72 128.671C171.916 128.726 172.123 128.753 172.341 128.753ZM176.485 130.582C176.42 130.582 176.365 130.56 176.322 130.516C176.278 130.484 176.256 130.408 176.256 130.288V128.835C176.256 128.682 176.3 128.579 176.387 128.524C176.474 128.459 176.588 128.426 176.73 128.426C177.263 128.415 177.715 128.399 178.085 128.377C178.455 128.356 178.782 128.317 179.065 128.263C179.359 128.209 179.647 128.149 179.93 128.083L178.199 126.598C178.047 126.456 177.944 126.325 177.889 126.206C177.846 126.086 177.824 125.928 177.824 125.732V124.997C177.824 124.769 177.867 124.6 177.954 124.491C178.052 124.371 178.183 124.273 178.346 124.197C178.869 123.947 179.419 123.767 179.995 123.658C180.583 123.539 181.16 123.479 181.726 123.479C182.989 123.479 183.914 123.669 184.502 124.05C185.101 124.431 185.4 124.937 185.4 125.569C185.4 125.895 185.324 126.2 185.172 126.483C185.03 126.755 184.812 127.022 184.518 127.283C184.225 127.534 183.876 127.817 183.473 128.132C183.756 128.241 184.061 128.317 184.388 128.361C184.725 128.405 185.052 128.426 185.368 128.426H186.706C186.881 128.426 186.968 128.508 186.968 128.671V130.075C186.968 130.413 186.794 130.582 186.445 130.582H185.612C185.101 130.582 184.649 130.565 184.257 130.533C183.876 130.5 183.528 130.446 183.212 130.369C182.907 130.282 182.619 130.173 182.347 130.043C182.085 129.901 181.813 129.733 181.53 129.537C181.215 129.722 180.91 129.885 180.616 130.027C180.322 130.157 179.995 130.266 179.636 130.353C179.288 130.429 178.858 130.484 178.346 130.516C177.846 130.56 177.225 130.582 176.485 130.582ZM181.775 127.675C182.298 127.36 182.722 127.066 183.049 126.793C183.386 126.51 183.555 126.26 183.555 126.042C183.555 125.901 183.495 125.77 183.375 125.65C183.267 125.52 183.076 125.416 182.804 125.34C182.543 125.264 182.178 125.226 181.71 125.226C181.362 125.226 180.997 125.264 180.616 125.34C180.246 125.406 179.854 125.52 179.44 125.683L181.775 127.675ZM186.483 130.582C186.32 130.582 186.238 130.5 186.238 130.337V128.916C186.238 128.59 186.402 128.426 186.728 128.426C187.087 128.426 187.381 128.377 187.61 128.279C187.838 128.17 188.002 127.985 188.1 127.724C188.209 127.452 188.263 127.066 188.263 126.565V118.646C188.263 118.537 188.296 118.45 188.361 118.384C188.437 118.308 188.53 118.27 188.639 118.27H189.667C189.787 118.27 189.88 118.308 189.945 118.384C190.01 118.45 190.043 118.537 190.043 118.646V126.483C190.043 127.18 189.983 127.79 189.863 128.312C189.743 128.835 189.542 129.265 189.259 129.602C188.987 129.939 188.622 130.19 188.165 130.353C187.719 130.505 187.158 130.582 186.483 130.582ZM193.451 130.598C193.342 130.598 193.25 130.565 193.174 130.5C193.108 130.424 193.076 130.331 193.076 130.222V118.646C193.076 118.537 193.108 118.45 193.174 118.384C193.25 118.308 193.342 118.27 193.451 118.27H194.48C194.6 118.27 194.692 118.308 194.757 118.384C194.823 118.45 194.855 118.537 194.855 118.646V130.222C194.855 130.331 194.823 130.424 194.757 130.5C194.692 130.565 194.6 130.598 194.48 130.598H193.451ZM205.833 130.582C204.788 130.582 203.907 130.451 203.188 130.19C202.47 129.929 201.925 129.537 201.555 129.014C201.196 128.481 201.016 127.817 201.016 127.022C201.016 126.619 201.076 126.206 201.196 125.781C201.316 125.346 201.474 124.905 201.67 124.458C201.713 124.35 201.768 124.273 201.833 124.23C201.898 124.186 202.007 124.197 202.159 124.263L203.009 124.573C203.139 124.616 203.221 124.671 203.253 124.736C203.286 124.801 203.281 124.905 203.237 125.046C203.139 125.329 203.047 125.607 202.96 125.879C202.883 126.151 202.845 126.429 202.845 126.712C202.845 127.365 203.117 127.817 203.662 128.067C204.206 128.307 204.984 128.426 205.997 128.426H209.426C210.057 128.426 210.59 128.383 211.026 128.296C211.461 128.209 211.788 128.051 212.006 127.822C212.234 127.583 212.348 127.234 212.348 126.777C212.348 126.396 212.283 125.999 212.152 125.585L211.891 124.638C211.848 124.475 211.848 124.355 211.891 124.279C211.935 124.192 212.022 124.132 212.152 124.099L213.181 123.887C213.334 123.843 213.442 123.865 213.508 123.952C213.584 124.029 213.638 124.148 213.671 124.312L213.998 125.536C214.063 125.765 214.106 125.999 214.128 126.238C214.161 126.467 214.177 126.706 214.177 126.957C214.177 127.882 213.97 128.606 213.557 129.128C213.154 129.651 212.577 130.027 211.826 130.255C211.086 130.473 210.215 130.582 209.213 130.582H205.833ZM206.535 123.969C206.481 124.034 206.41 124.067 206.323 124.067C206.236 124.067 206.154 124.029 206.078 123.952L205.376 123.25C205.322 123.174 205.289 123.098 205.278 123.022C205.278 122.935 205.311 122.853 205.376 122.777L206.078 122.075C206.154 121.998 206.236 121.96 206.323 121.96C206.41 121.96 206.481 121.998 206.535 122.075L207.254 122.777C207.33 122.842 207.368 122.924 207.368 123.022C207.379 123.109 207.346 123.19 207.27 123.267L206.535 123.969ZM209.017 123.969C208.952 124.045 208.876 124.077 208.789 124.067C208.702 124.056 208.626 124.018 208.56 123.952L207.825 123.25C207.76 123.185 207.727 123.109 207.727 123.022C207.727 122.924 207.76 122.842 207.825 122.777L208.56 122.075C208.626 121.998 208.696 121.96 208.772 121.96C208.849 121.96 208.925 121.998 209.001 122.075L209.72 122.777C209.796 122.842 209.834 122.924 209.834 123.022C209.834 123.109 209.796 123.19 209.72 123.267L209.017 123.969ZM220.022 130.582H219.434C218.835 130.582 218.329 130.478 217.915 130.271C217.501 130.054 217.186 129.705 216.968 129.226C216.75 128.747 216.642 128.111 216.642 127.316V118.662C216.642 118.542 216.674 118.45 216.74 118.384C216.816 118.308 216.925 118.27 217.066 118.27H218.062C218.193 118.27 218.285 118.308 218.34 118.384C218.394 118.45 218.421 118.537 218.421 118.646V126.728C218.421 127.196 218.47 127.555 218.568 127.806C218.677 128.045 218.846 128.209 219.074 128.296C219.303 128.383 219.592 128.426 219.94 128.426H220.266C220.43 128.426 220.511 128.508 220.511 128.671V130.092C220.511 130.418 220.348 130.582 220.022 130.582ZM220.197 130.582C220.023 130.582 219.908 130.554 219.854 130.5C219.799 130.435 219.778 130.364 219.789 130.288C219.789 130.201 219.789 130.124 219.789 130.059V128.9C219.789 128.715 219.81 128.59 219.854 128.524C219.897 128.459 220.012 128.426 220.197 128.426H223.822C224.464 128.426 224.959 128.328 225.308 128.132C225.656 127.936 225.885 127.61 225.993 127.153C226.113 126.695 226.129 126.07 226.042 125.275L226.467 125.748C226.238 126.097 225.906 126.369 225.471 126.565C225.046 126.75 224.578 126.842 224.067 126.842C223.501 126.842 223.005 126.728 222.581 126.5C222.167 126.271 221.851 125.955 221.634 125.553C221.416 125.139 221.307 124.66 221.307 124.116C221.318 123.539 221.46 123.022 221.732 122.564C222.015 122.096 222.385 121.726 222.842 121.454C223.299 121.182 223.794 121.046 224.328 121.046C225.014 121.046 225.602 121.231 226.091 121.601C226.592 121.96 226.979 122.461 227.251 123.103C227.523 123.735 227.659 124.464 227.659 125.291C227.67 126.021 227.615 126.706 227.496 127.349C227.387 127.991 227.18 128.557 226.875 129.047C226.57 129.526 226.146 129.901 225.602 130.173C225.057 130.446 224.355 130.582 223.495 130.582H220.197ZM224.181 125.079C224.486 125.079 224.807 125.03 225.144 124.932C225.482 124.823 225.776 124.676 226.026 124.491C225.961 124.219 225.846 123.952 225.683 123.691C225.52 123.43 225.308 123.218 225.046 123.054C224.796 122.88 224.497 122.793 224.148 122.793C223.865 122.793 223.62 122.853 223.413 122.973C223.218 123.092 223.065 123.25 222.956 123.446C222.858 123.631 222.809 123.811 222.809 123.985C222.809 124.355 222.945 124.633 223.218 124.818C223.49 124.992 223.811 125.079 224.181 125.079ZM223.316 119.397C223.261 119.462 223.19 119.495 223.103 119.495C223.016 119.495 222.935 119.457 222.858 119.38L222.156 118.678C222.102 118.602 222.069 118.526 222.058 118.45C222.058 118.363 222.091 118.281 222.156 118.205L222.858 117.503C222.935 117.426 223.016 117.388 223.103 117.388C223.19 117.388 223.261 117.426 223.316 117.503L224.034 118.205C224.11 118.27 224.148 118.352 224.148 118.45C224.159 118.537 224.127 118.618 224.05 118.695L223.316 119.397ZM225.797 119.397C225.732 119.473 225.656 119.506 225.569 119.495C225.482 119.484 225.406 119.446 225.34 119.38L224.605 118.678C224.54 118.613 224.508 118.537 224.508 118.45C224.508 118.352 224.54 118.27 224.605 118.205L225.34 117.503C225.406 117.426 225.476 117.388 225.553 117.388C225.629 117.388 225.705 117.426 225.781 117.503L226.5 118.205C226.576 118.27 226.614 118.352 226.614 118.45C226.614 118.537 226.576 118.618 226.5 118.695L225.797 119.397ZM229.212 130.957C229.06 130.99 228.94 130.968 228.853 130.892C228.777 130.816 228.739 130.718 228.739 130.598V129.177C228.739 128.96 228.875 128.829 229.147 128.786L230.845 128.475C231.466 128.377 232.021 128.285 232.511 128.198C233.001 128.1 233.425 127.98 233.784 127.838C234.144 127.697 234.438 127.501 234.666 127.251C234.906 126.989 235.08 126.652 235.189 126.238C235.308 125.814 235.368 125.275 235.368 124.622V118.646C235.368 118.537 235.395 118.45 235.45 118.384C235.504 118.308 235.586 118.27 235.695 118.27H236.821C236.93 118.27 237.012 118.308 237.066 118.384C237.121 118.45 237.148 118.537 237.148 118.646V126.549C237.148 127.049 237.208 127.436 237.328 127.708C237.458 127.98 237.66 128.17 237.932 128.279C238.215 128.377 238.574 128.426 239.009 128.426C239.173 128.426 239.254 128.508 239.254 128.671V130.092C239.254 130.418 239.091 130.582 238.765 130.582C238.253 130.582 237.785 130.516 237.36 130.386C236.947 130.244 236.587 130.005 236.283 129.667C235.989 129.319 235.76 128.84 235.597 128.23C235.379 128.764 235.047 129.188 234.601 129.504C234.154 129.809 233.594 130.054 232.919 130.239C232.244 130.413 231.449 130.582 230.535 130.745L229.212 130.957ZM232.298 129.194L229.114 120.556C229.06 120.404 229.055 120.289 229.098 120.213C229.153 120.126 229.24 120.061 229.359 120.017L230.208 119.789C230.361 119.734 230.481 119.734 230.568 119.789C230.655 119.843 230.731 119.952 230.796 120.115L233.997 128.704L232.298 129.194ZM238.802 130.582C238.693 130.582 238.622 130.549 238.59 130.484C238.546 130.408 238.524 130.331 238.524 130.255V128.835C238.524 128.682 238.568 128.579 238.655 128.524C238.742 128.459 238.862 128.426 239.014 128.426H241.953L241.676 129.03C241.447 128.932 241.213 128.78 240.974 128.573C240.745 128.366 240.544 128.1 240.37 127.773C240.206 127.447 240.125 127.066 240.125 126.63C240.125 125.879 240.288 125.248 240.615 124.736C240.941 124.214 241.377 123.816 241.921 123.544C242.465 123.272 243.058 123.136 243.701 123.136C244.092 123.136 244.479 123.179 244.86 123.267C245.241 123.343 245.595 123.452 245.921 123.593C246.063 123.648 246.161 123.718 246.215 123.805C246.281 123.892 246.291 124.007 246.248 124.148L245.987 125.193C245.932 125.367 245.861 125.476 245.774 125.52C245.687 125.553 245.568 125.542 245.415 125.487C245.176 125.367 244.893 125.28 244.566 125.226C244.25 125.161 243.956 125.128 243.684 125.128C243.107 125.128 242.656 125.269 242.329 125.553C242.002 125.836 241.839 126.2 241.839 126.647C241.839 126.93 241.932 127.196 242.117 127.447C242.302 127.686 242.558 127.877 242.884 128.018C243.222 128.16 243.592 128.23 243.995 128.23C244.19 128.23 244.386 128.225 244.582 128.214C244.778 128.192 245.045 128.154 245.382 128.1L247.048 127.855C247.211 127.833 247.326 127.844 247.391 127.887C247.456 127.931 247.478 128.029 247.456 128.181L247.309 129.488C247.287 129.629 247.249 129.749 247.195 129.847C247.151 129.934 247.032 129.988 246.836 130.01L245.056 130.271C244.446 130.359 243.875 130.424 243.341 130.467C242.819 130.511 242.296 130.538 241.774 130.549C241.262 130.571 240.702 130.582 240.092 130.582H238.802ZM255.365 130.533C254.451 130.533 253.727 130.25 253.193 129.684C252.671 129.118 252.404 128.366 252.393 127.43C252.393 126.875 252.48 126.358 252.655 125.879C252.829 125.389 253.068 124.959 253.373 124.589C253.689 124.219 254.043 123.931 254.434 123.724C254.837 123.517 255.256 123.413 255.692 123.413C256.116 123.413 256.519 123.517 256.9 123.724C257.281 123.931 257.613 124.219 257.896 124.589C258.19 124.948 258.419 125.362 258.582 125.83C258.745 126.287 258.827 126.772 258.827 127.283C258.827 128.013 258.696 128.622 258.435 129.112C258.174 129.591 257.814 129.95 257.357 130.19C256.9 130.418 256.394 130.533 255.839 130.533H255.365ZM255.447 128.508H255.888C256.312 128.508 256.644 128.399 256.884 128.181C257.123 127.953 257.237 127.632 257.227 127.218C257.216 126.652 257.052 126.2 256.737 125.863C256.432 125.514 256.067 125.34 255.643 125.34C255.338 125.34 255.06 125.433 254.81 125.618C254.57 125.803 254.38 126.037 254.238 126.32C254.108 126.603 254.043 126.908 254.043 127.234C254.043 127.637 254.168 127.953 254.418 128.181C254.668 128.399 255.011 128.508 255.447 128.508ZM254.663 121.895C254.609 121.96 254.538 121.993 254.451 121.993C254.364 121.993 254.282 121.955 254.206 121.879L253.504 121.176C253.449 121.1 253.417 121.024 253.406 120.948C253.406 120.861 253.438 120.779 253.504 120.703L254.206 120.001C254.282 119.925 254.364 119.887 254.451 119.887C254.538 119.887 254.609 119.925 254.663 120.001L255.381 120.703C255.458 120.768 255.496 120.85 255.496 120.948C255.507 121.035 255.474 121.117 255.398 121.193L254.663 121.895ZM257.145 121.895C257.08 121.971 257.003 122.004 256.916 121.993C256.829 121.982 256.753 121.944 256.688 121.879L255.953 121.176C255.888 121.111 255.855 121.035 255.855 120.948C255.855 120.85 255.888 120.768 255.953 120.703L256.688 120.001C256.753 119.925 256.824 119.887 256.9 119.887C256.976 119.887 257.052 119.925 257.129 120.001L257.847 120.703C257.923 120.768 257.961 120.85 257.961 120.948C257.961 121.035 257.923 121.117 257.847 121.193L257.145 121.895ZM259.349 134.582C259.197 134.582 259.088 134.539 259.022 134.452C258.946 134.375 258.908 134.266 258.908 134.125V133.031C258.908 132.889 258.952 132.781 259.039 132.704C259.126 132.639 259.245 132.606 259.398 132.606H259.92C260.639 132.606 261.21 132.465 261.635 132.182C262.07 131.899 262.381 131.502 262.566 130.99C262.751 130.489 262.843 129.896 262.843 129.21C262.843 128.666 262.783 128.127 262.664 127.594C262.555 127.06 262.419 126.505 262.255 125.928C262.212 125.71 262.212 125.553 262.255 125.455C262.299 125.346 262.408 125.269 262.582 125.226L263.513 124.981C263.665 124.937 263.785 124.948 263.872 125.014C263.959 125.068 264.03 125.215 264.084 125.455C264.247 126.086 264.389 126.755 264.509 127.463C264.639 128.17 264.705 128.835 264.705 129.455C264.705 130.424 264.536 131.295 264.198 132.068C263.872 132.84 263.366 133.45 262.68 133.896C262.005 134.354 261.156 134.582 260.133 134.582H259.349ZM267.264 130.598C267.155 130.598 267.063 130.565 266.987 130.5C266.921 130.424 266.889 130.331 266.889 130.222V118.646C266.889 118.537 266.921 118.45 266.987 118.384C267.063 118.308 267.155 118.27 267.264 118.27H268.293C268.413 118.27 268.505 118.308 268.57 118.384C268.636 118.45 268.668 118.537 268.668 118.646V130.222C268.668 130.331 268.636 130.424 268.57 130.5C268.505 130.565 268.413 130.598 268.293 130.598H267.264ZM273.809 130.582C273.199 130.582 272.693 130.462 272.29 130.222C271.887 129.983 271.588 129.656 271.392 129.243C271.196 128.829 271.098 128.361 271.098 127.838V127.283C271.098 127.131 271.131 127.017 271.196 126.94C271.272 126.864 271.403 126.826 271.588 126.826H272.453C272.573 126.826 272.66 126.864 272.715 126.94C272.769 127.017 272.796 127.12 272.796 127.251V127.659C272.796 127.909 272.867 128.1 273.009 128.23C273.15 128.361 273.357 128.426 273.629 128.426L275.67 128.41C276.116 128.41 276.427 128.328 276.601 128.165C276.786 128.002 276.878 127.779 276.878 127.496C276.878 127.278 276.84 127.06 276.764 126.842C276.699 126.614 276.536 126.347 276.274 126.042L274.184 123.479C274.064 123.337 274.005 123.207 274.005 123.087C274.015 122.967 274.07 122.864 274.168 122.777L274.984 122.14C275.126 122.031 275.251 121.982 275.36 121.993C275.469 121.993 275.578 122.058 275.686 122.189L277.417 124.312C277.733 124.682 277.983 125.035 278.168 125.373C278.353 125.699 278.489 126.037 278.577 126.385C278.664 126.723 278.707 127.098 278.707 127.512C278.707 128.089 278.582 128.611 278.332 129.079C278.081 129.537 277.711 129.901 277.221 130.173C276.742 130.435 276.144 130.565 275.425 130.565L273.809 130.582ZM281.408 130.598C281.299 130.598 281.207 130.565 281.13 130.5C281.065 130.424 281.032 130.331 281.032 130.222V118.646C281.032 118.537 281.065 118.45 281.13 118.384C281.207 118.308 281.299 118.27 281.408 118.27H282.437C282.556 118.27 282.649 118.308 282.714 118.384C282.78 118.45 282.812 118.537 282.812 118.646V130.222C282.812 130.331 282.78 130.424 282.714 130.5C282.649 130.565 282.556 130.598 282.437 130.598H281.408ZM280.624 134.68C280.526 134.702 280.456 134.691 280.412 134.647C280.379 134.615 280.363 134.56 280.363 134.484V134.092C280.363 133.983 280.379 133.907 280.412 133.864C280.445 133.82 280.51 133.782 280.608 133.749L281.343 133.553V133.831C281.201 133.798 281.06 133.695 280.918 133.521C280.788 133.347 280.722 133.129 280.722 132.868C280.722 132.465 280.858 132.133 281.13 131.872C281.403 131.61 281.762 131.48 282.208 131.48C282.339 131.48 282.464 131.491 282.584 131.512C282.703 131.545 282.801 131.578 282.878 131.61C283.008 131.687 283.074 131.779 283.074 131.888V132.329C283.074 132.459 283.014 132.498 282.894 132.443C282.665 132.345 282.42 132.296 282.159 132.296C281.952 132.296 281.789 132.34 281.669 132.427C281.56 132.514 281.506 132.623 281.506 132.753C281.506 132.96 281.615 133.113 281.833 133.211C282.061 133.309 282.355 133.319 282.714 133.243L283.22 133.113C283.34 133.091 283.416 133.096 283.449 133.129C283.493 133.162 283.514 133.227 283.514 133.325V133.717C283.514 133.869 283.444 133.967 283.302 134.011L280.624 134.68Z" fill="#030712"/>
<path d="M314.836 125.373L310.675 119.136C310.542 118.937 310.363 118.774 310.151 118.661C309.94 118.548 309.705 118.488 309.465 118.488H295.276C295.144 118.488 295.015 118.523 294.901 118.591C294.788 118.659 294.695 118.756 294.633 118.873C294.571 118.989 294.541 119.12 294.548 119.252C294.554 119.384 294.596 119.511 294.669 119.621L298.774 125.777L294.674 131.933C294.601 132.043 294.559 132.17 294.552 132.301C294.546 132.433 294.575 132.564 294.637 132.68C294.698 132.796 294.79 132.893 294.903 132.962C295.016 133.03 295.145 133.066 295.276 133.067H309.465C309.705 133.066 309.94 133.007 310.151 132.894C310.363 132.781 310.542 132.617 310.675 132.418L314.833 126.182C314.913 126.062 314.957 125.922 314.957 125.778C314.958 125.634 314.915 125.493 314.836 125.373ZM309.465 131.609H296.643L300.261 126.182C300.341 126.062 300.384 125.921 300.384 125.777C300.384 125.633 300.341 125.492 300.261 125.373L296.643 119.946H309.465L313.353 125.777L309.465 131.609Z" fill="#030712"/>
</g>
</g>
</g>
<defs>
<filter id="filter0_dd_4554_16508" x="0.117188" y="0.516357" width="336.569" height="154" filterUnits="userSpaceOnUse" color-interpolation-filters="sRGB">
<feFlood flood-opacity="0" result="BackgroundImageFix"/>
<feColorMatrix in="SourceAlpha" type="matrix" values="0 0 0 0 0 0 0 0 0 0 0 0 0 0 0 0 0 0 127 0" result="hardAlpha"/>
<feMorphology radius="1" operator="erode" in="SourceAlpha" result="effect1_dropShadow_4554_16508"/>
<feOffset dy="2"/>
<feGaussianBlur stdDeviation="2"/>
<feColorMatrix type="matrix" values="0 0 0 0 0 0 0 0 0 0 0 0 0 0 0 0 0 0 0.06 0"/>
<feBlend mode="normal" in2="BackgroundImageFix" result="effect1_dropShadow_4554_16508"/>
<feColorMatrix in="SourceAlpha" type="matrix" values="0 0 0 0 0 0 0 0 0 0 0 0 0 0 0 0 0 0 127 0" result="hardAlpha"/>
<feMorphology radius="1" operator="erode" in="SourceAlpha" result="effect2_dropShadow_4554_16508"/>
<feOffset dy="4"/>
<feGaussianBlur stdDeviation="3"/>
<feColorMatrix type="matrix" values="0 0 0 0 0 0 0 0 0 0 0 0 0 0 0 0 0 0 0.1 0"/>
<feBlend mode="normal" in2="effect1_dropShadow_4554_16508" result="effect2_dropShadow_4554_16508"/>
<feBlend mode="normal" in="SourceGraphic" in2="effect2_dropShadow_4554_16508" result="shape"/>
</filter>
<clipPath id="clip0_4554_16508">
<path d="M5.11719 9.51636C5.11719 5.09808 8.69891 1.51636 13.1172 1.51636H323.687C328.105 1.51636 331.687 5.09808 331.687 9.51636V137.516C331.687 141.935 328.105 145.516 323.687 145.516H13.1172C8.69891 145.516 5.11719 141.935 5.11719 137.516V9.51636Z" fill="white"/>
</clipPath>
</defs>
</svg>
