<svg width="321" height="144" viewBox="0 0 321 144" fill="none" xmlns="http://www.w3.org/2000/svg">
<g clip-path="url(#clip0_4557_16639)">
<rect x="0.402344" width="320" height="144" rx="8" fill="white"/>
<path d="M23.4285 31.8475L26.9977 35.4159L25.8185 36.595L22.2502 33.0259C20.9225 34.0902 19.271 34.6691 17.5693 34.6667C13.4293 34.6667 10.0693 31.3067 10.0693 27.1667C10.0693 23.0267 13.4293 19.6667 17.5693 19.6667C21.7093 19.6667 25.0693 23.0267 25.0693 27.1667C25.0718 28.8684 24.4929 30.5198 23.4285 31.8475ZM21.7568 31.2292C22.8144 30.1416 23.4051 28.6837 23.4027 27.1667C23.4027 23.9434 20.7918 21.3334 17.5693 21.3334C14.346 21.3334 11.736 23.9434 11.736 27.1667C11.736 30.3892 14.346 33 17.5693 33C19.0864 33.0024 20.5442 32.4118 21.6318 31.3542L21.7568 31.2292Z" fill="#9CA3AF"/>
<path d="M51.4027 26.3334C51.4027 25.0073 50.8759 23.7355 49.9382 22.7978C49.0005 21.8601 47.7288 21.3334 46.4027 21.3334C45.0766 21.3334 43.8048 21.8601 42.8671 22.7978C41.9295 23.7355 41.4027 25.0073 41.4027 26.3334V33H51.4027V26.3334ZM53.0693 33.5559L53.4027 34C53.4491 34.0619 53.4774 34.1355 53.4843 34.2126C53.4913 34.2897 53.4766 34.3671 53.442 34.4364C53.4074 34.5056 53.3542 34.5638 53.2884 34.6045C53.2226 34.6451 53.1467 34.6667 53.0693 34.6667H39.736C39.6586 34.6667 39.5828 34.6451 39.5169 34.6045C39.4511 34.5638 39.3979 34.5056 39.3633 34.4364C39.3287 34.3671 39.3141 34.2897 39.321 34.2126C39.328 34.1355 39.3562 34.0619 39.4027 34L39.736 33.5559V26.3334C39.736 24.5652 40.4384 22.8696 41.6886 21.6193C42.9389 20.3691 44.6346 19.6667 46.4027 19.6667C48.1708 19.6667 49.8665 20.3691 51.1167 21.6193C52.367 22.8696 53.0693 24.5652 53.0693 26.3334V33.5559ZM44.3193 35.5H48.486C48.486 36.0526 48.2665 36.5825 47.8758 36.9732C47.4851 37.3639 46.9552 37.5834 46.4027 37.5834C45.8501 37.5834 45.3202 37.3639 44.9295 36.9732C44.5388 36.5825 44.3193 36.0526 44.3193 35.5Z" fill="#9CA3AF"/>
<path d="M64.4023 18C64.4023 12.4772 68.8795 8 74.4023 8H302.402C307.925 8 312.402 12.4772 312.402 18V38C312.402 43.5228 307.925 48 302.402 48H74.4023C68.8795 48 64.4023 43.5228 64.4023 38V18Z" fill="white" fillOpacity="0.01"/>
<path d="M155.654 23.056C154.954 23.056 154.413 22.8927 154.03 22.566C153.648 22.2393 153.4 21.7213 153.288 21.012C153.055 21.3387 152.756 21.5953 152.392 21.782C152.038 21.9593 151.641 22.048 151.202 22.048C150.502 22.048 149.966 21.8613 149.592 21.488C149.219 21.1147 149.032 20.6153 149.032 19.99C149.032 19.6167 149.112 19.2573 149.27 18.912C149.438 18.5667 149.714 18.2447 150.096 17.946C150.479 17.6473 150.988 17.3813 151.622 17.148L153.134 16.574V15.958C153.134 15.8553 153.167 15.776 153.232 15.72C153.307 15.664 153.391 15.636 153.484 15.636H154.38C154.464 15.636 154.53 15.6687 154.576 15.734C154.632 15.79 154.66 15.86 154.66 15.944V19.906C154.66 20.4287 154.744 20.7787 154.912 20.956C155.08 21.124 155.388 21.208 155.836 21.208H156.312C156.378 21.208 156.424 21.2313 156.452 21.278C156.49 21.3247 156.508 21.3807 156.508 21.446V22.692C156.508 22.9347 156.373 23.056 156.102 23.056H155.654ZM151.636 20.494C151.935 20.494 152.196 20.4333 152.42 20.312C152.644 20.1813 152.822 20.004 152.952 19.78C153.083 19.556 153.148 19.318 153.148 19.066V18.002L151.958 18.394C151.52 18.5433 151.184 18.7253 150.95 18.94C150.726 19.1547 150.614 19.3927 150.614 19.654C150.614 19.9247 150.708 20.1347 150.894 20.284C151.081 20.424 151.328 20.494 151.636 20.494ZM153.036 14.488C152.99 14.544 152.929 14.572 152.854 14.572C152.78 14.572 152.71 14.5393 152.644 14.474L152.042 13.872C151.996 13.8067 151.968 13.7413 151.958 13.676C151.958 13.6013 151.986 13.5313 152.042 13.466L152.644 12.864C152.71 12.7987 152.78 12.766 152.854 12.766C152.929 12.766 152.99 12.7987 153.036 12.864L153.652 13.466C153.718 13.522 153.75 13.592 153.75 13.676C153.76 13.7507 153.732 13.8207 153.666 13.886L153.036 14.488ZM155.164 14.488C155.108 14.5533 155.043 14.5813 154.968 14.572C154.894 14.5627 154.828 14.53 154.772 14.474L154.142 13.872C154.086 13.816 154.058 13.7507 154.058 13.676C154.058 13.592 154.086 13.522 154.142 13.466L154.772 12.864C154.828 12.7987 154.889 12.766 154.954 12.766C155.02 12.766 155.085 12.7987 155.15 12.864L155.766 13.466C155.832 13.522 155.864 13.592 155.864 13.676C155.864 13.7507 155.832 13.8207 155.766 13.886L155.164 14.488ZM156.014 23.056C155.949 23.056 155.898 23.0327 155.86 22.986C155.823 22.9393 155.804 22.8833 155.804 22.818V21.6C155.804 21.3387 155.944 21.208 156.224 21.208H156.35C156.892 21.208 157.251 21.068 157.428 20.788C157.615 20.4987 157.69 20.0973 157.652 19.584C157.634 19.3413 157.596 19.0893 157.54 18.828C157.494 18.5667 157.447 18.3147 157.4 18.072C157.363 17.9133 157.368 17.8013 157.414 17.736C157.47 17.6707 157.55 17.6287 157.652 17.61L158.45 17.442C158.59 17.414 158.693 17.442 158.758 17.526C158.833 17.61 158.884 17.7173 158.912 17.848C158.95 17.988 158.987 18.156 159.024 18.352C159.062 18.548 159.094 18.758 159.122 18.982C159.16 19.1967 159.183 19.402 159.192 19.598C159.23 20.3167 159.15 20.9373 158.954 21.46C158.768 21.9733 158.436 22.37 157.96 22.65C157.484 22.93 156.836 23.0653 156.014 23.056ZM156.784 25.73C156.738 25.786 156.677 25.8093 156.602 25.8C156.528 25.8 156.462 25.772 156.406 25.716L155.804 25.128C155.758 25.072 155.734 25.0067 155.734 24.932C155.725 24.8573 155.748 24.792 155.804 24.736L156.406 24.148C156.462 24.092 156.523 24.064 156.588 24.064C156.663 24.064 156.728 24.092 156.784 24.148L157.372 24.736C157.428 24.792 157.456 24.8573 157.456 24.932C157.466 25.016 157.442 25.086 157.386 25.142L156.784 25.73ZM158.73 25.73C158.674 25.786 158.609 25.8093 158.534 25.8C158.469 25.8 158.408 25.772 158.352 25.716L157.736 25.128C157.69 25.072 157.662 25.0067 157.652 24.932C157.652 24.8573 157.68 24.792 157.736 24.736L158.352 24.148C158.408 24.092 158.469 24.064 158.534 24.064C158.6 24.064 158.66 24.092 158.716 24.148L159.304 24.736C159.36 24.792 159.388 24.8573 159.388 24.932C159.398 25.016 159.374 25.086 159.318 25.142L158.73 25.73ZM159.644 26.486C159.513 26.486 159.42 26.4487 159.364 26.374C159.298 26.3087 159.266 26.2153 159.266 26.094V25.156C159.266 25.0347 159.303 24.9413 159.378 24.876C159.452 24.82 159.555 24.792 159.686 24.792H160.134C160.75 24.792 161.24 24.6707 161.604 24.428C161.977 24.1853 162.243 23.8447 162.402 23.406C162.56 22.9767 162.64 22.468 162.64 21.88C162.64 21.4133 162.588 20.9513 162.486 20.494C162.392 20.0367 162.276 19.5607 162.136 19.066C162.098 18.8793 162.098 18.744 162.136 18.66C162.173 18.5667 162.266 18.5013 162.416 18.464L163.214 18.254C163.344 18.2167 163.447 18.226 163.522 18.282C163.596 18.3287 163.657 18.4547 163.704 18.66C163.844 19.2013 163.965 19.7753 164.068 20.382C164.18 20.9887 164.236 21.558 164.236 22.09C164.236 22.9207 164.091 23.6673 163.802 24.33C163.522 24.9927 163.088 25.5153 162.5 25.898C161.921 26.29 161.193 26.486 160.316 26.486H159.644ZM168.866 23.056H168.362C167.849 23.056 167.415 22.9673 167.06 22.79C166.706 22.6033 166.435 22.3047 166.248 21.894C166.062 21.4833 165.968 20.9373 165.968 20.256V12.836C165.968 12.7333 165.996 12.654 166.052 12.598C166.118 12.5327 166.211 12.5 166.332 12.5H167.186C167.298 12.5 167.378 12.5327 167.424 12.598C167.471 12.654 167.494 12.7287 167.494 12.822V19.752C167.494 20.1533 167.536 20.4613 167.62 20.676C167.714 20.8813 167.858 21.0213 168.054 21.096C168.25 21.1707 168.498 21.208 168.796 21.208H169.076C169.216 21.208 169.286 21.278 169.286 21.418V22.636C169.286 22.916 169.146 23.056 168.866 23.056ZM168.793 23.056C168.653 23.056 168.583 22.986 168.583 22.846V21.628C168.583 21.348 168.723 21.208 169.003 21.208H171.411C172.176 21.208 172.839 21.1287 173.399 20.97C173.968 20.8113 174.542 20.5547 175.121 20.2L176.479 19.346L177.361 19.864L175.485 21.348C175.149 21.6093 174.766 21.8753 174.337 22.146C173.917 22.4073 173.422 22.6267 172.853 22.804C172.283 22.972 171.607 23.056 170.823 23.056H168.793ZM178.775 23.056C178.261 23.056 177.799 22.986 177.389 22.846C176.987 22.6967 176.651 22.44 176.381 22.076C176.11 21.7027 175.928 21.194 175.835 20.55L176.773 19.682C176.773 20.046 176.81 20.3307 176.885 20.536C176.959 20.7413 177.067 20.8907 177.207 20.984C177.347 21.0773 177.515 21.138 177.711 21.166C177.916 21.194 178.145 21.208 178.397 21.208H179.419C179.493 21.208 179.545 21.236 179.573 21.292C179.61 21.3387 179.629 21.3947 179.629 21.46V22.678C179.629 22.8087 179.591 22.9067 179.517 22.972C179.442 23.028 179.339 23.056 179.209 23.056H178.775ZM177.053 20.088L176.941 20.06C176.446 20.06 176.021 20.018 175.667 19.934C175.312 19.8407 174.995 19.7287 174.715 19.598C174.435 19.4673 174.169 19.3367 173.917 19.206C173.674 19.0753 173.417 18.968 173.147 18.884C172.876 18.7907 172.573 18.744 172.237 18.744C171.957 18.744 171.728 18.7953 171.551 18.898C171.383 18.9913 171.247 19.108 171.145 19.248C171.061 19.36 170.986 19.4393 170.921 19.486C170.865 19.5233 170.762 19.542 170.613 19.542H170.053C169.791 19.542 169.661 19.43 169.661 19.206C169.661 18.9633 169.721 18.7207 169.843 18.478C169.964 18.2353 170.137 18.016 170.361 17.82C170.585 17.6147 170.855 17.4513 171.173 17.33C171.499 17.2087 171.863 17.148 172.265 17.148C172.675 17.148 173.039 17.1947 173.357 17.288C173.683 17.3813 173.991 17.498 174.281 17.638C174.57 17.7687 174.855 17.904 175.135 18.044C175.424 18.1747 175.737 18.2867 176.073 18.38C176.418 18.4733 176.81 18.52 177.249 18.52H177.879C178.019 18.52 178.107 18.548 178.145 18.604C178.191 18.66 178.215 18.758 178.215 18.898V19.724C178.215 19.836 178.182 19.9247 178.117 19.99C178.051 20.0553 177.958 20.088 177.837 20.088H177.053ZM175.359 24.918C175.303 24.9647 175.237 24.9833 175.163 24.974C175.088 24.974 175.018 24.9507 174.953 24.904L174.351 24.288C174.295 24.2413 174.267 24.176 174.267 24.092C174.267 24.0173 174.295 23.952 174.351 23.896L174.953 23.28C175.018 23.224 175.083 23.196 175.149 23.196C175.223 23.196 175.289 23.224 175.345 23.28L175.947 23.896C176.012 23.952 176.045 24.0173 176.045 24.092C176.054 24.176 176.026 24.246 175.961 24.302L175.359 24.918ZM179.141 23.056C179.001 23.056 178.931 22.9813 178.931 22.832V21.628C178.931 21.348 179.071 21.208 179.351 21.208H179.491C179.892 21.208 180.191 21.11 180.387 20.914C180.592 20.7087 180.695 20.3353 180.695 19.794V18.436C180.695 18.1933 180.807 18.072 181.031 18.072H181.871C182.095 18.072 182.207 18.1933 182.207 18.436V19.794C182.207 20.3447 182.328 20.718 182.571 20.914C182.813 21.11 183.168 21.208 183.635 21.208H183.831C183.971 21.208 184.041 21.278 184.041 21.418V22.636C184.041 22.916 183.901 23.056 183.621 23.056C183.145 23.056 182.701 22.9673 182.291 22.79C181.88 22.6127 181.549 22.2907 181.297 21.824C181.082 22.3093 180.779 22.636 180.387 22.804C179.995 22.972 179.579 23.056 179.141 23.056ZM180.569 16.756C180.522 16.812 180.461 16.84 180.387 16.84C180.312 16.84 180.242 16.8073 180.177 16.742L179.575 16.14C179.528 16.0747 179.5 16.0093 179.491 15.944C179.491 15.8693 179.519 15.7993 179.575 15.734L180.177 15.132C180.242 15.0667 180.312 15.034 180.387 15.034C180.461 15.034 180.522 15.0667 180.569 15.132L181.185 15.734C181.25 15.79 181.283 15.86 181.283 15.944C181.292 16.0187 181.264 16.0887 181.199 16.154L180.569 16.756ZM182.697 16.756C182.641 16.8213 182.575 16.8493 182.501 16.84C182.426 16.8307 182.361 16.798 182.305 16.742L181.675 16.14C181.619 16.084 181.591 16.0187 181.591 15.944C181.591 15.86 181.619 15.79 181.675 15.734L182.305 15.132C182.361 15.0667 182.421 15.034 182.487 15.034C182.552 15.034 182.617 15.0667 182.683 15.132L183.299 15.734C183.364 15.79 183.397 15.86 183.397 15.944C183.397 16.0187 183.364 16.0887 183.299 16.154L182.697 16.756ZM183.555 23.056C183.415 23.056 183.345 22.986 183.345 22.846V21.628C183.345 21.348 183.485 21.208 183.765 21.208C184.073 21.208 184.325 21.166 184.521 21.082C184.717 20.9887 184.857 20.83 184.941 20.606C185.034 20.3727 185.081 20.0413 185.081 19.612V12.822C185.081 12.7287 185.109 12.654 185.165 12.598C185.23 12.5327 185.31 12.5 185.403 12.5H186.285C186.388 12.5 186.467 12.5327 186.523 12.598C186.579 12.654 186.607 12.7287 186.607 12.822V19.542C186.607 20.1393 186.556 20.662 186.453 21.11C186.35 21.558 186.178 21.9267 185.935 22.216C185.702 22.5053 185.389 22.72 184.997 22.86C184.614 22.9907 184.134 23.056 183.555 23.056ZM189.459 23.07C189.366 23.07 189.287 23.042 189.221 22.986C189.165 22.9207 189.137 22.8413 189.137 22.748V12.822C189.137 12.7287 189.165 12.654 189.221 12.598C189.287 12.5327 189.366 12.5 189.459 12.5H190.341C190.444 12.5 190.523 12.5327 190.579 12.598C190.635 12.654 190.663 12.7287 190.663 12.822V22.748C190.663 22.8413 190.635 22.9207 190.579 22.986C190.523 23.042 190.444 23.07 190.341 23.07H189.459ZM199.67 24.988C198.858 24.988 198.158 24.8293 197.57 24.512C196.982 24.204 196.524 23.7607 196.198 23.182C195.88 22.6033 195.722 21.9267 195.722 21.152C195.722 20.8067 195.764 20.438 195.848 20.046C195.932 19.6447 196.03 19.304 196.142 19.024C196.226 18.8373 196.3 18.7113 196.366 18.646C196.44 18.5807 196.538 18.5667 196.66 18.604L197.332 18.786C197.5 18.8327 197.593 18.8933 197.612 18.968C197.64 19.0333 197.63 19.122 197.584 19.234C197.472 19.4953 197.388 19.78 197.332 20.088C197.285 20.3867 197.262 20.648 197.262 20.872C197.262 21.6 197.481 22.1693 197.92 22.58C198.368 22.9907 198.974 23.196 199.74 23.196C200.262 23.196 200.724 23.112 201.126 22.944C201.536 22.7667 201.854 22.4913 202.078 22.118C202.311 21.7353 202.423 21.236 202.414 20.62C202.414 20.3307 202.372 19.9993 202.288 19.626C202.204 19.2433 202.101 18.828 201.98 18.38C201.914 18.1467 202.003 17.9973 202.246 17.932L203.058 17.708C203.188 17.6707 203.291 17.6753 203.366 17.722C203.44 17.7593 203.501 17.8573 203.548 18.016C203.688 18.5013 203.804 18.9727 203.898 19.43C203.991 19.8873 204.038 20.354 204.038 20.83C204.038 21.4553 203.93 22.0247 203.716 22.538C203.51 23.042 203.212 23.476 202.82 23.84C202.428 24.2133 201.966 24.498 201.434 24.694C200.902 24.89 200.314 24.988 199.67 24.988ZM199.922 17.358C199.866 17.414 199.796 17.442 199.712 17.442C199.637 17.4327 199.572 17.4 199.516 17.344L198.886 16.714C198.83 16.6487 198.802 16.5787 198.802 16.504C198.802 16.4293 198.83 16.364 198.886 16.308L199.516 15.664C199.572 15.608 199.637 15.58 199.712 15.58C199.786 15.58 199.852 15.608 199.908 15.664L200.538 16.308C200.687 16.4573 200.692 16.5973 200.552 16.728L199.922 17.358ZM204.42 26.486C204.289 26.486 204.196 26.4487 204.14 26.374C204.074 26.3087 204.042 26.2153 204.042 26.094V25.156C204.042 25.0347 204.079 24.9413 204.154 24.876C204.228 24.82 204.331 24.792 204.462 24.792H204.91C205.526 24.792 206.016 24.6707 206.38 24.428C206.753 24.1853 207.019 23.8447 207.178 23.406C207.336 22.9767 207.416 22.468 207.416 21.88C207.416 21.4133 207.364 20.9513 207.262 20.494C207.168 20.0367 207.052 19.5607 206.912 19.066C206.874 18.8793 206.874 18.744 206.912 18.66C206.949 18.5667 207.042 18.5013 207.192 18.464L207.99 18.254C208.12 18.2167 208.223 18.226 208.298 18.282C208.372 18.3287 208.433 18.4547 208.48 18.66C208.62 19.2013 208.741 19.7753 208.844 20.382C208.956 20.9887 209.012 21.558 209.012 22.09C209.012 22.9207 208.867 23.6673 208.578 24.33C208.298 24.9927 207.864 25.5153 207.276 25.898C206.697 26.29 205.969 26.486 205.092 26.486H204.42ZM207.472 17.078C207.416 17.134 207.346 17.162 207.262 17.162C207.187 17.1527 207.122 17.12 207.066 17.064L206.436 16.434C206.38 16.3687 206.352 16.2987 206.352 16.224C206.352 16.1493 206.38 16.084 206.436 16.028L207.066 15.384C207.122 15.328 207.187 15.3 207.262 15.3C207.336 15.3 207.402 15.328 207.458 15.384L208.088 16.028C208.237 16.1773 208.242 16.3173 208.102 16.448L207.472 17.078ZM211.136 23.07C211.043 23.07 210.964 23.042 210.898 22.986C210.842 22.9207 210.814 22.8413 210.814 22.748V12.822C210.814 12.7287 210.842 12.654 210.898 12.598C210.964 12.5327 211.043 12.5 211.136 12.5H212.018C212.121 12.5 212.2 12.5327 212.256 12.598C212.312 12.654 212.34 12.7287 212.34 12.822V22.748C212.34 22.8413 212.312 22.9207 212.256 22.986C212.2 23.042 212.121 23.07 212.018 23.07H211.136ZM214.592 26.472C214.433 26.472 214.312 26.4393 214.228 26.374C214.144 26.3087 214.102 26.1827 214.102 25.996V25.114C214.102 24.9647 214.144 24.8573 214.228 24.792C214.312 24.7267 214.447 24.694 214.634 24.694H215.656C216.43 24.694 217.042 24.554 217.49 24.274C217.938 24.0033 218.25 23.5833 218.428 23.014C218.605 22.4447 218.67 21.7213 218.624 20.844L219.954 20.886C219.954 22.1367 219.795 23.1727 219.478 23.994C219.17 24.8247 218.689 25.4453 218.036 25.856C217.392 26.2667 216.556 26.472 215.53 26.472H214.592ZM218.582 20.872C218.535 20.312 218.362 19.8733 218.064 19.556C217.774 19.2387 217.42 19.08 217 19.08C216.729 19.08 216.5 19.136 216.314 19.248C216.127 19.3507 215.987 19.486 215.894 19.654C215.81 19.822 215.768 19.9993 215.768 20.186C215.768 20.4847 215.88 20.7133 216.104 20.872C216.328 21.0307 216.608 21.11 216.944 21.11C217.345 21.11 217.718 21.0447 218.064 20.914C218.409 20.774 218.647 20.62 218.778 20.452L218.932 21.852C218.736 22.132 218.442 22.3513 218.05 22.51C217.667 22.6687 217.233 22.7387 216.748 22.72C216.262 22.7013 215.847 22.58 215.502 22.356C215.166 22.132 214.904 21.8427 214.718 21.488C214.54 21.1333 214.452 20.7367 214.452 20.298C214.452 19.9153 214.512 19.5513 214.634 19.206C214.755 18.8607 214.928 18.5573 215.152 18.296C215.385 18.0253 215.67 17.8153 216.006 17.666C216.342 17.5073 216.72 17.428 217.14 17.428C217.69 17.428 218.176 17.568 218.596 17.848C219.016 18.1187 219.347 18.5153 219.59 19.038C219.832 19.5513 219.954 20.1673 219.954 20.886L218.582 20.872ZM231.018 23.056C230.318 23.056 229.777 22.8927 229.394 22.566C229.011 22.2393 228.764 21.7213 228.652 21.012C228.419 21.3387 228.12 21.5953 227.756 21.782C227.401 21.9593 227.005 22.048 226.566 22.048C225.866 22.048 225.329 21.8613 224.956 21.488C224.583 21.1147 224.396 20.6153 224.396 19.99C224.396 19.6167 224.475 19.2573 224.634 18.912C224.802 18.5667 225.077 18.2447 225.46 17.946C225.843 17.6473 226.351 17.3813 226.986 17.148L228.498 16.574V15.958C228.498 15.8553 228.531 15.776 228.596 15.72C228.671 15.664 228.755 15.636 228.848 15.636H229.744C229.828 15.636 229.893 15.6687 229.94 15.734C229.996 15.79 230.024 15.86 230.024 15.944V19.906C230.024 20.4287 230.108 20.7787 230.276 20.956C230.444 21.124 230.752 21.208 231.2 21.208H231.676C231.741 21.208 231.788 21.2313 231.816 21.278C231.853 21.3247 231.872 21.3807 231.872 21.446V22.692C231.872 22.9347 231.737 23.056 231.466 23.056H231.018ZM227 20.494C227.299 20.494 227.56 20.4333 227.784 20.312C228.008 20.1813 228.185 20.004 228.316 19.78C228.447 19.556 228.512 19.318 228.512 19.066V18.002L227.322 18.394C226.883 18.5433 226.547 18.7253 226.314 18.94C226.09 19.1547 225.978 19.3927 225.978 19.654C225.978 19.9247 226.071 20.1347 226.258 20.284C226.445 20.424 226.692 20.494 227 20.494ZM228.4 14.488C228.353 14.544 228.293 14.572 228.218 14.572C228.143 14.572 228.073 14.5393 228.008 14.474L227.406 13.872C227.359 13.8067 227.331 13.7413 227.322 13.676C227.322 13.6013 227.35 13.5313 227.406 13.466L228.008 12.864C228.073 12.7987 228.143 12.766 228.218 12.766C228.293 12.766 228.353 12.7987 228.4 12.864L229.016 13.466C229.081 13.522 229.114 13.592 229.114 13.676C229.123 13.7507 229.095 13.8207 229.03 13.886L228.4 14.488ZM230.528 14.488C230.472 14.5533 230.407 14.5813 230.332 14.572C230.257 14.5627 230.192 14.53 230.136 14.474L229.506 13.872C229.45 13.816 229.422 13.7507 229.422 13.676C229.422 13.592 229.45 13.522 229.506 13.466L230.136 12.864C230.192 12.7987 230.253 12.766 230.318 12.766C230.383 12.766 230.449 12.7987 230.514 12.864L231.13 13.466C231.195 13.522 231.228 13.592 231.228 13.676C231.228 13.7507 231.195 13.8207 231.13 13.886L230.528 14.488ZM231.378 23.056C231.238 23.056 231.168 22.986 231.168 22.846V21.628C231.168 21.348 231.308 21.208 231.588 21.208H234.766C235.186 21.208 235.494 21.1193 235.69 20.942C235.895 20.7553 235.998 20.5173 235.998 20.228C235.998 20.032 235.937 19.8593 235.816 19.71C235.695 19.5607 235.527 19.4067 235.312 19.248L232.372 17.078C232.241 16.9847 232.143 16.8867 232.078 16.784C232.022 16.672 231.994 16.5227 231.994 16.336V15.3C231.994 15.1133 232.022 14.978 232.078 14.894C232.143 14.8007 232.241 14.726 232.372 14.67L237.496 12.29C237.608 12.2433 237.697 12.2433 237.762 12.29C237.827 12.3367 237.86 12.4253 237.86 12.556L237.846 13.452C237.837 13.564 237.809 13.662 237.762 13.746C237.725 13.83 237.65 13.8953 237.538 13.942L233.296 15.902L235.858 17.876C236.25 18.1093 236.572 18.3427 236.824 18.576C237.076 18.8093 237.263 19.066 237.384 19.346C237.515 19.6167 237.58 19.9293 237.58 20.284C237.58 20.8813 237.44 21.3853 237.16 21.796C236.88 22.2067 236.502 22.5193 236.026 22.734C235.55 22.9487 235.018 23.056 234.43 23.056H231.378ZM237.797 26.486C237.666 26.486 237.573 26.4487 237.517 26.374C237.451 26.3087 237.419 26.2153 237.419 26.094V25.156C237.419 25.0347 237.456 24.9413 237.531 24.876C237.605 24.82 237.708 24.792 237.839 24.792H238.231C239.145 24.792 239.803 24.5493 240.205 24.064C240.615 23.5787 240.821 22.9067 240.821 22.048C240.821 21.7307 240.793 21.404 240.737 21.068C240.681 20.7227 240.611 20.382 240.527 20.046L240.275 18.94C240.247 18.8093 240.256 18.7067 240.303 18.632C240.349 18.548 240.447 18.4873 240.597 18.45L241.353 18.268C241.474 18.24 241.563 18.24 241.619 18.268C241.675 18.296 241.717 18.3427 241.745 18.408C241.773 18.464 241.796 18.5293 241.815 18.604L242.207 20.186C242.272 20.4567 242.379 20.6667 242.529 20.816C242.678 20.9653 242.855 21.068 243.061 21.124C243.266 21.18 243.485 21.208 243.719 21.208H243.985C244.143 21.208 244.223 21.278 244.223 21.418V22.636C244.223 22.916 244.083 23.056 243.803 23.056C243.429 23.056 243.093 23.014 242.795 22.93C242.505 22.846 242.319 22.7387 242.235 22.608C242.216 23.112 242.132 23.5973 241.983 24.064C241.833 24.5307 241.605 24.946 241.297 25.31C240.989 25.674 240.592 25.9587 240.107 26.164C239.621 26.3787 239.033 26.486 238.343 26.486H237.797ZM248.032 23.098C247.621 23.098 247.215 23.0187 246.814 22.86C246.422 22.692 246.123 22.3887 245.918 21.95C245.703 22.3793 245.395 22.6733 244.994 22.832C244.602 22.9813 244.182 23.056 243.734 23.056C243.594 23.056 243.524 22.9813 243.524 22.832V21.628C243.524 21.348 243.664 21.208 243.944 21.208C244.467 21.208 244.835 21.1193 245.05 20.942C245.265 20.7553 245.372 20.4193 245.372 19.934V18.884C245.372 18.772 245.4 18.6833 245.456 18.618C245.512 18.5527 245.596 18.52 245.708 18.52H246.562C246.777 18.52 246.884 18.6367 246.884 18.87V19.948C246.884 20.396 246.982 20.7227 247.178 20.928C247.383 21.1333 247.71 21.236 248.158 21.236C248.606 21.236 248.905 21.124 249.054 20.9C249.203 20.6667 249.278 20.34 249.278 19.92V18.898C249.278 18.786 249.306 18.6973 249.362 18.632C249.418 18.5573 249.502 18.52 249.614 18.52H250.454C250.566 18.52 250.65 18.5573 250.706 18.632C250.762 18.6973 250.79 18.786 250.79 18.898V19.976C250.79 20.424 250.888 20.7507 251.084 20.956C251.289 21.152 251.602 21.25 252.022 21.25C252.395 21.25 252.671 21.1473 252.848 20.942C253.025 20.7367 253.114 20.4567 253.114 20.102C253.114 19.9993 253.105 19.892 253.086 19.78C253.077 19.668 253.058 19.556 253.03 19.444L252.75 18.366C252.722 18.254 252.722 18.1607 252.75 18.086C252.787 18.0113 252.862 17.96 252.974 17.932L253.828 17.708C253.959 17.68 254.052 17.694 254.108 17.75C254.164 17.806 254.206 17.8947 254.234 18.016L254.472 19.01C254.528 19.262 254.57 19.5047 254.598 19.738C254.635 19.9713 254.654 20.186 254.654 20.382C254.654 20.9233 254.551 21.3993 254.346 21.81C254.15 22.2207 253.856 22.538 253.464 22.762C253.072 22.986 252.582 23.098 251.994 23.098C251.546 23.098 251.135 23.0233 250.762 22.874C250.398 22.7247 250.109 22.4773 249.894 22.132C249.782 22.3747 249.623 22.566 249.418 22.706C249.222 22.846 249.003 22.944 248.76 23C248.517 23.0653 248.275 23.098 248.032 23.098ZM250.202 15.188C250.146 15.2347 250.085 15.258 250.02 15.258C249.955 15.2487 249.889 15.2207 249.824 15.174L249.25 14.586C249.129 14.4647 249.129 14.3433 249.25 14.222L249.824 13.634C249.945 13.522 250.067 13.522 250.188 13.634L250.762 14.222C250.893 14.3527 250.897 14.4787 250.776 14.6L250.202 15.188ZM249.152 17.064C249.105 17.12 249.045 17.148 248.97 17.148C248.895 17.148 248.825 17.1153 248.76 17.05L248.158 16.448C248.102 16.3827 248.074 16.3173 248.074 16.252C248.074 16.1773 248.102 16.1073 248.158 16.042L248.76 15.44C248.891 15.3 249.021 15.3 249.152 15.44L249.768 16.042C249.833 16.098 249.866 16.168 249.866 16.252C249.875 16.3267 249.847 16.3967 249.782 16.462L249.152 17.064ZM251.28 17.064C251.224 17.1293 251.159 17.1573 251.084 17.148C251.009 17.1387 250.944 17.106 250.888 17.05L250.258 16.448C250.202 16.392 250.174 16.3267 250.174 16.252C250.174 16.168 250.202 16.098 250.258 16.042L250.888 15.44C251.019 15.3093 251.145 15.3093 251.266 15.44L251.882 16.042C251.938 16.098 251.966 16.168 251.966 16.252C251.975 16.3267 251.947 16.3967 251.882 16.462L251.28 17.064Z" fill="#030712"/>
<path d="M202.402 36C202.402 33.7909 204.193 32 206.402 32H252.402C254.611 32 256.402 33.7909 256.402 36V44C256.402 46.2091 254.611 48 252.402 48H206.402C204.193 48 202.402 46.2091 202.402 44V36Z" fill="#F3E8FF"/>
<path d="M212.802 44.048C212.202 44.048 211.738 43.908 211.41 43.628C211.082 43.348 210.87 42.904 210.774 42.296C210.574 42.576 210.318 42.796 210.006 42.956C209.702 43.108 209.362 43.184 208.986 43.184C208.386 43.184 207.926 43.024 207.606 42.704C207.286 42.384 207.126 41.956 207.126 41.42C207.126 41.1 207.194 40.792 207.33 40.496C207.474 40.2 207.71 39.924 208.038 39.668C208.366 39.412 208.802 39.184 209.346 38.984L210.642 38.492V37.964C210.642 37.876 210.67 37.808 210.726 37.76C210.79 37.712 210.862 37.688 210.942 37.688H211.71C211.782 37.688 211.838 37.716 211.878 37.772C211.926 37.82 211.95 37.88 211.95 37.952V41.348C211.95 41.796 212.022 42.096 212.166 42.248C212.31 42.392 212.574 42.464 212.958 42.464H213.366C213.422 42.464 213.462 42.484 213.486 42.524C213.518 42.564 213.534 42.612 213.534 42.668V43.736C213.534 43.944 213.418 44.048 213.186 44.048H212.802ZM209.358 41.852C209.614 41.852 209.838 41.8 210.03 41.696C210.222 41.584 210.374 41.432 210.486 41.24C210.598 41.048 210.654 40.844 210.654 40.628V39.716L209.634 40.052C209.258 40.18 208.97 40.336 208.77 40.52C208.578 40.704 208.482 40.908 208.482 41.132C208.482 41.364 208.562 41.544 208.722 41.672C208.882 41.792 209.094 41.852 209.358 41.852ZM210.558 36.704C210.518 36.752 210.466 36.776 210.402 36.776C210.338 36.776 210.278 36.748 210.222 36.692L209.706 36.176C209.666 36.12 209.642 36.064 209.634 36.008C209.634 35.944 209.658 35.884 209.706 35.828L210.222 35.312C210.278 35.256 210.338 35.228 210.402 35.228C210.466 35.228 210.518 35.256 210.558 35.312L211.086 35.828C211.142 35.876 211.17 35.936 211.17 36.008C211.178 36.072 211.154 36.132 211.098 36.188L210.558 36.704ZM212.382 36.704C212.334 36.76 212.278 36.784 212.214 36.776C212.15 36.768 212.094 36.74 212.046 36.692L211.506 36.176C211.458 36.128 211.434 36.072 211.434 36.008C211.434 35.936 211.458 35.876 211.506 35.828L212.046 35.312C212.094 35.256 212.146 35.228 212.202 35.228C212.258 35.228 212.314 35.256 212.37 35.312L212.898 35.828C212.954 35.876 212.982 35.936 212.982 36.008C212.982 36.072 212.954 36.132 212.898 36.188L212.382 36.704ZM217.466 44.096C217.266 44.096 217.082 44.08 216.914 44.048C216.746 44.024 216.57 43.98 216.386 43.916C216.21 43.852 216.006 43.76 215.774 43.64C215.542 43.52 215.254 43.368 214.91 43.184C214.734 43.424 214.546 43.608 214.346 43.736C214.154 43.856 213.958 43.94 213.758 43.988C213.566 44.028 213.37 44.048 213.17 44.048C213.05 44.048 212.99 43.988 212.99 43.868V42.824C212.99 42.584 213.11 42.464 213.35 42.464C213.51 42.464 213.65 42.444 213.77 42.404C213.898 42.356 214.026 42.26 214.154 42.116C214.29 41.964 214.446 41.732 214.622 41.42C214.934 40.892 215.23 40.488 215.51 40.208C215.79 39.92 216.07 39.72 216.35 39.608C216.63 39.496 216.914 39.44 217.202 39.44C217.602 39.44 217.97 39.544 218.306 39.752C218.65 39.96 218.922 40.248 219.122 40.616C219.33 40.984 219.434 41.424 219.434 41.936C219.434 42.248 219.39 42.536 219.302 42.8C219.214 43.064 219.086 43.296 218.918 43.496C218.75 43.696 218.542 43.848 218.294 43.952C218.054 44.056 217.778 44.104 217.466 44.096ZM217.502 42.692C217.686 42.7 217.838 42.648 217.958 42.536C218.086 42.424 218.15 42.228 218.15 41.948C218.158 41.708 218.11 41.504 218.006 41.336C217.91 41.16 217.778 41.024 217.61 40.928C217.45 40.824 217.274 40.772 217.082 40.772C216.93 40.772 216.782 40.804 216.638 40.868C216.494 40.932 216.342 41.052 216.182 41.228C216.03 41.396 215.85 41.648 215.642 41.984C216.002 42.184 216.286 42.336 216.494 42.44C216.71 42.544 216.894 42.612 217.046 42.644C217.198 42.676 217.35 42.692 217.502 42.692ZM222.643 44.048C221.979 44.048 221.487 43.864 221.167 43.496C220.855 43.12 220.699 42.612 220.699 41.972V41.648C220.699 41.528 220.723 41.44 220.771 41.384C220.827 41.32 220.923 41.288 221.059 41.288H221.671C221.759 41.288 221.827 41.316 221.875 41.372C221.923 41.42 221.947 41.496 221.947 41.6V41.912C221.947 42.096 222.007 42.236 222.127 42.332C222.247 42.42 222.407 42.464 222.607 42.464H223.711C224.071 42.464 224.347 42.412 224.539 42.308C224.731 42.204 224.827 42.016 224.827 41.744C224.827 41.656 224.815 41.564 224.791 41.468C224.767 41.364 224.727 41.244 224.671 41.108L223.783 38.756C223.735 38.62 223.715 38.508 223.723 38.42C223.739 38.324 223.803 38.252 223.915 38.204L224.587 37.94C224.707 37.892 224.803 37.888 224.875 37.928C224.955 37.968 225.019 38.044 225.067 38.156L226.171 41.06C226.323 41.46 226.459 41.76 226.579 41.96C226.707 42.16 226.847 42.296 226.999 42.368C227.159 42.432 227.359 42.464 227.599 42.464C227.719 42.464 227.779 42.524 227.779 42.644V43.688C227.779 43.928 227.659 44.048 227.419 44.048C227.091 44.048 226.751 43.964 226.399 43.796C226.047 43.628 225.747 43.312 225.499 42.848C225.395 43.224 225.175 43.52 224.839 43.736C224.511 43.944 224.059 44.048 223.483 44.048H222.643ZM227.444 44.048C227.308 44.048 227.24 43.976 227.24 43.832V42.764C227.24 42.668 227.268 42.596 227.324 42.548C227.38 42.492 227.456 42.464 227.552 42.464C227.832 42.464 228.088 42.46 228.32 42.452C228.552 42.444 228.756 42.432 228.932 42.416C229.108 42.392 229.256 42.368 229.376 42.344C229.232 42.208 229.092 42.06 228.956 41.9C228.82 41.732 228.708 41.548 228.62 41.348C228.54 41.14 228.5 40.912 228.5 40.664C228.5 40.232 228.604 39.852 228.812 39.524C229.02 39.188 229.3 38.924 229.652 38.732C230.012 38.54 230.412 38.444 230.852 38.444C231.276 38.444 231.652 38.54 231.98 38.732C232.308 38.924 232.568 39.188 232.76 39.524C232.952 39.852 233.048 40.216 233.048 40.616C233.048 40.96 232.972 41.272 232.82 41.552C232.668 41.824 232.444 42.092 232.148 42.356C232.364 42.388 232.552 42.412 232.712 42.428C232.88 42.444 233.072 42.456 233.288 42.464C233.504 42.464 233.788 42.464 234.14 42.464C234.196 42.464 234.244 42.484 234.284 42.524C234.324 42.556 234.344 42.604 234.344 42.668V43.64C234.344 43.912 234.204 44.048 233.924 44.048C233.476 44.048 233.1 44.04 232.796 44.024C232.5 44.008 232.24 43.98 232.016 43.94C231.792 43.892 231.576 43.832 231.368 43.76C231.168 43.688 230.944 43.592 230.696 43.472C230.496 43.584 230.304 43.68 230.12 43.76C229.944 43.832 229.74 43.888 229.508 43.928C229.284 43.968 229.008 43.996 228.68 44.012C228.36 44.036 227.948 44.048 227.444 44.048ZM230.804 41.996C231.132 41.812 231.38 41.612 231.548 41.396C231.716 41.172 231.8 40.948 231.8 40.724C231.8 40.436 231.712 40.204 231.536 40.028C231.36 39.844 231.12 39.752 230.816 39.752C230.536 39.752 230.292 39.836 230.084 40.004C229.884 40.172 229.784 40.4 229.784 40.688C229.784 40.968 229.876 41.208 230.06 41.408C230.244 41.608 230.492 41.804 230.804 41.996ZM230.12 37.316C230.08 37.364 230.028 37.388 229.964 37.388C229.9 37.388 229.84 37.36 229.784 37.304L229.268 36.788C229.228 36.732 229.204 36.676 229.196 36.62C229.196 36.556 229.22 36.496 229.268 36.44L229.784 35.924C229.84 35.868 229.9 35.84 229.964 35.84C230.028 35.84 230.08 35.868 230.12 35.924L230.648 36.44C230.704 36.488 230.732 36.548 230.732 36.62C230.74 36.684 230.716 36.744 230.66 36.8L230.12 37.316ZM231.944 37.316C231.896 37.372 231.84 37.396 231.776 37.388C231.712 37.38 231.656 37.352 231.608 37.304L231.068 36.788C231.02 36.74 230.996 36.684 230.996 36.62C230.996 36.548 231.02 36.488 231.068 36.44L231.608 35.924C231.656 35.868 231.708 35.84 231.764 35.84C231.82 35.84 231.876 35.868 231.932 35.924L232.46 36.44C232.516 36.488 232.544 36.548 232.544 36.62C232.544 36.684 232.516 36.744 232.46 36.8L231.944 37.316ZM233.983 44.048C233.863 44.048 233.803 43.984 233.803 43.856V42.824C233.803 42.584 233.923 42.464 234.163 42.464H234.283C234.627 42.464 234.883 42.38 235.051 42.212C235.227 42.036 235.315 41.716 235.315 41.252V40.088C235.315 39.88 235.411 39.776 235.603 39.776H236.323C236.515 39.776 236.611 39.88 236.611 40.088V41.252C236.611 41.724 236.715 42.044 236.923 42.212C237.131 42.38 237.435 42.464 237.835 42.464H238.003C238.123 42.464 238.183 42.524 238.183 42.644V43.688C238.183 43.928 238.063 44.048 237.823 44.048C237.415 44.048 237.035 43.972 236.683 43.82C236.331 43.668 236.047 43.392 235.831 42.992C235.647 43.408 235.387 43.688 235.051 43.832C234.715 43.976 234.359 44.048 233.983 44.048ZM235.207 38.648C235.167 38.696 235.115 38.72 235.051 38.72C234.987 38.72 234.927 38.692 234.871 38.636L234.355 38.12C234.315 38.064 234.291 38.008 234.283 37.952C234.283 37.888 234.307 37.828 234.355 37.772L234.871 37.256C234.927 37.2 234.987 37.172 235.051 37.172C235.115 37.172 235.167 37.2 235.207 37.256L235.735 37.772C235.791 37.82 235.819 37.88 235.819 37.952C235.827 38.016 235.803 38.076 235.747 38.132L235.207 38.648ZM237.031 38.648C236.983 38.704 236.927 38.728 236.863 38.72C236.799 38.712 236.743 38.684 236.695 38.636L236.155 38.12C236.107 38.072 236.083 38.016 236.083 37.952C236.083 37.88 236.107 37.82 236.155 37.772L236.695 37.256C236.743 37.2 236.795 37.172 236.851 37.172C236.907 37.172 236.963 37.2 237.019 37.256L237.547 37.772C237.603 37.82 237.631 37.88 237.631 37.952C237.631 38.016 237.603 38.076 237.547 38.132L237.031 38.648ZM241.835 44.132C241.643 44.132 241.459 44.116 241.283 44.084C241.107 44.052 240.927 44 240.743 43.928C240.559 43.856 240.355 43.764 240.131 43.652C239.915 43.532 239.663 43.384 239.375 43.208C239.223 43.432 239.059 43.608 238.883 43.736C238.715 43.856 238.539 43.94 238.355 43.988C238.179 44.028 238.003 44.048 237.827 44.048C237.707 44.048 237.647 43.988 237.647 43.868V42.824C237.647 42.584 237.767 42.464 238.007 42.464C238.143 42.464 238.259 42.44 238.355 42.392C238.451 42.344 238.551 42.252 238.655 42.116C238.767 41.98 238.895 41.772 239.039 41.492C239.319 40.948 239.595 40.532 239.867 40.244C240.147 39.948 240.427 39.744 240.707 39.632C240.987 39.512 241.267 39.452 241.547 39.452C241.859 39.452 242.155 39.508 242.435 39.62C242.715 39.732 242.967 39.924 243.191 40.196C243.423 40.468 243.631 40.848 243.815 41.336C243.935 41.64 244.051 41.876 244.163 42.044C244.275 42.204 244.403 42.316 244.547 42.38C244.699 42.436 244.887 42.464 245.111 42.464C245.231 42.464 245.291 42.524 245.291 42.644V43.688C245.291 43.928 245.171 44.048 244.931 44.048C244.627 44.048 244.355 43.988 244.115 43.868C243.883 43.74 243.671 43.524 243.479 43.22C243.319 43.54 243.087 43.772 242.783 43.916C242.487 44.06 242.171 44.132 241.835 44.132ZM241.871 42.704C242.071 42.704 242.243 42.652 242.387 42.548C242.531 42.436 242.607 42.248 242.615 41.984C242.623 41.768 242.575 41.564 242.471 41.372C242.367 41.18 242.231 41.024 242.063 40.904C241.895 40.784 241.715 40.724 241.523 40.724C241.371 40.724 241.219 40.76 241.067 40.832C240.923 40.896 240.771 41.02 240.611 41.204C240.451 41.388 240.263 41.652 240.047 41.996C240.407 42.188 240.691 42.336 240.899 42.44C241.107 42.536 241.279 42.604 241.415 42.644C241.559 42.684 241.711 42.704 241.871 42.704ZM244.928 44.048C244.808 44.048 244.748 43.988 244.748 43.868V42.824C244.748 42.584 244.868 42.464 245.108 42.464C245.372 42.464 245.588 42.428 245.756 42.356C245.924 42.276 246.044 42.14 246.116 41.948C246.196 41.748 246.236 41.464 246.236 41.096V35.276C246.236 35.196 246.26 35.132 246.308 35.084C246.364 35.028 246.432 35 246.512 35H247.268C247.356 35 247.424 35.028 247.472 35.084C247.52 35.132 247.544 35.196 247.544 35.276V41.036C247.544 41.548 247.5 41.996 247.412 42.38C247.324 42.764 247.176 43.08 246.968 43.328C246.768 43.576 246.5 43.76 246.164 43.88C245.836 43.992 245.424 44.048 244.928 44.048ZM250.049 44.06C249.969 44.06 249.901 44.036 249.845 43.988C249.797 43.932 249.773 43.864 249.773 43.784V35.276C249.773 35.196 249.797 35.132 249.845 35.084C249.901 35.028 249.969 35 250.049 35H250.805C250.893 35 250.961 35.028 251.009 35.084C251.057 35.132 251.081 35.196 251.081 35.276V43.784C251.081 43.864 251.057 43.932 251.009 43.988C250.961 44.036 250.893 44.06 250.805 44.06H250.049Z" fill="#7E22CE"/>
<rect x="264.402" y="8" width="40" height="40" rx="20" fill="#F3F4F6"/>
<path d="M272.402 24.7892C272.412 22.6648 274.061 21.1003 276.07 21.2368C276.988 21.3003 277.781 21.6885 278.366 22.4013C279.609 23.9093 280.823 25.4385 282.044 26.963C283.476 28.751 284.904 30.5437 286.34 32.3293C286.827 32.9363 287.558 33.1386 288.222 32.8751C288.906 32.6022 289.325 31.9599 289.283 31.2212C289.262 30.8777 289.144 30.5672 288.923 30.2943C287.205 28.1487 285.483 26.0055 283.785 23.8458C283.335 23.2718 282.813 22.9448 282.077 23.0483C281.902 23.0718 281.731 23.1495 281.571 23.2271C281.415 23.3 281.305 23.2977 281.192 23.1495C280.936 22.813 280.672 22.4813 280.399 22.1567C280.272 22.0061 280.289 21.9167 280.449 21.8061C281.862 20.8345 283.874 21.1215 284.961 22.4696C285.808 23.5188 286.645 24.5728 287.478 25.6362C287.634 25.8361 287.718 25.8149 287.862 25.6314C288.692 24.5798 289.525 23.5282 290.37 22.486C291.81 20.7145 294.52 20.8345 295.807 22.726C296.682 24.0129 296.607 25.702 295.487 27.0665C293.767 29.165 292.085 31.2941 290.405 33.4256C289.033 35.1665 286.462 35.23 285.032 33.5362C284.836 33.3056 284.641 33.0727 284.462 32.828C284.34 32.6586 284.276 32.6586 284.182 32.8492C283.709 33.7879 282.975 34.4278 281.945 34.6654C280.507 34.9948 279.319 34.5525 278.399 33.4068C276.922 31.567 275.447 29.725 273.986 27.8735C273.543 27.3136 273.115 26.7372 272.739 26.1302C272.475 25.702 272.398 25.1915 272.405 24.7892H272.402ZM275.835 23.0248C275.186 23.0365 274.68 23.3141 274.379 23.8905C274.009 24.601 274.16 25.2503 274.652 25.8573C275.635 27.0736 276.609 28.2969 277.585 29.5203C278.345 30.4731 279.1 31.4282 279.863 32.3787C280.312 32.9386 281.117 33.1362 281.764 32.8563C282.432 32.5669 282.848 31.8164 282.754 31.1083C282.691 30.6237 282.394 30.2755 282.112 29.9179C280.472 27.857 278.825 25.7985 277.181 23.74C276.837 23.3094 276.416 23.0154 275.835 23.0224V23.0248ZM290.883 29.9508C290.927 29.9014 290.991 29.8332 291.047 29.7603C292.073 28.4781 293.094 27.1912 294.125 25.9138C294.583 25.3468 294.788 24.7375 294.503 24.0387C294.026 22.8601 292.518 22.6672 291.685 23.6764C291.332 24.1023 290.996 24.5422 290.652 24.9751C290.092 25.6761 289.535 26.3819 288.968 27.0759C288.838 27.2336 288.833 27.3559 288.968 27.5041C289.09 27.6382 289.2 27.7817 289.311 27.9252C289.829 28.591 290.344 29.2591 290.878 29.9508H290.883Z" fill="#4B5563"/>
<g filter="url(#filter0_b_4557_16639)">
<path d="M0.402344 64C0.402344 59.5817 3.98407 56 8.40234 56H312.402C316.821 56 320.402 59.5817 320.402 64V232C320.402 236.418 316.821 240 312.402 240H8.40234C3.98406 240 0.402344 236.418 0.402344 232V64Z" fill="white"/>
<g clip-path="url(#clip1_4557_16639)">
<rect x="132.402" y="75" width="144" height="14" rx="4" fill="#E5E7EB"/>
</g>
<path d="M302.443 88.5625C301.253 86.5055 299.42 85.0305 297.28 84.3312C298.338 83.7011 299.161 82.741 299.621 81.5983C300.08 80.4555 300.153 79.1934 299.826 78.0057C299.499 76.818 298.791 75.7705 297.812 75.0238C296.832 74.2772 295.634 73.8729 294.402 73.8729C293.171 73.8729 291.973 74.2772 290.993 75.0238C290.013 75.7705 289.306 76.818 288.979 78.0057C288.652 79.1934 288.724 80.4555 289.184 81.5983C289.644 82.741 290.467 83.7011 291.525 84.3312C289.385 85.0297 287.552 86.5047 286.362 88.5625C286.318 88.6336 286.289 88.7128 286.277 88.7953C286.264 88.8778 286.268 88.962 286.289 89.0429C286.309 89.1238 286.346 89.1998 286.396 89.2663C286.446 89.3329 286.51 89.3887 286.582 89.4304C286.654 89.4722 286.734 89.499 286.817 89.5094C286.9 89.5198 286.984 89.5134 287.064 89.4908C287.144 89.4682 287.219 89.4296 287.285 89.3776C287.35 89.3255 287.404 89.2608 287.444 89.1875C288.916 86.6437 291.517 85.125 294.402 85.125C297.288 85.125 299.889 86.6437 301.361 89.1875C301.401 89.2608 301.455 89.3255 301.52 89.3776C301.585 89.4296 301.66 89.4682 301.741 89.4908C301.821 89.5134 301.905 89.5198 301.988 89.5094C302.071 89.499 302.151 89.4722 302.223 89.4304C302.295 89.3887 302.358 89.3329 302.409 89.2663C302.459 89.1998 302.496 89.1238 302.516 89.0429C302.537 88.962 302.541 88.8778 302.528 88.7953C302.516 88.7128 302.487 88.6336 302.443 88.5625ZM290.027 79.5C290.027 78.6347 290.284 77.7888 290.765 77.0694C291.245 76.3499 291.929 75.7891 292.728 75.458C293.528 75.1269 294.407 75.0402 295.256 75.2091C296.105 75.3779 296.884 75.7945 297.496 76.4064C298.108 77.0183 298.524 77.7978 298.693 78.6465C298.862 79.4951 298.775 80.3748 298.444 81.1742C298.113 81.9737 297.552 82.6569 296.833 83.1377C296.114 83.6184 295.268 83.875 294.402 83.875C293.242 83.8737 292.13 83.4124 291.31 82.5922C290.49 81.772 290.029 80.6599 290.027 79.5Z" fill="#030712"/>
<g clip-path="url(#clip2_4557_16639)">
<g opacity="0.6">
<rect x="132.402" y="119" width="144" height="14" rx="4" fill="#E5E7EB"/>
</g>
</g>
<path d="M301.775 128.38L298.095 126.73L298.084 126.726C297.893 126.644 297.685 126.611 297.478 126.63C297.271 126.649 297.072 126.72 296.899 126.835C296.879 126.849 296.859 126.863 296.841 126.879L294.939 128.5C293.734 127.915 292.491 126.68 291.905 125.491L293.529 123.561C293.545 123.541 293.559 123.522 293.573 123.501C293.686 123.328 293.755 123.131 293.773 122.925C293.791 122.72 293.758 122.514 293.677 122.324V122.315L292.023 118.628C291.915 118.381 291.731 118.175 291.497 118.041C291.263 117.906 290.992 117.852 290.724 117.884C289.666 118.024 288.694 118.544 287.991 119.347C287.287 120.15 286.9 121.182 286.902 122.25C286.902 128.453 291.949 133.5 298.152 133.5C299.22 133.502 300.252 133.115 301.055 132.412C301.859 131.708 302.379 130.737 302.518 129.678C302.551 129.411 302.496 129.14 302.362 128.906C302.228 128.672 302.022 128.487 301.775 128.38ZM298.152 132.25C295.501 132.247 292.959 131.193 291.084 129.318C289.21 127.443 288.155 124.901 288.152 122.25C288.149 121.487 288.424 120.749 288.926 120.174C289.427 119.599 290.12 119.226 290.877 119.125C290.876 119.128 290.876 119.131 290.877 119.134L292.517 122.806L290.902 124.739C290.886 124.758 290.871 124.778 290.858 124.799C290.74 124.98 290.671 125.187 290.658 125.402C290.644 125.617 290.686 125.832 290.78 126.026C291.488 127.473 292.946 128.921 294.409 129.628C294.605 129.721 294.821 129.762 295.036 129.746C295.252 129.73 295.46 129.659 295.64 129.539C295.66 129.526 295.679 129.511 295.698 129.495L297.597 127.875L301.269 129.52C301.269 129.52 301.275 129.52 301.277 129.52C301.177 130.277 300.805 130.972 300.23 131.474C299.655 131.977 298.916 132.253 298.152 132.25Z" fill="#030712"/>
</g>
</g>
<defs>
<filter id="filter0_b_4557_16639" x="-23.5977" y="32" width="368" height="232" filterUnits="userSpaceOnUse" color-interpolation-filters="sRGB">
<feFlood flood-opacity="0" result="BackgroundImageFix"/>
<feGaussianBlur in="BackgroundImageFix" stdDeviation="12"/>
<feComposite in2="SourceAlpha" operator="in" result="effect1_backgroundBlur_4557_16639"/>
<feBlend mode="normal" in="SourceGraphic" in2="effect1_backgroundBlur_4557_16639" result="shape"/>
</filter>
<clipPath id="clip0_4557_16639">
<rect x="0.402344" width="320" height="144" rx="8" fill="white"/>
</clipPath>
<clipPath id="clip1_4557_16639">
<rect width="260" height="14" fill="white" transform="translate(16.4023 75)"/>
</clipPath>
<clipPath id="clip2_4557_16639">
<rect width="260" height="14" fill="white" transform="translate(16.4023 119)"/>
</clipPath>
</defs>
</svg>
