<svg width="331" height="154" viewBox="0 0 331 154" fill="none" xmlns="http://www.w3.org/2000/svg">
<g filter="url(#filter0_dd_4557_16639)">
<g clip-path="url(#clip0_4557_16639)">
<rect x="5.40234" y="1" width="320" height="144" rx="8" fill="white"/>
<path d="M28.4285 32.8475L31.9977 36.4159L30.8185 37.595L27.2502 34.0259C25.9225 35.0902 24.271 35.6691 22.5693 35.6667C18.4293 35.6667 15.0693 32.3067 15.0693 28.1667C15.0693 24.0267 18.4293 20.6667 22.5693 20.6667C26.7093 20.6667 30.0693 24.0267 30.0693 28.1667C30.0718 29.8684 29.4929 31.5198 28.4285 32.8475ZM26.7568 32.2292C27.8144 31.1416 28.4051 29.6837 28.4027 28.1667C28.4027 24.9434 25.7918 22.3334 22.5693 22.3334C19.346 22.3334 16.736 24.9434 16.736 28.1667C16.736 31.3892 19.346 34 22.5693 34C24.0864 34.0024 25.5442 33.4118 26.6318 32.3542L26.7568 32.2292V32.2292Z" fill="#9CA3AF"/>
<path d="M56.4027 27.3334C56.4027 26.0073 55.8759 24.7355 54.9382 23.7978C54.0005 22.8601 52.7288 22.3334 51.4027 22.3334C50.0766 22.3334 48.8048 22.8601 47.8671 23.7978C46.9295 24.7355 46.4027 26.0073 46.4027 27.3334V34H56.4027V27.3334ZM58.0693 34.5559L58.4027 35C58.4491 35.0619 58.4774 35.1355 58.4843 35.2126C58.4913 35.2897 58.4766 35.3671 58.442 35.4364C58.4074 35.5056 58.3542 35.5638 58.2884 35.6045C58.2226 35.6451 58.1467 35.6667 58.0693 35.6667H44.736C44.6586 35.6667 44.5828 35.6451 44.5169 35.6045C44.4511 35.5638 44.3979 35.5056 44.3633 35.4364C44.3287 35.3671 44.3141 35.2897 44.321 35.2126C44.328 35.1355 44.3562 35.0619 44.4027 35L44.736 34.5559V27.3334C44.736 25.5652 45.4384 23.8696 46.6886 22.6193C47.9389 21.3691 49.6346 20.6667 51.4027 20.6667C53.1708 20.6667 54.8665 21.3691 56.1167 22.6193C57.367 23.8696 58.0693 25.5652 58.0693 27.3334V34.5559ZM49.3193 36.5H53.486C53.486 37.0526 53.2665 37.5825 52.8758 37.9732C52.4851 38.3639 51.9552 38.5834 51.4027 38.5834C50.8501 38.5834 50.3202 38.3639 49.9295 37.9732C49.5388 37.5825 49.3193 37.0526 49.3193 36.5V36.5Z" fill="#9CA3AF"/>
<path d="M69.4023 19C69.4023 13.4772 73.8795 9 79.4023 9H307.402C312.925 9 317.402 13.4772 317.402 19V39C317.402 44.5228 312.925 49 307.402 49H79.4023C73.8795 49 69.4023 44.5228 69.4023 39V19Z" fill="white" fill-opacity="0.01"/>
<path d="M160.654 24.056C159.954 24.056 159.413 23.8927 159.03 23.566C158.648 23.2393 158.4 22.7213 158.288 22.012C158.055 22.3387 157.756 22.5953 157.392 22.782C157.038 22.9593 156.641 23.048 156.202 23.048C155.502 23.048 154.966 22.8613 154.592 22.488C154.219 22.1147 154.032 21.6153 154.032 20.99C154.032 20.6167 154.112 20.2573 154.27 19.912C154.438 19.5667 154.714 19.2447 155.096 18.946C155.479 18.6473 155.988 18.3813 156.622 18.148L158.134 17.574V16.958C158.134 16.8553 158.167 16.776 158.232 16.72C158.307 16.664 158.391 16.636 158.484 16.636H159.38C159.464 16.636 159.53 16.6687 159.576 16.734C159.632 16.79 159.66 16.86 159.66 16.944V20.906C159.66 21.4287 159.744 21.7787 159.912 21.956C160.08 22.124 160.388 22.208 160.836 22.208H161.312C161.378 22.208 161.424 22.2313 161.452 22.278C161.49 22.3247 161.508 22.3807 161.508 22.446V23.692C161.508 23.9347 161.373 24.056 161.102 24.056H160.654ZM156.636 21.494C156.935 21.494 157.196 21.4333 157.42 21.312C157.644 21.1813 157.822 21.004 157.952 20.78C158.083 20.556 158.148 20.318 158.148 20.066V19.002L156.958 19.394C156.52 19.5433 156.184 19.7253 155.95 19.94C155.726 20.1547 155.614 20.3927 155.614 20.654C155.614 20.9247 155.708 21.1347 155.894 21.284C156.081 21.424 156.328 21.494 156.636 21.494ZM158.036 15.488C157.99 15.544 157.929 15.572 157.854 15.572C157.78 15.572 157.71 15.5393 157.644 15.474L157.042 14.872C156.996 14.8067 156.968 14.7413 156.958 14.676C156.958 14.6013 156.986 14.5313 157.042 14.466L157.644 13.864C157.71 13.7987 157.78 13.766 157.854 13.766C157.929 13.766 157.99 13.7987 158.036 13.864L158.652 14.466C158.718 14.522 158.75 14.592 158.75 14.676C158.76 14.7507 158.732 14.8207 158.666 14.886L158.036 15.488ZM160.164 15.488C160.108 15.5533 160.043 15.5813 159.968 15.572C159.894 15.5627 159.828 15.53 159.772 15.474L159.142 14.872C159.086 14.816 159.058 14.7507 159.058 14.676C159.058 14.592 159.086 14.522 159.142 14.466L159.772 13.864C159.828 13.7987 159.889 13.766 159.954 13.766C160.02 13.766 160.085 13.7987 160.15 13.864L160.766 14.466C160.832 14.522 160.864 14.592 160.864 14.676C160.864 14.7507 160.832 14.8207 160.766 14.886L160.164 15.488ZM161.014 24.056C160.949 24.056 160.898 24.0327 160.86 23.986C160.823 23.9393 160.804 23.8833 160.804 23.818V22.6C160.804 22.3387 160.944 22.208 161.224 22.208H161.35C161.892 22.208 162.251 22.068 162.428 21.788C162.615 21.4987 162.69 21.0973 162.652 20.584C162.634 20.3413 162.596 20.0893 162.54 19.828C162.494 19.5667 162.447 19.3147 162.4 19.072C162.363 18.9133 162.368 18.8013 162.414 18.736C162.47 18.6707 162.55 18.6287 162.652 18.61L163.45 18.442C163.59 18.414 163.693 18.442 163.758 18.526C163.833 18.61 163.884 18.7173 163.912 18.848C163.95 18.988 163.987 19.156 164.024 19.352C164.062 19.548 164.094 19.758 164.122 19.982C164.16 20.1967 164.183 20.402 164.192 20.598C164.23 21.3167 164.15 21.9373 163.954 22.46C163.768 22.9733 163.436 23.37 162.96 23.65C162.484 23.93 161.836 24.0653 161.014 24.056ZM161.784 26.73C161.738 26.786 161.677 26.8093 161.602 26.8C161.528 26.8 161.462 26.772 161.406 26.716L160.804 26.128C160.758 26.072 160.734 26.0067 160.734 25.932C160.725 25.8573 160.748 25.792 160.804 25.736L161.406 25.148C161.462 25.092 161.523 25.064 161.588 25.064C161.663 25.064 161.728 25.092 161.784 25.148L162.372 25.736C162.428 25.792 162.456 25.8573 162.456 25.932C162.466 26.016 162.442 26.086 162.386 26.142L161.784 26.73ZM163.73 26.73C163.674 26.786 163.609 26.8093 163.534 26.8C163.469 26.8 163.408 26.772 163.352 26.716L162.736 26.128C162.69 26.072 162.662 26.0067 162.652 25.932C162.652 25.8573 162.68 25.792 162.736 25.736L163.352 25.148C163.408 25.092 163.469 25.064 163.534 25.064C163.6 25.064 163.66 25.092 163.716 25.148L164.304 25.736C164.36 25.792 164.388 25.8573 164.388 25.932C164.398 26.016 164.374 26.086 164.318 26.142L163.73 26.73ZM164.644 27.486C164.513 27.486 164.42 27.4487 164.364 27.374C164.298 27.3087 164.266 27.2153 164.266 27.094V26.156C164.266 26.0347 164.303 25.9413 164.378 25.876C164.452 25.82 164.555 25.792 164.686 25.792H165.134C165.75 25.792 166.24 25.6707 166.604 25.428C166.977 25.1853 167.243 24.8447 167.402 24.406C167.56 23.9767 167.64 23.468 167.64 22.88C167.64 22.4133 167.588 21.9513 167.486 21.494C167.392 21.0367 167.276 20.5607 167.136 20.066C167.098 19.8793 167.098 19.744 167.136 19.66C167.173 19.5667 167.266 19.5013 167.416 19.464L168.214 19.254C168.344 19.2167 168.447 19.226 168.522 19.282C168.596 19.3287 168.657 19.4547 168.704 19.66C168.844 20.2013 168.965 20.7753 169.068 21.382C169.18 21.9887 169.236 22.558 169.236 23.09C169.236 23.9207 169.091 24.6673 168.802 25.33C168.522 25.9927 168.088 26.5153 167.5 26.898C166.921 27.29 166.193 27.486 165.316 27.486H164.644ZM173.866 24.056H173.362C172.849 24.056 172.415 23.9673 172.06 23.79C171.706 23.6033 171.435 23.3047 171.248 22.894C171.062 22.4833 170.968 21.9373 170.968 21.256V13.836C170.968 13.7333 170.996 13.654 171.052 13.598C171.118 13.5327 171.211 13.5 171.332 13.5H172.186C172.298 13.5 172.378 13.5327 172.424 13.598C172.471 13.654 172.494 13.7287 172.494 13.822V20.752C172.494 21.1533 172.536 21.4613 172.62 21.676C172.714 21.8813 172.858 22.0213 173.054 22.096C173.25 22.1707 173.498 22.208 173.796 22.208H174.076C174.216 22.208 174.286 22.278 174.286 22.418V23.636C174.286 23.916 174.146 24.056 173.866 24.056ZM173.793 24.056C173.653 24.056 173.583 23.986 173.583 23.846V22.628C173.583 22.348 173.723 22.208 174.003 22.208H176.411C177.176 22.208 177.839 22.1287 178.399 21.97C178.968 21.8113 179.542 21.5547 180.121 21.2L181.479 20.346L182.361 20.864L180.485 22.348C180.149 22.6093 179.766 22.8753 179.337 23.146C178.917 23.4073 178.422 23.6267 177.853 23.804C177.283 23.972 176.607 24.056 175.823 24.056H173.793ZM183.775 24.056C183.261 24.056 182.799 23.986 182.389 23.846C181.987 23.6967 181.651 23.44 181.381 23.076C181.11 22.7027 180.928 22.194 180.835 21.55L181.773 20.682C181.773 21.046 181.81 21.3307 181.885 21.536C181.959 21.7413 182.067 21.8907 182.207 21.984C182.347 22.0773 182.515 22.138 182.711 22.166C182.916 22.194 183.145 22.208 183.397 22.208H184.419C184.493 22.208 184.545 22.236 184.573 22.292C184.61 22.3387 184.629 22.3947 184.629 22.46V23.678C184.629 23.8087 184.591 23.9067 184.517 23.972C184.442 24.028 184.339 24.056 184.209 24.056H183.775ZM182.053 21.088L181.941 21.06C181.446 21.06 181.021 21.018 180.667 20.934C180.312 20.8407 179.995 20.7287 179.715 20.598C179.435 20.4673 179.169 20.3367 178.917 20.206C178.674 20.0753 178.417 19.968 178.147 19.884C177.876 19.7907 177.573 19.744 177.237 19.744C176.957 19.744 176.728 19.7953 176.551 19.898C176.383 19.9913 176.247 20.108 176.145 20.248C176.061 20.36 175.986 20.4393 175.921 20.486C175.865 20.5233 175.762 20.542 175.613 20.542H175.053C174.791 20.542 174.661 20.43 174.661 20.206C174.661 19.9633 174.721 19.7207 174.843 19.478C174.964 19.2353 175.137 19.016 175.361 18.82C175.585 18.6147 175.855 18.4513 176.173 18.33C176.499 18.2087 176.863 18.148 177.265 18.148C177.675 18.148 178.039 18.1947 178.357 18.288C178.683 18.3813 178.991 18.498 179.281 18.638C179.57 18.7687 179.855 18.904 180.135 19.044C180.424 19.1747 180.737 19.2867 181.073 19.38C181.418 19.4733 181.81 19.52 182.249 19.52H182.879C183.019 19.52 183.107 19.548 183.145 19.604C183.191 19.66 183.215 19.758 183.215 19.898V20.724C183.215 20.836 183.182 20.9247 183.117 20.99C183.051 21.0553 182.958 21.088 182.837 21.088H182.053ZM180.359 25.918C180.303 25.9647 180.237 25.9833 180.163 25.974C180.088 25.974 180.018 25.9507 179.953 25.904L179.351 25.288C179.295 25.2413 179.267 25.176 179.267 25.092C179.267 25.0173 179.295 24.952 179.351 24.896L179.953 24.28C180.018 24.224 180.083 24.196 180.149 24.196C180.223 24.196 180.289 24.224 180.345 24.28L180.947 24.896C181.012 24.952 181.045 25.0173 181.045 25.092C181.054 25.176 181.026 25.246 180.961 25.302L180.359 25.918ZM184.141 24.056C184.001 24.056 183.931 23.9813 183.931 23.832V22.628C183.931 22.348 184.071 22.208 184.351 22.208H184.491C184.892 22.208 185.191 22.11 185.387 21.914C185.592 21.7087 185.695 21.3353 185.695 20.794V19.436C185.695 19.1933 185.807 19.072 186.031 19.072H186.871C187.095 19.072 187.207 19.1933 187.207 19.436V20.794C187.207 21.3447 187.328 21.718 187.571 21.914C187.813 22.11 188.168 22.208 188.635 22.208H188.831C188.971 22.208 189.041 22.278 189.041 22.418V23.636C189.041 23.916 188.901 24.056 188.621 24.056C188.145 24.056 187.701 23.9673 187.291 23.79C186.88 23.6127 186.549 23.2907 186.297 22.824C186.082 23.3093 185.779 23.636 185.387 23.804C184.995 23.972 184.579 24.056 184.141 24.056ZM185.569 17.756C185.522 17.812 185.461 17.84 185.387 17.84C185.312 17.84 185.242 17.8073 185.177 17.742L184.575 17.14C184.528 17.0747 184.5 17.0093 184.491 16.944C184.491 16.8693 184.519 16.7993 184.575 16.734L185.177 16.132C185.242 16.0667 185.312 16.034 185.387 16.034C185.461 16.034 185.522 16.0667 185.569 16.132L186.185 16.734C186.25 16.79 186.283 16.86 186.283 16.944C186.292 17.0187 186.264 17.0887 186.199 17.154L185.569 17.756ZM187.697 17.756C187.641 17.8213 187.575 17.8493 187.501 17.84C187.426 17.8307 187.361 17.798 187.305 17.742L186.675 17.14C186.619 17.084 186.591 17.0187 186.591 16.944C186.591 16.86 186.619 16.79 186.675 16.734L187.305 16.132C187.361 16.0667 187.421 16.034 187.487 16.034C187.552 16.034 187.617 16.0667 187.683 16.132L188.299 16.734C188.364 16.79 188.397 16.86 188.397 16.944C188.397 17.0187 188.364 17.0887 188.299 17.154L187.697 17.756ZM188.555 24.056C188.415 24.056 188.345 23.986 188.345 23.846V22.628C188.345 22.348 188.485 22.208 188.765 22.208C189.073 22.208 189.325 22.166 189.521 22.082C189.717 21.9887 189.857 21.83 189.941 21.606C190.034 21.3727 190.081 21.0413 190.081 20.612V13.822C190.081 13.7287 190.109 13.654 190.165 13.598C190.23 13.5327 190.31 13.5 190.403 13.5H191.285C191.388 13.5 191.467 13.5327 191.523 13.598C191.579 13.654 191.607 13.7287 191.607 13.822V20.542C191.607 21.1393 191.556 21.662 191.453 22.11C191.35 22.558 191.178 22.9267 190.935 23.216C190.702 23.5053 190.389 23.72 189.997 23.86C189.614 23.9907 189.134 24.056 188.555 24.056ZM194.459 24.07C194.366 24.07 194.287 24.042 194.221 23.986C194.165 23.9207 194.137 23.8413 194.137 23.748V13.822C194.137 13.7287 194.165 13.654 194.221 13.598C194.287 13.5327 194.366 13.5 194.459 13.5H195.341C195.444 13.5 195.523 13.5327 195.579 13.598C195.635 13.654 195.663 13.7287 195.663 13.822V23.748C195.663 23.8413 195.635 23.9207 195.579 23.986C195.523 24.042 195.444 24.07 195.341 24.07H194.459ZM204.67 25.988C203.858 25.988 203.158 25.8293 202.57 25.512C201.982 25.204 201.524 24.7607 201.198 24.182C200.88 23.6033 200.722 22.9267 200.722 22.152C200.722 21.8067 200.764 21.438 200.848 21.046C200.932 20.6447 201.03 20.304 201.142 20.024C201.226 19.8373 201.3 19.7113 201.366 19.646C201.44 19.5807 201.538 19.5667 201.66 19.604L202.332 19.786C202.5 19.8327 202.593 19.8933 202.612 19.968C202.64 20.0333 202.63 20.122 202.584 20.234C202.472 20.4953 202.388 20.78 202.332 21.088C202.285 21.3867 202.262 21.648 202.262 21.872C202.262 22.6 202.481 23.1693 202.92 23.58C203.368 23.9907 203.974 24.196 204.74 24.196C205.262 24.196 205.724 24.112 206.126 23.944C206.536 23.7667 206.854 23.4913 207.078 23.118C207.311 22.7353 207.423 22.236 207.414 21.62C207.414 21.3307 207.372 20.9993 207.288 20.626C207.204 20.2433 207.101 19.828 206.98 19.38C206.914 19.1467 207.003 18.9973 207.246 18.932L208.058 18.708C208.188 18.6707 208.291 18.6753 208.366 18.722C208.44 18.7593 208.501 18.8573 208.548 19.016C208.688 19.5013 208.804 19.9727 208.898 20.43C208.991 20.8873 209.038 21.354 209.038 21.83C209.038 22.4553 208.93 23.0247 208.716 23.538C208.51 24.042 208.212 24.476 207.82 24.84C207.428 25.2133 206.966 25.498 206.434 25.694C205.902 25.89 205.314 25.988 204.67 25.988ZM204.922 18.358C204.866 18.414 204.796 18.442 204.712 18.442C204.637 18.4327 204.572 18.4 204.516 18.344L203.886 17.714C203.83 17.6487 203.802 17.5787 203.802 17.504C203.802 17.4293 203.83 17.364 203.886 17.308L204.516 16.664C204.572 16.608 204.637 16.58 204.712 16.58C204.786 16.58 204.852 16.608 204.908 16.664L205.538 17.308C205.687 17.4573 205.692 17.5973 205.552 17.728L204.922 18.358ZM209.42 27.486C209.289 27.486 209.196 27.4487 209.14 27.374C209.074 27.3087 209.042 27.2153 209.042 27.094V26.156C209.042 26.0347 209.079 25.9413 209.154 25.876C209.228 25.82 209.331 25.792 209.462 25.792H209.91C210.526 25.792 211.016 25.6707 211.38 25.428C211.753 25.1853 212.019 24.8447 212.178 24.406C212.336 23.9767 212.416 23.468 212.416 22.88C212.416 22.4133 212.364 21.9513 212.262 21.494C212.168 21.0367 212.052 20.5607 211.912 20.066C211.874 19.8793 211.874 19.744 211.912 19.66C211.949 19.5667 212.042 19.5013 212.192 19.464L212.99 19.254C213.12 19.2167 213.223 19.226 213.298 19.282C213.372 19.3287 213.433 19.4547 213.48 19.66C213.62 20.2013 213.741 20.7753 213.844 21.382C213.956 21.9887 214.012 22.558 214.012 23.09C214.012 23.9207 213.867 24.6673 213.578 25.33C213.298 25.9927 212.864 26.5153 212.276 26.898C211.697 27.29 210.969 27.486 210.092 27.486H209.42ZM212.472 18.078C212.416 18.134 212.346 18.162 212.262 18.162C212.187 18.1527 212.122 18.12 212.066 18.064L211.436 17.434C211.38 17.3687 211.352 17.2987 211.352 17.224C211.352 17.1493 211.38 17.084 211.436 17.028L212.066 16.384C212.122 16.328 212.187 16.3 212.262 16.3C212.336 16.3 212.402 16.328 212.458 16.384L213.088 17.028C213.237 17.1773 213.242 17.3173 213.102 17.448L212.472 18.078ZM216.136 24.07C216.043 24.07 215.964 24.042 215.898 23.986C215.842 23.9207 215.814 23.8413 215.814 23.748V13.822C215.814 13.7287 215.842 13.654 215.898 13.598C215.964 13.5327 216.043 13.5 216.136 13.5H217.018C217.121 13.5 217.2 13.5327 217.256 13.598C217.312 13.654 217.34 13.7287 217.34 13.822V23.748C217.34 23.8413 217.312 23.9207 217.256 23.986C217.2 24.042 217.121 24.07 217.018 24.07H216.136ZM219.592 27.472C219.433 27.472 219.312 27.4393 219.228 27.374C219.144 27.3087 219.102 27.1827 219.102 26.996V26.114C219.102 25.9647 219.144 25.8573 219.228 25.792C219.312 25.7267 219.447 25.694 219.634 25.694H220.656C221.43 25.694 222.042 25.554 222.49 25.274C222.938 25.0033 223.25 24.5833 223.428 24.014C223.605 23.4447 223.67 22.7213 223.624 21.844L224.954 21.886C224.954 23.1367 224.795 24.1727 224.478 24.994C224.17 25.8247 223.689 26.4453 223.036 26.856C222.392 27.2667 221.556 27.472 220.53 27.472H219.592ZM223.582 21.872C223.535 21.312 223.362 20.8733 223.064 20.556C222.774 20.2387 222.42 20.08 222 20.08C221.729 20.08 221.5 20.136 221.314 20.248C221.127 20.3507 220.987 20.486 220.894 20.654C220.81 20.822 220.768 20.9993 220.768 21.186C220.768 21.4847 220.88 21.7133 221.104 21.872C221.328 22.0307 221.608 22.11 221.944 22.11C222.345 22.11 222.718 22.0447 223.064 21.914C223.409 21.774 223.647 21.62 223.778 21.452L223.932 22.852C223.736 23.132 223.442 23.3513 223.05 23.51C222.667 23.6687 222.233 23.7387 221.748 23.72C221.262 23.7013 220.847 23.58 220.502 23.356C220.166 23.132 219.904 22.8427 219.718 22.488C219.54 22.1333 219.452 21.7367 219.452 21.298C219.452 20.9153 219.512 20.5513 219.634 20.206C219.755 19.8607 219.928 19.5573 220.152 19.296C220.385 19.0253 220.67 18.8153 221.006 18.666C221.342 18.5073 221.72 18.428 222.14 18.428C222.69 18.428 223.176 18.568 223.596 18.848C224.016 19.1187 224.347 19.5153 224.59 20.038C224.832 20.5513 224.954 21.1673 224.954 21.886L223.582 21.872ZM236.018 24.056C235.318 24.056 234.777 23.8927 234.394 23.566C234.011 23.2393 233.764 22.7213 233.652 22.012C233.419 22.3387 233.12 22.5953 232.756 22.782C232.401 22.9593 232.005 23.048 231.566 23.048C230.866 23.048 230.329 22.8613 229.956 22.488C229.583 22.1147 229.396 21.6153 229.396 20.99C229.396 20.6167 229.475 20.2573 229.634 19.912C229.802 19.5667 230.077 19.2447 230.46 18.946C230.843 18.6473 231.351 18.3813 231.986 18.148L233.498 17.574V16.958C233.498 16.8553 233.531 16.776 233.596 16.72C233.671 16.664 233.755 16.636 233.848 16.636H234.744C234.828 16.636 234.893 16.6687 234.94 16.734C234.996 16.79 235.024 16.86 235.024 16.944V20.906C235.024 21.4287 235.108 21.7787 235.276 21.956C235.444 22.124 235.752 22.208 236.2 22.208H236.676C236.741 22.208 236.788 22.2313 236.816 22.278C236.853 22.3247 236.872 22.3807 236.872 22.446V23.692C236.872 23.9347 236.737 24.056 236.466 24.056H236.018ZM232 21.494C232.299 21.494 232.56 21.4333 232.784 21.312C233.008 21.1813 233.185 21.004 233.316 20.78C233.447 20.556 233.512 20.318 233.512 20.066V19.002L232.322 19.394C231.883 19.5433 231.547 19.7253 231.314 19.94C231.09 20.1547 230.978 20.3927 230.978 20.654C230.978 20.9247 231.071 21.1347 231.258 21.284C231.445 21.424 231.692 21.494 232 21.494ZM233.4 15.488C233.353 15.544 233.293 15.572 233.218 15.572C233.143 15.572 233.073 15.5393 233.008 15.474L232.406 14.872C232.359 14.8067 232.331 14.7413 232.322 14.676C232.322 14.6013 232.35 14.5313 232.406 14.466L233.008 13.864C233.073 13.7987 233.143 13.766 233.218 13.766C233.293 13.766 233.353 13.7987 233.4 13.864L234.016 14.466C234.081 14.522 234.114 14.592 234.114 14.676C234.123 14.7507 234.095 14.8207 234.03 14.886L233.4 15.488ZM235.528 15.488C235.472 15.5533 235.407 15.5813 235.332 15.572C235.257 15.5627 235.192 15.53 235.136 15.474L234.506 14.872C234.45 14.816 234.422 14.7507 234.422 14.676C234.422 14.592 234.45 14.522 234.506 14.466L235.136 13.864C235.192 13.7987 235.253 13.766 235.318 13.766C235.383 13.766 235.449 13.7987 235.514 13.864L236.13 14.466C236.195 14.522 236.228 14.592 236.228 14.676C236.228 14.7507 236.195 14.8207 236.13 14.886L235.528 15.488ZM236.378 24.056C236.238 24.056 236.168 23.986 236.168 23.846V22.628C236.168 22.348 236.308 22.208 236.588 22.208H239.766C240.186 22.208 240.494 22.1193 240.69 21.942C240.895 21.7553 240.998 21.5173 240.998 21.228C240.998 21.032 240.937 20.8593 240.816 20.71C240.695 20.5607 240.527 20.4067 240.312 20.248L237.372 18.078C237.241 17.9847 237.143 17.8867 237.078 17.784C237.022 17.672 236.994 17.5227 236.994 17.336V16.3C236.994 16.1133 237.022 15.978 237.078 15.894C237.143 15.8007 237.241 15.726 237.372 15.67L242.496 13.29C242.608 13.2433 242.697 13.2433 242.762 13.29C242.827 13.3367 242.86 13.4253 242.86 13.556L242.846 14.452C242.837 14.564 242.809 14.662 242.762 14.746C242.725 14.83 242.65 14.8953 242.538 14.942L238.296 16.902L240.858 18.876C241.25 19.1093 241.572 19.3427 241.824 19.576C242.076 19.8093 242.263 20.066 242.384 20.346C242.515 20.6167 242.58 20.9293 242.58 21.284C242.58 21.8813 242.44 22.3853 242.16 22.796C241.88 23.2067 241.502 23.5193 241.026 23.734C240.55 23.9487 240.018 24.056 239.43 24.056H236.378ZM242.797 27.486C242.666 27.486 242.573 27.4487 242.517 27.374C242.451 27.3087 242.419 27.2153 242.419 27.094V26.156C242.419 26.0347 242.456 25.9413 242.531 25.876C242.605 25.82 242.708 25.792 242.839 25.792H243.231C244.145 25.792 244.803 25.5493 245.205 25.064C245.615 24.5787 245.821 23.9067 245.821 23.048C245.821 22.7307 245.793 22.404 245.737 22.068C245.681 21.7227 245.611 21.382 245.527 21.046L245.275 19.94C245.247 19.8093 245.256 19.7067 245.303 19.632C245.349 19.548 245.447 19.4873 245.597 19.45L246.353 19.268C246.474 19.24 246.563 19.24 246.619 19.268C246.675 19.296 246.717 19.3427 246.745 19.408C246.773 19.464 246.796 19.5293 246.815 19.604L247.207 21.186C247.272 21.4567 247.379 21.6667 247.529 21.816C247.678 21.9653 247.855 22.068 248.061 22.124C248.266 22.18 248.485 22.208 248.719 22.208H248.985C249.143 22.208 249.223 22.278 249.223 22.418V23.636C249.223 23.916 249.083 24.056 248.803 24.056C248.429 24.056 248.093 24.014 247.795 23.93C247.505 23.846 247.319 23.7387 247.235 23.608C247.216 24.112 247.132 24.5973 246.983 25.064C246.833 25.5307 246.605 25.946 246.297 26.31C245.989 26.674 245.592 26.9587 245.107 27.164C244.621 27.3787 244.033 27.486 243.343 27.486H242.797ZM253.032 24.098C252.621 24.098 252.215 24.0187 251.814 23.86C251.422 23.692 251.123 23.3887 250.918 22.95C250.703 23.3793 250.395 23.6733 249.994 23.832C249.602 23.9813 249.182 24.056 248.734 24.056C248.594 24.056 248.524 23.9813 248.524 23.832V22.628C248.524 22.348 248.664 22.208 248.944 22.208C249.467 22.208 249.835 22.1193 250.05 21.942C250.265 21.7553 250.372 21.4193 250.372 20.934V19.884C250.372 19.772 250.4 19.6833 250.456 19.618C250.512 19.5527 250.596 19.52 250.708 19.52H251.562C251.777 19.52 251.884 19.6367 251.884 19.87V20.948C251.884 21.396 251.982 21.7227 252.178 21.928C252.383 22.1333 252.71 22.236 253.158 22.236C253.606 22.236 253.905 22.124 254.054 21.9C254.203 21.6667 254.278 21.34 254.278 20.92V19.898C254.278 19.786 254.306 19.6973 254.362 19.632C254.418 19.5573 254.502 19.52 254.614 19.52H255.454C255.566 19.52 255.65 19.5573 255.706 19.632C255.762 19.6973 255.79 19.786 255.79 19.898V20.976C255.79 21.424 255.888 21.7507 256.084 21.956C256.289 22.152 256.602 22.25 257.022 22.25C257.395 22.25 257.671 22.1473 257.848 21.942C258.025 21.7367 258.114 21.4567 258.114 21.102C258.114 20.9993 258.105 20.892 258.086 20.78C258.077 20.668 258.058 20.556 258.03 20.444L257.75 19.366C257.722 19.254 257.722 19.1607 257.75 19.086C257.787 19.0113 257.862 18.96 257.974 18.932L258.828 18.708C258.959 18.68 259.052 18.694 259.108 18.75C259.164 18.806 259.206 18.8947 259.234 19.016L259.472 20.01C259.528 20.262 259.57 20.5047 259.598 20.738C259.635 20.9713 259.654 21.186 259.654 21.382C259.654 21.9233 259.551 22.3993 259.346 22.81C259.15 23.2207 258.856 23.538 258.464 23.762C258.072 23.986 257.582 24.098 256.994 24.098C256.546 24.098 256.135 24.0233 255.762 23.874C255.398 23.7247 255.109 23.4773 254.894 23.132C254.782 23.3747 254.623 23.566 254.418 23.706C254.222 23.846 254.003 23.944 253.76 24C253.517 24.0653 253.275 24.098 253.032 24.098ZM255.202 16.188C255.146 16.2347 255.085 16.258 255.02 16.258C254.955 16.2487 254.889 16.2207 254.824 16.174L254.25 15.586C254.129 15.4647 254.129 15.3433 254.25 15.222L254.824 14.634C254.945 14.522 255.067 14.522 255.188 14.634L255.762 15.222C255.893 15.3527 255.897 15.4787 255.776 15.6L255.202 16.188ZM254.152 18.064C254.105 18.12 254.045 18.148 253.97 18.148C253.895 18.148 253.825 18.1153 253.76 18.05L253.158 17.448C253.102 17.3827 253.074 17.3173 253.074 17.252C253.074 17.1773 253.102 17.1073 253.158 17.042L253.76 16.44C253.891 16.3 254.021 16.3 254.152 16.44L254.768 17.042C254.833 17.098 254.866 17.168 254.866 17.252C254.875 17.3267 254.847 17.3967 254.782 17.462L254.152 18.064ZM256.28 18.064C256.224 18.1293 256.159 18.1573 256.084 18.148C256.009 18.1387 255.944 18.106 255.888 18.05L255.258 17.448C255.202 17.392 255.174 17.3267 255.174 17.252C255.174 17.168 255.202 17.098 255.258 17.042L255.888 16.44C256.019 16.3093 256.145 16.3093 256.266 16.44L256.882 17.042C256.938 17.098 256.966 17.168 256.966 17.252C256.975 17.3267 256.947 17.3967 256.882 17.462L256.28 18.064Z" fill="#030712"/>
<path d="M207.402 37C207.402 34.7909 209.193 33 211.402 33H257.402C259.611 33 261.402 34.7909 261.402 37V45C261.402 47.2091 259.611 49 257.402 49H211.402C209.193 49 207.402 47.2091 207.402 45V37Z" fill="#F3E8FF"/>
<path d="M217.802 45.048C217.202 45.048 216.738 44.908 216.41 44.628C216.082 44.348 215.87 43.904 215.774 43.296C215.574 43.576 215.318 43.796 215.006 43.956C214.702 44.108 214.362 44.184 213.986 44.184C213.386 44.184 212.926 44.024 212.606 43.704C212.286 43.384 212.126 42.956 212.126 42.42C212.126 42.1 212.194 41.792 212.33 41.496C212.474 41.2 212.71 40.924 213.038 40.668C213.366 40.412 213.802 40.184 214.346 39.984L215.642 39.492V38.964C215.642 38.876 215.67 38.808 215.726 38.76C215.79 38.712 215.862 38.688 215.942 38.688H216.71C216.782 38.688 216.838 38.716 216.878 38.772C216.926 38.82 216.95 38.88 216.95 38.952V42.348C216.95 42.796 217.022 43.096 217.166 43.248C217.31 43.392 217.574 43.464 217.958 43.464H218.366C218.422 43.464 218.462 43.484 218.486 43.524C218.518 43.564 218.534 43.612 218.534 43.668V44.736C218.534 44.944 218.418 45.048 218.186 45.048H217.802ZM214.358 42.852C214.614 42.852 214.838 42.8 215.03 42.696C215.222 42.584 215.374 42.432 215.486 42.24C215.598 42.048 215.654 41.844 215.654 41.628V40.716L214.634 41.052C214.258 41.18 213.97 41.336 213.77 41.52C213.578 41.704 213.482 41.908 213.482 42.132C213.482 42.364 213.562 42.544 213.722 42.672C213.882 42.792 214.094 42.852 214.358 42.852ZM215.558 37.704C215.518 37.752 215.466 37.776 215.402 37.776C215.338 37.776 215.278 37.748 215.222 37.692L214.706 37.176C214.666 37.12 214.642 37.064 214.634 37.008C214.634 36.944 214.658 36.884 214.706 36.828L215.222 36.312C215.278 36.256 215.338 36.228 215.402 36.228C215.466 36.228 215.518 36.256 215.558 36.312L216.086 36.828C216.142 36.876 216.17 36.936 216.17 37.008C216.178 37.072 216.154 37.132 216.098 37.188L215.558 37.704ZM217.382 37.704C217.334 37.76 217.278 37.784 217.214 37.776C217.15 37.768 217.094 37.74 217.046 37.692L216.506 37.176C216.458 37.128 216.434 37.072 216.434 37.008C216.434 36.936 216.458 36.876 216.506 36.828L217.046 36.312C217.094 36.256 217.146 36.228 217.202 36.228C217.258 36.228 217.314 36.256 217.37 36.312L217.898 36.828C217.954 36.876 217.982 36.936 217.982 37.008C217.982 37.072 217.954 37.132 217.898 37.188L217.382 37.704ZM222.466 45.096C222.266 45.096 222.082 45.08 221.914 45.048C221.746 45.024 221.57 44.98 221.386 44.916C221.21 44.852 221.006 44.76 220.774 44.64C220.542 44.52 220.254 44.368 219.91 44.184C219.734 44.424 219.546 44.608 219.346 44.736C219.154 44.856 218.958 44.94 218.758 44.988C218.566 45.028 218.37 45.048 218.17 45.048C218.05 45.048 217.99 44.988 217.99 44.868V43.824C217.99 43.584 218.11 43.464 218.35 43.464C218.51 43.464 218.65 43.444 218.77 43.404C218.898 43.356 219.026 43.26 219.154 43.116C219.29 42.964 219.446 42.732 219.622 42.42C219.934 41.892 220.23 41.488 220.51 41.208C220.79 40.92 221.07 40.72 221.35 40.608C221.63 40.496 221.914 40.44 222.202 40.44C222.602 40.44 222.97 40.544 223.306 40.752C223.65 40.96 223.922 41.248 224.122 41.616C224.33 41.984 224.434 42.424 224.434 42.936C224.434 43.248 224.39 43.536 224.302 43.8C224.214 44.064 224.086 44.296 223.918 44.496C223.75 44.696 223.542 44.848 223.294 44.952C223.054 45.056 222.778 45.104 222.466 45.096ZM222.502 43.692C222.686 43.7 222.838 43.648 222.958 43.536C223.086 43.424 223.15 43.228 223.15 42.948C223.158 42.708 223.11 42.504 223.006 42.336C222.91 42.16 222.778 42.024 222.61 41.928C222.45 41.824 222.274 41.772 222.082 41.772C221.93 41.772 221.782 41.804 221.638 41.868C221.494 41.932 221.342 42.052 221.182 42.228C221.03 42.396 220.85 42.648 220.642 42.984C221.002 43.184 221.286 43.336 221.494 43.44C221.71 43.544 221.894 43.612 222.046 43.644C222.198 43.676 222.35 43.692 222.502 43.692ZM227.643 45.048C226.979 45.048 226.487 44.864 226.167 44.496C225.855 44.12 225.699 43.612 225.699 42.972V42.648C225.699 42.528 225.723 42.44 225.771 42.384C225.827 42.32 225.923 42.288 226.059 42.288H226.671C226.759 42.288 226.827 42.316 226.875 42.372C226.923 42.42 226.947 42.496 226.947 42.6V42.912C226.947 43.096 227.007 43.236 227.127 43.332C227.247 43.42 227.407 43.464 227.607 43.464H228.711C229.071 43.464 229.347 43.412 229.539 43.308C229.731 43.204 229.827 43.016 229.827 42.744C229.827 42.656 229.815 42.564 229.791 42.468C229.767 42.364 229.727 42.244 229.671 42.108L228.783 39.756C228.735 39.62 228.715 39.508 228.723 39.42C228.739 39.324 228.803 39.252 228.915 39.204L229.587 38.94C229.707 38.892 229.803 38.888 229.875 38.928C229.955 38.968 230.019 39.044 230.067 39.156L231.171 42.06C231.323 42.46 231.459 42.76 231.579 42.96C231.707 43.16 231.847 43.296 231.999 43.368C232.159 43.432 232.359 43.464 232.599 43.464C232.719 43.464 232.779 43.524 232.779 43.644V44.688C232.779 44.928 232.659 45.048 232.419 45.048C232.091 45.048 231.751 44.964 231.399 44.796C231.047 44.628 230.747 44.312 230.499 43.848C230.395 44.224 230.175 44.52 229.839 44.736C229.511 44.944 229.059 45.048 228.483 45.048H227.643ZM232.444 45.048C232.308 45.048 232.24 44.976 232.24 44.832V43.764C232.24 43.668 232.268 43.596 232.324 43.548C232.38 43.492 232.456 43.464 232.552 43.464C232.832 43.464 233.088 43.46 233.32 43.452C233.552 43.444 233.756 43.432 233.932 43.416C234.108 43.392 234.256 43.368 234.376 43.344C234.232 43.208 234.092 43.06 233.956 42.9C233.82 42.732 233.708 42.548 233.62 42.348C233.54 42.14 233.5 41.912 233.5 41.664C233.5 41.232 233.604 40.852 233.812 40.524C234.02 40.188 234.3 39.924 234.652 39.732C235.012 39.54 235.412 39.444 235.852 39.444C236.276 39.444 236.652 39.54 236.98 39.732C237.308 39.924 237.568 40.188 237.76 40.524C237.952 40.852 238.048 41.216 238.048 41.616C238.048 41.96 237.972 42.272 237.82 42.552C237.668 42.824 237.444 43.092 237.148 43.356C237.364 43.388 237.552 43.412 237.712 43.428C237.88 43.444 238.072 43.456 238.288 43.464C238.504 43.464 238.788 43.464 239.14 43.464C239.196 43.464 239.244 43.484 239.284 43.524C239.324 43.556 239.344 43.604 239.344 43.668V44.64C239.344 44.912 239.204 45.048 238.924 45.048C238.476 45.048 238.1 45.04 237.796 45.024C237.5 45.008 237.24 44.98 237.016 44.94C236.792 44.892 236.576 44.832 236.368 44.76C236.168 44.688 235.944 44.592 235.696 44.472C235.496 44.584 235.304 44.68 235.12 44.76C234.944 44.832 234.74 44.888 234.508 44.928C234.284 44.968 234.008 44.996 233.68 45.012C233.36 45.036 232.948 45.048 232.444 45.048ZM235.804 42.996C236.132 42.812 236.38 42.612 236.548 42.396C236.716 42.172 236.8 41.948 236.8 41.724C236.8 41.436 236.712 41.204 236.536 41.028C236.36 40.844 236.12 40.752 235.816 40.752C235.536 40.752 235.292 40.836 235.084 41.004C234.884 41.172 234.784 41.4 234.784 41.688C234.784 41.968 234.876 42.208 235.06 42.408C235.244 42.608 235.492 42.804 235.804 42.996ZM235.12 38.316C235.08 38.364 235.028 38.388 234.964 38.388C234.9 38.388 234.84 38.36 234.784 38.304L234.268 37.788C234.228 37.732 234.204 37.676 234.196 37.62C234.196 37.556 234.22 37.496 234.268 37.44L234.784 36.924C234.84 36.868 234.9 36.84 234.964 36.84C235.028 36.84 235.08 36.868 235.12 36.924L235.648 37.44C235.704 37.488 235.732 37.548 235.732 37.62C235.74 37.684 235.716 37.744 235.66 37.8L235.12 38.316ZM236.944 38.316C236.896 38.372 236.84 38.396 236.776 38.388C236.712 38.38 236.656 38.352 236.608 38.304L236.068 37.788C236.02 37.74 235.996 37.684 235.996 37.62C235.996 37.548 236.02 37.488 236.068 37.44L236.608 36.924C236.656 36.868 236.708 36.84 236.764 36.84C236.82 36.84 236.876 36.868 236.932 36.924L237.46 37.44C237.516 37.488 237.544 37.548 237.544 37.62C237.544 37.684 237.516 37.744 237.46 37.8L236.944 38.316ZM238.983 45.048C238.863 45.048 238.803 44.984 238.803 44.856V43.824C238.803 43.584 238.923 43.464 239.163 43.464H239.283C239.627 43.464 239.883 43.38 240.051 43.212C240.227 43.036 240.315 42.716 240.315 42.252V41.088C240.315 40.88 240.411 40.776 240.603 40.776H241.323C241.515 40.776 241.611 40.88 241.611 41.088V42.252C241.611 42.724 241.715 43.044 241.923 43.212C242.131 43.38 242.435 43.464 242.835 43.464H243.003C243.123 43.464 243.183 43.524 243.183 43.644V44.688C243.183 44.928 243.063 45.048 242.823 45.048C242.415 45.048 242.035 44.972 241.683 44.82C241.331 44.668 241.047 44.392 240.831 43.992C240.647 44.408 240.387 44.688 240.051 44.832C239.715 44.976 239.359 45.048 238.983 45.048ZM240.207 39.648C240.167 39.696 240.115 39.72 240.051 39.72C239.987 39.72 239.927 39.692 239.871 39.636L239.355 39.12C239.315 39.064 239.291 39.008 239.283 38.952C239.283 38.888 239.307 38.828 239.355 38.772L239.871 38.256C239.927 38.2 239.987 38.172 240.051 38.172C240.115 38.172 240.167 38.2 240.207 38.256L240.735 38.772C240.791 38.82 240.819 38.88 240.819 38.952C240.827 39.016 240.803 39.076 240.747 39.132L240.207 39.648ZM242.031 39.648C241.983 39.704 241.927 39.728 241.863 39.72C241.799 39.712 241.743 39.684 241.695 39.636L241.155 39.12C241.107 39.072 241.083 39.016 241.083 38.952C241.083 38.88 241.107 38.82 241.155 38.772L241.695 38.256C241.743 38.2 241.795 38.172 241.851 38.172C241.907 38.172 241.963 38.2 242.019 38.256L242.547 38.772C242.603 38.82 242.631 38.88 242.631 38.952C242.631 39.016 242.603 39.076 242.547 39.132L242.031 39.648ZM246.835 45.132C246.643 45.132 246.459 45.116 246.283 45.084C246.107 45.052 245.927 45 245.743 44.928C245.559 44.856 245.355 44.764 245.131 44.652C244.915 44.532 244.663 44.384 244.375 44.208C244.223 44.432 244.059 44.608 243.883 44.736C243.715 44.856 243.539 44.94 243.355 44.988C243.179 45.028 243.003 45.048 242.827 45.048C242.707 45.048 242.647 44.988 242.647 44.868V43.824C242.647 43.584 242.767 43.464 243.007 43.464C243.143 43.464 243.259 43.44 243.355 43.392C243.451 43.344 243.551 43.252 243.655 43.116C243.767 42.98 243.895 42.772 244.039 42.492C244.319 41.948 244.595 41.532 244.867 41.244C245.147 40.948 245.427 40.744 245.707 40.632C245.987 40.512 246.267 40.452 246.547 40.452C246.859 40.452 247.155 40.508 247.435 40.62C247.715 40.732 247.967 40.924 248.191 41.196C248.423 41.468 248.631 41.848 248.815 42.336C248.935 42.64 249.051 42.876 249.163 43.044C249.275 43.204 249.403 43.316 249.547 43.38C249.699 43.436 249.887 43.464 250.111 43.464C250.231 43.464 250.291 43.524 250.291 43.644V44.688C250.291 44.928 250.171 45.048 249.931 45.048C249.627 45.048 249.355 44.988 249.115 44.868C248.883 44.74 248.671 44.524 248.479 44.22C248.319 44.54 248.087 44.772 247.783 44.916C247.487 45.06 247.171 45.132 246.835 45.132ZM246.871 43.704C247.071 43.704 247.243 43.652 247.387 43.548C247.531 43.436 247.607 43.248 247.615 42.984C247.623 42.768 247.575 42.564 247.471 42.372C247.367 42.18 247.231 42.024 247.063 41.904C246.895 41.784 246.715 41.724 246.523 41.724C246.371 41.724 246.219 41.76 246.067 41.832C245.923 41.896 245.771 42.02 245.611 42.204C245.451 42.388 245.263 42.652 245.047 42.996C245.407 43.188 245.691 43.336 245.899 43.44C246.107 43.536 246.279 43.604 246.415 43.644C246.559 43.684 246.711 43.704 246.871 43.704ZM249.928 45.048C249.808 45.048 249.748 44.988 249.748 44.868V43.824C249.748 43.584 249.868 43.464 250.108 43.464C250.372 43.464 250.588 43.428 250.756 43.356C250.924 43.276 251.044 43.14 251.116 42.948C251.196 42.748 251.236 42.464 251.236 42.096V36.276C251.236 36.196 251.26 36.132 251.308 36.084C251.364 36.028 251.432 36 251.512 36H252.268C252.356 36 252.424 36.028 252.472 36.084C252.52 36.132 252.544 36.196 252.544 36.276V42.036C252.544 42.548 252.5 42.996 252.412 43.38C252.324 43.764 252.176 44.08 251.968 44.328C251.768 44.576 251.5 44.76 251.164 44.88C250.836 44.992 250.424 45.048 249.928 45.048ZM255.049 45.06C254.969 45.06 254.901 45.036 254.845 44.988C254.797 44.932 254.773 44.864 254.773 44.784V36.276C254.773 36.196 254.797 36.132 254.845 36.084C254.901 36.028 254.969 36 255.049 36H255.805C255.893 36 255.961 36.028 256.009 36.084C256.057 36.132 256.081 36.196 256.081 36.276V44.784C256.081 44.864 256.057 44.932 256.009 44.988C255.961 45.036 255.893 45.06 255.805 45.06H255.049Z" fill="#7E22CE"/>
<rect x="269.402" y="9" width="40" height="40" rx="20" fill="#F3F4F6"/>
<path d="M277.402 25.7892C277.412 23.6648 279.061 22.1003 281.07 22.2368C281.988 22.3003 282.781 22.6885 283.366 23.4013C284.609 24.9093 285.823 26.4385 287.044 27.963C288.476 29.751 289.904 31.5437 291.34 33.3293C291.827 33.9363 292.558 34.1386 293.222 33.8751C293.906 33.6022 294.325 32.9599 294.283 32.2212C294.262 31.8777 294.144 31.5672 293.923 31.2943C292.205 29.1487 290.483 27.0055 288.785 24.8458C288.335 24.2718 287.813 23.9448 287.077 24.0483C286.902 24.0718 286.731 24.1495 286.571 24.2271C286.415 24.3 286.305 24.2977 286.192 24.1495C285.936 23.813 285.672 23.4813 285.399 23.1567C285.272 23.0061 285.289 22.9167 285.449 22.8061C286.862 21.8345 288.874 22.1215 289.961 23.4696C290.808 24.5188 291.645 25.5728 292.478 26.6362C292.634 26.8361 292.718 26.8149 292.862 26.6314C293.692 25.5798 294.525 24.5282 295.37 23.486C296.81 21.7145 299.52 21.8345 300.807 23.726C301.682 25.0129 301.607 26.702 300.487 28.0665C298.767 30.165 297.085 32.2941 295.405 34.4256C294.033 36.1665 291.462 36.23 290.032 34.5362C289.836 34.3056 289.641 34.0727 289.462 33.828C289.34 33.6586 289.276 33.6586 289.182 33.8492C288.709 34.7879 287.975 35.4278 286.945 35.6654C285.507 35.9948 284.319 35.5525 283.399 34.4068C281.922 32.567 280.447 30.725 278.986 28.8735C278.543 28.3136 278.115 27.7372 277.739 27.1302C277.475 26.702 277.398 26.1915 277.405 25.7892H277.402ZM280.835 24.0248C280.186 24.0365 279.68 24.3141 279.379 24.8905C279.009 25.601 279.16 26.2503 279.652 26.8573C280.635 28.0736 281.609 29.2969 282.585 30.5203C283.345 31.4731 284.1 32.4282 284.863 33.3787C285.312 33.9386 286.117 34.1362 286.764 33.8563C287.432 33.5669 287.848 32.8164 287.754 32.1083C287.691 31.6237 287.394 31.2755 287.112 30.9179C285.472 28.857 283.825 26.7985 282.181 24.74C281.837 24.3094 281.416 24.0154 280.835 24.0224V24.0248ZM295.883 30.9508C295.927 30.9014 295.991 30.8332 296.047 30.7603C297.073 29.4781 298.094 28.1912 299.125 26.9138C299.583 26.3468 299.788 25.7375 299.503 25.0387C299.026 23.8601 297.518 23.6672 296.685 24.6764C296.332 25.1023 295.996 25.5422 295.652 25.9751C295.092 26.6761 294.535 27.3819 293.968 28.0759C293.838 28.2336 293.833 28.3559 293.968 28.5041C294.09 28.6382 294.2 28.7817 294.311 28.9252C294.829 29.591 295.344 30.2591 295.878 30.9508H295.883Z" fill="#4B5563"/>
<g filter="url(#filter1_b_4557_16639)">
<path d="M5.40234 65C5.40234 60.5817 8.98407 57 13.4023 57H317.402C321.821 57 325.402 60.5817 325.402 65V233C325.402 237.418 321.821 241 317.402 241H13.4023C8.98406 241 5.40234 237.418 5.40234 233V65Z" fill="white"/>
<g clip-path="url(#clip1_4557_16639)">
<rect x="137.402" y="76" width="144" height="14" rx="4" fill="#E5E7EB"/>
</g>
<path d="M307.443 89.5625C306.253 87.5055 304.42 86.0305 302.28 85.3312C303.338 84.7011 304.161 83.741 304.621 82.5983C305.08 81.4555 305.153 80.1934 304.826 79.0057C304.499 77.818 303.791 76.7705 302.812 76.0238C301.832 75.2772 300.634 74.8729 299.402 74.8729C298.171 74.8729 296.973 75.2772 295.993 76.0238C295.013 76.7705 294.306 77.818 293.979 79.0057C293.652 80.1934 293.724 81.4555 294.184 82.5983C294.644 83.741 295.467 84.7011 296.525 85.3312C294.385 86.0297 292.552 87.5047 291.362 89.5625C291.318 89.6336 291.289 89.7128 291.277 89.7953C291.264 89.8778 291.268 89.962 291.289 90.0429C291.309 90.1238 291.346 90.1998 291.396 90.2663C291.446 90.3329 291.51 90.3887 291.582 90.4304C291.654 90.4722 291.734 90.499 291.817 90.5094C291.9 90.5198 291.984 90.5134 292.064 90.4908C292.144 90.4682 292.219 90.4296 292.285 90.3776C292.35 90.3255 292.404 90.2608 292.444 90.1875C293.916 87.6437 296.517 86.125 299.402 86.125C302.288 86.125 304.889 87.6437 306.361 90.1875C306.401 90.2608 306.455 90.3255 306.52 90.3776C306.585 90.4296 306.66 90.4682 306.741 90.4908C306.821 90.5134 306.905 90.5198 306.988 90.5094C307.071 90.499 307.151 90.4722 307.223 90.4304C307.295 90.3887 307.358 90.3329 307.409 90.2663C307.459 90.1998 307.496 90.1238 307.516 90.0429C307.537 89.962 307.541 89.8778 307.528 89.7953C307.516 89.7128 307.487 89.6336 307.443 89.5625ZM295.027 80.5C295.027 79.6347 295.284 78.7888 295.765 78.0694C296.245 77.3499 296.929 76.7891 297.728 76.458C298.528 76.1269 299.407 76.0402 300.256 76.2091C301.105 76.3779 301.884 76.7945 302.496 77.4064C303.108 78.0183 303.524 78.7978 303.693 79.6465C303.862 80.4951 303.775 81.3748 303.444 82.1742C303.113 82.9737 302.552 83.6569 301.833 84.1377C301.114 84.6184 300.268 84.875 299.402 84.875C298.242 84.8737 297.13 84.4124 296.31 83.5922C295.49 82.772 295.029 81.6599 295.027 80.5Z" fill="#030712"/>
<g clip-path="url(#clip2_4557_16639)">
<g opacity="0.6">
<rect x="137.402" y="120" width="144" height="14" rx="4" fill="#E5E7EB"/>
</g>
</g>
<path d="M306.775 129.38L303.095 127.73L303.084 127.726C302.893 127.644 302.685 127.611 302.478 127.63C302.271 127.649 302.072 127.72 301.899 127.835C301.879 127.849 301.859 127.863 301.841 127.879L299.939 129.5C298.734 128.915 297.491 127.68 296.905 126.491L298.529 124.561C298.545 124.541 298.559 124.522 298.573 124.501C298.686 124.328 298.755 124.131 298.773 123.925C298.791 123.72 298.758 123.514 298.677 123.324V123.315L297.023 119.628C296.915 119.381 296.731 119.175 296.497 119.041C296.263 118.906 295.992 118.852 295.724 118.884C294.666 119.024 293.694 119.544 292.991 120.347C292.287 121.15 291.9 122.182 291.902 123.25C291.902 129.453 296.949 134.5 303.152 134.5C304.22 134.502 305.252 134.115 306.055 133.412C306.859 132.708 307.379 131.737 307.518 130.678C307.551 130.411 307.496 130.14 307.362 129.906C307.228 129.672 307.022 129.487 306.775 129.38ZM303.152 133.25C300.501 133.247 297.959 132.193 296.084 130.318C294.21 128.443 293.155 125.901 293.152 123.25C293.149 122.487 293.424 121.749 293.926 121.174C294.427 120.599 295.12 120.226 295.877 120.125C295.876 120.128 295.876 120.131 295.877 120.134L297.517 123.806L295.902 125.739C295.886 125.758 295.871 125.778 295.858 125.799C295.74 125.98 295.671 126.187 295.658 126.402C295.644 126.617 295.686 126.832 295.78 127.026C296.488 128.473 297.946 129.921 299.409 130.628C299.605 130.721 299.821 130.762 300.036 130.746C300.252 130.73 300.46 130.659 300.64 130.539C300.66 130.526 300.679 130.511 300.698 130.495L302.597 128.875L306.269 130.52C306.269 130.52 306.275 130.52 306.277 130.52C306.177 131.277 305.805 131.972 305.23 132.474C304.655 132.977 303.916 133.253 303.152 133.25Z" fill="#030712"/>
</g>
</g>
</g>
<defs>
<filter id="filter0_dd_4557_16639" x="0.402344" y="0" width="330" height="154" filterUnits="userSpaceOnUse" color-interpolation-filters="sRGB">
<feFlood flood-opacity="0" result="BackgroundImageFix"/>
<feColorMatrix in="SourceAlpha" type="matrix" values="0 0 0 0 0 0 0 0 0 0 0 0 0 0 0 0 0 0 127 0" result="hardAlpha"/>
<feMorphology radius="1" operator="erode" in="SourceAlpha" result="effect1_dropShadow_4557_16639"/>
<feOffset dy="2"/>
<feGaussianBlur stdDeviation="2"/>
<feColorMatrix type="matrix" values="0 0 0 0 0 0 0 0 0 0 0 0 0 0 0 0 0 0 0.06 0"/>
<feBlend mode="normal" in2="BackgroundImageFix" result="effect1_dropShadow_4557_16639"/>
<feColorMatrix in="SourceAlpha" type="matrix" values="0 0 0 0 0 0 0 0 0 0 0 0 0 0 0 0 0 0 127 0" result="hardAlpha"/>
<feMorphology radius="1" operator="erode" in="SourceAlpha" result="effect2_dropShadow_4557_16639"/>
<feOffset dy="4"/>
<feGaussianBlur stdDeviation="3"/>
<feColorMatrix type="matrix" values="0 0 0 0 0 0 0 0 0 0 0 0 0 0 0 0 0 0 0.1 0"/>
<feBlend mode="normal" in2="effect1_dropShadow_4557_16639" result="effect2_dropShadow_4557_16639"/>
<feBlend mode="normal" in="SourceGraphic" in2="effect2_dropShadow_4557_16639" result="shape"/>
</filter>
<filter id="filter1_b_4557_16639" x="-18.5977" y="33" width="368" height="232" filterUnits="userSpaceOnUse" color-interpolation-filters="sRGB">
<feFlood flood-opacity="0" result="BackgroundImageFix"/>
<feGaussianBlur in="BackgroundImageFix" stdDeviation="12"/>
<feComposite in2="SourceAlpha" operator="in" result="effect1_backgroundBlur_4557_16639"/>
<feBlend mode="normal" in="SourceGraphic" in2="effect1_backgroundBlur_4557_16639" result="shape"/>
</filter>
<clipPath id="clip0_4557_16639">
<rect x="5.40234" y="1" width="320" height="144" rx="8" fill="white"/>
</clipPath>
<clipPath id="clip1_4557_16639">
<rect width="260" height="14" fill="white" transform="translate(21.4023 76)"/>
</clipPath>
<clipPath id="clip2_4557_16639">
<rect width="260" height="14" fill="white" transform="translate(21.4023 120)"/>
</clipPath>
</defs>
</svg>
